<?xml version="1.0" standalone="no"?>
<!DOCTYPE svg PUBLIC "-//W3C//DTD SVG 1.1//EN" "http://www.w3.org/Graphics/SVG/1.1/DTD/svg11.dtd" >
<svg xmlns="http://www.w3.org/2000/svg">
<metadata></metadata>
<defs>
<font id="pdotbetathin" horiz-adv-x="475" >
<font-face units-per-em="1000" ascent="750" descent="-250" />
<missing-glyph horiz-adv-x="230" />
<glyph unicode=" "  horiz-adv-x="230" />
<glyph unicode="&#x09;" horiz-adv-x="230" />
<glyph unicode="&#xa0;" horiz-adv-x="230" />
<glyph unicode="!" horiz-adv-x="157" d="M79 -3q7 0 12.5 5.5t5.5 12.5q0 8 -5 13.5t-13 5.5q-19 0 -19 -19q0 -8 5.5 -13t13.5 -5zM97 212q0 -8 -5 -13.5t-13 -5.5q-19 0 -19 19q0 8 5.5 13.5t13.5 5.5q7 0 12.5 -5.5t5.5 -13.5zM97 277q0 -7 -5.5 -12.5t-12.5 -5.5q-8 0 -13.5 5t-5.5 13q0 19 19 19 q8 0 13 -5.5t5 -13.5zM97 343q0 -8 -5 -13.5t-13 -5.5q-19 0 -19 19q0 8 5.5 13t13.5 5q7 0 12.5 -5.5t5.5 -12.5zM97 408q0 -8 -5.5 -13.5t-12.5 -5.5q-8 0 -13.5 5.5t-5.5 13.5q0 19 19 19q8 0 13 -5.5t5 -13.5zM97 474q0 -8 -5 -13.5t-13 -5.5q-19 0 -19 19q0 8 5.5 13 t13.5 5q7 0 12.5 -5t5.5 -13zM97 539q0 -8 -5.5 -13.5t-12.5 -5.5q-8 0 -13.5 5.5t-5.5 13.5t5.5 13.5t13.5 5.5q7 0 12.5 -5.5t5.5 -13.5zM97 605q0 -8 -5 -13.5t-13 -5.5q-19 0 -19 19q0 8 5.5 13t13.5 5q7 0 12.5 -5.5t5.5 -12.5zM97 670q0 -8 -5.5 -13.5t-12.5 -5.5 q-8 0 -13.5 5.5t-5.5 13.5t5.5 13.5t13.5 5.5q7 0 12.5 -5.5t5.5 -13.5z" />
<glyph unicode="&#x22;" horiz-adv-x="154" d="M115 520q8 0 13.5 5.5t5.5 13.5t-5.5 13.5t-13.5 5.5q-7 0 -12.5 -5.5t-5.5 -13.5t5.5 -13.5t12.5 -5.5zM134 605q0 -19 -19 -19q-8 0 -13 5.5t-5 13.5q0 7 5.5 12.5t12.5 5.5q8 0 13.5 -5t5.5 -13zM134 670q0 -8 -5.5 -13.5t-13.5 -5.5q-7 0 -12.5 5.5t-5.5 13.5 t5.5 13.5t12.5 5.5q8 0 13.5 -5.5t5.5 -13.5zM38 539q0 -7 -6 -13t-13 -6t-13 6t-6 13t6 13t13 6t13 -6t6 -13zM38 605q0 -8 -5.5 -13.5t-13.5 -5.5t-13.5 5.5t-5.5 13.5q0 7 5.5 12.5t13.5 5.5t13.5 -5.5t5.5 -12.5zM38 670q0 -8 -6 -13.5t-13 -5.5t-13 5.5t-6 13.5t6 13.5 t13 5.5t13 -5.5t6 -13.5z" />
<glyph unicode="#" horiz-adv-x="574" d="M497 193q8 0 13 5.5t5 13.5t-5.5 13.5t-12.5 5.5q-8 0 -13.5 -5.5t-5.5 -13.5q0 -19 19 -19zM554 474q0 -19 -19 -19q-8 0 -13 5.5t-5 13.5t5.5 13t12.5 5q8 0 13.5 -5t5.5 -13zM450 212q0 -8 -5.5 -13.5t-13.5 -5.5t-13.5 5.5t-5.5 13.5t6 13.5t13 5.5t13 -5.5t6 -13.5z M488 474q0 -8 -5 -13.5t-13 -5.5q-19 0 -19 19q0 8 5.5 13t13.5 5t13 -5t5 -13zM433 539q0 -7 -5.5 -13t-13.5 -6t-13.5 6t-5.5 13t5.5 13t13.5 6t13.5 -6t5.5 -13zM442 605q0 -8 -5 -13.5t-13 -5.5q-19 0 -19 19q0 8 5.5 13t13.5 5t13 -5.5t5 -12.5zM452 670 q0 -8 -5.5 -13.5t-13.5 -5.5q-7 0 -13 5.5t-6 13.5t6 13.5t13 5.5q8 0 13.5 -5.5t5.5 -13.5zM355 15q0 -7 -5.5 -12.5t-12.5 -5.5q-8 0 -13.5 5t-5.5 13q0 19 19 19q8 0 13 -5.5t5 -13.5zM365 81q0 -8 -5.5 -13.5t-13.5 -5.5q-7 0 -12.5 5.5t-5.5 13.5t5.5 13.5t12.5 5.5 q8 0 13.5 -5.5t5.5 -13.5zM375 146q0 -7 -5.5 -12.5t-13.5 -5.5t-13.5 5.5t-5.5 12.5q0 8 5.5 13.5t13.5 5.5t13.5 -5.5t5.5 -13.5zM384 212q0 -8 -5 -13.5t-13 -5.5q-19 0 -19 19q0 8 5.5 13.5t13.5 5.5q7 0 12.5 -5.5t5.5 -13.5zM394 277q0 -8 -5.5 -13t-13.5 -5 q-7 0 -12.5 5.5t-5.5 12.5q0 8 5 13.5t13 5.5q19 0 19 -19zM404 343q0 -8 -5.5 -13.5t-13.5 -5.5t-13.5 5.5t-5.5 13.5q0 7 5.5 12.5t13.5 5.5t13.5 -5.5t5.5 -12.5zM413 408q0 -8 -5.5 -13.5t-12.5 -5.5q-8 0 -13.5 5.5t-5.5 13.5q0 19 19 19q8 0 13 -5.5t5 -13.5zM423 474 q0 -19 -19 -19q-8 0 -13 5.5t-5 13.5t5 13t13 5t13.5 -5t5.5 -13zM319 212q0 -19 -19 -19q-8 0 -13 5.5t-5 13.5t5.5 13.5t12.5 5.5q8 0 13.5 -5.5t5.5 -13.5zM357 474q0 -8 -5 -13.5t-13 -5.5q-19 0 -19 19q0 8 5.5 13t13.5 5q7 0 12.5 -5t5.5 -13zM253 212q0 -8 -5 -13.5 t-13 -5.5q-19 0 -19 19q0 8 5.5 13.5t13.5 5.5q7 0 12.5 -5.5t5.5 -13.5zM292 474q0 -19 -19 -19q-8 0 -13 5.5t-5 13.5t5.5 13t12.5 5q8 0 13.5 -5t5.5 -13zM236 539q0 -8 -5.5 -13.5t-12.5 -5.5q-8 0 -13.5 5.5t-5.5 13.5t5.5 13.5t13.5 5.5q7 0 12.5 -5.5t5.5 -13.5z M246 605q0 -8 -5.5 -13.5t-13.5 -5.5t-13.5 5.5t-5.5 13.5q0 7 5.5 12.5t13.5 5.5t13.5 -5.5t5.5 -12.5zM256 670q0 -8 -6 -13.5t-13 -5.5t-13 5.5t-6 13.5t6 13.5t13 5.5t13 -5.5t6 -13.5zM159 15q0 -8 -5.5 -13t-13.5 -5t-13 5.5t-5 12.5q0 8 5 13.5t13 5.5q19 0 19 -19z M169 81q0 -7 -5.5 -13t-13.5 -6t-13.5 6t-5.5 13t5.5 13t13.5 6t13.5 -6t5.5 -13zM178 146q0 -8 -5 -13t-13 -5t-13.5 5t-5.5 13q0 19 19 19q8 0 13 -5.5t5 -13.5zM188 212q0 -19 -19 -19q-8 0 -13 5.5t-5 13.5t5.5 13.5t12.5 5.5q8 0 13.5 -5.5t5.5 -13.5zM198 277 q0 -7 -5.5 -12.5t-13.5 -5.5t-13.5 5.5t-5.5 12.5q0 8 5.5 13.5t13.5 5.5t13.5 -5.5t5.5 -13.5zM207 343q0 -8 -5 -13.5t-13 -5.5q-19 0 -19 19q0 8 5.5 13t13.5 5q7 0 12.5 -5.5t5.5 -12.5zM217 408q0 -8 -5.5 -13.5t-13.5 -5.5t-13.5 5.5t-5.5 13.5t5.5 13.5t13.5 5.5 t13.5 -5.5t5.5 -13.5zM227 474q0 -8 -5.5 -13.5t-13.5 -5.5t-13.5 5.5t-5.5 13.5q0 7 5.5 12.5t13.5 5.5t13.5 -5.5t5.5 -12.5zM161 474q0 -19 -19 -19q-8 0 -13 5.5t-5 13.5t5 13t13 5t13.5 -5t5.5 -13zM95 474q0 -8 -5 -13.5t-13 -5.5q-19 0 -19 19q0 8 5.5 13t13.5 5 q7 0 12.5 -5t5.5 -13zM122 212q0 -8 -5 -13.5t-13 -5.5q-19 0 -19 19q0 8 5.5 13.5t13.5 5.5q7 0 12.5 -5.5t5.5 -13.5zM57 212q0 -19 -19 -19q-8 0 -13 5.5t-5 13.5t5.5 13.5t12.5 5.5q8 0 13.5 -5.5t5.5 -13.5z" />
<glyph unicode="$" horiz-adv-x="442" d="M220 -135q7 0 12.5 5.5t5.5 13.5t-5.5 13.5t-12.5 5.5q-8 0 -13.5 -5.5t-5.5 -13.5t5.5 -13.5t13.5 -5.5zM238 -51q0 -7 -5 -12.5t-13 -5.5t-13.5 5t-5.5 13q0 19 19 19q8 0 13 -5.5t5 -13.5zM238 735q0 -8 -5.5 -13.5t-12.5 -5.5q-8 0 -13.5 5.5t-5.5 13.5t5.5 13.5 t13.5 5.5q7 0 12.5 -5.5t5.5 -13.5zM238 800q0 -8 -5 -13t-13 -5t-13.5 5t-5.5 13q0 19 19 19q8 0 13 -5.5t5 -13.5zM383 87q0 -7 -5.5 -12.5t-12.5 -5.5q-8 0 -13.5 5t-5.5 13q0 19 19 19q8 0 13 -5.5t5 -13.5zM383 127q7 0 13 5.5t6 13.5t-6 13.5t-13 5.5t-13 -5.5 t-6 -13.5t6 -13.5t13 -5.5zM381 193q7 0 12.5 5.5t5.5 12.5q0 8 -5 13.5t-13 5.5q-19 0 -19 -19q0 -8 5.5 -13t13.5 -5zM370 622q8 0 13.5 5t5.5 13q0 19 -19 19q-8 0 -13 -5.5t-5 -13.5t5 -13t13 -5zM318 26q8 0 13.5 5t5.5 13q0 19 -19 19q-8 0 -13 -5.5t-5 -13.5t5 -13 t13 -5zM346 254q8 0 13.5 5.5t5.5 13.5t-5.5 13.5t-13.5 5.5q-7 0 -12.5 -5.5t-5.5 -13.5t5.5 -13.5t12.5 -5.5zM310 639q7 0 12.5 5.5t5.5 13.5t-5.5 13.5t-12.5 5.5q-8 0 -13.5 -5.5t-5.5 -13.5t5.5 -13.5t13.5 -5.5zM255 4q7 0 12.5 5.5t5.5 13.5t-5.5 13.5t-12.5 5.5 q-8 0 -13.5 -5.5t-5.5 -13.5t5.5 -13.5t13.5 -5.5zM294 299q8 0 13 5.5t5 13.5t-5 13t-13 5t-13.5 -5t-5.5 -13q0 -19 19 -19zM247 651q8 0 13.5 5.5t5.5 12.5q0 8 -5.5 13.5t-13.5 5.5t-13.5 -5.5t-5.5 -13.5q0 -7 5.5 -12.5t13.5 -5.5zM189 -4q7 0 13 6t6 13t-6 13t-13 6 t-13 -6t-6 -13t6 -13t13 -6zM234 333q8 0 13.5 5.5t5.5 13.5t-5.5 13.5t-13.5 5.5t-13.5 -5.5t-5.5 -13.5t5.5 -13.5t13.5 -5.5zM181 651q8 0 13.5 5t5.5 13q0 19 -19 19q-8 0 -13 -5.5t-5 -13.5q0 -7 5.5 -12.5t12.5 -5.5zM124 4q8 0 13 5t5 13t-5 13.5t-13 5.5 q-19 0 -19 -19q0 -8 5.5 -13t13.5 -5zM121 402q7 0 13 6t6 13t-6 13t-13 6t-13 -6t-6 -13t6 -13t13 -6zM176 367q8 0 13.5 5t5.5 13q0 19 -19 19q-8 0 -13.5 -5.5t-5.5 -13.5q0 -7 5.5 -12.5t13.5 -5.5zM119 631q8 0 13.5 5.5t5.5 12.5q0 8 -5.5 13.5t-13.5 5.5t-13.5 -5.5 t-5.5 -13.5q0 -7 5.5 -12.5t13.5 -5.5zM58 19q8 0 13.5 5t5.5 13q0 19 -19 19q-8 0 -13 -5.5t-5 -13.5q0 -7 5 -12.5t13 -5.5zM75 456q8 0 13.5 5.5t5.5 12.5q0 8 -5.5 13.5t-13.5 5.5t-13.5 -5.5t-5.5 -13.5q0 -7 5.5 -12.5t13.5 -5.5zM60 520q19 0 19 19q0 8 -5.5 13 t-13.5 5t-13 -5.5t-5 -12.5q0 -8 5 -13.5t13 -5.5zM76 583q8 0 13 5.5t5 13.5t-5 13t-13 5t-13.5 -5t-5.5 -13q0 -19 19 -19z" />
<glyph unicode="%" horiz-adv-x="641" d="M537 652q-7 0 -12.5 5.5t-5.5 13.5t5.5 13.5t12.5 5.5q8 0 13.5 -5.5t5.5 -13.5t-5.5 -13.5t-13.5 -5.5zM520 617q0 -8 -5 -13.5t-13 -5.5q-19 0 -19 19q0 8 5.5 13t13.5 5t13 -5.5t5 -12.5zM448 507q0 -7 -5 -12.5t-13 -5.5t-13.5 5t-5.5 13q0 19 19 19q8 0 13 -5.5 t5 -13.5zM484 562q0 -8 -5.5 -13.5t-12.5 -5.5q-8 0 -13.5 5.5t-5.5 13.5t5.5 13.5t13.5 5.5q7 0 12.5 -5.5t5.5 -13.5zM376 398q0 -8 -5 -13.5t-13 -5.5q-19 0 -19 19q0 8 5.5 13t13.5 5t13 -5t5 -13zM413 452q0 -7 -5.5 -12.5t-13.5 -5.5t-13.5 5.5t-5.5 12.5 q0 8 5.5 13.5t13.5 5.5t13.5 -5.5t5.5 -13.5zM305 288q0 -7 -5.5 -12.5t-13.5 -5.5t-13.5 5.5t-5.5 12.5q0 8 5.5 13.5t13.5 5.5t13.5 -5.5t5.5 -13.5zM340 343q0 -8 -5.5 -13.5t-12.5 -5.5q-8 0 -13.5 5.5t-5.5 13.5t5.5 13.5t13.5 5.5q7 0 12.5 -5.5t5.5 -13.5zM269 233 q0 -7 -5.5 -12.5t-13.5 -5.5t-13.5 5.5t-5.5 12.5q0 8 5.5 13.5t13.5 5.5t13.5 -5.5t5.5 -13.5zM197 124q0 -8 -5.5 -13.5t-13.5 -5.5q-7 0 -12.5 5.5t-5.5 13.5t5.5 13.5t12.5 5.5q8 0 13.5 -5.5t5.5 -13.5zM233 179q0 -19 -19 -19q-8 0 -13 5.5t-5 13.5q0 7 5 12.5t13 5.5 t13.5 -5t5.5 -13zM125 15q0 -8 -5 -13.5t-13 -5.5q-19 0 -19 19q0 8 5.5 13t13.5 5q7 0 12.5 -5.5t5.5 -12.5zM161 69q0 -8 -5.5 -13t-13.5 -5t-13 5.5t-5 12.5q0 8 5 13.5t13 5.5q19 0 19 -19zM152 671q0 -8 -5.5 -13.5t-13.5 -5.5q-7 0 -12.5 5.5t-5.5 13.5t5.5 13.5 t12.5 5.5q8 0 13.5 -5.5t5.5 -13.5zM78 572q0 -7 -5.5 -12.5t-13.5 -5.5t-13.5 5t-5.5 13q0 19 19 19q8 0 13.5 -5.5t5.5 -13.5zM100 633q0 -8 -5.5 -13.5t-13.5 -5.5q-7 0 -12.5 5.5t-5.5 13.5t5.5 13.5t12.5 5.5q8 0 13.5 -5.5t5.5 -13.5zM198 652q-8 0 -13.5 6t-5.5 13 t5.5 13t13.5 6t13.5 -6t5.5 -13t-5.5 -13t-13.5 -6zM272 554q-8 0 -13 5t-5 13t5 13.5t13 5.5q19 0 19 -19q0 -8 -5.5 -13t-13.5 -5zM250 614q-8 0 -13.5 6t-5.5 13t5.5 13t13.5 6t13.5 -6t5.5 -13t-5.5 -13t-13.5 -6zM133 429q19 0 19 -19q0 -8 -5.5 -13t-13.5 -5 q-7 0 -12.5 5t-5.5 13t5 13.5t13 5.5zM59 528q7 0 13 -6t6 -13t-6 -13t-13 -6q-8 0 -13.5 5.5t-5.5 13.5t5.5 13.5t13.5 5.5zM81 467q19 0 19 -19q0 -8 -5.5 -13t-13.5 -5q-7 0 -12.5 5t-5.5 13t5 13.5t13 5.5zM179 410q0 8 5.5 13.5t13.5 5.5t13.5 -5.5t5.5 -13.5 q0 -7 -5.5 -12.5t-13.5 -5.5t-13.5 5.5t-5.5 12.5zM254 509q0 8 5.5 13.5t12.5 5.5q8 0 13.5 -5.5t5.5 -13.5t-5.5 -13.5t-13.5 -5.5q-7 0 -12.5 5.5t-5.5 13.5zM231 448q0 8 5.5 13.5t13.5 5.5t13.5 -5.5t5.5 -13.5q0 -7 -5.5 -12.5t-13.5 -5.5t-13.5 5.5t-5.5 12.5z M461 277q0 -8 -5.5 -13.5t-12.5 -5.5q-8 0 -13.5 5.5t-5.5 13.5q0 19 19 19q8 0 13 -5.5t5 -13.5zM387 178q0 -7 -5.5 -12.5t-13.5 -5.5t-13.5 5.5t-5.5 12.5q0 8 5.5 13.5t13.5 5.5t13.5 -5.5t5.5 -13.5zM409 239q0 -7 -5.5 -12.5t-12.5 -5.5q-8 0 -13.5 5t-5.5 13 q0 19 19 19q8 0 13 -5.5t5 -13.5zM507 258q-7 0 -12.5 5.5t-5.5 13.5t5 13.5t13 5.5q19 0 19 -19q0 -8 -5.5 -13.5t-13.5 -5.5zM582 160q-8 0 -13.5 5t-5.5 13q0 19 19 19q8 0 13.5 -5.5t5.5 -13.5q0 -7 -5.5 -12.5t-13.5 -5.5zM559 221q-7 0 -12.5 5.5t-5.5 12.5 q0 8 5 13.5t13 5.5q19 0 19 -19q0 -8 -5.5 -13t-13.5 -5zM443 35q7 0 12.5 -5.5t5.5 -12.5q0 -8 -5 -13.5t-13 -5.5q-19 0 -19 19q0 8 5.5 13t13.5 5zM368 134q8 0 13.5 -5.5t5.5 -13.5q0 -7 -5.5 -13t-13.5 -6t-13.5 6t-5.5 13q0 8 5.5 13.5t13.5 5.5zM391 73q8 0 13 -5.5 t5 -13.5t-5.5 -13t-12.5 -5q-8 0 -13.5 5t-5.5 13q0 19 19 19zM489 17q0 7 5.5 12.5t12.5 5.5q8 0 13.5 -5t5.5 -13q0 -19 -19 -19q-8 0 -13 5.5t-5 13.5zM563 115q0 19 19 19q8 0 13.5 -5.5t5.5 -13.5q0 -7 -5.5 -13t-13.5 -6t-13.5 5.5t-5.5 13.5zM541 54q0 8 5 13.5 t13 5.5q19 0 19 -19q0 -8 -5.5 -13t-13.5 -5q-7 0 -12.5 5t-5.5 13z" />
<glyph unicode="&#x26;" horiz-adv-x="600" d="M548 16q0 -8 -5 -13.5t-13 -5.5q-19 0 -19 19q0 8 5.5 13t13.5 5t13 -5t5 -13zM522 200q0 -19 -19 -19q-8 0 -13 5.5t-5 13.5t5.5 13.5t12.5 5.5q8 0 13.5 -5.5t5.5 -13.5zM545 260q0 -8 -5.5 -13.5t-13.5 -5.5t-13.5 5.5t-5.5 13.5q0 7 5.5 12.5t13.5 5.5t13.5 -5.5 t5.5 -12.5zM560 323q0 -8 -5 -13.5t-13 -5.5q-19 0 -19 19q0 8 5.5 13t13.5 5t13 -5.5t5 -12.5zM494 44q0 -19 -19 -19q-8 0 -13 5.5t-5 13.5t5.5 13t12.5 5q8 0 13.5 -5t5.5 -13zM419 140q0 -8 -5.5 -13.5t-13.5 -5.5t-13.5 5.5t-5.5 13.5t5.5 13.5t13.5 5.5t13.5 -5.5 t5.5 -13.5zM491 141q0 -8 -5 -13.5t-13 -5.5q-19 0 -19 19q0 8 5.5 13t13.5 5q7 0 12.5 -5.5t5.5 -12.5zM456 91q0 -7 -5 -12.5t-13 -5.5t-13.5 5t-5.5 13q0 19 19 19q8 0 13 -5.5t5 -13.5zM383 192q0 -19 -19 -19q-8 0 -13 5.5t-5 13.5t5 13t13 5t13.5 -5t5.5 -13zM345 28 q0 -8 -5.5 -13.5t-13.5 -5.5t-13.5 5.5t-5.5 13.5q0 7 5.5 12.5t13.5 5.5t13.5 -5.5t5.5 -12.5zM404 54q0 -8 -5 -13t-13 -5t-13.5 5t-5.5 13q0 19 19 19q8 0 13 -5.5t5 -13.5zM348 243q0 -8 -5.5 -13t-13.5 -5q-7 0 -12.5 5.5t-5.5 12.5q0 8 5 13.5t13 5.5q19 0 19 -19z M313 295q0 -7 -5.5 -13t-13.5 -6t-13.5 6t-5.5 13t5.5 13t13.5 6t13.5 -6t5.5 -13zM338 482q0 -7 -5.5 -12.5t-13.5 -5.5t-13.5 5t-5.5 13q0 19 19 19q8 0 13.5 -5.5t5.5 -13.5zM294 437q0 -19 -19 -19q-8 0 -13 5.5t-5 13.5t5.5 13.5t12.5 5.5q8 0 13.5 -5.5t5.5 -13.5z M368 535q0 -8 -5.5 -13.5t-13.5 -5.5q-7 0 -12.5 5.5t-5.5 13.5t5.5 13.5t12.5 5.5q8 0 13.5 -5.5t5.5 -13.5zM371 593q0 -8 -5 -13.5t-13 -5.5q-19 0 -19 19q0 8 5.5 13t13.5 5q7 0 12.5 -5.5t5.5 -12.5zM345 646q0 -8 -5.5 -13.5t-13.5 -5.5t-13.5 5.5t-5.5 13.5t5.5 13.5 t13.5 5.5t13.5 -5.5t5.5 -13.5zM280 16q0 -8 -5 -13.5t-13 -5.5q-19 0 -19 19q0 8 5.5 13t13.5 5t13 -5t5 -13zM279 345q0 -19 -19 -19q-8 0 -13 5.5t-5 13.5q0 7 5 12.5t13 5.5t13.5 -5t5.5 -13zM243 398q0 -8 -5.5 -13.5t-13.5 -5.5t-13.5 5.5t-5.5 13.5t5.5 13.5 t13.5 5.5t13.5 -5.5t5.5 -13.5zM285 670q0 -7 -5.5 -12.5t-13.5 -5.5t-13.5 5.5t-5.5 12.5q0 8 5.5 13.5t13.5 5.5t13.5 -5.5t5.5 -13.5zM214 16q0 -8 -5.5 -13.5t-13.5 -5.5q-7 0 -12.5 5.5t-5.5 13.5t5.5 13.5t12.5 5.5q8 0 13.5 -5.5t5.5 -13.5zM192 358q0 -19 -19 -19 q-8 0 -13 5.5t-5 13.5t5.5 13t12.5 5q8 0 13.5 -5t5.5 -13zM221 670q0 -8 -5.5 -13t-13.5 -5t-13 5t-5 13t5 13.5t13 5.5q19 0 19 -19zM151 39q0 -19 -19 -19q-8 0 -13 5.5t-5 13.5q0 7 5 12.5t13 5.5t13.5 -5t5.5 -13zM142 314q0 -8 -5.5 -13.5t-13.5 -5.5q-7 0 -12.5 5.5 t-5.5 13.5t5.5 13.5t12.5 5.5q8 0 13.5 -5.5t5.5 -13.5zM205 451q0 -8 -5.5 -13t-13.5 -5t-13 5.5t-5 12.5q0 8 5 13.5t13 5.5q19 0 19 -19zM147 567q0 -7 -5.5 -12.5t-12.5 -5.5q-8 0 -13.5 5t-5.5 13q0 19 19 19q8 0 13 -5.5t5 -13.5zM166 506q0 -8 -5.5 -13t-13.5 -5 q-7 0 -12.5 5t-5.5 13t5 13.5t13 5.5q19 0 19 -19zM166 634q0 -19 -19 -19q-8 0 -13 5.5t-5 13.5t5.5 13t12.5 5q8 0 13.5 -5t5.5 -13zM104 84q0 -8 -5.5 -13.5t-13.5 -5.5t-13.5 5.5t-5.5 13.5q0 7 5.5 12.5t13.5 5.5t13.5 -5.5t5.5 -12.5zM78 143q0 -7 -6 -13t-13 -6 t-13 6t-6 13t6 13t13 6t13 -6t6 -13zM78 206q0 -8 -5 -13t-13 -5t-13.5 5t-5.5 13q0 19 19 19q8 0 13 -5.5t5 -13.5zM102 265q0 -7 -5.5 -12.5t-13.5 -5.5t-13.5 5.5t-5.5 12.5q0 8 5.5 13.5t13.5 5.5t13.5 -5.5t5.5 -13.5z" />
<glyph unicode="'" horiz-adv-x="57" d="M37 539q0 -8 -5.5 -13.5t-13.5 -5.5q-7 0 -12.5 5.5t-5.5 13.5t5.5 13.5t12.5 5.5q8 0 13.5 -5.5t5.5 -13.5zM37 605q0 -19 -19 -19q-8 0 -13 5.5t-5 13.5q0 7 5 12.5t13 5.5t13.5 -5t5.5 -13zM37 670q0 -8 -5.5 -13.5t-13.5 -5.5q-7 0 -12.5 5.5t-5.5 13.5t5.5 13.5 t12.5 5.5q8 0 13.5 -5.5t5.5 -13.5z" />
<glyph unicode="(" horiz-adv-x="272" d="M252 670q0 -7 -5.5 -12.5t-13.5 -5.5t-13.5 5.5t-5.5 12.5q0 8 5.5 13.5t13.5 5.5t13.5 -5.5t5.5 -13.5zM180 562q0 -8 -5 -13.5t-13 -5.5q-19 0 -19 19q0 8 5.5 13t13.5 5t13 -5t5 -13zM210 620q0 -8 -5.5 -13.5t-13.5 -5.5q-7 0 -12.5 5.5t-5.5 13.5t5.5 13.5t12.5 5.5 q8 0 13.5 -5.5t5.5 -13.5zM118 310q0 -7 -5.5 -12.5t-13.5 -5.5t-13.5 5.5t-5.5 12.5q0 8 5.5 13.5t13.5 5.5t13.5 -5.5t5.5 -13.5zM121 376q0 -19 -19 -19q-8 0 -13 5.5t-5 13.5t5 13t13 5t13.5 -5t5.5 -13zM134 440q0 -8 -5.5 -13.5t-13.5 -5.5q-7 0 -12.5 5.5t-5.5 13.5 t5.5 13.5t12.5 5.5q8 0 13.5 -5.5t5.5 -13.5zM155 502q0 -8 -5.5 -13.5t-13.5 -5.5t-13.5 5.5t-5.5 13.5t5.5 13.5t13.5 5.5t13.5 -5.5t5.5 -13.5zM233 -97q8 0 13.5 -5.5t5.5 -12.5q0 -8 -5.5 -13.5t-13.5 -5.5t-13.5 5.5t-5.5 13.5q0 7 5.5 12.5t13.5 5.5zM162 12 q8 0 13 -5.5t5 -13.5q0 -7 -5 -12.5t-13 -5.5t-13.5 5t-5.5 13q0 19 19 19zM192 -46q7 0 12.5 -5.5t5.5 -13.5t-5.5 -13.5t-12.5 -5.5q-8 0 -13.5 5.5t-5.5 13.5t5.5 13.5t13.5 5.5zM99 263q8 0 13.5 -5.5t5.5 -12.5q0 -8 -5.5 -13.5t-13.5 -5.5t-13.5 5.5t-5.5 13.5 q0 7 5.5 12.5t13.5 5.5zM103 198q8 0 13 -5.5t5 -13.5q0 -7 -5.5 -12.5t-12.5 -5.5q-8 0 -13.5 5t-5.5 13q0 19 19 19zM115 134q19 0 19 -19q0 -8 -5.5 -13t-13.5 -5q-7 0 -12.5 5.5t-5.5 12.5q0 8 5 13.5t13 5.5zM136 72q8 0 13.5 -5.5t5.5 -13.5q0 -7 -5.5 -13t-13.5 -6 t-13.5 6t-5.5 13q0 8 5.5 13.5t13.5 5.5z" />
<glyph unicode=")" horiz-adv-x="272" d="M39 652q-8 0 -13.5 5.5t-5.5 12.5q0 8 5.5 13.5t13.5 5.5t13.5 -5.5t5.5 -13.5q0 -7 -5.5 -12.5t-13.5 -5.5zM111 543q-19 0 -19 19q0 8 5.5 13t13.5 5q7 0 12.5 -5t5.5 -13t-5 -13.5t-13 -5.5zM81 601q-8 0 -13.5 5.5t-5.5 13.5t5.5 13.5t13.5 5.5q7 0 12.5 -5.5 t5.5 -13.5t-5.5 -13.5t-12.5 -5.5zM173 292q-7 0 -12.5 5t-5.5 13t5 13.5t13 5.5q19 0 19 -19q0 -8 -5.5 -13t-13.5 -5zM170 357q-19 0 -19 19q0 8 5.5 13t13.5 5t13 -5t5 -13t-5 -13.5t-13 -5.5zM157 421q-7 0 -13 5.5t-6 13.5t6 13.5t13 5.5t13 -5.5t6 -13.5t-6 -13.5 t-13 -5.5zM136 483q-8 0 -13.5 5.5t-5.5 13.5t5.5 13.5t13.5 5.5t13.5 -5.5t5.5 -13.5t-5.5 -13.5t-13.5 -5.5zM20 -115q0 7 5.5 12.5t13.5 5.5t13.5 -5t5.5 -13q0 -19 -19 -19q-8 0 -13.5 5.5t-5.5 13.5zM92 -7q0 19 19 19q8 0 13 -5.5t5 -13.5q0 -7 -5.5 -12.5t-12.5 -5.5 q-8 0 -13.5 5t-5.5 13zM62 -65q0 7 6 13t13 6t13 -6t6 -13t-6 -13t-13 -6t-13 6t-6 13zM155 245q0 7 5.5 12.5t12.5 5.5q8 0 13.5 -5t5.5 -13q0 -19 -19 -19q-8 0 -13 5.5t-5 13.5zM151 179q0 8 5.5 13.5t13.5 5.5t13.5 -5.5t5.5 -13.5q0 -7 -5.5 -12.5t-13.5 -5.5 t-13.5 5.5t-5.5 12.5zM138 115q0 8 5.5 13.5t13.5 5.5t13.5 -5.5t5.5 -13.5q0 -7 -5.5 -12.5t-13.5 -5.5t-13.5 5.5t-5.5 12.5zM118 53q0 8 5 13.5t13 5.5q19 0 19 -19q0 -8 -5.5 -13.5t-13.5 -5.5q-7 0 -12.5 5.5t-5.5 13.5z" />
<glyph unicode="*" horiz-adv-x="318" d="M178 556q8 0 13.5 5t5.5 13q0 19 -19 19q-8 0 -13 -5.5t-5 -13.5t5 -13t13 -5zM304 593q-17 -5 -23 12q-2 8 1.5 15t10.5 9q18 5 23 -12q7 -17 -12 -24zM244 575q-17 -7 -23 12q-2 7 1.5 14t10.5 9q18 5 23 -12q7 -17 -12 -23zM199 700q0 -8 -5.5 -13.5t-12.5 -5.5 q-8 0 -13.5 5.5t-5.5 13.5q0 19 19 19q8 0 13 -5.5t5 -13.5zM198 637q0 -7 -5 -12.5t-13 -5.5t-13.5 5t-5.5 13q0 19 19 19q8 0 13 -5.5t5 -13.5zM65 633q17 -5 12 -23q-2 -7 -9 -10.5t-14 -1.5q-19 6 -12 23q5 17 23 12zM125 613q7 -2 10.5 -9t1.5 -14q-6 -19 -24 -12 q-17 5 -12 23q2 7 9 10.5t15 1.5zM87 485q11 15 27 4q15 -11 4 -26t-26 -4q-16 11 -5 26zM125 536q11 15 26 4t4 -26q-11 -16 -26 -5t-4 27zM235 460q-10 15 4 27q16 10 26 -5q5 -6 4 -13.5t-8 -12.5q-15 -11 -26 4zM199 512q-11 15 4 26t26 -4q10 -15 -4 -26q-16 -12 -26 4 z" />
<glyph unicode="+" horiz-adv-x="511" d="M452 259q8 0 13.5 5.5t5.5 12.5q0 8 -5.5 13.5t-13.5 5.5t-13.5 -5.5t-5.5 -13.5q0 -7 5.5 -12.5t13.5 -5.5zM405 277q0 -8 -5.5 -13t-13.5 -5t-13 5.5t-5 12.5q0 8 5 13.5t13 5.5q19 0 19 -19zM340 277q0 -7 -5.5 -12.5t-13.5 -5.5t-13.5 5.5t-5.5 12.5q0 8 5.5 13.5 t13.5 5.5t13.5 -5.5t5.5 -13.5zM274 81q0 -8 -5.5 -13.5t-13.5 -5.5q-7 0 -12.5 5.5t-5.5 13.5t5.5 13.5t12.5 5.5q8 0 13.5 -5.5t5.5 -13.5zM274 146q0 -8 -5.5 -13t-13.5 -5q-7 0 -12.5 5t-5.5 13t5 13.5t13 5.5q19 0 19 -19zM274 212q0 -19 -19 -19q-8 0 -13 5.5t-5 13.5 t5.5 13.5t12.5 5.5q8 0 13.5 -5.5t5.5 -13.5zM274 277q0 -8 -5.5 -13t-13.5 -5q-7 0 -12.5 5.5t-5.5 12.5q0 8 5 13.5t13 5.5q19 0 19 -19zM274 343q0 -19 -19 -19q-8 0 -13 5.5t-5 13.5q0 7 5.5 12.5t12.5 5.5q8 0 13.5 -5t5.5 -13zM274 408q0 -8 -5.5 -13.5t-13.5 -5.5 q-7 0 -12.5 5.5t-5.5 13.5t5 13.5t13 5.5q19 0 19 -19zM274 474q0 -19 -19 -19q-8 0 -13 5.5t-5 13.5t5.5 13t12.5 5q8 0 13.5 -5t5.5 -13zM209 277q0 -7 -5.5 -12.5t-13.5 -5.5t-13.5 5.5t-5.5 12.5q0 8 5.5 13.5t13.5 5.5t13.5 -5.5t5.5 -13.5zM143 277q0 -8 -5.5 -13 t-13.5 -5t-13 5.5t-5 12.5q0 8 5 13.5t13 5.5q19 0 19 -19zM78 277q0 -7 -5.5 -12.5t-13.5 -5.5t-13.5 5.5t-5.5 12.5q0 8 5.5 13.5t13.5 5.5t13.5 -5.5t5.5 -13.5z" />
<glyph unicode="," horiz-adv-x="134" d="M72 -69q8 0 13.5 5.5t5.5 13.5q0 7 -5.5 12.5t-13.5 5.5t-13.5 -5.5t-5.5 -12.5q0 -8 5.5 -13.5t13.5 -5.5zM94 15q0 -7 -5.5 -12.5t-13.5 -5.5t-13.5 5.5t-5.5 12.5q0 8 5.5 13.5t13.5 5.5t13.5 -5.5t5.5 -13.5zM48 -107q0 -7 -6 -13t-13 -6t-13 6t-6 13t6 13t13 6 t13 -6t6 -13z" />
<glyph unicode="-" horiz-adv-x="420" d="M360 275q0 -7 -6 -13t-13 -6t-13 6t-6 13t6 13t13 6t13 -6t6 -13zM294 275q0 -8 -5.5 -13.5t-13.5 -5.5q-7 0 -12.5 5.5t-5.5 13.5t5.5 13.5t12.5 5.5q8 0 13.5 -5.5t5.5 -13.5zM229 275q0 -7 -5.5 -13t-13.5 -6t-13.5 6t-5.5 13t5.5 13t13.5 6t13.5 -6t5.5 -13zM163 275 q0 -8 -5.5 -13.5t-12.5 -5.5q-8 0 -13.5 5.5t-5.5 13.5t5.5 13.5t13.5 5.5q7 0 12.5 -5.5t5.5 -13.5zM98 275q0 -7 -6 -13t-13 -6t-13 6t-6 13t6 13t13 6t13 -6t6 -13z" />
<glyph unicode="." horiz-adv-x="117" d="M77 15q0 -7 -5.5 -12.5t-12.5 -5.5q-8 0 -13.5 5t-5.5 13q0 19 19 19q8 0 13 -5.5t5 -13.5z" />
<glyph unicode="/" horiz-adv-x="238" d="M228 670q0 -8 -5.5 -13.5t-12.5 -5.5q-8 0 -13.5 5.5t-5.5 13.5t5.5 13.5t13.5 5.5q7 0 12.5 -5.5t5.5 -13.5zM157 408q0 -8 -5.5 -13.5t-13.5 -5.5t-13.5 5.5t-5.5 13.5q0 19 19 19q8 0 13.5 -5.5t5.5 -13.5zM174 474q0 -8 -5 -13.5t-13 -5.5q-19 0 -19 19q0 8 5.5 13 t13.5 5t13 -5t5 -13zM192 539q0 -8 -5.5 -13.5t-12.5 -5.5q-8 0 -13.5 5.5t-5.5 13.5t5.5 13.5t13.5 5.5q7 0 12.5 -5.5t5.5 -13.5zM210 605q0 -19 -19 -19q-8 0 -13 5.5t-5 13.5q0 7 5.5 12.5t12.5 5.5q8 0 13.5 -5t5.5 -13zM84 146q0 -8 -5 -13t-13 -5t-13.5 5t-5.5 13 q0 19 19 19q8 0 13 -5.5t5 -13.5zM102 212q0 -19 -19 -19q-8 0 -13 5.5t-5 13.5t5.5 13.5t12.5 5.5q8 0 13.5 -5.5t5.5 -13.5zM120 277q0 -8 -5.5 -13t-13.5 -5q-7 0 -12.5 5.5t-5.5 12.5q0 8 5 13.5t13 5.5q19 0 19 -19zM138 343q0 -19 -19 -19q-8 0 -13 5.5t-5 13.5 q0 7 5.5 12.5t12.5 5.5q8 0 13.5 -5t5.5 -13zM48 15q0 -7 -5.5 -12.5t-13.5 -5.5t-13.5 5.5t-5.5 12.5q0 8 5.5 13.5t13.5 5.5t13.5 -5.5t5.5 -13.5zM66 81q0 -8 -5.5 -13.5t-13.5 -5.5q-7 0 -12.5 5.5t-5.5 13.5t5.5 13.5t12.5 5.5q8 0 13.5 -5.5t5.5 -13.5z" />
<glyph unicode="0" horiz-adv-x="495" d="M247 651q-7 0 -12.5 5.5t-5.5 13.5t5.5 13.5t12.5 5.5q8 0 13.5 -5.5t5.5 -13.5t-5.5 -13.5t-13.5 -5.5zM194 656q0 -8 -5 -13t-13 -5t-13.5 5t-5.5 13q0 19 19 19q8 0 13 -5.5t5 -13.5zM142 609q0 -8 -5.5 -13.5t-13.5 -5.5t-13.5 5.5t-5.5 13.5q0 7 5.5 12.5t13.5 5.5 t13.5 -5.5t5.5 -12.5zM77 343q0 -8 -5 -13.5t-13 -5.5q-19 0 -19 19q0 8 5.5 13t13.5 5q7 0 12.5 -5.5t5.5 -12.5zM80 408q0 -8 -5.5 -13.5t-13.5 -5.5q-7 0 -12.5 5.5t-5.5 13.5t5 13.5t13 5.5q19 0 19 -19zM90 479q0 -8 -5.5 -13.5t-12.5 -5.5q-8 0 -13.5 5.5t-5.5 13.5 t5.5 13.5t13.5 5.5q7 0 12.5 -5.5t5.5 -13.5zM112 548q0 -8 -5.5 -13.5t-13.5 -5.5q-7 0 -12.5 5.5t-5.5 13.5t5 13.5t13 5.5q19 0 19 -19zM319 638q-8 0 -13.5 5.5t-5.5 12.5q0 8 5.5 13.5t13.5 5.5t13.5 -5.5t5.5 -13.5q0 -7 -5.5 -12.5t-13.5 -5.5zM372 590 q-8 0 -13.5 5.5t-5.5 13.5q0 7 5.5 12.5t13.5 5.5t13.5 -5.5t5.5 -12.5q0 -8 -5.5 -13.5t-13.5 -5.5zM436 324q-8 0 -13.5 5.5t-5.5 13.5q0 7 5.5 12.5t13.5 5.5t13.5 -5.5t5.5 -12.5q0 -8 -5.5 -13.5t-13.5 -5.5zM433 389q-7 0 -12.5 5.5t-5.5 13.5t5 13.5t13 5.5 q19 0 19 -19q0 -8 -5.5 -13.5t-13.5 -5.5zM423 460q-7 0 -13 6t-6 13t6 13t13 6t13 -6t6 -13t-6 -13t-13 -6zM401 529q-7 0 -12.5 5.5t-5.5 13.5t5 13.5t13 5.5q19 0 19 -19q0 -8 -5.5 -13.5t-13.5 -5.5zM247 34q19 0 19 -19q0 -8 -5.5 -13t-13.5 -5q-7 0 -12.5 5.5 t-5.5 12.5q0 8 5 13.5t13 5.5zM176 48q7 0 12.5 -5.5t5.5 -13.5t-5.5 -13.5t-12.5 -5.5q-8 0 -13.5 5.5t-5.5 13.5t5.5 13.5t13.5 5.5zM123 95q8 0 13.5 -5.5t5.5 -12.5q0 -8 -5.5 -13.5t-13.5 -5.5t-13.5 5.5t-5.5 13.5q0 7 5.5 12.5t13.5 5.5zM61 296q19 0 19 -19 q0 -8 -5.5 -13t-13.5 -5q-7 0 -12.5 5.5t-5.5 12.5q0 8 5 13.5t13 5.5zM72 225q8 0 13 -5.5t5 -12.5q0 -8 -5 -13.5t-13 -5.5q-19 0 -19 19q0 8 5.5 13t13.5 5zM93 156q19 0 19 -19q0 -8 -5.5 -13t-13.5 -5q-7 0 -12.5 5.5t-5.5 12.5q0 8 5 13.5t13 5.5zM300 29q0 7 6 13 t13 6t13 -6t6 -13t-6 -13t-13 -6t-13 6t-6 13zM353 77q0 7 5.5 12.5t13.5 5.5t13.5 -5.5t5.5 -12.5q0 -8 -5.5 -13.5t-13.5 -5.5t-13.5 5.5t-5.5 13.5zM415 277q0 8 5 13.5t13 5.5q19 0 19 -19q0 -8 -5.5 -13t-13.5 -5q-7 0 -12.5 5.5t-5.5 12.5zM404 207q0 7 5.5 12.5 t13.5 5.5t13.5 -5.5t5.5 -12.5q0 -8 -5.5 -13.5t-13.5 -5.5t-13.5 5.5t-5.5 13.5zM383 137q0 8 5 13.5t13 5.5q19 0 19 -19q0 -8 -5.5 -13t-13.5 -5q-7 0 -12.5 5.5t-5.5 12.5z" />
<glyph unicode="1" horiz-adv-x="379" d="M190 -2q8 0 13 5.5t5 13.5q0 7 -5 12.5t-13 5.5t-13.5 -5t-5.5 -13q0 -19 19 -19zM208 82q0 -8 -5.5 -13.5t-12.5 -5.5q-8 0 -13.5 5.5t-5.5 13.5t5.5 13.5t13.5 5.5q7 0 12.5 -5.5t5.5 -13.5zM208 147q0 -7 -5 -12.5t-13 -5.5t-13.5 5t-5.5 13q0 19 19 19q8 0 13 -5.5 t5 -13.5zM208 213q0 -8 -5.5 -13.5t-12.5 -5.5q-8 0 -13.5 5.5t-5.5 13.5t5.5 13.5t13.5 5.5q7 0 12.5 -5.5t5.5 -13.5zM208 278q0 -8 -5 -13t-13 -5t-13.5 5t-5.5 13q0 19 19 19q8 0 13 -5.5t5 -13.5zM208 344q0 -8 -5 -13.5t-13 -5.5q-19 0 -19 19q0 8 5.5 13t13.5 5 t13 -5t5 -13zM208 409q0 -7 -5 -12.5t-13 -5.5t-13.5 5t-5.5 13q0 19 19 19q8 0 13 -5.5t5 -13.5zM208 475q0 -8 -5 -13.5t-13 -5.5q-19 0 -19 19q0 8 5.5 13t13.5 5t13 -5.5t5 -12.5zM208 540q0 -8 -5.5 -13.5t-12.5 -5.5q-8 0 -13.5 5.5t-5.5 13.5t5.5 13.5t13.5 5.5 q7 0 12.5 -5.5t5.5 -13.5zM208 606q0 -8 -5 -13.5t-13 -5.5q-19 0 -19 19q0 8 5.5 13t13.5 5t13 -5t5 -13zM208 671q0 -8 -5.5 -13.5t-12.5 -5.5q-8 0 -13.5 5.5t-5.5 13.5t5.5 13.5t13.5 5.5q7 0 12.5 -5.5t5.5 -13.5zM143 17q0 -19 -19 -19q-8 0 -13 5.5t-5 13.5 q0 7 5 12.5t13 5.5t13.5 -5t5.5 -13zM154 635q0 -7 -6 -13t-13 -6t-13 6t-6 13t6 13t13 6t13 -6t6 -13zM77 17q0 -8 -5 -13.5t-13 -5.5q-19 0 -19 19q0 8 5.5 13t13.5 5q7 0 12.5 -5.5t5.5 -12.5zM99 599q0 -8 -5.5 -13.5t-13.5 -5.5q-7 0 -12.5 5.5t-5.5 13.5t5.5 13.5 t12.5 5.5q8 0 13.5 -5.5t5.5 -13.5zM339 17q0 -8 -5 -13.5t-13 -5.5q-19 0 -19 19q0 8 5.5 13t13.5 5q7 0 12.5 -5.5t5.5 -12.5zM274 17q0 -19 -19 -19q-8 0 -13.5 5.5t-5.5 13.5q0 7 5.5 12.5t13.5 5.5t13.5 -5t5.5 -13z" />
<glyph unicode="2" horiz-adv-x="462" d="M395 442q8 0 13.5 5.5t5.5 13.5q0 7 -5.5 12.5t-13.5 5.5t-13.5 -5.5t-5.5 -12.5q0 -8 5.5 -13.5t13.5 -5.5zM422 529q0 -8 -5.5 -13.5t-13.5 -5.5q-7 0 -12.5 5.5t-5.5 13.5t5.5 13.5t12.5 5.5q8 0 13.5 -5.5t5.5 -13.5zM405 15q0 -7 -5.5 -12.5t-13.5 -5.5t-13.5 5.5 t-5.5 12.5q0 8 5.5 13.5t13.5 5.5t13.5 -5.5t5.5 -13.5zM353 335q0 -8 -5.5 -13.5t-12.5 -5.5q-8 0 -13.5 5.5t-5.5 13.5q0 19 19 19q8 0 13 -5.5t5 -13.5zM390 397q0 -8 -5.5 -13.5t-13.5 -5.5t-13.5 5.5t-5.5 13.5q0 7 5.5 12.5t13.5 5.5t13.5 -5.5t5.5 -12.5zM410 589 q0 -7 -6 -13t-13 -6t-13 6t-6 13t6 13t13 6t13 -6t6 -13zM372 640q0 -8 -5.5 -13.5t-13.5 -5.5t-13.5 5.5t-5.5 13.5q0 7 5.5 12.5t13.5 5.5t13.5 -5.5t5.5 -12.5zM339 15q0 -8 -5.5 -13t-13.5 -5t-13 5.5t-5 12.5q0 8 5 13.5t13 5.5q19 0 19 -19zM311 278q0 -8 -5.5 -13.5 t-13.5 -5.5q-7 0 -12.5 5.5t-5.5 13.5t5.5 13.5t12.5 5.5q8 0 13.5 -5.5t5.5 -13.5zM266 223q0 -19 -19 -19q-8 0 -13 5.5t-5 13.5q0 7 5.5 12.5t12.5 5.5q8 0 13.5 -5t5.5 -13zM312 668q0 -8 -5 -13.5t-13 -5.5q-19 0 -19 19q0 8 5.5 13t13.5 5t13 -5t5 -13zM274 15 q0 -7 -5.5 -12.5t-13.5 -5.5t-13.5 5.5t-5.5 12.5q0 8 5.5 13.5t13.5 5.5t13.5 -5.5t5.5 -13.5zM220 172q0 -19 -19 -19q-8 0 -13 5.5t-5 13.5t5.5 13t12.5 5q8 0 13.5 -5t5.5 -13zM244 670q0 -8 -5.5 -13.5t-12.5 -5.5q-8 0 -13.5 5.5t-5.5 13.5t5.5 13.5t13.5 5.5 q7 0 12.5 -5.5t5.5 -13.5zM208 15q0 -8 -5.5 -13t-13.5 -5q-7 0 -12.5 5.5t-5.5 12.5q0 8 5 13.5t13 5.5q19 0 19 -19zM174 120q0 -8 -5.5 -13t-13.5 -5q-7 0 -12.5 5t-5.5 13t5 13.5t13 5.5q19 0 19 -19zM175 658q0 -8 -5.5 -13.5t-12.5 -5.5q-8 0 -13.5 5.5t-5.5 13.5 t5.5 13.5t13.5 5.5q7 0 12.5 -5.5t5.5 -13.5zM143 15q0 -7 -5.5 -12.5t-13.5 -5.5t-13.5 5.5t-5.5 12.5q0 8 5.5 13.5t13.5 5.5t13.5 -5.5t5.5 -13.5zM125 73q0 -7 -5.5 -13t-13.5 -6t-13.5 6t-5.5 13t5.5 13t13.5 6t13.5 -6t5.5 -13zM113 633q0 -8 -5.5 -13.5t-12.5 -5.5 q-8 0 -13.5 5.5t-5.5 13.5t5.5 13.5t13.5 5.5q7 0 12.5 -5.5t5.5 -13.5zM77 15q0 -8 -5.5 -13t-13.5 -5t-13 5.5t-5 12.5q0 8 5 13.5t13 5.5q19 0 19 -19z" />
<glyph unicode="3" horiz-adv-x="444" d="M358 71q8 0 13.5 5.5t5.5 13.5t-5.5 13.5t-13.5 5.5t-13.5 -5.5t-5.5 -13.5t5.5 -13.5t13.5 -5.5zM401 147q0 -8 -5.5 -13t-13.5 -5t-13 5.5t-5 12.5q0 8 5 13.5t13 5.5q19 0 19 -19zM404 212q0 -19 -19 -19q-8 0 -13 5.5t-5 13.5t5.5 13.5t12.5 5.5q8 0 13.5 -5.5 t5.5 -13.5zM384 275q0 -8 -5.5 -13.5t-13.5 -5.5t-13.5 5.5t-5.5 13.5q0 7 5.5 12.5t13.5 5.5t13.5 -5.5t5.5 -12.5zM379 508q0 -8 -5.5 -13.5t-12.5 -5.5q-8 0 -13.5 5.5t-5.5 13.5t5.5 13.5t13.5 5.5q7 0 12.5 -5.5t5.5 -13.5zM375 572q0 -8 -5.5 -13t-13.5 -5t-13 5 t-5 13t5 13.5t13 5.5q19 0 19 -19zM334 43q0 -7 -5 -12.5t-13 -5.5t-13.5 5t-5.5 13q0 19 19 19q8 0 13 -5.5t5 -13.5zM338 324q0 -8 -5.5 -13.5t-12.5 -5.5q-8 0 -13.5 5.5t-5.5 13.5t5.5 13.5t13.5 5.5q7 0 12.5 -5.5t5.5 -13.5zM322 392q0 -8 -5.5 -13.5t-12.5 -5.5 q-8 0 -13.5 5.5t-5.5 13.5t5.5 13.5t13.5 5.5q7 0 12.5 -5.5t5.5 -13.5zM362 445q0 -8 -5.5 -13.5t-13.5 -5.5q-7 0 -12.5 5.5t-5.5 13.5t5.5 13.5t12.5 5.5q8 0 13.5 -5.5t5.5 -13.5zM341 634q0 -8 -5.5 -13.5t-12.5 -5.5q-8 0 -13.5 5.5t-5.5 13.5t5.5 13.5t13.5 5.5 q7 0 12.5 -5.5t5.5 -13.5zM273 15q0 -8 -5.5 -13t-13.5 -5t-13 5.5t-5 12.5q0 8 5 13.5t13 5.5q19 0 19 -19zM273 343q0 -19 -19 -19q-8 0 -13 5.5t-5 13.5q0 7 5 12.5t13 5.5t13.5 -5t5.5 -13zM281 667q0 -8 -5.5 -13.5t-13.5 -5.5t-13.5 5.5t-5.5 13.5q0 7 5.5 12.5 t13.5 5.5t13.5 -5.5t5.5 -12.5zM208 15q0 -7 -5.5 -12.5t-13.5 -5.5t-13.5 5t-5.5 13q0 19 19 19q8 0 13.5 -5.5t5.5 -13.5zM208 343q0 -8 -5.5 -13.5t-13.5 -5.5q-19 0 -19 19q0 8 5.5 13t13.5 5t13.5 -5.5t5.5 -12.5zM209 670q0 -8 -5.5 -13.5t-13.5 -5.5t-13.5 5.5 t-5.5 13.5t5.5 13.5t13.5 5.5t13.5 -5.5t5.5 -13.5zM142 26q0 -8 -5.5 -13.5t-13.5 -5.5q-7 0 -12.5 5.5t-5.5 13.5t5.5 13.5t12.5 5.5q8 0 13.5 -5.5t5.5 -13.5zM142 653q0 -8 -5.5 -13.5t-13.5 -5.5q-7 0 -12.5 5.5t-5.5 13.5t5.5 13.5t12.5 5.5q8 0 13.5 -5.5t5.5 -13.5z M77 49q0 -7 -5.5 -12.5t-12.5 -5.5q-8 0 -13.5 5t-5.5 13q0 19 19 19q8 0 13 -5.5t5 -13.5zM82 628q0 -8 -5.5 -13.5t-12.5 -5.5q-8 0 -13.5 5.5t-5.5 13.5t5.5 13.5t13.5 5.5q7 0 12.5 -5.5t5.5 -13.5z" />
<glyph unicode="4" horiz-adv-x="556" d="M507 194q8 0 13.5 5.5t5.5 13.5t-5.5 13.5t-13.5 5.5q-7 0 -12.5 -5.5t-5.5 -13.5t5.5 -13.5t12.5 -5.5zM460 213q0 -8 -5.5 -13.5t-12.5 -5.5q-8 0 -13.5 5.5t-5.5 13.5t5.5 13.5t13.5 5.5q7 0 12.5 -5.5t5.5 -13.5zM395 17q0 -19 -19 -19q-8 0 -13 5.5t-5 13.5 q0 7 5 12.5t13 5.5t13.5 -5t5.5 -13zM395 82q0 -8 -5.5 -13.5t-13.5 -5.5q-7 0 -12.5 5.5t-5.5 13.5t5.5 13.5t12.5 5.5q8 0 13.5 -5.5t5.5 -13.5zM395 147q0 -8 -5.5 -13t-13.5 -5t-13 5.5t-5 12.5q0 8 5 13.5t13 5.5q19 0 19 -19zM395 213q0 -8 -5.5 -13.5t-13.5 -5.5 q-7 0 -12.5 5.5t-5.5 13.5t5.5 13.5t12.5 5.5q8 0 13.5 -5.5t5.5 -13.5zM395 278q0 -8 -5.5 -13t-13.5 -5t-13 5t-5 13t5 13.5t13 5.5q19 0 19 -19zM395 344q0 -19 -19 -19q-8 0 -13 5.5t-5 13.5t5 13t13 5t13.5 -5t5.5 -13zM395 409q0 -8 -5.5 -13t-13.5 -5t-13 5.5 t-5 12.5q0 8 5 13.5t13 5.5q19 0 19 -19zM395 475q0 -19 -19 -19q-8 0 -13 5.5t-5 13.5q0 7 5 12.5t13 5.5t13.5 -5t5.5 -13zM395 540q0 -8 -5.5 -13.5t-13.5 -5.5q-7 0 -12.5 5.5t-5.5 13.5t5.5 13.5t12.5 5.5q8 0 13.5 -5.5t5.5 -13.5zM395 606q0 -19 -19 -19 q-8 0 -13 5.5t-5 13.5t5 13t13 5t13.5 -5t5.5 -13zM395 671q0 -8 -5.5 -13.5t-13.5 -5.5q-7 0 -12.5 5.5t-5.5 13.5t5.5 13.5t12.5 5.5q8 0 13.5 -5.5t5.5 -13.5zM330 213q0 -7 -6 -13t-13 -6q-8 0 -13.5 5.5t-5.5 13.5t5.5 13.5t13.5 5.5q7 0 13 -6t6 -13zM335 605 q1 -8 -4.5 -13.5t-13.5 -5.5q-7 -1 -13 4.5t-6 13.5t5.5 13.5t12.5 5.5q8 0 13.5 -5t5.5 -13zM264 213q0 -8 -5.5 -13.5t-13.5 -5.5q-7 0 -12.5 5.5t-5.5 13.5t5.5 13.5t12.5 5.5q8 0 13.5 -5.5t5.5 -13.5zM299 550q0 -8 -5.5 -13.5t-12.5 -5.5q-8 0 -13.5 5t-5.5 13t5 13.5 t13 5.5t13.5 -5.5t5.5 -12.5zM199 213q0 -7 -5.5 -13t-13.5 -6t-13.5 6t-5.5 13t5.5 13t13.5 6t13.5 -6t5.5 -13zM191 386q0 -17 -19 -19q-17 0 -19 19q0 8 5.5 13.5t13.5 5.5t13.5 -5.5t5.5 -13.5zM263 496q0 -8 -5 -13.5t-13 -5.5q-8 -1 -13.5 4.5t-5.5 13.5q-1 7 4.5 13 t13.5 6t13.5 -5.5t5.5 -12.5zM227 441q0 -8 -5.5 -13.5t-12.5 -5.5q-18 0 -20 18q0 8 5.5 13.5t13.5 5.5t13.5 -5.5t5.5 -12.5zM133 213q0 -8 -5.5 -13.5t-13.5 -5.5q-7 0 -12.5 5.5t-5.5 13.5t5.5 13.5t12.5 5.5q8 0 13.5 -5.5t5.5 -13.5zM119 277q0 -7 -5.5 -13t-13.5 -6 t-13.5 5.5t-5.5 13.5q0 17 18 19q18 0 20 -19zM155 332q0 -19 -19 -19q-8 0 -13.5 5.5t-5.5 12.5q0 8 5.5 13.5t13.5 5.5q17 0 19 -18zM68 213q0 -7 -6 -13t-13 -6t-13 6t-6 13t6 13t13 6t13 -6t6 -13z" />
<glyph unicode="5" horiz-adv-x="439" d="M366 124q8 0 13.5 6t5.5 13t-5.5 13t-13.5 6t-13.5 -6t-5.5 -13t5.5 -13t13.5 -6zM399 212q0 -8 -5.5 -13.5t-13.5 -5.5t-13.5 5.5t-5.5 13.5t5.5 13.5t13.5 5.5t13.5 -5.5t5.5 -13.5zM387 279q0 -19 -19 -19q-8 0 -13 5.5t-5 13.5q0 7 5 12.5t13 5.5t13.5 -5t5.5 -13z M353 79q0 -8 -5.5 -13t-13.5 -5t-13 5.5t-5 12.5q0 8 5 13.5t13 5.5q19 0 19 -19zM353 338q0 -8 -5.5 -13t-13.5 -5t-13 5t-5 13t5 13.5t13 5.5q19 0 19 -19zM360 670q0 -8 -6 -13.5t-13 -5.5t-13 5.5t-6 13.5t6 13.5t13 5.5t13 -5.5t6 -13.5zM297 35q0 -8 -5 -13.5 t-13 -5.5q-19 0 -19 19q0 8 5.5 13t13.5 5q7 0 12.5 -5.5t5.5 -12.5zM294 379q0 -19 -19 -19q-8 0 -13 5.5t-5 13.5q0 7 5.5 12.5t12.5 5.5q8 0 13.5 -5t5.5 -13zM294 670q0 -8 -5.5 -13.5t-13.5 -5.5q-7 0 -12.5 5.5t-5.5 13.5t5.5 13.5t12.5 5.5q8 0 13.5 -5.5t5.5 -13.5z M229 15q0 -7 -5.5 -12.5t-13.5 -5.5t-13.5 5.5t-5.5 12.5q0 8 5.5 13.5t13.5 5.5t13.5 -5.5t5.5 -13.5zM229 402q0 -8 -5.5 -13.5t-13.5 -5.5t-13.5 5.5t-5.5 13.5q0 7 5.5 12.5t13.5 5.5t13.5 -5.5t5.5 -12.5zM229 670q0 -8 -5.5 -13.5t-13.5 -5.5t-13.5 5.5t-5.5 13.5 t5.5 13.5t13.5 5.5t13.5 -5.5t5.5 -13.5zM163 15q0 -8 -5.5 -13t-13.5 -5t-13 5.5t-5 12.5q0 8 5 13.5t13 5.5q19 0 19 -19zM163 408q0 -8 -5.5 -13.5t-13.5 -5.5q-7 0 -12.5 5.5t-5.5 13.5t5 13.5t13 5.5q19 0 19 -19zM163 670q0 -8 -5.5 -13.5t-13.5 -5.5q-7 0 -12.5 5.5 t-5.5 13.5t5.5 13.5t12.5 5.5q8 0 13.5 -5.5t5.5 -13.5zM98 35q0 -8 -5.5 -13.5t-13.5 -5.5t-13.5 5.5t-5.5 13.5q0 7 5.5 12.5t13.5 5.5t13.5 -5.5t5.5 -12.5zM98 408q0 -8 -6 -13.5t-13 -5.5t-13 5.5t-6 13.5t5.5 13.5t13.5 5.5t13.5 -5.5t5.5 -13.5zM98 474 q0 -8 -5.5 -13.5t-13.5 -5.5t-13.5 5.5t-5.5 13.5q0 7 5.5 12.5t13.5 5.5t13.5 -5.5t5.5 -12.5zM98 539q0 -7 -6 -13t-13 -6t-13 6t-6 13t6 13t13 6t13 -6t6 -13zM98 605q0 -8 -5.5 -13.5t-13.5 -5.5t-13.5 5.5t-5.5 13.5q0 7 5.5 12.5t13.5 5.5t13.5 -5.5t5.5 -12.5z M98 670q0 -8 -6 -13.5t-13 -5.5t-13 5.5t-6 13.5t6 13.5t13 5.5t13 -5.5t6 -13.5z" />
<glyph unicode="6" horiz-adv-x="460" d="M368 62q8 0 13.5 6t5.5 13t-5.5 13t-13.5 6t-13.5 -6t-5.5 -13t5.5 -13t13.5 -6zM413 145q0 -8 -5.5 -13t-13.5 -5t-13 5.5t-5 12.5q0 8 5 13.5t13 5.5q19 0 19 -19zM420 212q0 -19 -19 -19q-8 0 -13 5.5t-5 13.5t5.5 13.5t12.5 5.5q8 0 13.5 -5.5t5.5 -13.5zM412 278 q0 -8 -5.5 -13.5t-13.5 -5.5q-7 0 -12.5 5.5t-5.5 13.5t5.5 13.5t12.5 5.5q8 0 13.5 -5.5t5.5 -13.5zM386 338q0 -7 -5.5 -12.5t-13.5 -5.5t-13.5 5t-5.5 13q0 19 19 19q8 0 13.5 -5.5t5.5 -13.5zM404 652q0 -8 -5 -13t-13 -5t-13.5 5t-5.5 13q0 19 19 19q8 0 13 -5.5 t5 -13.5zM339 32q0 -8 -5.5 -13t-13.5 -5t-13 5t-5 13t5 13.5t13 5.5q19 0 19 -19zM333 383q0 -8 -5.5 -13t-13.5 -5t-13 5.5t-5 12.5q0 8 5 13.5t13 5.5q19 0 19 -19zM341 670q0 -8 -5.5 -13.5t-13.5 -5.5t-13.5 5.5t-5.5 13.5t5.5 13.5t13.5 5.5t13.5 -5.5t5.5 -13.5z M273 15q0 -7 -5.5 -12.5t-12.5 -5.5q-8 0 -13.5 5t-5.5 13q0 19 19 19q8 0 13 -5.5t5 -13.5zM265 395q0 -8 -5.5 -13t-13.5 -5t-13 5.5t-5 12.5q0 8 5 13.5t13 5.5q19 0 19 -19zM272 670q0 -8 -5.5 -13.5t-13.5 -5.5q-7 0 -12.5 5.5t-5.5 13.5t5.5 13.5t12.5 5.5 q8 0 13.5 -5.5t5.5 -13.5zM208 15q0 -8 -5.5 -13t-13.5 -5q-7 0 -12.5 5.5t-5.5 12.5q0 8 5 13.5t13 5.5q19 0 19 -19zM198 381q0 -7 -6 -13t-13 -6t-13 6t-6 13t6 13t13 6t13 -6t6 -13zM208 647q0 -7 -6 -13t-13 -6t-13 6t-6 13t6 13t13 6t13 -6t6 -13zM150 45q0 -7 -6 -13 t-13 -6t-13 6t-6 13t6 13t13 6t13 -6t6 -13zM113 94q0 -8 -5.5 -13.5t-12.5 -5.5q-8 0 -13.5 5.5t-5.5 13.5t5.5 13.5t13.5 5.5q7 0 12.5 -5.5t5.5 -13.5zM140 345q0 -8 -5.5 -13.5t-12.5 -5.5q-8 0 -13.5 5.5t-5.5 13.5t5.5 13.5t13.5 5.5q7 0 12.5 -5.5t5.5 -13.5z M123 539q0 -7 -5.5 -13t-13.5 -6t-13.5 6t-5.5 13t5.5 13t13.5 6t13.5 -6t5.5 -13zM158 601q0 -8 -5 -13.5t-13 -5.5q-19 0 -19 19q0 8 5.5 13t13.5 5t13 -5.5t5 -12.5zM92 150q0 -7 -5.5 -12.5t-13.5 -5.5t-13.5 5.5t-5.5 12.5q0 8 5.5 13.5t13.5 5.5t13.5 -5.5t5.5 -13.5z M81 212q0 -8 -5.5 -13.5t-13.5 -5.5t-13.5 5.5t-5.5 13.5t5.5 13.5t13.5 5.5t13.5 -5.5t5.5 -13.5zM77 277q0 -8 -5.5 -13t-13.5 -5t-13 5.5t-5 12.5q0 8 5 13.5t13 5.5q19 0 19 -19zM77 343q0 -19 -19 -19q-8 0 -13 5.5t-5 13.5q0 7 5 12.5t13 5.5t13.5 -5t5.5 -13zM85 407 q0 -8 -5 -13.5t-13 -5.5q-19 0 -19 19q0 8 5.5 13t13.5 5q7 0 12.5 -5.5t5.5 -12.5zM99 474q0 -8 -5 -13.5t-13 -5.5q-19 0 -19 19q0 8 5.5 13t13.5 5q7 0 12.5 -5t5.5 -13z" />
<glyph unicode="7" horiz-adv-x="424" d="M348 593q19 0 19 19q0 8 -5.5 13t-13.5 5t-13 -5t-5 -13t5 -13.5t13 -5.5zM394 671q0 -8 -5.5 -13.5t-12.5 -5.5q-8 0 -13.5 5.5t-5.5 13.5t5.5 13.5t13.5 5.5q7 0 12.5 -5.5t5.5 -13.5zM285 433q0 -8 -5.5 -13.5t-12.5 -5.5q-8 0 -13.5 5.5t-5.5 13.5t5.5 13.5t13.5 5.5 q7 0 12.5 -5.5t5.5 -13.5zM313 493q0 -8 -5.5 -13.5t-13.5 -5.5t-13.5 5.5t-5.5 13.5q0 7 5.5 12.5t13.5 5.5t13.5 -5.5t5.5 -12.5zM340 552q0 -8 -6 -13.5t-13 -5.5t-13 5.5t-6 13.5t6 13.5t13 5.5t13 -5.5t6 -13.5zM329 671q0 -7 -5.5 -13t-13.5 -6t-13.5 6t-5.5 13 t5.5 13t13.5 6t13.5 -6t5.5 -13zM203 255q0 -8 -5 -13.5t-13 -5.5q-19 0 -19 19q0 8 5.5 13t13.5 5q7 0 12.5 -5.5t5.5 -12.5zM231 314q0 -8 -5.5 -13.5t-13.5 -5.5t-13.5 5.5t-5.5 13.5t5.5 13.5t13.5 5.5t13.5 -5.5t5.5 -13.5zM258 374q0 -19 -19 -19q-8 0 -13 5.5 t-5 13.5t5.5 13t12.5 5q8 0 13.5 -5t5.5 -13zM263 671q0 -8 -5.5 -13.5t-12.5 -5.5q-8 0 -13.5 5.5t-5.5 13.5t5.5 13.5t13.5 5.5q7 0 12.5 -5.5t5.5 -13.5zM149 136q0 -8 -5.5 -13.5t-13.5 -5.5t-13.5 5.5t-5.5 13.5q0 7 5.5 12.5t13.5 5.5t13.5 -5.5t5.5 -12.5zM176 195 q0 -8 -5.5 -13.5t-13.5 -5.5q-7 0 -12.5 5.5t-5.5 13.5t5.5 13.5t12.5 5.5q8 0 13.5 -5.5t5.5 -13.5zM198 671q0 -8 -5.5 -13.5t-13.5 -5.5q-7 0 -12.5 5.5t-5.5 13.5t5.5 13.5t12.5 5.5q8 0 13.5 -5.5t5.5 -13.5zM94 17q0 -8 -5 -13.5t-13 -5.5q-19 0 -19 19q0 8 5.5 13 t13.5 5t13 -5.5t5 -12.5zM121 76q0 -8 -5.5 -13.5t-12.5 -5.5q-8 0 -13.5 5.5t-5.5 13.5t5.5 13.5t13.5 5.5q7 0 12.5 -5.5t5.5 -13.5zM132 671q0 -8 -5.5 -13.5t-12.5 -5.5q-8 0 -13.5 5.5t-5.5 13.5t5.5 13.5t13.5 5.5q7 0 12.5 -5.5t5.5 -13.5zM67 671q0 -8 -5.5 -13.5 t-13.5 -5.5q-7 0 -12.5 5.5t-5.5 13.5t5.5 13.5t12.5 5.5q8 0 13.5 -5.5t5.5 -13.5z" />
<glyph unicode="8" horiz-adv-x="452" d="M245 16q0 -8 -5.5 -13.5t-13.5 -5.5t-13.5 5.5t-5.5 13.5t5.5 13.5t13.5 5.5t13.5 -5.5t5.5 -13.5zM245 372q0 -8 -5.5 -13.5t-13.5 -5.5t-13.5 5.5t-5.5 13.5t5.5 13.5t13.5 5.5t13.5 -5.5t5.5 -13.5zM245 670q0 -7 -5.5 -12.5t-13.5 -5.5t-13.5 5.5t-5.5 12.5 q0 8 5.5 13.5t13.5 5.5t13.5 -5.5t5.5 -13.5zM177 21q0 -8 -5.5 -13.5t-12.5 -5.5q-8 0 -13.5 5.5t-5.5 13.5t5.5 13.5t13.5 5.5q7 0 12.5 -5.5t5.5 -13.5zM187 336q0 -19 -19 -19q-8 0 -13 5.5t-5 13.5t5 13t13 5t13.5 -5t5.5 -13zM186 402q0 -8 -6 -13.5t-13 -5.5t-13 5.5 t-6 13.5t6 13.5t13 5.5t13 -5.5t6 -13.5zM177 665q0 -8 -5 -13.5t-13 -5.5q-19 0 -19 19q0 8 5.5 13t13.5 5q7 0 12.5 -5.5t5.5 -12.5zM85 109q0 -8 -5.5 -13.5t-13.5 -5.5q-7 0 -12.5 5.5t-5.5 13.5t5.5 13.5t12.5 5.5q8 0 13.5 -5.5t5.5 -13.5zM118 52q0 -8 -5.5 -13.5 t-13.5 -5.5q-7 0 -12.5 5.5t-5.5 13.5t5.5 13.5t12.5 5.5q8 0 13.5 -5.5t5.5 -13.5zM132 296q0 -8 -5.5 -13.5t-13.5 -5.5q-7 0 -12.5 5.5t-5.5 13.5t5.5 13.5t12.5 5.5q8 0 13.5 -5.5t5.5 -13.5zM135 446q0 -8 -5.5 -13t-12.5 -5q-8 0 -13.5 5t-5.5 13q0 19 19 19 q8 0 13 -5.5t5 -13.5zM98 502q0 -8 -5.5 -13.5t-12.5 -5.5q-8 0 -13.5 5.5t-5.5 13.5q0 19 19 19q8 0 13 -5.5t5 -13.5zM92 569q0 -8 -5 -13.5t-13 -5.5q-19 0 -19 19q0 8 5.5 13t13.5 5t13 -5.5t5 -12.5zM120 629q0 -8 -5.5 -13t-13.5 -5q-7 0 -12.5 5.5t-5.5 12.5 q0 8 5 13.5t13 5.5q19 0 19 -19zM78 175q0 -8 -5.5 -13.5t-13.5 -5.5t-13.5 5.5t-5.5 13.5q0 7 5.5 12.5t13.5 5.5t13.5 -5.5t5.5 -12.5zM92 240q0 -8 -5 -13t-13 -5t-13.5 5t-5.5 13q0 19 19 19q8 0 13 -5.5t5 -13.5zM294 2q-8 0 -13.5 5.5t-5.5 13.5t5.5 13.5t13.5 5.5 q7 0 12.5 -5.5t5.5 -13.5t-5.5 -13.5t-12.5 -5.5zM284 317q-19 0 -19 19q0 8 5.5 13t13.5 5t13 -5t5 -13t-5 -13.5t-13 -5.5zM285 383q-7 0 -12.5 5.5t-5.5 13.5t5.5 13.5t12.5 5.5q8 0 13.5 -5.5t5.5 -13.5t-5.5 -13.5t-13.5 -5.5zM294 646q-19 0 -19 19q0 8 5.5 13t13.5 5 t13 -5.5t5 -12.5q0 -8 -5 -13.5t-13 -5.5zM386 90q-8 0 -13.5 5.5t-5.5 13.5t5.5 13.5t13.5 5.5t13.5 -6t5.5 -13t-5.5 -13t-13.5 -6zM353 33q-7 0 -13 5.5t-6 13.5t6 13.5t13 5.5t13 -5.5t6 -13.5t-6 -13.5t-13 -5.5zM339 277q-8 0 -13.5 5.5t-5.5 13.5t5.5 13.5t13.5 5.5 q7 0 12.5 -5.5t5.5 -13.5t-5.5 -13.5t-12.5 -5.5zM336 428q-8 0 -13.5 5t-5.5 13q0 19 19 19q8 0 13 -5.5t5 -13.5t-5 -13t-13 -5zM373 483q-8 0 -13.5 5.5t-5.5 13.5q0 19 19 19q8 0 13 -5.5t5 -13.5t-5.5 -13.5t-12.5 -5.5zM379 550q-19 0 -19 19q0 8 5.5 13t13.5 5 q7 0 12.5 -5.5t5.5 -12.5q0 -8 -5 -13.5t-13 -5.5zM351 611q-8 0 -13.5 5.5t-5.5 12.5q0 8 5.5 13.5t13.5 5.5t13.5 -5.5t5.5 -13.5q0 -7 -5.5 -12.5t-13.5 -5.5zM393 156q-8 0 -13 5.5t-5 13.5q0 7 5.5 12.5t12.5 5.5q8 0 13.5 -5t5.5 -13q0 -19 -19 -19zM379 222 q-8 0 -13.5 5t-5.5 13q0 19 19 19q8 0 13 -5.5t5 -13.5t-5.5 -13t-12.5 -5z" />
<glyph unicode="9" horiz-adv-x="461" d="M92 623q-8 0 -13.5 -5.5t-5.5 -12.5q0 -8 5.5 -13.5t13.5 -5.5t13.5 5.5t5.5 13.5q0 7 -5.5 12.5t-13.5 5.5zM47 540q0 8 5.5 13.5t13.5 5.5t13.5 -5.5t5.5 -13.5t-5.5 -13.5t-13.5 -5.5t-13.5 5.5t-5.5 13.5zM40 474q0 8 5.5 13t13.5 5q7 0 12.5 -5t5.5 -13t-5 -13.5 t-13 -5.5q-19 0 -19 19zM48 407q0 8 5.5 13.5t13.5 5.5t13.5 -5.5t5.5 -13.5q0 -7 -5.5 -12.5t-13.5 -5.5t-13.5 5.5t-5.5 12.5zM75 347q0 8 5.5 13.5t12.5 5.5q8 0 13.5 -5.5t5.5 -13.5t-5.5 -13.5t-13.5 -5.5q-7 0 -12.5 5.5t-5.5 13.5zM56 33q0 8 5.5 13.5t12.5 5.5 q8 0 13.5 -5.5t5.5 -13.5t-5.5 -13.5t-13.5 -5.5q-7 0 -12.5 5.5t-5.5 13.5zM121 653q0 8 5.5 13.5t13.5 5.5t13.5 -5.5t5.5 -13.5q0 -7 -5.5 -13t-13.5 -6t-13.5 6t-5.5 13zM127 302q0 8 5.5 13.5t13.5 5.5q7 0 12.5 -5.5t5.5 -13.5t-5.5 -13.5t-12.5 -5.5q-8 0 -13.5 5.5 t-5.5 13.5zM120 15q0 8 5 13.5t13 5.5q19 0 19 -19q0 -8 -5.5 -13t-13.5 -5t-13 5.5t-5 12.5zM187 670q0 8 5.5 13.5t12.5 5.5q8 0 13.5 -5.5t5.5 -13.5t-5.5 -13.5t-13.5 -5.5q-7 0 -12.5 5.5t-5.5 13.5zM195 290q0 8 5.5 13.5t13.5 5.5q7 0 12.5 -5.5t5.5 -13.5 t-5.5 -13.5t-12.5 -5.5q-8 0 -13.5 5.5t-5.5 13.5zM188 15q0 19 19 19q8 0 13 -5.5t5 -13.5q0 -7 -5.5 -12.5t-12.5 -5.5q-8 0 -13.5 5t-5.5 13zM252 670q0 8 6 13.5t13 5.5t13 -5.5t6 -13.5t-6 -13.5t-13 -5.5t-13 5.5t-6 13.5zM262 305q0 7 5.5 12.5t13.5 5.5t13.5 -5.5 t5.5 -12.5q0 -8 -5.5 -13.5t-13.5 -5.5t-13.5 5.5t-5.5 13.5zM253 39q0 7 5.5 12.5t12.5 5.5q8 0 13.5 -5t5.5 -13q0 -19 -19 -19q-8 0 -13 5.5t-5 13.5zM310 640q0 8 5.5 13.5t13.5 5.5t13.5 -5.5t5.5 -13.5q0 -7 -5.5 -12.5t-13.5 -5.5t-13.5 5.5t-5.5 12.5zM347 592 q0 8 5.5 13t13.5 5t13 -5t5 -13t-5 -13.5t-13 -5.5q-19 0 -19 19zM320 340q0 19 19 19q8 0 13 -5.5t5 -13.5t-5.5 -13t-12.5 -5q-8 0 -13.5 5t-5.5 13zM338 146q0 8 5 13.5t13 5.5q19 0 19 -19q0 -8 -5.5 -13t-13.5 -5t-13 5t-5 13zM302 85q0 8 5.5 13.5t13.5 5.5 q7 0 12.5 -5.5t5.5 -13.5t-5.5 -13.5t-12.5 -5.5q-8 0 -13.5 5.5t-5.5 13.5zM368 535q0 7 6 13t13 6t13 -6t6 -13t-6 -13t-13 -6t-13 6t-6 13zM380 474q0 8 5 13t13 5t13.5 -5t5.5 -13q0 -19 -19 -19q-8 0 -13 5.5t-5 13.5zM383 408q0 8 5.5 13.5t13.5 5.5t13.5 -5.5 t5.5 -13.5t-5.5 -13.5t-13.5 -5.5t-13.5 5.5t-5.5 13.5zM383 343q0 7 5.5 12.5t13.5 5.5t13.5 -5.5t5.5 -12.5q0 -8 -5.5 -13.5t-13.5 -5.5t-13.5 5.5t-5.5 13.5zM375 279q0 8 5.5 13.5t13.5 5.5q7 0 12.5 -5.5t5.5 -13.5t-5.5 -13.5t-12.5 -5.5q-8 0 -13.5 5.5t-5.5 13.5z M361 212q0 8 5.5 13.5t12.5 5.5q8 0 13.5 -5.5t5.5 -13.5q0 -19 -19 -19q-8 0 -13 5.5t-5 13.5z" />
<glyph unicode=":" horiz-adv-x="118" d="M59 -3q8 0 13.5 5.5t5.5 12.5q0 8 -5.5 13.5t-13.5 5.5t-13.5 -5.5t-5.5 -13.5q0 -7 5.5 -12.5t13.5 -5.5zM78 343q0 -8 -5.5 -13.5t-13.5 -5.5t-13.5 5.5t-5.5 13.5q0 7 5.5 12.5t13.5 5.5t13.5 -5.5t5.5 -12.5z" />
<glyph unicode=";" horiz-adv-x="133" d="M29 -126q7 0 12.5 5.5t5.5 13.5t-5.5 13.5t-12.5 5.5q-8 0 -13.5 -5.5t-5.5 -13.5t5.5 -13.5t13.5 -5.5zM91 -50q0 -8 -5.5 -13.5t-13.5 -5.5q-19 0 -19 19q0 8 5.5 13t13.5 5t13.5 -5.5t5.5 -12.5zM93 15q0 -7 -5.5 -12.5t-12.5 -5.5q-8 0 -13.5 5t-5.5 13q0 19 19 19 q8 0 13 -5.5t5 -13.5zM93 343q0 -8 -5 -13.5t-13 -5.5q-19 0 -19 19q0 8 5.5 13t13.5 5q7 0 12.5 -5.5t5.5 -12.5z" />
<glyph unicode="&#x3c;" horiz-adv-x="344" d="M305 514q-8 0 -13.5 5.5t-5.5 13.5q0 7 5.5 12.5t13.5 5.5t13.5 -5.5t5.5 -12.5q0 -8 -5.5 -13.5t-13.5 -5.5zM252 476q-8 0 -13.5 5.5t-5.5 13.5q0 7 5.5 12.5t13.5 5.5t13.5 -5.5t5.5 -12.5q0 -8 -5.5 -13.5t-13.5 -5.5zM218 457q0 -8 -5.5 -13.5t-13.5 -5.5t-13.5 5.5 t-5.5 13.5q0 7 5.5 12.5t13.5 5.5t13.5 -5.5t5.5 -12.5zM164 419q0 -8 -5.5 -13.5t-13.5 -5.5q-7 0 -12.5 5.5t-5.5 13.5t5.5 13.5t12.5 5.5q8 0 13.5 -5.5t5.5 -13.5zM111 381q0 -8 -5.5 -13.5t-13.5 -5.5q-7 0 -12.5 5.5t-5.5 13.5t5.5 13.5t12.5 5.5q8 0 13.5 -5.5 t5.5 -13.5zM324 153q0 -7 -6 -13t-13 -6t-13 6t-6 13t6 13t13 6t13 -6t6 -13zM271 191q0 -7 -5.5 -13t-13.5 -6t-13.5 6t-5.5 13t5.5 13t13.5 6t13.5 -6t5.5 -13zM199 248q7 0 13 -6t6 -13t-6 -13t-13 -6t-13 6t-6 13t6 13t13 6zM145 285q8 0 13.5 -5t5.5 -13q0 -19 -19 -19 q-8 0 -13 5.5t-5 13.5q0 7 5.5 12.5t12.5 5.5zM92 323q8 0 13.5 -5t5.5 -13q0 -19 -19 -19q-8 0 -13 5.5t-5 13.5q0 7 5 12.5t13 5.5zM58 343q0 -8 -5.5 -13.5t-13.5 -5.5q-19 0 -19 19q0 8 5.5 13t13.5 5t13.5 -5.5t5.5 -12.5z" />
<glyph unicode="=" horiz-adv-x="444" d="M321 193q8 0 13.5 5.5t5.5 13.5t-6 13.5t-13 5.5q-8 0 -13.5 -5.5t-5.5 -13.5q0 -19 19 -19zM340 408q0 -8 -6 -13.5t-13 -5.5q-8 0 -13.5 5.5t-5.5 13.5q0 19 19 19q8 0 13.5 -5.5t5.5 -13.5zM274 212q0 -19 -19 -19q-8 0 -13 5.5t-5 13.5t5.5 13.5t12.5 5.5 q8 0 13.5 -5.5t5.5 -13.5zM274 408q0 -8 -5.5 -13.5t-13.5 -5.5q-7 0 -12.5 5.5t-5.5 13.5t5 13.5t13 5.5q19 0 19 -19zM404 212q0 -8 -5.5 -13.5t-13.5 -5.5t-13.5 5.5t-5.5 13.5t6 13.5t13 5.5t13 -5.5t6 -13.5zM404 408q0 -8 -6 -13.5t-13 -5.5t-13 5.5t-6 13.5t5.5 13.5 t13.5 5.5t13.5 -5.5t5.5 -13.5zM209 212q0 -8 -5.5 -13.5t-13.5 -5.5t-13.5 5.5t-5.5 13.5t5.5 13.5t13.5 5.5t13.5 -5.5t5.5 -13.5zM209 408q0 -8 -5.5 -13.5t-13.5 -5.5t-13.5 5.5t-5.5 13.5t5.5 13.5t13.5 5.5t13.5 -5.5t5.5 -13.5zM143 212q0 -19 -19 -19q-8 0 -13 5.5 t-5 13.5t5.5 13.5t12.5 5.5q8 0 13.5 -5.5t5.5 -13.5zM143 408q0 -8 -5.5 -13.5t-13.5 -5.5q-7 0 -12.5 5.5t-5.5 13.5t5 13.5t13 5.5q19 0 19 -19zM78 212q0 -8 -5.5 -13.5t-13.5 -5.5t-13.5 5.5t-5.5 13.5t6 13.5t13 5.5t13 -5.5t6 -13.5zM78 408q0 -8 -6 -13.5t-13 -5.5 t-13 5.5t-6 13.5t5.5 13.5t13.5 5.5t13.5 -5.5t5.5 -13.5z" />
<glyph unicode="&#x3e;" horiz-adv-x="343" d="M20 533q0 7 5 12.5t13 5.5t13.5 -5t5.5 -13q0 -19 -19 -19q-8 0 -13 5.5t-5 13.5zM73 495q0 7 5.5 12.5t12.5 5.5q8 0 13.5 -5t5.5 -13q0 -19 -19 -19q-8 0 -13 5.5t-5 13.5zM144 438q-8 0 -13 5.5t-5 13.5q0 7 5 12.5t13 5.5t13.5 -5t5.5 -13q0 -19 -19 -19zM198 400 q-8 0 -13.5 6t-5.5 13t5.5 13t13.5 6t13.5 -6t5.5 -13t-5.5 -13t-13.5 -6zM251 362q-7 0 -13 6t-6 13t6 13t13 6q8 0 13.5 -5.5t5.5 -13.5t-5.5 -13.5t-13.5 -5.5zM38 172q8 0 13.5 -5.5t5.5 -13.5t-5.5 -13.5t-13.5 -5.5q-7 0 -12.5 5.5t-5.5 13.5t5.5 13.5t12.5 5.5z M91 210q8 0 13.5 -5.5t5.5 -13.5t-5.5 -13.5t-13.5 -5.5q-7 0 -12.5 5.5t-5.5 13.5t5.5 13.5t12.5 5.5zM126 229q0 8 5.5 13.5t12.5 5.5q8 0 13.5 -5.5t5.5 -13.5t-5.5 -13.5t-13.5 -5.5q-7 0 -12.5 5.5t-5.5 13.5zM179 267q0 7 5.5 12.5t13.5 5.5t13.5 -5.5t5.5 -12.5 q0 -8 -5.5 -13.5t-13.5 -5.5t-13.5 5.5t-5.5 13.5zM232 305q0 7 5.5 12.5t13.5 5.5t13.5 -5t5.5 -13q0 -19 -19 -19q-8 0 -13.5 5.5t-5.5 13.5zM305 324q-19 0 -19 19q0 8 5.5 13t13.5 5q7 0 12.5 -5.5t5.5 -12.5q0 -8 -5 -13.5t-13 -5.5z" />
<glyph unicode="?" horiz-adv-x="338" d="M309 470q7 0 12.5 5t5.5 13t-5 13.5t-13 5.5q-19 0 -19 -19q0 -8 5.5 -13t13.5 -5zM293 431q0 -8 -5.5 -13.5t-13.5 -5.5q-7 0 -12.5 5.5t-5.5 13.5t5.5 13.5t12.5 5.5q8 0 13.5 -5.5t5.5 -13.5zM338 551q0 -7 -5.5 -12.5t-13.5 -5.5t-13.5 5.5t-5.5 12.5q0 8 5.5 13.5 t13.5 5.5t13.5 -5.5t5.5 -13.5zM322 614q0 -8 -5.5 -13.5t-13.5 -5.5q-7 0 -12.5 5.5t-5.5 13.5t5.5 13.5t12.5 5.5q8 0 13.5 -5.5t5.5 -13.5zM244 383q0 -8 -5.5 -13.5t-13.5 -5.5t-13.5 5.5t-5.5 13.5q0 7 6 13t13 6t13 -6t6 -13zM274 659q0 -8 -5.5 -13.5t-13.5 -5.5 q-7 0 -12.5 5.5t-5.5 13.5t5 13.5t13 5.5q19 0 19 -19zM194 335q0 -8 -5.5 -13.5t-13.5 -5.5q-7 0 -12.5 5.5t-5.5 13.5t5 13.5t13 5.5q19 0 19 -19zM209 670q0 -8 -5.5 -13.5t-13.5 -5.5t-13.5 5.5t-5.5 13.5t5.5 13.5t13.5 5.5t13.5 -5.5t5.5 -13.5zM143 15q0 -8 -5.5 -13 t-13.5 -5t-13 5.5t-5 12.5q0 8 5 13.5t13 5.5q19 0 19 -19zM143 212q0 -19 -19 -19q-8 0 -13 5.5t-5 13.5t5.5 13.5t12.5 5.5q8 0 13.5 -5.5t5.5 -13.5zM154 277q0 -7 -5.5 -12.5t-13.5 -5.5t-13.5 5.5t-5.5 12.5q0 8 5.5 13.5t13.5 5.5t13.5 -5.5t5.5 -13.5zM141 661 q0 -8 -5.5 -13.5t-13.5 -5.5q-7 0 -12.5 5.5t-5.5 13.5t5 13.5t13 5.5q19 0 19 -19zM78 637q0 -8 -5.5 -13.5t-13.5 -5.5t-13.5 5.5t-5.5 13.5q0 7 5.5 12.5t13.5 5.5t13.5 -5.5t5.5 -12.5z" />
<glyph unicode="@" horiz-adv-x="796" d="M717 330q8 0 13.5 5.5t5.5 12.5q0 8 -5.5 13.5t-13.5 5.5t-13.5 -5.5t-5.5 -13.5q0 -7 5.5 -12.5t13.5 -5.5zM734 415q0 -8 -5.5 -13t-13.5 -5q-7 0 -12.5 5.5t-5.5 12.5q0 8 5 13.5t13 5.5q19 0 19 -19zM724 481q0 -19 -19 -19q-8 0 -13 5.5t-5 13.5q0 7 5.5 12.5 t12.5 5.5q8 0 13.5 -5t5.5 -13zM694 224q0 -8 -5.5 -13.5t-13.5 -5.5q-7 0 -12.5 5.5t-5.5 13.5t5.5 13.5t12.5 5.5q8 0 13.5 -5.5t5.5 -13.5zM724 283q0 -7 -6 -13t-13 -6t-13 6t-6 13t6 13t13 6t13 -6t6 -13zM699 542q0 -8 -5.5 -13.5t-13.5 -5.5q-7 0 -12.5 5.5 t-5.5 13.5t5 13.5t13 5.5q19 0 19 -19zM659 595q0 -8 -5.5 -13.5t-12.5 -5.5q-8 0 -13.5 5.5t-5.5 13.5t5.5 13.5t13.5 5.5q7 0 12.5 -5.5t5.5 -13.5zM645 180q0 -8 -5.5 -13.5t-12.5 -5.5q-8 0 -13.5 5.5t-5.5 13.5t5.5 13.5t13.5 5.5q7 0 12.5 -5.5t5.5 -13.5zM524 38 q0 -7 -5.5 -12.5t-13.5 -5.5t-13.5 5.5t-5.5 12.5q0 8 5.5 13.5t13.5 5.5t13.5 -5.5t5.5 -13.5zM579 175q0 -8 -5.5 -13t-13.5 -5t-13 5.5t-5 12.5q0 8 5 13.5t13 5.5q19 0 19 -19zM551 467q0 -7 -5.5 -12.5t-12.5 -5.5q-8 0 -13.5 5t-5.5 13q0 19 19 19q8 0 13 -5.5 t5 -13.5zM606 634q0 -8 -5.5 -13.5t-13.5 -5.5q-7 0 -12.5 5.5t-5.5 13.5t5.5 13.5t12.5 5.5q8 0 13.5 -5.5t5.5 -13.5zM459 18q0 -8 -5.5 -13.5t-12.5 -5.5q-8 0 -13.5 5.5t-5.5 13.5t5.5 13.5t13.5 5.5q7 0 12.5 -5.5t5.5 -13.5zM534 220q0 -8 -5.5 -13.5t-13.5 -5.5 q-7 0 -12.5 5.5t-5.5 13.5t5.5 13.5t12.5 5.5q8 0 13.5 -5.5t5.5 -13.5zM505 277q0 -8 -5.5 -13t-13.5 -5t-13 5.5t-5 12.5q0 8 5 13.5t13 5.5q19 0 19 -19zM522 341q0 -8 -5.5 -13.5t-13.5 -5.5t-13.5 5.5t-5.5 13.5q0 7 5.5 12.5t13.5 5.5t13.5 -5.5t5.5 -12.5zM536 404 q0 -8 -5.5 -13t-13.5 -5q-7 0 -12.5 5t-5.5 13t5 13.5t13 5.5q19 0 19 -19zM494 462q0 -8 -5.5 -13.5t-12.5 -5.5q-8 0 -13.5 5.5t-5.5 13.5t5.5 13.5t13.5 5.5q7 0 12.5 -5.5t5.5 -13.5zM543 657q0 -8 -5.5 -13.5t-13.5 -5.5q-7 0 -12.5 5.5t-5.5 13.5t5.5 13.5t12.5 5.5 q8 0 13.5 -5.5t5.5 -13.5zM393 13q0 -7 -5.5 -13t-13.5 -6t-13.5 6t-5.5 13t5.5 13t13.5 6t13.5 -6t5.5 -13zM476 220q0 -8 -5.5 -13.5t-13.5 -5.5t-13.5 5.5t-5.5 13.5q0 7 5.5 12.5t13.5 5.5t13.5 -5.5t5.5 -12.5zM434 484q0 -8 -5.5 -13.5t-13.5 -5.5t-13.5 5.5 t-5.5 13.5q0 7 5.5 12.5t13.5 5.5t13.5 -5.5t5.5 -12.5zM477 667q0 -8 -5.5 -13t-13.5 -5t-13 5.5t-5 12.5q0 8 5 13.5t13 5.5q19 0 19 -19zM326 16q0 -8 -5.5 -13.5t-13.5 -5.5q-7 0 -12.5 5.5t-5.5 13.5t5.5 13.5t12.5 5.5q8 0 13.5 -5.5t5.5 -13.5zM420 182 q0 -19 -19 -19q-8 0 -13 5.5t-5 13.5t5.5 13t12.5 5q8 0 13.5 -5t5.5 -13zM371 465q0 -7 -5.5 -12.5t-13.5 -5.5t-13.5 5t-5.5 13q0 19 19 19q8 0 13.5 -5.5t5.5 -13.5zM411 667q0 -7 -5.5 -12.5t-13.5 -5.5t-13.5 5.5t-5.5 12.5q0 8 5.5 13.5t13.5 5.5t13.5 -5.5t5.5 -13.5 zM262 35q0 -7 -6 -13t-13 -6t-13 6t-6 13t6 13t13 6t13 -6t6 -13zM307 226q0 -8 -5.5 -13t-13.5 -5t-13 5t-5 13t5 13.5t13 5.5q19 0 19 -19zM354 181q0 -7 -5 -12.5t-13 -5.5t-13.5 5t-5.5 13q0 19 19 19q8 0 13 -5.5t5 -13.5zM292 291q0 -8 -5.5 -13.5t-12.5 -5.5 q-8 0 -13.5 5.5t-5.5 13.5t5.5 13.5t13.5 5.5q7 0 12.5 -5.5t5.5 -13.5zM299 356q0 -7 -5.5 -12.5t-13.5 -5.5t-13.5 5.5t-5.5 12.5q0 8 5.5 13.5t13.5 5.5t13.5 -5.5t5.5 -13.5zM325 416q0 -8 -5.5 -13t-13.5 -5t-13.5 5.5t-5.5 12.5q0 8 5.5 13.5t13.5 5.5q19 0 19 -19z M345 658q0 -8 -5.5 -13.5t-13.5 -5.5t-13.5 5.5t-5.5 13.5t5.5 13.5t13.5 5.5t13.5 -5.5t5.5 -13.5zM205 71q0 -7 -5.5 -12.5t-12.5 -5.5q-8 0 -13.5 5t-5.5 13q0 19 19 19q8 0 13 -5.5t5 -13.5zM283 635q0 -8 -5.5 -13.5t-13.5 -5.5t-13.5 5.5t-5.5 13.5q0 7 5.5 12.5 t13.5 5.5t13.5 -5.5t5.5 -12.5zM161 121q0 -7 -5.5 -12.5t-13.5 -5.5t-13.5 5.5t-5.5 12.5q0 8 5.5 13.5t13.5 5.5t13.5 -5.5t5.5 -13.5zM130 180q0 -8 -5.5 -13.5t-13.5 -5.5t-13.5 5.5t-5.5 13.5t6 13.5t13 5.5t13 -5.5t6 -13.5zM176 557q0 -8 -5.5 -13.5t-13.5 -5.5 q-7 0 -12.5 5.5t-5.5 13.5t5.5 13.5t12.5 5.5q8 0 13.5 -5.5t5.5 -13.5zM225 601q0 -8 -5.5 -13t-13.5 -5t-13 5.5t-5 12.5q0 8 5 13.5t13 5.5q19 0 19 -19zM107 242q0 -8 -5.5 -13t-12.5 -5q-8 0 -13.5 5t-5.5 13q0 19 19 19q8 0 13 -5.5t5 -13.5zM99 308q0 -7 -5.5 -12.5 t-13.5 -5.5t-13.5 5.5t-5.5 12.5q0 8 5.5 13.5t13.5 5.5t13.5 -5.5t5.5 -13.5zM98 375q0 -7 -6 -13t-13 -6t-13 6t-6 13t6 13t13 6t13 -6t6 -13zM111 441q0 -8 -5.5 -13.5t-12.5 -5.5q-8 0 -13.5 5.5t-5.5 13.5t5.5 13.5t13.5 5.5q7 0 12.5 -5.5t5.5 -13.5zM137 503 q0 -8 -5 -13.5t-13 -5.5q-19 0 -19 19q0 8 5.5 13t13.5 5q7 0 12.5 -5.5t5.5 -12.5z" />
<glyph unicode="A" horiz-adv-x="464" d="M297 259q19 0 19 19q0 8 -5.5 13t-13.5 5t-13.5 -5.5t-5.5 -12.5q0 -8 5.5 -13.5t13.5 -5.5zM251 278q0 -8 -5.5 -13.5t-13.5 -5.5t-13.5 5.5t-5.5 13.5q0 7 5.5 12.5t13.5 5.5t13.5 -5.5t5.5 -12.5zM251 670q0 -7 -5.5 -12.5t-13.5 -5.5t-13.5 5.5t-5.5 12.5 q0 8 5.5 13.5t13.5 5.5t13.5 -5.5t5.5 -13.5zM185 278q0 -19 -19 -19q-8 0 -13 5.5t-5 13.5t5 13t13 5t13.5 -5t5.5 -13zM281 521q-19 0 -19 19q0 8 5.5 13t13.5 5q7 0 12.5 -5t5.5 -13t-5 -13.5t-13 -5.5zM259 586q-8 0 -13.5 5.5t-5.5 13.5t5.5 13.5t13.5 5.5 q7 0 12.5 -5.5t5.5 -13.5t-5.5 -13.5t-12.5 -5.5zM343 325q-8 0 -13.5 5.5t-5.5 12.5q0 8 5.5 13.5t13.5 5.5t13.5 -5.5t5.5 -13.5q0 -7 -5.5 -12.5t-13.5 -5.5zM322 390q-8 0 -13.5 5.5t-5.5 13.5q0 7 5.5 12.5t13.5 5.5t13.5 -5.5t5.5 -12.5q0 -8 -5.5 -13.5t-13.5 -5.5z M301 455q-7 0 -12.5 5.5t-5.5 13.5t5.5 13.5t12.5 5.5q8 0 13.5 -5.5t5.5 -13.5t-5.5 -13.5t-13.5 -5.5zM384 194q-8 0 -13.5 5.5t-5.5 12.5q0 8 5.5 13.5t13.5 5.5t13.5 -5.5t5.5 -13.5q0 -7 -5.5 -12.5t-13.5 -5.5zM363 259q-19 0 -19 19q0 8 5.5 13t13.5 5q7 0 12.5 -5 t5.5 -13t-5 -13.5t-13 -5.5zM425 63q-8 0 -13.5 5.5t-5.5 12.5q0 8 5.5 13.5t13.5 5.5t13.5 -5.5t5.5 -13.5q0 -7 -5.5 -12.5t-13.5 -5.5zM404 128q-8 0 -13.5 6t-5.5 13t5.5 13t13.5 6t13.5 -5.5t5.5 -13.5t-5.5 -13.5t-13.5 -5.5zM445 -3q-7 0 -12.5 5.5t-5.5 13.5 t5.5 13.5t12.5 5.5q8 0 13.5 -5.5t5.5 -13.5t-5.5 -13.5t-13.5 -5.5zM202 540q0 -8 -5.5 -13.5t-13.5 -5.5t-13.5 5.5t-5.5 13.5q0 7 5.5 12.5t13.5 5.5t13.5 -5.5t5.5 -12.5zM224 605q0 -8 -5.5 -13.5t-13.5 -5.5q-7 0 -12.5 5.5t-5.5 13.5t5.5 13.5t12.5 5.5 q8 0 13.5 -5.5t5.5 -13.5zM140 343q0 -7 -5.5 -12.5t-13.5 -5.5t-13.5 5t-5.5 13q0 19 19 19q8 0 13.5 -5.5t5.5 -13.5zM160 409q0 -8 -5 -13.5t-13 -5.5q-19 0 -19 19q0 8 5.5 13t13.5 5t13 -5.5t5 -12.5zM181 474q0 -8 -5.5 -13.5t-13.5 -5.5q-7 0 -12.5 5.5t-5.5 13.5 t5.5 13.5t12.5 5.5q8 0 13.5 -5.5t5.5 -13.5zM98 212q0 -8 -5 -13t-13 -5t-13.5 5t-5.5 13q0 19 19 19q8 0 13 -5.5t5 -13.5zM120 278q0 -8 -5.5 -13.5t-13.5 -5.5t-13.5 5.5t-5.5 13.5q0 7 5.5 12.5t13.5 5.5t13.5 -5.5t5.5 -12.5zM57 81q0 -7 -5.5 -12.5t-12.5 -5.5 q-8 0 -13.5 5t-5.5 13q0 19 19 19q8 0 13 -5.5t5 -13.5zM78 147q0 -8 -5.5 -13.5t-13.5 -5.5q-7 0 -12.5 5.5t-5.5 13.5t5.5 13.5t12.5 5.5q8 0 13.5 -5.5t5.5 -13.5zM37 16q0 -8 -5.5 -13.5t-13.5 -5.5q-7 0 -12.5 5.5t-5.5 13.5t5.5 13.5t12.5 5.5q8 0 13.5 -5.5 t5.5 -13.5z" />
<glyph unicode="B" horiz-adv-x="485" d="M406 65q8 0 13.5 5.5t5.5 13.5t-5.5 13.5t-13.5 5.5q-7 0 -12.5 -5.5t-5.5 -13.5t5.5 -13.5t12.5 -5.5zM445 147q0 -19 -19 -19q-8 0 -13.5 5.5t-5.5 13.5q0 7 5.5 12.5t13.5 5.5t13.5 -5t5.5 -13zM445 212q0 -8 -5.5 -13.5t-13.5 -5.5t-13.5 5.5t-5.5 13.5t5.5 13.5 t13.5 5.5t13.5 -5.5t5.5 -13.5zM427 272q0 -8 -5.5 -13t-12.5 -5q-8 0 -13.5 5t-5.5 13q0 19 19 19q8 0 13 -5.5t5 -13.5zM403 447q0 -8 -5.5 -13.5t-13.5 -5.5t-13.5 6t-5.5 13q0 8 5.5 13.5t13.5 5.5q19 0 19 -19zM415 513q0 -8 -5 -13.5t-13 -5.5q-19 0 -19 19 q0 8 5.5 13t13.5 5q7 0 12.5 -5.5t5.5 -12.5zM379 40q0 -7 -5.5 -12.5t-13.5 -5.5t-13.5 5.5t-5.5 12.5q0 8 5.5 13.5t13.5 5.5t13.5 -5.5t5.5 -13.5zM379 317q0 -8 -5.5 -13t-13.5 -5t-13 5.5t-5 12.5q0 8 5 13.5t13 5.5q19 0 19 -19zM366 392q0 -8 -5.5 -13.5t-13.5 -5.5 q-7 0 -12.5 5.5t-5.5 13.5t5.5 13.5t12.5 5.5q8 0 13.5 -5.5t5.5 -13.5zM409 576q0 -8 -5.5 -13t-12.5 -5q-8 0 -13.5 5t-5.5 13q0 19 19 19q8 0 13 -5.5t5 -13.5zM376 632q0 -8 -5.5 -13t-13.5 -5q-7 0 -12.5 5.5t-5.5 13.5q0 7 5.5 12.5t13.5 5.5t13.5 -6t4.5 -13zM315 20 q0 -8 -5.5 -13.5t-13.5 -5.5q-7 0 -12.5 5.5t-5.5 13.5t5.5 13.5t12.5 5.5q8 0 13.5 -5.5t5.5 -13.5zM314 343q0 -8 -5.5 -13.5t-13.5 -5.5q-7 0 -12.5 5.5t-5.5 13.5t5.5 13.5t12.5 5.5q8 0 13.5 -5.5t5.5 -13.5zM318 662q-2 -18 -19 -18q-8 0 -13.5 5.5t-5.5 13.5 q0 7 5.5 12.5t13.5 5.5q19 0 19 -19zM248 16q0 -8 -5 -13.5t-13 -5.5q-19 0 -19 19q0 8 5.5 13t13.5 5t13 -5t5 -13zM248 343q0 -8 -5.5 -13.5t-12.5 -5.5q-8 0 -13.5 5.5t-5.5 13.5t5.5 13.5t13.5 5.5q7 0 12.5 -5.5t5.5 -13.5zM248 671q0 -8 -5 -13.5t-13 -5.5 q-19 0 -19 19q0 8 5.5 13.5t13.5 5.5q7 0 12.5 -5.5t5.5 -13.5zM183 16q0 -19 -19 -19q-8 0 -13 5.5t-5 13.5t5 13t13 5t13.5 -5t5.5 -13zM183 343q0 -8 -5.5 -13.5t-13.5 -5.5q-7 0 -12.5 5.5t-5.5 13.5t5.5 13.5t12.5 5.5q8 0 13.5 -5.5t5.5 -13.5zM183 670q0 -8 -5.5 -13 t-13.5 -5t-13 5t-5 13t5 13.5t13 5.5q19 0 19 -19zM118 16q0 -8 -5.5 -13.5t-13.5 -5.5t-13.5 5.5t-5.5 13.5q0 7 5.5 12.5t13.5 5.5t13.5 -5.5t5.5 -12.5zM118 81q0 -7 -5.5 -12.5t-13.5 -5.5t-13.5 5.5t-5.5 12.5q0 8 5.5 13.5t13.5 5.5t13.5 -5.5t5.5 -13.5zM118 147 q0 -8 -5.5 -13.5t-13.5 -5.5t-13.5 5.5t-5.5 13.5q0 7 5.5 12.5t13.5 5.5t13.5 -5.5t5.5 -12.5zM118 212q0 -8 -6 -13.5t-13 -5.5t-13 5.5t-6 13.5t6 13.5t13 5.5t13 -5.5t6 -13.5zM118 278q0 -8 -5.5 -13.5t-13.5 -5.5t-13.5 5.5t-5.5 13.5q0 7 5.5 12.5t13.5 5.5 t13.5 -5.5t5.5 -12.5zM118 343q0 -7 -6 -13t-13 -6t-13 6t-6 13t6 13t13 6t13 -6t6 -13zM118 409q0 -8 -5.5 -13.5t-13.5 -5.5t-13.5 5.5t-5.5 13.5q0 7 5.5 12.5t13.5 5.5t13.5 -5.5t5.5 -12.5zM118 474q0 -8 -6 -13.5t-13 -5.5t-13 5.5t-6 13.5t6 13.5t13 5.5t13 -5.5 t6 -13.5zM118 539q0 -7 -5.5 -12.5t-13.5 -5.5t-13.5 5.5t-5.5 12.5q0 8 5.5 13.5t13.5 5.5t13.5 -5.5t5.5 -13.5zM118 605q0 -7 -6 -13t-13 -6t-13 6t-6 13t6 13t13 6t13 -6t6 -13zM118 670q0 -7 -5.5 -12.5t-13.5 -5.5t-13.5 5.5t-5.5 12.5q0 8 5.5 13.5t13.5 5.5 t13.5 -5.5t5.5 -13.5z" />
<glyph unicode="C" horiz-adv-x="503" d="M256 652q-8 0 -13 5t-5 13t5 13.5t13 5.5q19 0 19 -19q0 -8 -5.5 -13t-13.5 -5zM211 644q0 -8 -5.5 -13.5t-13.5 -5.5q-7 0 -12.5 5.5t-5.5 13.5t5.5 13.5t12.5 5.5q8 0 13.5 -5.5t5.5 -13.5zM157 600q0 -8 -5.5 -13t-13.5 -5t-13 5t-5 13t5 13.5t13 5.5q19 0 19 -19z M78 343q0 -7 -6 -13t-13 -6t-13 6t-6 13t6 13t13 6t13 -6t6 -13zM83 410q0 -8 -5.5 -13t-12.5 -5q-8 0 -13.5 5t-5.5 13q0 19 19 19q8 0 13 -5.5t5 -13.5zM95 478q0 -8 -5.5 -13.5t-13.5 -5.5t-13.5 5.5t-5.5 13.5t5.5 13.5t13.5 5.5t13.5 -5.5t5.5 -13.5zM119 543 q0 -8 -5.5 -13.5t-13.5 -5.5t-13.5 5.5t-5.5 13.5q0 7 5.5 12.5t13.5 5.5t13.5 -5.5t5.5 -12.5zM327 652q-7 0 -12.5 5t-5.5 13t5 13.5t13 5.5q19 0 19 -19q0 -8 -5.5 -13t-13.5 -5zM397 643q-8 0 -13 5.5t-5 13.5t5.5 13t12.5 5q8 0 13.5 -5t5.5 -13q0 -19 -19 -19z M464 621q-8 0 -13.5 5.5t-5.5 13.5t5.5 13.5t13.5 5.5t13.5 -5.5t5.5 -13.5t-5.5 -13.5t-13.5 -5.5zM275 16q0 -8 -5.5 -13.5t-13.5 -5.5q-7 0 -12.5 5.5t-5.5 13.5t5.5 13.5t12.5 5.5q8 0 13.5 -5.5t5.5 -13.5zM192 61q8 0 13.5 -5t5.5 -13q0 -19 -19 -19q-8 0 -13 5.5 t-5 13.5q0 7 5 12.5t13 5.5zM138 105q8 0 13.5 -5.5t5.5 -13.5t-5.5 -13.5t-13.5 -5.5q-7 0 -12.5 5.5t-5.5 13.5t5.5 13.5t12.5 5.5zM65 295q7 0 12.5 -5.5t5.5 -13.5t-5.5 -13.5t-12.5 -5.5q-8 0 -13.5 5.5t-5.5 13.5t5.5 13.5t13.5 5.5zM76 227q8 0 13.5 -5.5t5.5 -13.5 q0 -7 -5.5 -12.5t-13.5 -5.5t-13.5 5.5t-5.5 12.5q0 8 5.5 13.5t13.5 5.5zM100 162q8 0 13.5 -5.5t5.5 -12.5q0 -8 -5.5 -13.5t-13.5 -5.5t-13.5 5.5t-5.5 13.5q0 7 5.5 12.5t13.5 5.5zM309 16q0 8 5.5 13.5t12.5 5.5q8 0 13.5 -5.5t5.5 -13.5t-5.5 -13.5t-13.5 -5.5 q-7 0 -12.5 5.5t-5.5 13.5zM379 25q0 7 5.5 12.5t12.5 5.5q8 0 13.5 -5t5.5 -13q0 -19 -19 -19q-8 0 -13 5.5t-5 13.5zM445 46q0 8 5.5 13.5t13.5 5.5t13.5 -5.5t5.5 -13.5q0 -7 -5.5 -12.5t-13.5 -5.5t-13.5 5.5t-5.5 12.5z" />
<glyph unicode="D" horiz-adv-x="566" d="M186 670q0 -8 -5.5 -13t-13.5 -5q-7 0 -12.5 5t-5.5 13t5 13.5t13 5.5q19 0 19 -19zM117 343q0 -8 -5.5 -13t-13.5 -5t-13 5.5t-5 12.5q0 8 5 13.5t13 5.5q19 0 19 -19zM117 409q0 -19 -19 -19q-8 0 -13 5.5t-5 13.5q0 7 5 12.5t13 5.5t13.5 -5t5.5 -13zM117 474 q0 -8 -5.5 -13.5t-13.5 -5.5q-7 0 -12.5 5.5t-5.5 13.5t5.5 13.5t12.5 5.5q8 0 13.5 -5.5t5.5 -13.5zM117 540q0 -19 -19 -19q-8 0 -13 5.5t-5 13.5t5 13t13 5t13.5 -5t5.5 -13zM117 605q0 -8 -5.5 -13.5t-13.5 -5.5q-7 0 -12.5 5.5t-5.5 13.5t5.5 13.5t12.5 5.5 q8 0 13.5 -5.5t5.5 -13.5zM117 670q0 -8 -5.5 -13t-13.5 -5t-13 5t-5 13t5 13.5t13 5.5q19 0 19 -19zM167 35q8 0 13.5 -5.5t5.5 -13.5t-5.5 -13.5t-13.5 -5.5q-7 0 -12.5 5.5t-5.5 13.5t5.5 13.5t12.5 5.5zM98 296q8 0 13.5 -5t5.5 -13q0 -19 -19 -19q-8 0 -13 5.5t-5 13.5 t5 13t13 5zM98 231q19 0 19 -19q0 -8 -5.5 -13t-13.5 -5t-13 5t-5 13t5 13.5t13 5.5zM98 166q8 0 13.5 -5.5t5.5 -13.5t-5.5 -13.5t-13.5 -5.5q-7 0 -12.5 5.5t-5.5 13.5t5.5 13.5t12.5 5.5zM98 100q19 0 19 -19q0 -8 -5.5 -13t-13.5 -5t-13 5.5t-5 12.5q0 8 5 13.5t13 5.5z M98 35q8 0 13.5 -5.5t5.5 -13.5t-5.5 -13.5t-13.5 -5.5q-7 0 -12.5 5.5t-5.5 13.5t5.5 13.5t12.5 5.5zM239 652q8 0 13.5 5.5t5.5 12.5q0 8 -5.5 13.5t-13.5 5.5t-13.5 -5.5t-5.5 -13.5q0 -7 5.5 -12.5t13.5 -5.5zM310 652q-8 0 -13.5 5.5t-5.5 12.5q0 8 5.5 13.5t13.5 5.5 t13.5 -5.5t5.5 -13.5q0 -7 -5.5 -12.5t-13.5 -5.5zM374 625q-8 0 -13.5 5.5t-5.5 13.5q0 7 5.5 12.5t13.5 5.5t13.5 -5.5t5.5 -12.5q0 -8 -5.5 -13.5t-13.5 -5.5zM428 582q-8 0 -13.5 5.5t-5.5 12.5q0 8 5.5 13.5t13.5 5.5t13.5 -5.5t5.5 -13.5q0 -7 -5.5 -12.5t-13.5 -5.5z M507 324q-7 0 -12.5 5.5t-5.5 13.5t5.5 13.5t12.5 5.5q8 0 13.5 -5.5t5.5 -13.5t-5.5 -13.5t-13.5 -5.5zM502 392q-8 0 -13.5 5t-5.5 13q0 19 19 19q8 0 13 -5.5t5 -13.5t-5 -13t-13 -5zM490 459q-8 0 -13 5.5t-5 13.5t5 13t13 5t13.5 -5t5.5 -13q0 -19 -19 -19zM466 524 q-8 0 -13 5.5t-5 13.5q0 7 5 12.5t13 5.5t13.5 -5t5.5 -13q0 -19 -19 -19zM258 16q0 8 -6 13.5t-13 5.5t-13 -5.5t-6 -13.5t5.5 -13.5t13.5 -5.5t13.5 5.5t5.5 13.5zM291 16q0 8 5.5 13.5t13.5 5.5t13.5 -5.5t5.5 -13.5t-5.5 -13.5t-13.5 -5.5t-13.5 5.5t-5.5 13.5zM355 42 q0 8 5.5 13.5t13.5 5.5t13.5 -5.5t5.5 -13.5q0 -7 -5.5 -12.5t-13.5 -5.5t-13.5 5.5t-5.5 12.5zM409 86q0 8 5.5 13.5t13.5 5.5t13.5 -5.5t5.5 -13.5t-5.5 -13.5t-13.5 -5.5t-13.5 5.5t-5.5 13.5zM483 276q0 8 5.5 13.5t13.5 5.5q7 0 12.5 -5.5t5.5 -13.5t-5.5 -13.5 t-12.5 -5.5q-8 0 -13.5 5.5t-5.5 13.5zM472 208q0 8 5 13.5t13 5.5q19 0 19 -19q0 -8 -5.5 -13t-13.5 -5t-13 5t-5 13zM448 144q0 8 5 13t13 5t13.5 -5t5.5 -13q0 -19 -19 -19q-8 0 -13 5.5t-5 13.5z" />
<glyph unicode="E" horiz-adv-x="400" d="M361 -2q8 0 13.5 5.5t5.5 12.5q0 8 -5.5 13.5t-13.5 5.5q-19 0 -19 -19q0 -8 5.5 -13t13.5 -5zM380 671q0 -7 -6 -13t-13 -6q-8 0 -13.5 5.5t-5.5 13.5t5.5 13.5t13.5 5.5q7 0 13 -6t6 -13zM314 16q0 -8 -5.5 -13t-13.5 -5q-7 0 -12.5 5t-5.5 13t5 13.5t13 5.5 q19 0 19 -19zM314 344q0 -19 -19 -19q-8 0 -13 5.5t-5 13.5t5.5 13t12.5 5q8 0 13.5 -5t5.5 -13zM314 671q0 -8 -5.5 -13.5t-13.5 -5.5q-7 0 -12.5 5.5t-5.5 13.5t5.5 13.5t12.5 5.5q8 0 13.5 -5.5t5.5 -13.5zM249 16q0 -7 -5.5 -12.5t-13.5 -5.5t-13.5 5.5t-5.5 12.5 q0 8 5.5 13.5t13.5 5.5t13.5 -5.5t5.5 -13.5zM249 344q0 -8 -5.5 -13.5t-13.5 -5.5t-13.5 5.5t-5.5 13.5q0 7 5.5 12.5t13.5 5.5t13.5 -5.5t5.5 -12.5zM249 671q0 -7 -5.5 -13t-13.5 -6t-13.5 6t-5.5 13t5.5 13t13.5 6t13.5 -6t5.5 -13zM183 16q0 -8 -5.5 -13t-13.5 -5 t-13 5t-5 13t5 13.5t13 5.5q19 0 19 -19zM183 344q0 -19 -19 -19q-8 0 -13 5.5t-5 13.5t5 13t13 5t13.5 -5t5.5 -13zM183 671q0 -8 -5.5 -13.5t-13.5 -5.5q-7 0 -12.5 5.5t-5.5 13.5t5.5 13.5t12.5 5.5q8 0 13.5 -5.5t5.5 -13.5zM118 16q0 -7 -5.5 -12.5t-13.5 -5.5 t-13.5 5.5t-5.5 12.5q0 8 5.5 13.5t13.5 5.5t13.5 -5.5t5.5 -13.5zM118 82q0 -8 -6 -13.5t-13 -5.5t-13 5.5t-6 13.5t6 13.5t13 5.5t13 -5.5t6 -13.5zM118 147q0 -7 -5.5 -12.5t-13.5 -5.5t-13.5 5.5t-5.5 12.5q0 8 5.5 13.5t13.5 5.5t13.5 -5.5t5.5 -13.5zM118 213 q0 -8 -5.5 -13.5t-13.5 -5.5t-13.5 5.5t-5.5 13.5q0 7 5.5 12.5t13.5 5.5t13.5 -5.5t5.5 -12.5zM118 278q0 -7 -5.5 -12.5t-13.5 -5.5t-13.5 5.5t-5.5 12.5q0 8 5.5 13.5t13.5 5.5t13.5 -5.5t5.5 -13.5zM118 344q0 -8 -5.5 -13.5t-13.5 -5.5t-13.5 5.5t-5.5 13.5 q0 7 5.5 12.5t13.5 5.5t13.5 -5.5t5.5 -12.5zM118 409q0 -7 -6 -13t-13 -6t-13 6t-6 13t6 13t13 6t13 -6t6 -13zM118 475q0 -8 -5.5 -13.5t-13.5 -5.5t-13.5 5.5t-5.5 13.5q0 7 5.5 12.5t13.5 5.5t13.5 -5.5t5.5 -12.5zM118 540q0 -8 -6 -13.5t-13 -5.5t-13 5.5t-6 13.5 t6 13.5t13 5.5t13 -5.5t6 -13.5zM118 606q0 -8 -5.5 -13.5t-13.5 -5.5t-13.5 5.5t-5.5 13.5q0 7 5.5 12.5t13.5 5.5t13.5 -5.5t5.5 -12.5zM118 671q0 -7 -6 -13t-13 -6t-13 6t-6 13t6 13t13 6t13 -6t6 -13z" />
<glyph unicode="F" horiz-adv-x="400" d="M380 671q0 -7 -6 -13t-13 -6q-8 0 -13.5 5.5t-5.5 13.5t5.5 13.5t13.5 5.5q7 0 13 -6t6 -13zM314 344q0 -19 -19 -19q-8 0 -13 5.5t-5 13.5t5.5 13t12.5 5q8 0 13.5 -5t5.5 -13zM314 671q0 -8 -5.5 -13.5t-13.5 -5.5q-7 0 -12.5 5.5t-5.5 13.5t5.5 13.5t12.5 5.5 q8 0 13.5 -5.5t5.5 -13.5zM249 344q0 -8 -5.5 -13.5t-13.5 -5.5t-13.5 5.5t-5.5 13.5q0 7 5.5 12.5t13.5 5.5t13.5 -5.5t5.5 -12.5zM249 671q0 -7 -5.5 -13t-13.5 -6t-13.5 6t-5.5 13t5.5 13t13.5 6t13.5 -6t5.5 -13zM183 344q0 -19 -19 -19q-8 0 -13 5.5t-5 13.5t5 13t13 5 t13.5 -5t5.5 -13zM183 671q0 -8 -5.5 -13.5t-13.5 -5.5q-7 0 -12.5 5.5t-5.5 13.5t5.5 13.5t12.5 5.5q8 0 13.5 -5.5t5.5 -13.5zM118 16q0 -7 -5.5 -12.5t-13.5 -5.5t-13.5 5.5t-5.5 12.5q0 8 5.5 13.5t13.5 5.5t13.5 -5.5t5.5 -13.5zM118 82q0 -8 -6 -13.5t-13 -5.5 t-13 5.5t-6 13.5t6 13.5t13 5.5t13 -5.5t6 -13.5zM118 147q0 -7 -5.5 -12.5t-13.5 -5.5t-13.5 5.5t-5.5 12.5q0 8 5.5 13.5t13.5 5.5t13.5 -5.5t5.5 -13.5zM118 213q0 -8 -5.5 -13.5t-13.5 -5.5t-13.5 5.5t-5.5 13.5q0 7 5.5 12.5t13.5 5.5t13.5 -5.5t5.5 -12.5zM118 278 q0 -7 -5.5 -12.5t-13.5 -5.5t-13.5 5.5t-5.5 12.5q0 8 5.5 13.5t13.5 5.5t13.5 -5.5t5.5 -13.5zM118 344q0 -8 -5.5 -13.5t-13.5 -5.5t-13.5 5.5t-5.5 13.5q0 7 5.5 12.5t13.5 5.5t13.5 -5.5t5.5 -12.5zM118 409q0 -7 -6 -13t-13 -6t-13 6t-6 13t6 13t13 6t13 -6t6 -13z M118 475q0 -8 -5.5 -13.5t-13.5 -5.5t-13.5 5.5t-5.5 13.5q0 7 5.5 12.5t13.5 5.5t13.5 -5.5t5.5 -12.5zM118 540q0 -8 -6 -13.5t-13 -5.5t-13 5.5t-6 13.5t6 13.5t13 5.5t13 -5.5t6 -13.5zM118 606q0 -8 -5.5 -13.5t-13.5 -5.5t-13.5 5.5t-5.5 13.5q0 7 5.5 12.5t13.5 5.5 t13.5 -5.5t5.5 -12.5zM118 671q0 -7 -6 -13t-13 -6t-13 6t-6 13t6 13t13 6t13 -6t6 -13z" />
<glyph unicode="G" horiz-adv-x="600" d="M521 66q-7 0 -12.5 5t-5.5 13t5 13.5t13 5.5q19 0 19 -19q0 -8 -5.5 -13t-13.5 -5zM540 147q0 -8 -5.5 -13.5t-13.5 -5.5q-7 0 -12.5 5.5t-5.5 13.5t5.5 13.5t12.5 5.5q8 0 13.5 -5.5t5.5 -13.5zM540 212q0 -8 -5.5 -13t-13.5 -5q-7 0 -12.5 5t-5.5 13t5 13.5t13 5.5 q19 0 19 -19zM540 278q0 -8 -5.5 -13.5t-13.5 -5.5q-7 0 -12.5 5.5t-5.5 13.5t5.5 13.5t12.5 5.5q8 0 13.5 -5.5t5.5 -13.5zM540 343q0 -8 -5.5 -13t-13.5 -5q-7 0 -12.5 5.5t-5.5 12.5q0 8 5 13.5t13 5.5q19 0 19 -19zM456 325q-8 0 -13.5 5.5t-5.5 12.5q0 8 5.5 13.5 t13.5 5.5t13.5 -5.5t5.5 -13.5q0 -7 -5.5 -12.5t-13.5 -5.5zM390 325q-8 0 -13 5.5t-5 12.5q0 8 5 13.5t13 5.5q19 0 19 -19q0 -8 -5.5 -13t-13.5 -5zM325 325q-8 0 -13.5 5.5t-5.5 12.5q0 8 5.5 13.5t13.5 5.5t13.5 -5.5t5.5 -13.5q0 -7 -5.5 -12.5t-13.5 -5.5zM256 652 q-8 0 -13.5 5.5t-5.5 12.5q0 8 5.5 13.5t13.5 5.5t13.5 -5.5t5.5 -13.5q0 -7 -5.5 -12.5t-13.5 -5.5zM211 644q0 -8 -5.5 -13.5t-13.5 -5.5t-13.5 5.5t-5.5 13.5t5.5 13.5t13.5 5.5t13.5 -5.5t5.5 -13.5zM157 600q0 -7 -5.5 -12.5t-13.5 -5.5t-13.5 5.5t-5.5 12.5 q0 8 5.5 13.5t13.5 5.5t13.5 -5.5t5.5 -13.5zM77 343q0 -8 -5.5 -13.5t-12.5 -5.5q-8 0 -13.5 5.5t-5.5 13.5t5.5 13.5t13.5 5.5q7 0 12.5 -5.5t5.5 -13.5zM83 410q0 -8 -5.5 -13t-13.5 -5t-13.5 5.5t-5.5 12.5q0 8 5.5 13.5t13.5 5.5q19 0 19 -19zM94 478q0 -8 -5.5 -13.5 t-13.5 -5.5q-7 0 -12.5 5.5t-5.5 13.5t5.5 13.5t12.5 5.5q8 0 13.5 -5.5t5.5 -13.5zM118 543q0 -8 -5 -13.5t-13 -5.5q-19 0 -19 19q0 8 5.5 13t13.5 5t13 -5.5t5 -12.5zM327 652q-8 0 -13.5 5.5t-5.5 12.5q0 8 5.5 13.5t13.5 5.5t13.5 -5.5t5.5 -13.5q0 -7 -5.5 -12.5 t-13.5 -5.5zM397 643q-19 0 -19 19q0 8 5.5 13t13.5 5q7 0 12.5 -5t5.5 -13t-5 -13.5t-13 -5.5zM464 621q-8 0 -13.5 5.5t-5.5 13.5t5.5 13.5t13.5 5.5q7 0 12.5 -5.5t5.5 -13.5t-5.5 -13.5t-12.5 -5.5zM275 16q0 -8 -5.5 -13.5t-13.5 -5.5t-13.5 5.5t-5.5 13.5t5.5 13.5 t13.5 5.5t13.5 -5.5t5.5 -13.5zM192 61q8 0 13.5 -5.5t5.5 -13.5q0 -7 -5.5 -12.5t-13.5 -5.5t-13.5 5.5t-5.5 12.5q0 8 5.5 13.5t13.5 5.5zM138 105q8 0 13.5 -5.5t5.5 -13.5t-5.5 -13.5t-13.5 -5.5t-13.5 5.5t-5.5 13.5t5.5 13.5t13.5 5.5zM64 295q8 0 13.5 -5.5 t5.5 -13.5t-5.5 -13.5t-13.5 -5.5t-13.5 5.5t-5.5 13.5t5.5 13.5t13.5 5.5zM75 227q19 0 19 -19q0 -8 -5.5 -13t-13.5 -5q-7 0 -12.5 5t-5.5 13t5 13.5t13 5.5zM100 162q8 0 13 -5t5 -13t-5 -13.5t-13 -5.5q-19 0 -19 19q0 8 5.5 13t13.5 5zM308 16q0 8 6 13.5t13 5.5 t13 -5.5t6 -13.5t-6 -13.5t-13 -5.5t-13 5.5t-6 13.5zM378 25q0 8 5.5 13t13.5 5q7 0 12.5 -5.5t5.5 -12.5q0 -8 -5 -13.5t-13 -5.5q-19 0 -19 19zM445 46q0 19 19 19q8 0 13 -5.5t5 -13.5t-5 -13t-13 -5t-13.5 5t-5.5 13z" />
<glyph unicode="H" horiz-adv-x="591" d="M492 -2q8 0 13.5 5.5t5.5 12.5q0 8 -5.5 13.5t-13.5 5.5t-13.5 -5.5t-5.5 -13.5q0 -7 5.5 -12.5t13.5 -5.5zM511 82q0 -8 -5.5 -13.5t-13.5 -5.5t-13.5 5.5t-5.5 13.5t5.5 13.5t13.5 5.5t13.5 -5.5t5.5 -13.5zM511 147q0 -7 -5.5 -12.5t-13.5 -5.5t-13.5 5.5t-5.5 12.5 q0 8 5.5 13.5t13.5 5.5t13.5 -5.5t5.5 -13.5zM511 213q0 -8 -5.5 -13.5t-13.5 -5.5t-13.5 5.5t-5.5 13.5q0 7 5.5 12.5t13.5 5.5t13.5 -5.5t5.5 -12.5zM511 278q0 -7 -5.5 -12.5t-13.5 -5.5t-13.5 5.5t-5.5 12.5q0 8 5.5 13.5t13.5 5.5t13.5 -5.5t5.5 -13.5zM511 344 q0 -8 -5.5 -13.5t-13.5 -5.5t-13.5 5.5t-5.5 13.5q0 7 5.5 12.5t13.5 5.5t13.5 -5.5t5.5 -12.5zM511 409q0 -7 -5.5 -13t-13.5 -6t-13.5 6t-5.5 13t5.5 13t13.5 6t13.5 -6t5.5 -13zM511 475q0 -8 -5.5 -13.5t-13.5 -5.5t-13.5 5.5t-5.5 13.5q0 7 5.5 12.5t13.5 5.5 t13.5 -5.5t5.5 -12.5zM511 540q0 -8 -5.5 -13.5t-13.5 -5.5t-13.5 5.5t-5.5 13.5t5.5 13.5t13.5 5.5t13.5 -5.5t5.5 -13.5zM511 605q0 -7 -5.5 -12.5t-13.5 -5.5t-13.5 5.5t-5.5 12.5q0 8 5.5 13.5t13.5 5.5t13.5 -5.5t5.5 -13.5zM511 671q0 -7 -5.5 -13t-13.5 -6t-13.5 6 t-5.5 13t5.5 13t13.5 6t13.5 -6t5.5 -13zM445 344q0 -8 -5 -13.5t-13 -5.5q-19 0 -19 19q0 8 5.5 13t13.5 5q7 0 12.5 -5t5.5 -13zM380 344q0 -8 -5.5 -13.5t-13.5 -5.5t-13.5 5.5t-5.5 13.5q0 7 5.5 12.5t13.5 5.5t13.5 -5.5t5.5 -12.5zM314 344q0 -8 -5 -13.5t-13 -5.5 q-19 0 -19 19q0 8 5.5 13t13.5 5t13 -5t5 -13zM249 344q0 -8 -5.5 -13.5t-13.5 -5.5t-13.5 5.5t-5.5 13.5q0 7 5.5 12.5t13.5 5.5t13.5 -5.5t5.5 -12.5zM183 344q0 -8 -5 -13.5t-13 -5.5q-19 0 -19 19q0 8 5.5 13t13.5 5q7 0 12.5 -5t5.5 -13zM118 16q0 -8 -5.5 -13 t-13.5 -5t-13.5 5.5t-5.5 12.5q0 8 5.5 13.5t13.5 5.5q19 0 19 -19zM118 82q0 -8 -5.5 -13.5t-13.5 -5.5q-7 0 -13 5.5t-6 13.5t6 13.5t13 5.5q8 0 13.5 -5.5t5.5 -13.5zM118 147q0 -8 -5.5 -13t-13.5 -5t-13.5 5.5t-5.5 12.5q0 8 5.5 13.5t13.5 5.5q19 0 19 -19zM118 213 q0 -19 -19 -19q-8 0 -13.5 5.5t-5.5 13.5q0 7 5.5 12.5t13.5 5.5t13.5 -5t5.5 -13zM118 278q0 -8 -5.5 -13t-13.5 -5t-13.5 5.5t-5.5 12.5q0 8 5.5 13.5t13.5 5.5q19 0 19 -19zM118 344q0 -19 -19 -19q-8 0 -13.5 5.5t-5.5 13.5q0 7 5.5 12.5t13.5 5.5t13.5 -5t5.5 -13z M118 409q0 -8 -5.5 -13.5t-13.5 -5.5q-7 0 -13 6t-6 13t6 13t13 6q8 0 13.5 -5.5t5.5 -13.5zM118 475q0 -19 -19 -19q-8 0 -13.5 5.5t-5.5 13.5q0 7 5.5 12.5t13.5 5.5t13.5 -5t5.5 -13zM118 540q0 -8 -5.5 -13.5t-13.5 -5.5q-7 0 -13 5.5t-6 13.5t6 13.5t13 5.5 q8 0 13.5 -5.5t5.5 -13.5zM118 605q0 -8 -5.5 -13t-13.5 -5t-13.5 5.5t-5.5 12.5q0 8 5.5 13.5t13.5 5.5q19 0 19 -19zM118 671q0 -8 -5.5 -13.5t-13.5 -5.5q-7 0 -13 6t-6 13t6 13t13 6q8 0 13.5 -5.5t5.5 -13.5z" />
<glyph unicode="I" horiz-adv-x="248" d="M189 -2q8 0 13.5 5.5t5.5 12.5q0 8 -5.5 13.5t-13.5 5.5t-13.5 -5.5t-5.5 -13.5q0 -7 5.5 -12.5t13.5 -5.5zM208 671q0 -7 -6 -13t-13 -6t-13 6t-6 13t6 13t13 6t13 -6t6 -13zM142 16q0 -8 -5 -13t-13 -5t-13.5 5t-5.5 13q0 19 19 19q8 0 13 -5.5t5 -13.5zM142 82 q0 -8 -5.5 -13.5t-12.5 -5.5q-8 0 -13.5 5.5t-5.5 13.5t5.5 13.5t13.5 5.5q7 0 12.5 -5.5t5.5 -13.5zM142 147q0 -7 -5 -12.5t-13 -5.5t-13.5 5t-5.5 13q0 19 19 19q8 0 13 -5.5t5 -13.5zM142 213q0 -8 -5 -13.5t-13 -5.5q-19 0 -19 19q0 8 5.5 13t13.5 5t13 -5.5t5 -12.5z M142 278q0 -8 -5 -13t-13 -5t-13.5 5t-5.5 13q0 19 19 19q8 0 13 -5.5t5 -13.5zM142 344q0 -8 -5 -13.5t-13 -5.5q-19 0 -19 19q0 8 5.5 13t13.5 5t13 -5t5 -13zM142 409q0 -8 -5.5 -13.5t-12.5 -5.5q-8 0 -13.5 5.5t-5.5 13.5t5.5 13.5t13.5 5.5q7 0 12.5 -5.5t5.5 -13.5z M142 475q0 -8 -5 -13.5t-13 -5.5q-19 0 -19 19q0 8 5.5 13t13.5 5t13 -5.5t5 -12.5zM142 540q0 -8 -5.5 -13.5t-12.5 -5.5q-8 0 -13.5 5.5t-5.5 13.5t5.5 13.5t13.5 5.5q7 0 12.5 -5.5t5.5 -13.5zM142 605q0 -7 -5 -12.5t-13 -5.5t-13.5 5t-5.5 13q0 19 19 19q8 0 13 -5.5 t5 -13.5zM142 671q0 -8 -5.5 -13.5t-12.5 -5.5q-8 0 -13.5 5.5t-5.5 13.5t5.5 13.5t13.5 5.5q7 0 12.5 -5.5t5.5 -13.5zM77 16q0 -8 -5.5 -13t-13.5 -5t-13 5t-5 13t5 13.5t13 5.5q19 0 19 -19zM77 671q0 -8 -5.5 -13.5t-13.5 -5.5q-7 0 -12.5 5.5t-5.5 13.5t5.5 13.5 t12.5 5.5q8 0 13.5 -5.5t5.5 -13.5z" />
<glyph unicode="J" horiz-adv-x="313" d="M199 62q7 0 12.5 5t5.5 13t-5 13.5t-13 5.5q-19 0 -19 -19q0 -8 5.5 -13t13.5 -5zM231 147q0 -8 -5.5 -13t-13.5 -5t-13 5.5t-5 12.5q0 8 5 13.5t13 5.5q19 0 19 -19zM233 213q0 -8 -5 -13.5t-13 -5.5q-19 0 -19 19q0 8 5.5 13t13.5 5q7 0 12.5 -5.5t5.5 -12.5zM233 278 q0 -8 -5.5 -13t-12.5 -5q-8 0 -13.5 5t-5.5 13q0 19 19 19q8 0 13 -5.5t5 -13.5zM233 344q0 -8 -5 -13.5t-13 -5.5q-19 0 -19 19q0 8 5.5 13t13.5 5q7 0 12.5 -5t5.5 -13zM233 409q0 -8 -5.5 -13.5t-12.5 -5.5q-8 0 -13.5 5.5t-5.5 13.5t5.5 13.5t13.5 5.5q7 0 12.5 -5.5 t5.5 -13.5zM233 475q0 -8 -5 -13.5t-13 -5.5q-19 0 -19 19q0 8 5.5 13t13.5 5q7 0 12.5 -5.5t5.5 -12.5zM233 540q0 -8 -5.5 -13.5t-12.5 -5.5q-8 0 -13.5 5.5t-5.5 13.5t5.5 13.5t13.5 5.5q7 0 12.5 -5.5t5.5 -13.5zM233 605q0 -7 -5.5 -12.5t-12.5 -5.5q-8 0 -13.5 5 t-5.5 13q0 19 19 19q8 0 13 -5.5t5 -13.5zM233 671q0 -8 -5.5 -13.5t-12.5 -5.5q-8 0 -13.5 5.5t-5.5 13.5t5.5 13.5t13.5 5.5q7 0 12.5 -5.5t5.5 -13.5zM171 28q0 -8 -5.5 -13.5t-13.5 -5.5t-13.5 5.5t-5.5 13.5t5.5 13.5t13.5 5.5t13.5 -5.5t5.5 -13.5zM168 671 q0 -8 -5.5 -13.5t-13.5 -5.5q-7 0 -12.5 5.5t-5.5 13.5t5.5 13.5t12.5 5.5q8 0 13.5 -5.5t5.5 -13.5zM103 16q0 -7 -5.5 -12.5t-13.5 -5.5t-13.5 5.5t-5.5 12.5q0 8 5.5 13.5t13.5 5.5t13.5 -5.5t5.5 -13.5zM103 671q0 -7 -5.5 -13t-13.5 -6t-13.5 6t-5.5 13t5.5 13t13.5 6 t13.5 -6t5.5 -13zM37 27q0 -8 -5.5 -13.5t-13.5 -5.5q-7 0 -12.5 5.5t-5.5 13.5t5.5 13.5t12.5 5.5q8 0 13.5 -5.5t5.5 -13.5z" />
<glyph unicode="K" horiz-adv-x="434" d="M416 34q8 0 13 -5.5t5 -13.5q0 -7 -5.5 -12.5t-13.5 -5.5q-7 0 -12.5 5.5t-5.5 13.5t5.5 13.5t13.5 4.5zM329 131q18 -2 18 -19q0 -8 -5.5 -13.5t-13.5 -5.5q-7 0 -12.5 5.5t-5.5 13.5t5.5 13.5t13.5 5.5zM373 82q7 0 12.5 -5.5t5.5 -13.5t-6 -13.5t-13 -4.5 q-8 0 -13 5.5t-5 13.5q0 7 5.5 12.5t13.5 5.5zM286 178q8 0 13 -5.5t5 -13.5t-5.5 -13t-13.5 -5q-7 0 -12.5 5.5t-5.5 13.5t6 13.5t13 4.5zM154 324q8 0 13.5 -5.5t5.5 -13.5t-5.5 -13.5t-13.5 -4.5q-19 0 -19 19q2 18 19 18zM198 275q19 0 19 -19q-2 -18 -19 -18 q-8 0 -13.5 5.5t-5.5 13.5t6 13.5t13 4.5zM242 227q8 0 13.5 -6t4.5 -13q0 -19 -19 -19q-18 2 -18 19q0 8 5.5 13.5t13.5 5.5zM434 671q0 -8 -5.5 -13.5t-12.5 -5.5q-8 0 -13.5 5.5t-5.5 12.5q-1 7 4.5 13t13.5 6q7 1 13 -4.5t6 -13.5zM348 574q0 -8 -5.5 -13.5t-12.5 -5.5 q-18 0 -20 18q0 18 19 20q8 0 13.5 -5.5t5.5 -13.5zM391 623q1 -7 -4.5 -13t-13.5 -6t-13.5 5.5t-5.5 12.5q0 8 5.5 13.5t12.5 5.5q7 1 13 -4.5t6 -13.5zM305 527q0 -18 -18 -20q-8 0 -13.5 5.5t-5.5 13.5q-1 7 4.5 13t13.5 6t13.5 -5.5t5.5 -12.5zM174 380q1 -7 -4.5 -13 t-13.5 -6t-13.5 5.5t-5.5 12.5q0 8 5 13.5t13 5.5q8 1 13.5 -4.5t5.5 -13.5zM218 429q0 -8 -5.5 -13.5t-12.5 -5.5q-18 0 -20 18q0 8 5.5 13.5t13.5 5.5t13.5 -5.5t5.5 -12.5zM262 478q0 -8 -5.5 -13.5t-13.5 -5.5q-7 -1 -13 4.5t-6 13.5t5.5 13.5t12.5 5.5q18 0 20 -18z M117 343q0 -8 -5.5 -13.5t-12.5 -5.5q-8 0 -13.5 5.5t-5.5 13.5t5.5 13.5t13.5 5.5q7 0 12.5 -5.5t5.5 -13.5zM117 16q0 -8 -5 -13.5t-13 -5.5q-19 0 -19 19q0 8 5.5 13.5t13.5 5.5q7 0 12.5 -5.5t5.5 -13.5zM117 81q0 -7 -5.5 -12.5t-12.5 -5.5q-8 0 -13.5 5t-5.5 13 q0 19 19 19q8 0 13 -5.5t5 -13.5zM117 147q0 -8 -5 -13.5t-13 -5.5q-19 0 -19 19q0 8 5.5 13t13.5 5q7 0 12.5 -5.5t5.5 -12.5zM117 212q0 -8 -5.5 -13.5t-12.5 -5.5q-8 0 -13.5 5.5t-5.5 13.5q0 19 19 19q8 0 13 -5.5t5 -13.5zM117 278q0 -8 -5 -13.5t-13 -5.5 q-19 0 -19 19q0 8 5.5 13t13.5 5q7 0 12.5 -5t5.5 -13zM117 409q0 -8 -5 -13.5t-13 -5.5q-19 0 -19 19q0 8 5.5 13t13.5 5q7 0 12.5 -5.5t5.5 -12.5zM117 474q0 -8 -5.5 -13.5t-12.5 -5.5q-8 0 -13.5 5.5t-5.5 13.5t5.5 13.5t13.5 5.5q7 0 12.5 -5.5t5.5 -13.5zM117 539 q0 -7 -5.5 -12.5t-12.5 -5.5q-8 0 -13.5 5t-5.5 13q0 19 19 19q8 0 13 -5.5t5 -13.5zM117 605q0 -8 -5.5 -13.5t-12.5 -5.5q-8 0 -13.5 5.5t-5.5 13.5t5.5 13.5t13.5 5.5q7 0 12.5 -5.5t5.5 -13.5zM117 670q0 -8 -5.5 -13t-12.5 -5q-8 0 -13.5 5t-5.5 13q0 19 19 19 q8 0 13 -5.5t5 -13.5z" />
<glyph unicode="L" horiz-adv-x="390" d="M361 -2q8 0 13.5 5.5t5.5 12.5q0 8 -5.5 13.5t-13.5 5.5t-13.5 -5.5t-5.5 -13.5q0 -7 5.5 -12.5t13.5 -5.5zM314 16q0 -8 -5.5 -13t-13.5 -5q-7 0 -12.5 5t-5.5 13t5 13.5t13 5.5q19 0 19 -19zM249 16q0 -7 -5.5 -12.5t-13.5 -5.5t-13.5 5.5t-5.5 12.5q0 8 5.5 13.5 t13.5 5.5t13.5 -5.5t5.5 -13.5zM183 16q0 -8 -5.5 -13t-13.5 -5t-13 5t-5 13t5 13.5t13 5.5q19 0 19 -19zM118 16q0 -7 -5.5 -12.5t-13.5 -5.5t-13.5 5.5t-5.5 12.5q0 8 5.5 13.5t13.5 5.5t13.5 -5.5t5.5 -13.5zM118 82q0 -8 -6 -13.5t-13 -5.5t-13 5.5t-6 13.5t6 13.5 t13 5.5t13 -5.5t6 -13.5zM118 147q0 -7 -5.5 -12.5t-13.5 -5.5t-13.5 5.5t-5.5 12.5q0 8 5.5 13.5t13.5 5.5t13.5 -5.5t5.5 -13.5zM118 213q0 -8 -5.5 -13.5t-13.5 -5.5t-13.5 5.5t-5.5 13.5q0 7 5.5 12.5t13.5 5.5t13.5 -5.5t5.5 -12.5zM118 278q0 -7 -5.5 -12.5 t-13.5 -5.5t-13.5 5.5t-5.5 12.5q0 8 5.5 13.5t13.5 5.5t13.5 -5.5t5.5 -13.5zM118 344q0 -8 -5.5 -13.5t-13.5 -5.5t-13.5 5.5t-5.5 13.5q0 7 5.5 12.5t13.5 5.5t13.5 -5.5t5.5 -12.5zM118 409q0 -7 -6 -13t-13 -6t-13 6t-6 13t6 13t13 6t13 -6t6 -13zM118 475 q0 -8 -5.5 -13.5t-13.5 -5.5t-13.5 5.5t-5.5 13.5q0 7 5.5 12.5t13.5 5.5t13.5 -5.5t5.5 -12.5zM118 540q0 -8 -6 -13.5t-13 -5.5t-13 5.5t-6 13.5t6 13.5t13 5.5t13 -5.5t6 -13.5zM118 605q0 -7 -5.5 -12.5t-13.5 -5.5t-13.5 5.5t-5.5 12.5q0 8 5.5 13.5t13.5 5.5 t13.5 -5.5t5.5 -13.5zM118 671q0 -7 -6 -13t-13 -6t-13 6t-6 13t6 13t13 6t13 -6t6 -13z" />
<glyph unicode="M" horiz-adv-x="828" d="M414 -2q8 0 13.5 5t5.5 13q0 19 -19 19q-8 0 -13 -5.5t-5 -13.5t5 -13t13 -5zM405 74q0 -8 -5.5 -13t-13.5 -5t-13 5t-5 13t5 13.5t13 5.5q19 0 19 -19zM379 134q0 -8 -5.5 -13t-13.5 -5t-13 5t-5 13t5 13.5t13 5.5q19 0 19 -19zM353 194q0 -7 -5.5 -12.5t-13.5 -5.5 t-13.5 5.5t-5.5 12.5q0 8 5.5 13.5t13.5 5.5t13.5 -5.5t5.5 -13.5zM327 254q0 -7 -5.5 -12.5t-13.5 -5.5t-13.5 5.5t-5.5 12.5q0 8 5.5 13.5t13.5 5.5t13.5 -5.5t5.5 -13.5zM300 315q0 -8 -5 -13.5t-13 -5.5q-19 0 -19 19q0 8 5.5 13t13.5 5t13 -5.5t5 -12.5zM275 375 q0 -8 -5.5 -13.5t-13.5 -5.5t-13.5 5.5t-5.5 13.5q0 7 5.5 12.5t13.5 5.5t13.5 -5.5t5.5 -12.5zM248 435q0 -8 -5 -13.5t-13 -5.5q-19 0 -19 19q0 8 5.5 13t13.5 5t13 -5.5t5 -12.5zM196 555q0 -19 -19 -19q-8 0 -13 5.5t-5 13.5q0 7 5.5 12.5t12.5 5.5q8 0 13.5 -5t5.5 -13 zM222 495q0 -8 -5 -13.5t-13 -5.5q-19 0 -19 19q0 8 5.5 13t13.5 5t13 -5.5t5 -12.5zM170 615q0 -19 -19 -19q-8 0 -13 5.5t-5 13.5q0 7 5.5 12.5t12.5 5.5q8 0 13.5 -5t5.5 -13zM118 16q0 -7 -5.5 -12.5t-13.5 -5.5t-13.5 5.5t-5.5 12.5q0 8 5.5 13.5t13.5 5.5t13.5 -5.5 t5.5 -13.5zM118 82q0 -8 -6 -13.5t-13 -5.5t-13 5.5t-6 13.5t6 13.5t13 5.5t13 -5.5t6 -13.5zM118 147q0 -7 -5.5 -12.5t-13.5 -5.5t-13.5 5.5t-5.5 12.5q0 8 5.5 13.5t13.5 5.5t13.5 -5.5t5.5 -13.5zM118 213q0 -7 -6 -13t-13 -6t-13 6t-6 13t6 13t13 6t13 -6t6 -13z M118 278q0 -7 -5.5 -12.5t-13.5 -5.5t-13.5 5.5t-5.5 12.5q0 8 5.5 13.5t13.5 5.5t13.5 -5.5t5.5 -13.5zM118 344q0 -8 -5.5 -13.5t-13.5 -5.5t-13.5 5.5t-5.5 13.5q0 7 5.5 12.5t13.5 5.5t13.5 -5.5t5.5 -12.5zM118 409q0 -7 -6 -13t-13 -6t-13 6t-6 13q0 8 5.5 13.5 t13.5 5.5t13.5 -5.5t5.5 -13.5zM118 475q0 -8 -5.5 -13.5t-13.5 -5.5t-13.5 5.5t-5.5 13.5q0 7 5.5 12.5t13.5 5.5t13.5 -5.5t5.5 -12.5zM118 540q0 -8 -6 -13.5t-13 -5.5t-13 5.5t-6 13.5t6 13.5t13 5.5t13 -5.5t6 -13.5zM118 606q0 -8 -5.5 -13.5t-13.5 -5.5t-13.5 5.5 t-5.5 13.5q0 7 5.5 12.5t13.5 5.5t13.5 -5.5t5.5 -12.5zM118 671q0 -7 -6 -13t-13 -6t-13 6t-6 13t6 13t13 6t13 -6t6 -13zM442 56q-8 0 -13.5 5.5t-5.5 12.5q0 8 5.5 13.5t13.5 5.5q19 0 19 -19q0 -8 -5.5 -13t-13.5 -5zM468 116q-8 0 -13 5t-5 13t5 13.5t13 5.5 q19 0 19 -19q0 -8 -5.5 -13t-13.5 -5zM494 176q-8 0 -13 5t-5 13t5 13.5t13 5.5q19 0 19 -19q0 -8 -5.5 -13t-13.5 -5zM521 236q-8 0 -13.5 5t-5.5 13q0 19 19 19q8 0 13 -5.5t5 -13.5t-5.5 -13t-12.5 -5zM547 296q-19 0 -19 19q0 8 5.5 13t13.5 5t13.5 -5.5t5.5 -12.5 q0 -8 -5.5 -13.5t-13.5 -5.5zM573 356q-19 0 -19 19q0 8 5.5 13t13.5 5q7 0 12.5 -5.5t5.5 -12.5q0 -8 -5 -13.5t-13 -5.5zM599 416q-8 0 -13.5 5.5t-5.5 13.5q0 7 5.5 12.5t13.5 5.5t13.5 -5.5t5.5 -12.5q0 -8 -5.5 -13.5t-13.5 -5.5zM651 536q-8 0 -13.5 5.5t-5.5 13.5 q0 7 5.5 12.5t13.5 5.5t13.5 -5.5t5.5 -12.5q0 -8 -5.5 -13.5t-13.5 -5.5zM625 476q-8 0 -13.5 5.5t-5.5 13.5q0 7 5.5 12.5t13.5 5.5t13.5 -5.5t5.5 -12.5q0 -8 -5.5 -13.5t-13.5 -5.5zM677 596q-8 0 -13 5.5t-5 13.5q0 7 5.5 12.5t12.5 5.5q8 0 13.5 -5t5.5 -13 q0 -19 -19 -19zM730 -2q-8 0 -13.5 5t-5.5 13q0 19 19 19q8 0 13 -5.5t5 -13.5t-5 -13t-13 -5zM730 63q-8 0 -13.5 5.5t-5.5 13.5t5.5 13.5t13.5 5.5q7 0 12.5 -5.5t5.5 -13.5t-5.5 -13.5t-12.5 -5.5zM730 129q-8 0 -13.5 5t-5.5 13q0 19 19 19q8 0 13 -5.5t5 -13.5 q0 -7 -5 -12.5t-13 -5.5zM730 194q-8 0 -13.5 5.5t-5.5 13.5t5.5 13.5t13.5 5.5q7 0 12.5 -5.5t5.5 -13.5t-5.5 -13.5t-12.5 -5.5zM730 260q-8 0 -13.5 5t-5.5 13q0 19 19 19q8 0 13 -5.5t5 -13.5t-5 -13t-13 -5zM730 325q-19 0 -19 19q0 8 5.5 13t13.5 5t13 -5t5 -13 t-5 -13.5t-13 -5.5zM730 390q-8 0 -13.5 5.5t-5.5 13.5q0 19 19 19q8 0 13 -5.5t5 -13.5t-5.5 -13.5t-12.5 -5.5zM730 456q-19 0 -19 19q0 8 5.5 13t13.5 5t13 -5.5t5 -12.5q0 -8 -5 -13.5t-13 -5.5zM730 521q-8 0 -13.5 5.5t-5.5 13.5t5.5 13.5t13.5 5.5q7 0 12.5 -5.5 t5.5 -13.5t-5.5 -13.5t-12.5 -5.5zM730 587q-19 0 -19 19q0 8 5.5 13t13.5 5t13 -5t5 -13t-5 -13.5t-13 -5.5zM730 652q-8 0 -13.5 5.5t-5.5 13.5t5.5 13.5t13.5 5.5q7 0 12.5 -5.5t5.5 -13.5t-5.5 -13.5t-12.5 -5.5z" />
<glyph unicode="N" horiz-adv-x="656" d="M557 -2q8 0 13.5 5t5.5 13q0 19 -19 19q-8 0 -13.5 -5.5t-5.5 -13.5q0 -7 5.5 -12.5t13.5 -5.5zM576 82q0 -8 -5.5 -13.5t-13.5 -5.5q-7 0 -13 5.5t-6 13.5t6 13.5t13 5.5q8 0 13.5 -5.5t5.5 -13.5zM576 147q0 -8 -5.5 -13t-13.5 -5t-13.5 5.5t-5.5 12.5q0 8 5.5 13.5 t13.5 5.5q19 0 19 -19zM576 213q0 -19 -19 -19q-8 0 -13.5 5.5t-5.5 13.5q0 7 5.5 12.5t13.5 5.5t13.5 -5t5.5 -13zM576 278q0 -8 -5.5 -13t-13.5 -5t-13.5 5.5t-5.5 12.5q0 8 5.5 13.5t13.5 5.5q19 0 19 -19zM576 344q0 -19 -19 -19q-8 0 -13.5 5.5t-5.5 13.5q0 7 5.5 12.5 t13.5 5.5t13.5 -5t5.5 -13zM576 409q0 -8 -5.5 -13.5t-13.5 -5.5q-7 0 -13 6t-6 13t6 13t13 6q8 0 13.5 -5.5t5.5 -13.5zM576 475q0 -19 -19 -19q-8 0 -13.5 5.5t-5.5 13.5q0 7 5.5 12.5t13.5 5.5t13.5 -5t5.5 -13zM576 540q0 -8 -5.5 -13.5t-13.5 -5.5q-7 0 -13 5.5 t-6 13.5t6 13.5t13 5.5q8 0 13.5 -5.5t5.5 -13.5zM576 605q0 -8 -5.5 -13t-13.5 -5t-13.5 5.5t-5.5 12.5q0 8 5.5 13.5t13.5 5.5q19 0 19 -19zM576 671q0 -8 -5.5 -13.5t-13.5 -5.5q-7 0 -13 6t-6 13t6 13t13 6q8 0 13.5 -5.5t5.5 -13.5zM522 72q0 -19 -19 -19q-8 0 -13 5.5 t-5 13.5t5.5 13t12.5 5q8 0 13.5 -5t5.5 -13zM451 182q0 -19 -19 -19q-8 0 -13 5.5t-5 13.5t5 13t13 5t13.5 -5t5.5 -13zM486 127q0 -8 -5 -13.5t-13 -5.5q-19 0 -19 19q0 8 5.5 13t13.5 5t13 -5.5t5 -12.5zM416 237q0 -8 -5.5 -13.5t-13.5 -5.5t-13.5 5.5t-5.5 13.5 q0 7 5.5 12.5t13.5 5.5t13.5 -5.5t5.5 -12.5zM380 292q0 -19 -19 -19q-8 0 -13 5.5t-5 13.5t5.5 13t12.5 5q8 0 13.5 -5t5.5 -13zM345 347q0 -8 -5.5 -13.5t-13.5 -5.5t-13.5 5.5t-5.5 13.5q0 7 5.5 12.5t13.5 5.5t13.5 -5.5t5.5 -12.5zM309 402q0 -8 -5 -13.5t-13 -5.5 q-19 0 -19 19q0 8 5.5 13t13.5 5q7 0 12.5 -5t5.5 -13zM274 457q0 -8 -5.5 -13.5t-13.5 -5.5t-13.5 5.5t-5.5 13.5q0 7 5.5 12.5t13.5 5.5t13.5 -5.5t5.5 -12.5zM238 512q0 -8 -5 -13.5t-13 -5.5q-19 0 -19 19q0 8 5.5 13t13.5 5t13 -5t5 -13zM203 567q0 -8 -5.5 -13.5 t-13.5 -5.5t-13.5 5.5t-5.5 13.5q0 7 5.5 12.5t13.5 5.5t13.5 -5.5t5.5 -12.5zM167 622q0 -8 -5 -13.5t-13 -5.5q-19 0 -19 19q0 8 5.5 13.5t13.5 5.5q7 0 12.5 -5.5t5.5 -13.5zM118 16q0 -7 -5.5 -12.5t-13.5 -5.5t-13.5 5.5t-5.5 12.5q0 8 5.5 13.5t13.5 5.5t13.5 -5.5 t5.5 -13.5zM118 82q0 -8 -6 -13.5t-13 -5.5t-13 5.5t-6 13.5t6 13.5t13 5.5t13 -5.5t6 -13.5zM118 147q0 -7 -5.5 -12.5t-13.5 -5.5t-13.5 5.5t-5.5 12.5q0 8 5.5 13.5t13.5 5.5t13.5 -5.5t5.5 -13.5zM118 213q0 -8 -5.5 -13.5t-13.5 -5.5t-13.5 5.5t-5.5 13.5q0 7 5.5 12.5 t13.5 5.5t13.5 -5.5t5.5 -12.5zM118 278q0 -7 -5.5 -12.5t-13.5 -5.5t-13.5 5.5t-5.5 12.5q0 8 5.5 13.5t13.5 5.5t13.5 -5.5t5.5 -13.5zM118 344q0 -8 -5.5 -13.5t-13.5 -5.5t-13.5 5.5t-5.5 13.5q0 7 5.5 12.5t13.5 5.5t13.5 -5.5t5.5 -12.5zM118 409q0 -7 -6 -13t-13 -6 t-13 6t-6 13t6 13t13 6t13 -6t6 -13zM118 475q0 -8 -5.5 -13.5t-13.5 -5.5t-13.5 5.5t-5.5 13.5q0 7 5.5 12.5t13.5 5.5t13.5 -5.5t5.5 -12.5zM118 540q0 -8 -6 -13.5t-13 -5.5t-13 5.5t-6 13.5t6 13.5t13 5.5t13 -5.5t6 -13.5zM118 605q0 -7 -5.5 -12.5t-13.5 -5.5 t-13.5 5.5t-5.5 12.5q0 8 5.5 13.5t13.5 5.5t13.5 -5.5t5.5 -13.5zM118 671q0 -7 -6 -13t-13 -6t-13 6t-6 13t6 13t13 6t13 -6t6 -13z" />
<glyph unicode="O" horiz-adv-x="583" d="M256 652q-8 0 -13 5t-5 13t5 13.5t13 5.5q19 0 19 -19q0 -8 -5.5 -13t-13.5 -5zM211 644q0 -8 -5.5 -13.5t-13.5 -5.5q-7 0 -12.5 5.5t-5.5 13.5t5.5 13.5t12.5 5.5q8 0 13.5 -5.5t5.5 -13.5zM157 600q0 -8 -5.5 -13t-13.5 -5t-13 5t-5 13t5 13.5t13 5.5q19 0 19 -19z M78 343q0 -7 -6 -13t-13 -6t-13 6t-6 13q0 8 5.5 13.5t13.5 5.5t13.5 -5.5t5.5 -13.5zM83 410q0 -8 -5.5 -13t-12.5 -5q-8 0 -13.5 5t-5.5 13q0 19 19 19q8 0 13 -5.5t5 -13.5zM95 478q0 -8 -5.5 -13.5t-13.5 -5.5t-13.5 5.5t-5.5 13.5t5.5 13.5t13.5 5.5t13.5 -5.5 t5.5 -13.5zM119 543q0 -8 -5.5 -13.5t-13.5 -5.5t-13.5 5.5t-5.5 13.5q0 7 5.5 12.5t13.5 5.5t13.5 -5.5t5.5 -12.5zM327 652q-7 0 -12.5 5t-5.5 13t5 13.5t13 5.5q19 0 19 -19q0 -8 -5.5 -13t-13.5 -5zM391 625q-7 0 -12.5 5.5t-5.5 13.5t5.5 13.5t12.5 5.5q8 0 13.5 -5.5 t5.5 -13.5t-5.5 -13.5t-13.5 -5.5zM445 582q-7 0 -12.5 5t-5.5 13t5 13.5t13 5.5q19 0 19 -19q0 -8 -5.5 -13t-13.5 -5zM525 324q-8 0 -13.5 5.5t-5.5 13.5q0 19 19 19q8 0 13 -5.5t5 -13.5t-5.5 -13.5t-12.5 -5.5zM519 392q-8 0 -13.5 5.5t-5.5 12.5q0 8 5.5 13.5t13.5 5.5 t13.5 -5.5t5.5 -13.5q0 -7 -5.5 -12.5t-13.5 -5.5zM508 459q-8 0 -13.5 5.5t-5.5 13.5t5.5 13.5t13.5 5.5t13.5 -5.5t5.5 -13.5t-5.5 -13.5t-13.5 -5.5zM484 524q-19 0 -19 19q0 8 5.5 13t13.5 5t13 -5.5t5 -12.5q0 -8 -5 -13.5t-13 -5.5zM275 16q0 -8 -5.5 -13.5 t-13.5 -5.5q-7 0 -12.5 5.5t-5.5 13.5t5.5 13.5t12.5 5.5q8 0 13.5 -5.5t5.5 -13.5zM192 61q8 0 13.5 -5t5.5 -13q0 -19 -19 -19q-8 0 -13 5.5t-5 13.5q0 7 5 12.5t13 5.5zM138 105q8 0 13.5 -5.5t5.5 -13.5t-5.5 -13.5t-13.5 -5.5q-7 0 -12.5 5.5t-5.5 13.5t5.5 13.5 t12.5 5.5zM65 295q7 0 12.5 -5.5t5.5 -13.5t-5.5 -13.5t-12.5 -5.5q-8 0 -13.5 5.5t-5.5 13.5t5.5 13.5t13.5 5.5zM76 227q8 0 13.5 -5.5t5.5 -12.5q0 -8 -5.5 -13.5t-13.5 -5.5t-13.5 5.5t-5.5 13.5q0 7 5.5 12.5t13.5 5.5zM100 162q8 0 13.5 -5.5t5.5 -12.5 q0 -8 -5.5 -13.5t-13.5 -5.5t-13.5 5.5t-5.5 13.5q0 7 5.5 12.5t13.5 5.5zM309 16q0 8 5.5 13.5t12.5 5.5q8 0 13.5 -5.5t5.5 -13.5t-5.5 -13.5t-13.5 -5.5q-7 0 -12.5 5.5t-5.5 13.5zM373 43q0 7 5.5 12.5t12.5 5.5q8 0 13.5 -5t5.5 -13q0 -19 -19 -19q-8 0 -13 5.5 t-5 13.5zM427 86q0 8 5.5 13.5t12.5 5.5q8 0 13.5 -5.5t5.5 -13.5t-5.5 -13.5t-13.5 -5.5q-7 0 -12.5 5.5t-5.5 13.5zM500 276q0 8 6 13.5t13 5.5t13 -5.5t6 -13.5t-6 -13.5t-13 -5.5t-13 5.5t-6 13.5zM489 209q0 7 5.5 12.5t13.5 5.5t13.5 -5.5t5.5 -12.5q0 -8 -5.5 -13.5 t-13.5 -5.5t-13.5 5.5t-5.5 13.5zM465 144q0 8 5.5 13t13.5 5t13 -5t5 -13t-5 -13.5t-13 -5.5q-19 0 -19 19z" />
<glyph unicode="P" horiz-adv-x="464" d="M399 396q8 0 13.5 5.5t5.5 12.5q0 8 -5.5 13.5t-13.5 5.5t-13.5 -5.5t-5.5 -13.5q0 -7 5.5 -12.5t13.5 -5.5zM444 475q0 -8 -5 -13.5t-13 -5.5q-19 0 -19 19q0 8 5.5 13t13.5 5t13 -5.5t5 -12.5zM444 538q0 -8 -5.5 -13.5t-13.5 -5.5q-7 0 -12.5 5.5t-5.5 13.5t5.5 13.5 t12.5 5.5q8 0 13.5 -5.5t5.5 -13.5zM421 597q0 -8 -5.5 -13.5t-13.5 -5.5t-13.5 5.5t-5.5 13.5q0 7 5.5 12.5t13.5 5.5t13.5 -5.5t5.5 -12.5zM374 369q0 -8 -5.5 -13.5t-13.5 -5.5t-13.5 5.5t-5.5 13.5q0 7 5.5 12.5t13.5 5.5t13.5 -5.5t5.5 -12.5zM376 641q0 -7 -5.5 -12.5 t-13.5 -5.5t-13.5 5.5t-5.5 12.5q0 8 5.5 13.5t13.5 5.5t13.5 -5.5t5.5 -13.5zM313 346q0 -8 -5 -13.5t-13 -5.5q-19 0 -19 19q0 8 5.5 13t13.5 5q7 0 12.5 -5t5.5 -13zM313 664q0 -8 -5.5 -13t-12.5 -5q-8 0 -13.5 5t-5.5 13q0 19 19 19q8 0 13 -5.5t5 -13.5zM248 344 q0 -19 -19 -19q-8 0 -13 5.5t-5 13.5t5.5 13t12.5 5q8 0 13.5 -5t5.5 -13zM248 671q0 -8 -5.5 -13.5t-13.5 -5.5q-7 0 -12.5 5.5t-5.5 13.5t5.5 13.5t12.5 5.5q8 0 13.5 -5.5t5.5 -13.5zM182 344q0 -8 -5 -13.5t-13 -5.5q-19 0 -19 19q0 8 5.5 13t13.5 5t13 -5t5 -13z M182 671q0 -8 -5.5 -13.5t-12.5 -5.5q-8 0 -13.5 5.5t-5.5 13.5t5.5 13.5t13.5 5.5q7 0 12.5 -5.5t5.5 -13.5zM117 16q0 -8 -5.5 -13t-13.5 -5t-13 5t-5 13t5 13.5t13 5.5q19 0 19 -19zM117 82q0 -8 -5.5 -13.5t-13.5 -5.5q-7 0 -12.5 5.5t-5.5 13.5t5.5 13.5t12.5 5.5 q8 0 13.5 -5.5t5.5 -13.5zM117 147q0 -8 -5.5 -13t-13.5 -5t-13 5.5t-5 12.5q0 8 5 13.5t13 5.5q19 0 19 -19zM117 213q0 -19 -19 -19q-8 0 -13 5.5t-5 13.5q0 7 5 12.5t13 5.5t13.5 -5t5.5 -13zM117 278q0 -8 -5.5 -13t-13.5 -5t-13 5t-5 13t5 13.5t13 5.5q19 0 19 -19z M117 344q0 -19 -19 -19q-8 0 -13 5.5t-5 13.5t5 13t13 5t13.5 -5t5.5 -13zM117 409q0 -8 -5.5 -13.5t-13.5 -5.5q-7 0 -12.5 5.5t-5.5 13.5t5.5 13.5t12.5 5.5q8 0 13.5 -5.5t5.5 -13.5zM117 475q0 -19 -19 -19q-8 0 -13 5.5t-5 13.5q0 7 5 12.5t13 5.5t13.5 -5t5.5 -13z M117 540q0 -8 -5.5 -13.5t-13.5 -5.5q-7 0 -12.5 5.5t-5.5 13.5t5.5 13.5t12.5 5.5q8 0 13.5 -5.5t5.5 -13.5zM117 605q0 -8 -5.5 -13t-13.5 -5t-13 5.5t-5 12.5q0 8 5 13.5t13 5.5q19 0 19 -19zM117 671q0 -8 -5.5 -13.5t-13.5 -5.5q-7 0 -12.5 5.5t-5.5 13.5t5.5 13.5 t12.5 5.5q8 0 13.5 -5.5t5.5 -13.5z" />
<glyph unicode="Q" horiz-adv-x="583" d="M256 652q-8 0 -13.5 5.5t-5.5 12.5q0 8 5.5 13.5t13.5 5.5t13.5 -5.5t5.5 -13.5q0 -7 -5.5 -12.5t-13.5 -5.5zM211 644q0 -8 -5.5 -13.5t-13.5 -5.5t-13.5 5.5t-5.5 13.5t5.5 13.5t13.5 5.5t13.5 -5.5t5.5 -13.5zM157 600q0 -7 -5.5 -12.5t-13.5 -5.5t-13.5 5.5 t-5.5 12.5q0 8 5.5 13.5t13.5 5.5t13.5 -5.5t5.5 -13.5zM77 343q0 -8 -5.5 -13.5t-12.5 -5.5q-8 0 -13.5 5.5t-5.5 13.5t5.5 13.5t13.5 5.5q7 0 12.5 -5.5t5.5 -13.5zM83 410q0 -8 -5.5 -13t-13.5 -5t-13 5t-5 13t5 13.5t13 5.5q19 0 19 -19zM94 478q0 -8 -5.5 -13.5 t-12.5 -5.5q-8 0 -13.5 5.5t-5.5 13.5t5.5 13.5t13.5 5.5q7 0 12.5 -5.5t5.5 -13.5zM118 543q0 -8 -5 -13.5t-13 -5.5q-19 0 -19 19q0 8 5.5 13t13.5 5t13 -5.5t5 -12.5zM327 652q-8 0 -13.5 5.5t-5.5 12.5q0 8 5.5 13.5t13.5 5.5t13.5 -5.5t5.5 -13.5q0 -7 -5.5 -12.5 t-13.5 -5.5zM391 625q-7 0 -13 5.5t-6 13.5t6 13.5t13 5.5t13 -5.5t6 -13.5t-6 -13.5t-13 -5.5zM445 582q-8 0 -13.5 5.5t-5.5 12.5q0 8 5.5 13.5t13.5 5.5t13.5 -5.5t5.5 -13.5q0 -7 -5.5 -12.5t-13.5 -5.5zM524 324q-7 0 -12.5 5.5t-5.5 13.5t5.5 13.5t12.5 5.5 q8 0 13.5 -5.5t5.5 -13.5t-5.5 -13.5t-13.5 -5.5zM519 392q-8 0 -13.5 5.5t-5.5 12.5q0 8 5.5 13.5t13.5 5.5t13.5 -5.5t5.5 -13.5q0 -7 -5.5 -12.5t-13.5 -5.5zM508 459q-8 0 -13.5 5.5t-5.5 13.5t5.5 13.5t13.5 5.5q7 0 12.5 -5.5t5.5 -13.5t-5.5 -13.5t-12.5 -5.5z M483 524q-8 0 -13 5.5t-5 13.5q0 7 5.5 12.5t12.5 5.5q8 0 13.5 -5t5.5 -13q0 -19 -19 -19zM275 16q0 -8 -5.5 -13.5t-13.5 -5.5t-13.5 5.5t-5.5 13.5t5.5 13.5t13.5 5.5t13.5 -5.5t5.5 -13.5zM192 61q8 0 13.5 -5.5t5.5 -12.5q0 -8 -5.5 -13.5t-13.5 -5.5t-13.5 5.5 t-5.5 13.5q0 7 5.5 12.5t13.5 5.5zM138 105q8 0 13.5 -5.5t5.5 -13.5t-5.5 -13.5t-13.5 -5.5t-13.5 5.5t-5.5 13.5t5.5 13.5t13.5 5.5zM64 295q8 0 13.5 -5.5t5.5 -13.5t-5.5 -13.5t-13.5 -5.5q-7 0 -12.5 5.5t-5.5 13.5t5.5 13.5t12.5 5.5zM76 227q8 0 13 -5.5t5 -13.5 t-5 -13t-13 -5t-13.5 5t-5.5 13q0 19 19 19zM100 162q8 0 13 -5t5 -13t-5 -13.5t-13 -5.5q-19 0 -19 19q0 8 5.5 13t13.5 5zM308 16q0 8 6 13.5t13 5.5t13 -5.5t6 -13.5t-6 -13.5t-13 -5.5t-13 5.5t-6 13.5zM372 43q0 7 5.5 12.5t13.5 5.5t13.5 -5.5t5.5 -12.5 q0 -8 -5.5 -13.5t-13.5 -5.5t-13.5 5.5t-5.5 13.5zM426 86q0 8 6 13.5t13 5.5t13 -5.5t6 -13.5t-6 -13.5t-13 -5.5t-13 5.5t-6 13.5zM500 276q0 8 6 13.5t13 5.5t13 -5.5t6 -13.5t-6 -13.5t-13 -5.5t-13 5.5t-6 13.5zM489 208q0 19 19 19q8 0 13 -5.5t5 -13.5t-5 -13t-13 -5 t-13.5 5t-5.5 13zM465 144q0 8 5.5 13t12.5 5q8 0 13.5 -5t5.5 -13q0 -19 -19 -19q-8 0 -13 5.5t-5 13.5zM456 -4q0 -8 -5 -13t-13 -5t-13.5 5t-5.5 13q0 19 19 19q8 0 13 -5.5t5 -13.5zM363 88q0 -8 -5.5 -13t-12.5 -5q-8 0 -13.5 5t-5.5 13q0 19 19 19q8 0 13 -5.5 t5 -13.5zM317 134q0 -7 -5.5 -12.5t-13.5 -5.5t-13.5 5.5t-5.5 12.5q0 8 5.5 13.5t13.5 5.5t13.5 -5.5t5.5 -13.5zM503 -50q0 -8 -5.5 -13t-13.5 -5t-13 5t-5 13t5 13.5t13 5.5q19 0 19 -19z" />
<glyph unicode="R" horiz-adv-x="485" d="M446 -3q8 0 13.5 5.5t5.5 13.5q0 7 -5.5 12.5t-13.5 5.5t-13.5 -5.5t-5.5 -12.5q0 -8 5.5 -13.5t13.5 -5.5zM419 414q0 -7 -5.5 -12.5t-13.5 -5.5t-13.5 5.5t-5.5 12.5q0 8 5.5 13.5t13.5 5.5t13.5 -5.5t5.5 -13.5zM445 475q0 -19 -19 -19q-8 0 -13 5.5t-5 13.5 q0 7 5 12.5t13 5.5t13.5 -5t5.5 -13zM445 538q0 -8 -5.5 -13.5t-13.5 -5.5t-13.5 5.5t-5.5 13.5t5.5 13.5t13.5 5.5t13.5 -5.5t5.5 -13.5zM421 597q0 -8 -5 -13.5t-13 -5.5q-19 0 -19 19q0 8 5.5 13t13.5 5q7 0 12.5 -5.5t5.5 -12.5zM393 125q0 -7 -5.5 -13t-13.5 -6 t-13.5 6t-5.5 13t5.5 13t13.5 6t13.5 -6t5.5 -13zM429 70q0 -7 -5.5 -12.5t-13.5 -5.5t-13.5 5.5t-5.5 12.5q0 8 5.5 13.5t13.5 5.5t13.5 -5.5t5.5 -13.5zM357 180q0 -8 -5.5 -13.5t-13.5 -5.5t-13.5 5.5t-5.5 13.5q0 7 5.5 12.5t13.5 5.5t13.5 -5.5t5.5 -12.5zM375 369 q0 -8 -5.5 -13.5t-13.5 -5.5t-13.5 5.5t-5.5 13.5q0 7 5.5 12.5t13.5 5.5t13.5 -5.5t5.5 -12.5zM377 641q0 -7 -5.5 -12.5t-13.5 -5.5t-13.5 5.5t-5.5 12.5q0 8 5.5 13.5t13.5 5.5t13.5 -5.5t5.5 -13.5zM321 234q0 -7 -5.5 -12.5t-13.5 -5.5t-13.5 5.5t-5.5 12.5 q0 8 5.5 13.5t13.5 5.5t13.5 -5.5t5.5 -13.5zM249 344q0 -8 -5.5 -13.5t-13.5 -5.5t-13.5 5.5t-5.5 13.5q0 7 5.5 12.5t13.5 5.5t13.5 -5.5t5.5 -12.5zM285 289q0 -7 -5.5 -13t-13.5 -6t-13.5 6t-5.5 13t5.5 13t13.5 6t13.5 -6t5.5 -13zM314 346q0 -8 -5 -13.5t-13 -5.5 q-19 0 -19 19q0 8 5.5 13t13.5 5t13 -5t5 -13zM314 664q0 -8 -5 -13t-13 -5t-13.5 5t-5.5 13q0 19 19 19q8 0 13 -5.5t5 -13.5zM249 671q0 -7 -5.5 -13t-13.5 -6t-13.5 6t-5.5 13t5.5 13t13.5 6t13.5 -6t5.5 -13zM183 344q0 -8 -5 -13.5t-13 -5.5q-19 0 -19 19q0 8 5.5 13 t13.5 5q7 0 12.5 -5t5.5 -13zM183 671q0 -8 -5.5 -13.5t-12.5 -5.5q-8 0 -13.5 5.5t-5.5 13.5t5.5 13.5t13.5 5.5q7 0 12.5 -5.5t5.5 -13.5zM118 16q0 -7 -5.5 -12.5t-13.5 -5.5t-13.5 5.5t-5.5 12.5q0 8 5.5 13.5t13.5 5.5t13.5 -5.5t5.5 -13.5zM118 82q0 -8 -6 -13.5 t-13 -5.5t-13 5.5t-6 13.5t6 13.5t13 5.5t13 -5.5t6 -13.5zM118 147q0 -7 -5.5 -12.5t-13.5 -5.5t-13.5 5.5t-5.5 12.5q0 8 5.5 13.5t13.5 5.5t13.5 -5.5t5.5 -13.5zM118 213q0 -8 -5.5 -13.5t-13.5 -5.5t-13.5 5.5t-5.5 13.5q0 7 5.5 12.5t13.5 5.5t13.5 -5.5t5.5 -12.5z M118 278q0 -7 -5.5 -12.5t-13.5 -5.5t-13.5 5.5t-5.5 12.5q0 8 5.5 13.5t13.5 5.5t13.5 -5.5t5.5 -13.5zM118 344q0 -8 -5.5 -13.5t-13.5 -5.5t-13.5 5.5t-5.5 13.5q0 7 5.5 12.5t13.5 5.5t13.5 -5.5t5.5 -12.5zM118 409q0 -7 -6 -13t-13 -6t-13 6t-6 13t6 13t13 6t13 -6 t6 -13zM118 475q0 -8 -5.5 -13.5t-13.5 -5.5t-13.5 5.5t-5.5 13.5q0 7 5.5 12.5t13.5 5.5t13.5 -5.5t5.5 -12.5zM118 540q0 -8 -6 -13.5t-13 -5.5t-13 5.5t-6 13.5t6 13.5t13 5.5t13 -5.5t6 -13.5zM118 605q0 -7 -5.5 -12.5t-13.5 -5.5t-13.5 5.5t-5.5 12.5q0 8 5.5 13.5 t13.5 5.5t13.5 -5.5t5.5 -13.5zM118 671q0 -7 -6 -13t-13 -6t-13 6t-6 13t6 13t13 6t13 -6t6 -13z" />
<glyph unicode="S" horiz-adv-x="417" d="M350 72q7 0 12.5 5.5t5.5 13.5t-5 13.5t-13 5.5q-19 0 -19 -19q0 -8 5.5 -13.5t13.5 -5.5zM387 152q0 -19 -19 -19q-8 0 -13 5.5t-5 13.5t5 13t13 5t13.5 -5t5.5 -13zM384 216q0 -8 -5.5 -13.5t-13.5 -5.5t-13.5 5.5t-5.5 13.5q0 7 5.5 12.5t13.5 5.5t13.5 -5.5 t5.5 -12.5zM325 47q0 -8 -5.5 -13.5t-13.5 -5.5t-13.5 5.5t-5.5 13.5q0 7 5.5 12.5t13.5 5.5t13.5 -5.5t5.5 -12.5zM352 276q0 -8 -5.5 -13.5t-12.5 -5.5q-8 0 -13.5 5.5t-5.5 13.5q0 19 19 19q8 0 13 -5.5t5 -13.5zM347 660q0 -19 -19 -19q-8 0 -13 5.5t-5 13.5t5 13t13 5 t13.5 -5t5.5 -13zM263 24q0 -8 -5.5 -13t-12.5 -5q-8 0 -13.5 5t-5.5 13q0 19 19 19q8 0 13 -5.5t5 -13.5zM302 319q0 -7 -5 -12.5t-13 -5.5t-13.5 5t-5.5 13q0 19 19 19q8 0 13 -5.5t5 -13.5zM282 671q0 -7 -6 -13t-13 -6t-13 6t-6 13t6 13t13 6t13 -6t6 -13zM198 16 q0 -8 -5.5 -13t-13.5 -5t-13.5 5.5t-5.5 12.5q0 8 5.5 13.5t13.5 5.5q19 0 19 -19zM245 354q0 -8 -5 -13.5t-13 -5.5q-19 0 -19 19q0 8 5.5 13t13.5 5q7 0 12.5 -5t5.5 -13zM213 671q0 -8 -5.5 -13.5t-12.5 -5.5q-8 0 -13.5 5.5t-5.5 13.5t5.5 13.5t13.5 5.5q7 0 12.5 -5.5 t5.5 -13.5zM132 24q0 -8 -5 -13.5t-13 -5.5q-19 0 -19 19q0 8 5.5 13t13.5 5t13 -5t5 -13zM135 422q0 -8 -5.5 -13t-13.5 -5t-13 5t-5 13t5 13.5t13 5.5q19 0 19 -19zM188 387q0 -8 -5.5 -13.5t-13.5 -5.5q-19 0 -19 19q0 8 5.5 13t13.5 5t13.5 -5.5t5.5 -12.5zM148 651 q0 -8 -5.5 -13.5t-12.5 -5.5q-8 0 -13.5 5.5t-5.5 13.5t5.5 13.5t13.5 5.5q7 0 12.5 -5.5t5.5 -13.5zM67 39q0 -19 -19 -19q-8 0 -13 5.5t-5 13.5q0 7 5 12.5t13 5.5t13.5 -5t5.5 -13zM91 475q0 -19 -19 -19q-8 0 -13 5.5t-5 13.5q0 7 5 12.5t13 5.5t13.5 -5t5.5 -13z M75 540q0 -8 -5.5 -13.5t-13.5 -5.5q-7 0 -12.5 5.5t-5.5 13.5t5.5 13.5t12.5 5.5q8 0 13.5 -5.5t5.5 -13.5zM97 605q0 -8 -5.5 -13.5t-13.5 -5.5t-13.5 5.5t-5.5 13.5q0 7 5.5 12.5t13.5 5.5t13.5 -5.5t5.5 -12.5z" />
<glyph unicode="T" horiz-adv-x="451" d="M422 652q-8 0 -13.5 6t-5.5 13t5.5 13t13.5 6t13.5 -6t5.5 -13t-5.5 -13t-13.5 -6zM375 671q0 -8 -5.5 -13.5t-13.5 -5.5q-7 0 -12.5 5.5t-5.5 13.5t5.5 13.5t12.5 5.5q8 0 13.5 -5.5t5.5 -13.5zM310 671q0 -7 -6 -13t-13 -6t-13 6t-6 13t6 13t13 6t13 -6t6 -13zM244 16 q0 -8 -5.5 -13t-13.5 -5q-7 0 -12.5 5t-5.5 13t5 13.5t13 5.5q19 0 19 -19zM244 82q0 -8 -5.5 -13.5t-13.5 -5.5q-7 0 -12.5 5.5t-5.5 13.5t5.5 13.5t12.5 5.5q8 0 13.5 -5.5t5.5 -13.5zM244 147q0 -8 -5.5 -13t-13.5 -5q-7 0 -12.5 5.5t-5.5 12.5q0 8 5 13.5t13 5.5 q19 0 19 -19zM244 213q0 -19 -19 -19q-8 0 -13 5.5t-5 13.5q0 7 5.5 12.5t12.5 5.5q8 0 13.5 -5t5.5 -13zM244 278q0 -8 -5.5 -13t-13.5 -5q-7 0 -12.5 5t-5.5 13t5 13.5t13 5.5q19 0 19 -19zM244 344q0 -19 -19 -19q-8 0 -13 5.5t-5 13.5t5.5 13t12.5 5q8 0 13.5 -5 t5.5 -13zM244 409q0 -8 -5.5 -13.5t-13.5 -5.5q-7 0 -12.5 5.5t-5.5 13.5t5.5 13.5t12.5 5.5q8 0 13.5 -5.5t5.5 -13.5zM244 475q0 -19 -19 -19q-8 0 -13 5.5t-5 13.5q0 7 5.5 12.5t12.5 5.5q8 0 13.5 -5t5.5 -13zM244 540q0 -8 -5.5 -13.5t-13.5 -5.5q-7 0 -12.5 5.5 t-5.5 13.5t5.5 13.5t12.5 5.5q8 0 13.5 -5.5t5.5 -13.5zM244 605q0 -8 -5.5 -13t-13.5 -5q-7 0 -12.5 5.5t-5.5 12.5q0 8 5 13.5t13 5.5q19 0 19 -19zM244 671q0 -8 -5.5 -13.5t-13.5 -5.5q-7 0 -12.5 5.5t-5.5 13.5t5.5 13.5t12.5 5.5q8 0 13.5 -5.5t5.5 -13.5zM179 671 q0 -7 -5.5 -13t-13.5 -6t-13.5 6t-5.5 13t5.5 13t13.5 6t13.5 -6t5.5 -13zM113 671q0 -8 -5.5 -13.5t-12.5 -5.5q-8 0 -13.5 5.5t-5.5 13.5t5.5 13.5t13.5 5.5q7 0 12.5 -5.5t5.5 -13.5zM48 671q0 -7 -6 -13t-13 -6t-13 6t-6 13t6 13t13 6t13 -6t6 -13z" />
<glyph unicode="U" horiz-adv-x="656" d="M347 16q0 -8 -5.5 -13.5t-13.5 -5.5t-13.5 5.5t-5.5 13.5t5.5 13.5t13.5 5.5t13.5 -5.5t5.5 -13.5zM126 131q-8 0 -13.5 5.5t-5.5 12.5q0 8 5.5 13.5t13.5 5.5t13.5 -5.5t5.5 -13.5q0 -7 -5.5 -12.5t-13.5 -5.5zM110 194q-19 0 -19 19q0 8 5.5 13t13.5 5t13 -5.5t5 -12.5 q0 -8 -5 -13.5t-13 -5.5zM102 259q-19 0 -19 19q0 8 5.5 13t13.5 5t13 -5t5 -13t-5 -13.5t-13 -5.5zM99 324q-7 0 -13 6t-6 13q0 8 5.5 13.5t13.5 5.5t13.5 -5.5t5.5 -13.5q0 -7 -6 -13t-13 -6zM99 390q-8 0 -13.5 5.5t-5.5 13.5q0 7 5.5 12.5t13.5 5.5t13.5 -5.5t5.5 -12.5 q0 -8 -5.5 -13.5t-13.5 -5.5zM99 455q-7 0 -13 5.5t-6 13.5t6 13.5t13 5.5t13 -5.5t6 -13.5t-6 -13.5t-13 -5.5zM99 521q-8 0 -13.5 5.5t-5.5 13.5q0 7 5.5 12.5t13.5 5.5t13.5 -5.5t5.5 -12.5q0 -8 -5.5 -13.5t-13.5 -5.5zM99 586q-7 0 -13 6t-6 13t6 13t13 6t13 -6t6 -13 t-6 -13t-13 -6zM99 652q-8 0 -13.5 5.5t-5.5 12.5q0 8 5.5 13.5t13.5 5.5t13.5 -5.5t5.5 -13.5q0 -7 -5.5 -12.5t-13.5 -5.5zM157 73q-8 0 -13.5 5.5t-5.5 13.5t5.5 13.5t13.5 5.5q7 0 13 -5.5t6 -13.5t-6 -13.5t-13 -5.5zM204 28q-19 0 -19 19q0 8 5.5 13t13.5 5t13 -5.5 t5 -12.5q0 -8 -5 -13.5t-13 -5.5zM262 1q-8 0 -13 5.5t-5 13.5t5 13t13 5t13.5 -5t5.5 -13q0 -19 -19 -19zM549 149q0 -7 -5.5 -12.5t-13.5 -5.5t-13.5 5.5t-5.5 12.5q0 8 5.5 13.5t13.5 5.5t13.5 -5.5t5.5 -13.5zM565 213q0 -19 -19 -19q-8 0 -13 5.5t-5 13.5q0 7 5 12.5 t13 5.5t13.5 -5t5.5 -13zM573 278q0 -19 -19 -19q-8 0 -13 5.5t-5 13.5t5 13t13 5t13.5 -5t5.5 -13zM576 343q0 -7 -6 -13t-13 -6t-13 6t-6 13q0 8 5.5 13.5t13.5 5.5t13.5 -5.5t5.5 -13.5zM576 409q0 -8 -5.5 -13.5t-13.5 -5.5t-13.5 5.5t-5.5 13.5q0 7 5.5 12.5t13.5 5.5 t13.5 -5.5t5.5 -12.5zM576 474q0 -8 -6 -13.5t-13 -5.5t-13 5.5t-6 13.5t6 13.5t13 5.5t13 -5.5t6 -13.5zM576 540q0 -8 -5.5 -13.5t-13.5 -5.5t-13.5 5.5t-5.5 13.5q0 7 5.5 12.5t13.5 5.5t13.5 -5.5t5.5 -12.5zM576 605q0 -7 -6 -13t-13 -6t-13 6t-6 13t6 13t13 6t13 -6 t6 -13zM576 670q0 -7 -5.5 -12.5t-13.5 -5.5t-13.5 5.5t-5.5 12.5q0 8 5.5 13.5t13.5 5.5t13.5 -5.5t5.5 -13.5zM518 92q0 -8 -5.5 -13.5t-13.5 -5.5q-7 0 -13 5.5t-6 13.5t6 13.5t13 5.5q8 0 13.5 -5.5t5.5 -13.5zM471 47q0 -19 -19 -19q-8 0 -13 5.5t-5 13.5q0 7 5 12.5 t13 5.5t13.5 -5t5.5 -13zM412 20q0 -8 -5 -13.5t-13 -5.5q-19 0 -19 19q0 8 5.5 13t13.5 5t13 -5t5 -13z" />
<glyph unicode="V" horiz-adv-x="488" d="M244 -2q8 0 13.5 5.5t5.5 12.5q0 8 -5.5 13.5t-13.5 5.5t-13.5 -5.5t-5.5 -13.5q0 -7 5.5 -12.5t13.5 -5.5zM236 82q0 -8 -5.5 -13.5t-13.5 -5.5q-7 0 -12.5 5.5t-5.5 13.5t5.5 13.5t12.5 5.5q8 0 13.5 -5.5t5.5 -13.5zM214 147q0 -7 -5.5 -12.5t-13.5 -5.5t-13.5 5.5 t-5.5 12.5q0 8 5.5 13.5t13.5 5.5t13.5 -5.5t5.5 -13.5zM192 213q0 -8 -5.5 -13.5t-13.5 -5.5t-13.5 5.5t-5.5 13.5q0 7 5.5 12.5t13.5 5.5t13.5 -5.5t5.5 -12.5zM170 278q0 -7 -5.5 -12.5t-13.5 -5.5t-13.5 5.5t-5.5 12.5q0 8 5.5 13.5t13.5 5.5t13.5 -5.5t5.5 -13.5z M148 344q0 -8 -5.5 -13.5t-13.5 -5.5t-13.5 5.5t-5.5 13.5q0 7 5.5 12.5t13.5 5.5t13.5 -5.5t5.5 -12.5zM126 409q0 -7 -6 -13t-13 -6t-13 6t-6 13t6 13t13 6t13 -6t6 -13zM104 475q0 -8 -5.5 -13.5t-13.5 -5.5q-19 0 -19 19q0 8 5.5 13t13.5 5t13.5 -5.5t5.5 -12.5zM81 540 q0 -8 -5.5 -13.5t-12.5 -5.5q-8 0 -13.5 5.5t-5.5 13.5t5.5 13.5t13.5 5.5q7 0 12.5 -5.5t5.5 -13.5zM59 605q0 -7 -5.5 -12.5t-12.5 -5.5q-8 0 -13.5 5t-5.5 13q0 19 19 19q8 0 13 -5.5t5 -13.5zM37 671q0 -8 -5.5 -13.5t-13.5 -5.5q-7 0 -12.5 5.5t-5.5 13.5t5.5 13.5 t12.5 5.5q8 0 13.5 -5.5t5.5 -13.5zM270 63q-7 0 -12.5 5.5t-5.5 13.5t5.5 13.5t12.5 5.5q8 0 13.5 -5.5t5.5 -13.5t-5.5 -13.5t-13.5 -5.5zM293 129q-8 0 -13.5 5t-5.5 13q0 19 19 19q8 0 13 -5.5t5 -13.5q0 -7 -5.5 -12.5t-12.5 -5.5zM315 194q-19 0 -19 19q0 8 5.5 13 t13.5 5q7 0 12.5 -5.5t5.5 -12.5q0 -8 -5 -13.5t-13 -5.5zM337 260q-8 0 -13.5 5t-5.5 13q0 19 19 19q8 0 13 -5.5t5 -13.5t-5.5 -13t-12.5 -5zM359 325q-19 0 -19 19q0 8 5.5 13t13.5 5q7 0 12.5 -5t5.5 -13t-5 -13.5t-13 -5.5zM381 390q-8 0 -13.5 5.5t-5.5 13.5t5.5 13.5 t13.5 5.5q7 0 12.5 -5.5t5.5 -13.5t-5.5 -13.5t-12.5 -5.5zM403 456q-8 0 -13.5 5.5t-5.5 13.5q0 7 5.5 12.5t13.5 5.5t13.5 -5.5t5.5 -12.5q0 -8 -5.5 -13.5t-13.5 -5.5zM425 521q-7 0 -13 5.5t-6 13.5t6 13.5t13 5.5t13 -5.5t6 -13.5t-6 -13.5t-13 -5.5zM447 587 q-8 0 -13.5 5.5t-5.5 12.5q0 8 5.5 13.5t13.5 5.5t13.5 -5.5t5.5 -13.5q0 -7 -5.5 -12.5t-13.5 -5.5zM469 652q-7 0 -12.5 5.5t-5.5 13.5t5.5 13.5t12.5 5.5q8 0 13.5 -5.5t5.5 -13.5t-5.5 -13.5t-13.5 -5.5z" />
<glyph unicode="W" horiz-adv-x="754" d="M199 -2q8 0 13.5 5.5t5.5 12.5q0 8 -5.5 13.5t-13.5 5.5t-13.5 -5.5t-5.5 -13.5q0 -7 5.5 -12.5t13.5 -5.5zM191 82q0 -8 -5.5 -13.5t-12.5 -5.5q-8 0 -13.5 5.5t-5.5 13.5t5.5 13.5t13.5 5.5q7 0 12.5 -5.5t5.5 -13.5zM174 147q0 -7 -5 -12.5t-13 -5.5t-13.5 5t-5.5 13 q0 19 19 19q8 0 13 -5.5t5 -13.5zM157 213q0 -8 -5 -13.5t-13 -5.5q-19 0 -19 19q0 8 5.5 13t13.5 5q7 0 12.5 -5.5t5.5 -12.5zM140 278q0 -8 -5 -13t-13 -5t-13.5 5t-5.5 13q0 19 19 19q8 0 13 -5.5t5 -13.5zM123 344q0 -19 -19 -19q-8 0 -13 5.5t-5 13.5t5 13t13 5 t13.5 -5t5.5 -13zM106 409q0 -8 -5.5 -13.5t-13.5 -5.5q-7 0 -12.5 5.5t-5.5 13.5t5.5 13.5t12.5 5.5q8 0 13.5 -5.5t5.5 -13.5zM89 475q0 -19 -19 -19q-8 0 -13 5.5t-5 13.5q0 7 5 12.5t13 5.5t13.5 -5t5.5 -13zM72 540q0 -8 -6 -13.5t-13 -5.5t-13 5.5t-6 13.5t6 13.5 t13 5.5t13 -5.5t6 -13.5zM55 605q0 -7 -5.5 -12.5t-13.5 -5.5t-13.5 5.5t-5.5 12.5q0 8 5.5 13.5t13.5 5.5t13.5 -5.5t5.5 -13.5zM38 671q0 -7 -6 -13t-13 -6t-13 6t-6 13t6 13t13 6t13 -6t6 -13zM226 63q-8 0 -13.5 5.5t-5.5 13.5t5.5 13.5t13.5 5.5q7 0 12.5 -5.5 t5.5 -13.5t-5.5 -13.5t-12.5 -5.5zM241 129q-8 0 -13.5 5.5t-5.5 12.5q0 8 5.5 13.5t13.5 5.5t13.5 -5.5t5.5 -13.5q0 -7 -5.5 -12.5t-13.5 -5.5zM256 194q-8 0 -13 5.5t-5 13.5q0 7 5 12.5t13 5.5t13.5 -5t5.5 -13q0 -19 -19 -19zM272 260q-8 0 -13.5 5t-5.5 13q0 19 19 19 q8 0 13 -5.5t5 -13.5t-5 -13t-13 -5zM287 325q-8 0 -13 5.5t-5 13.5t5.5 13t12.5 5q8 0 13.5 -5t5.5 -13q0 -19 -19 -19zM303 390q-8 0 -13.5 5.5t-5.5 13.5t5.5 13.5t13.5 5.5q7 0 12.5 -5.5t5.5 -13.5t-5.5 -13.5t-12.5 -5.5zM318 456q-8 0 -13.5 5.5t-5.5 13.5 q0 7 5.5 12.5t13.5 5.5t13.5 -5.5t5.5 -12.5q0 -8 -5.5 -13.5t-13.5 -5.5zM333 521q-7 0 -12.5 5.5t-5.5 13.5t5.5 13.5t12.5 5.5q8 0 13.5 -5.5t5.5 -13.5t-5.5 -13.5t-13.5 -5.5zM349 587q-8 0 -13.5 5.5t-5.5 12.5q0 8 5.5 13.5t13.5 5.5t13.5 -5.5t5.5 -13.5 q0 -7 -5.5 -12.5t-13.5 -5.5zM536 16q0 -7 5.5 -12.5t13.5 -5.5t13.5 5.5t5.5 12.5q0 8 -5.5 13.5t-13.5 5.5t-13.5 -5.5t-5.5 -13.5zM581 63q-7 0 -12.5 5.5t-5.5 13.5t5.5 13.5t12.5 5.5q8 0 13.5 -5.5t5.5 -13.5t-5.5 -13.5t-13.5 -5.5zM598 129q-8 0 -13 5.5t-5 12.5 q0 8 5 13.5t13 5.5q19 0 19 -19q0 -8 -5.5 -13t-13.5 -5zM615 194q-8 0 -13 5.5t-5 13.5q0 7 5.5 12.5t12.5 5.5q8 0 13.5 -5t5.5 -13q0 -19 -19 -19zM633 260q-8 0 -13.5 5t-5.5 13q0 19 19 19q8 0 13 -5.5t5 -13.5t-5.5 -13t-12.5 -5zM650 325q-19 0 -19 19q0 8 5.5 13 t13.5 5t13 -5t5 -13t-5 -13.5t-13 -5.5zM667 390q-8 0 -13.5 5.5t-5.5 13.5t5.5 13.5t13.5 5.5q7 0 13 -6t6 -13t-6 -13t-13 -6zM684 456q-8 0 -13.5 5.5t-5.5 13.5q0 7 5.5 12.5t13.5 5.5t13.5 -5.5t5.5 -12.5q0 -8 -5.5 -13.5t-13.5 -5.5zM701 521q-7 0 -13 5.5t-6 13.5 t6 13.5t13 5.5t13 -5.5t6 -13.5t-6 -13.5t-13 -5.5zM718 587q-8 0 -13.5 5.5t-5.5 12.5q0 8 5.5 13.5t13.5 5.5t13.5 -5.5t5.5 -13.5q0 -7 -5.5 -12.5t-13.5 -5.5zM735 652q-7 0 -13 6t-6 13t6 13t13 6t13 -6t6 -13t-6 -13t-13 -6zM547 82q0 -8 -5.5 -13.5t-12.5 -5.5 q-8 0 -13.5 5.5t-5.5 13.5t5.5 13.5t13.5 5.5q7 0 12.5 -5.5t5.5 -13.5zM532 147q0 -7 -5.5 -12.5t-13.5 -5.5t-13.5 5.5t-5.5 12.5q0 8 5.5 13.5t13.5 5.5t13.5 -5.5t5.5 -13.5zM517 213q0 -8 -5.5 -13.5t-13.5 -5.5q-19 0 -19 19q0 8 5.5 13t13.5 5t13.5 -5.5t5.5 -12.5z M501 278q0 -8 -5.5 -13t-13.5 -5t-13 5t-5 13t5 13.5t13 5.5q19 0 19 -19zM486 344q0 -8 -5.5 -13.5t-13.5 -5.5t-13.5 5.5t-5.5 13.5q0 7 5.5 12.5t13.5 5.5t13.5 -5.5t5.5 -12.5zM470 409q0 -8 -5.5 -13.5t-12.5 -5.5q-8 0 -13.5 5.5t-5.5 13.5t5.5 13.5t13.5 5.5 q7 0 12.5 -5.5t5.5 -13.5zM455 475q0 -8 -5.5 -13.5t-13.5 -5.5t-13.5 5.5t-5.5 13.5q0 7 5.5 12.5t13.5 5.5t13.5 -5.5t5.5 -12.5zM439 540q0 -8 -5.5 -13.5t-12.5 -5.5q-8 0 -13.5 5.5t-5.5 13.5t5.5 13.5t13.5 5.5q7 0 12.5 -5.5t5.5 -13.5zM424 605q0 -8 -5.5 -13 t-13.5 -5q-7 0 -12.5 5.5t-5.5 12.5q0 8 5 13.5t13 5.5q19 0 19 -19zM377 652q-7 0 -13 6t-6 13t6 13t13 6t13 -6t6 -13t-6 -13t-13 -6z" />
<glyph unicode="X" horiz-adv-x="466" d="M448 -2q8 0 13 5t5 13t-5 13.5t-13 5.5q-19 0 -19 -19q0 -8 5.5 -13t13.5 -5zM431 76q0 -8 -5.5 -13t-13.5 -5t-13 5t-5 13t5 13.5t13 5.5q19 0 19 -19zM397 133q0 -7 -5.5 -12.5t-13.5 -5.5t-13.5 5.5t-5.5 12.5q0 8 5.5 13.5t13.5 5.5t13.5 -5.5t5.5 -13.5zM361 193 q0 -19 -19 -19q-8 0 -13 5.5t-5 13.5q0 7 5 12.5t13 5.5t13.5 -5t5.5 -13zM325 253q0 -8 -5.5 -13.5t-13.5 -5.5q-7 0 -12.5 5.5t-5.5 13.5t5.5 13.5t12.5 5.5q8 0 13.5 -5.5t5.5 -13.5zM289 314q0 -7 -5.5 -12.5t-13.5 -5.5t-13.5 5.5t-5.5 12.5q0 8 5.5 13.5t13.5 5.5 t13.5 -5.5t5.5 -13.5zM252 374q0 -19 -19 -19q-8 0 -13 5.5t-5 13.5t5.5 13t12.5 5q8 0 13.5 -5t5.5 -13zM217 433q0 -8 -5.5 -13.5t-13.5 -5.5t-13.5 5.5t-5.5 13.5q0 7 5.5 12.5t13.5 5.5t13.5 -5.5t5.5 -12.5zM181 493q0 -8 -5.5 -13.5t-13.5 -5.5t-13.5 5.5t-5.5 13.5 q0 7 5.5 12.5t13.5 5.5t13.5 -5.5t5.5 -12.5zM145 553q0 -8 -5.5 -13.5t-13.5 -5.5q-19 0 -19 19q0 8 5.5 13.5t13.5 5.5t13.5 -6t5.5 -13zM109 612q0 -8 -5.5 -13.5t-13.5 -5.5t-13.5 5.5t-5.5 13.5t5.5 13.5t13.5 5.5t13.5 -5.5t5.5 -13.5zM74 671q0 -7 -6 -13t-13 -6 t-13 6t-6 13t6 13t13 6t13 -6t6 -13zM0 16q0 -8 5.5 -13t13.5 -5q7 0 12.5 5t5.5 13t-5 13.5t-13 5.5q-19 0 -19 -19zM54 58q-8 0 -13.5 5.5t-5.5 12.5q0 8 5.5 13.5t13.5 5.5t13.5 -5.5t5.5 -13.5q0 -7 -5.5 -12.5t-13.5 -5.5zM88 115q-8 0 -13 5.5t-5 12.5q0 8 5 13.5 t13 5.5q19 0 19 -19q0 -8 -5.5 -13t-13.5 -5zM124 174q-8 0 -13.5 5.5t-5.5 13.5q0 7 5.5 12.5t13.5 5.5t13.5 -5.5t5.5 -12.5q0 -8 -5.5 -13.5t-13.5 -5.5zM160 234q-7 0 -12.5 5.5t-5.5 13.5t5.5 13.5t12.5 5.5q8 0 13.5 -5.5t5.5 -13.5t-5.5 -13.5t-13.5 -5.5zM196 296 q-8 0 -13 5t-5 13t5 13.5t13 5.5q19 0 19 -19q0 -8 -5.5 -13t-13.5 -5zM268 414q-8 0 -13 5.5t-5 13.5q0 7 5 12.5t13 5.5t13.5 -5t5.5 -13q0 -19 -19 -19zM305 474q-19 0 -19 19q0 8 5.5 13t13.5 5q7 0 12.5 -5.5t5.5 -12.5q0 -8 -5 -13.5t-13 -5.5zM341 534q-19 0 -19 19 q0 8 5.5 13.5t13.5 5.5q7 0 12.5 -5.5t5.5 -13.5t-5 -13.5t-13 -5.5zM376 593q-7 0 -12.5 5.5t-5.5 13.5t5.5 13.5t12.5 5.5q8 0 13.5 -5.5t5.5 -13.5t-5.5 -13.5t-13.5 -5.5zM412 652q-8 0 -13.5 5.5t-5.5 13.5t5.5 13.5t13.5 5.5q7 0 12.5 -5.5t5.5 -13.5t-5.5 -13.5 t-12.5 -5.5z" />
<glyph unicode="Y" horiz-adv-x="510" d="M265 262q15 10 6 26q-4 7 -11.5 8.5t-14.5 -2.5q-6 -4 -8 -11.5t2 -13.5q9 -16 26 -7zM237 344q10 -15 -6 -26q-16 -9 -26 7q-9 16 7 25q16 11 25 -6zM204 400q9 -16 -7 -26q-6 -4 -13.5 -2t-11.5 9q-10 15 6 26q16 9 26 -7zM170 456q9 -17 -6 -25q-7 -4 -14.5 -2.5 t-11.5 8.5q-8 15 6 26q17 9 26 -7zM136 512q11 -15 -6 -25q-15 -10 -26 6q-9 16 7 26q16 9 25 -7zM103 568q4 -6 2 -13.5t-9 -11.5q-17 -9 -25 6q-4 7 -2.5 14.5t8.5 11.5q16 9 26 -7zM69 625q9 -17 -6 -26q-17 -9 -26 6q-9 17 6 26q17 9 26 -6zM35 681q4 -7 2.5 -14.5 t-8.5 -11.5q-15 -8 -26 6q-9 17 7 26q17 9 25 -6zM279 318q-16 11 -6 26q9 17 25 6q16 -9 7 -25q-10 -16 -26 -7zM313 374q-16 10 -7 26q10 16 26 7q16 -11 6 -26q-9 -16 -25 -7zM346 431q-15 9 -6 25t26 7q14 -11 6 -26q-4 -7 -11.5 -8.5t-14.5 2.5zM380 487q-17 10 -6 25 q9 16 25 7q16 -10 7 -26q-11 -16 -26 -6zM414 543q-7 4 -9 11.5t2 13.5q10 16 26 7q7 -4 8.5 -11.5t-2.5 -14.5q-8 -15 -25 -6zM447 599q-15 9 -6 26q9 15 26 6q16 -9 6 -26q-9 -15 -26 -6zM481 655q-7 4 -8.5 11.5t2.5 14.5q9 16 25 6q16 -9 7 -26q-11 -14 -26 -6zM274 16 q0 -7 -5.5 -12.5t-13.5 -5.5t-13.5 5.5t-5.5 12.5q0 8 5.5 13.5t13.5 5.5t13.5 -5.5t5.5 -13.5zM255 63q7 0 13 5.5t6 13.5t-6 13.5t-13 5.5t-13 -5.5t-6 -13.5t6 -13.5t13 -5.5zM255 129q8 0 13.5 5.5t5.5 12.5q0 8 -5.5 13.5t-13.5 5.5t-13.5 -5.5t-5.5 -13.5 q0 -7 5.5 -12.5t13.5 -5.5zM255 194q8 0 13.5 5.5t5.5 13.5q0 7 -5.5 12.5t-13.5 5.5t-13.5 -5.5t-5.5 -12.5q0 -8 5.5 -13.5t13.5 -5.5z" />
<glyph unicode="Z" horiz-adv-x="470" d="M432 -2q8 0 13 5t5 13t-5 13.5t-13 5.5q-19 0 -19 -19q0 -8 5.5 -13t13.5 -5zM450 671q0 -8 -5.5 -13.5t-12.5 -5.5q-8 0 -13.5 5.5t-5.5 13.5t5.5 13.5t13.5 5.5q7 0 12.5 -5.5t5.5 -13.5zM385 16q0 -7 -5.5 -12.5t-13.5 -5.5t-13.5 5.5t-5.5 12.5q0 8 5.5 13.5 t13.5 5.5t13.5 -5.5t5.5 -13.5zM380 555q0 -8 -5.5 -13.5t-13.5 -5.5t-13.5 5.5t-5.5 13.5q0 7 5.5 12.5t13.5 5.5t13.5 -5.5t5.5 -12.5zM414 612q0 -8 -5 -13.5t-13 -5.5q-19 0 -19 19q0 8 5.5 13t13.5 5t13 -5t5 -13zM385 671q0 -7 -5.5 -13t-13.5 -6t-13.5 6t-5.5 13 t5.5 13t13.5 6t13.5 -6t5.5 -13zM319 16q0 -8 -5.5 -13t-12.5 -5q-8 0 -13.5 5t-5.5 13q0 19 19 19q8 0 13 -5.5t5 -13.5zM308 433q0 -7 -5.5 -12.5t-13.5 -5.5t-13.5 5.5t-5.5 12.5q0 8 5.5 13.5t13.5 5.5t13.5 -5.5t5.5 -13.5zM344 494q0 -8 -5.5 -13.5t-13.5 -5.5 q-7 0 -12.5 5.5t-5.5 13.5t5.5 13.5t12.5 5.5q8 0 13.5 -5.5t5.5 -13.5zM319 671q0 -8 -5.5 -13.5t-12.5 -5.5q-8 0 -13.5 5.5t-5.5 13.5t5.5 13.5t13.5 5.5q7 0 12.5 -5.5t5.5 -13.5zM254 16q0 -7 -5.5 -12.5t-13.5 -5.5t-13.5 5.5t-5.5 12.5q0 8 5.5 13.5t13.5 5.5 t13.5 -5.5t5.5 -13.5zM201 255q0 -8 -5.5 -13.5t-13.5 -5.5t-13.5 5.5t-5.5 13.5q0 7 5.5 12.5t13.5 5.5t13.5 -5.5t5.5 -12.5zM237 314q0 -7 -5.5 -12.5t-13.5 -5.5t-13.5 5.5t-5.5 12.5q0 8 5.5 13.5t13.5 5.5t13.5 -5.5t5.5 -13.5zM272 373q0 -8 -5.5 -13.5t-12.5 -5.5 q-8 0 -13.5 5.5t-5.5 13.5t5.5 13.5t13.5 5.5q7 0 12.5 -5.5t5.5 -13.5zM254 671q0 -7 -6 -13t-13 -6t-13 6t-6 13t6 13t13 6t13 -6t6 -13zM188 16q0 -8 -5 -13t-13 -5t-13.5 5t-5.5 13q0 19 19 19q8 0 13 -5.5t5 -13.5zM164 195q0 -8 -5 -13.5t-13 -5.5q-19 0 -19 19 q0 8 5.5 13.5t13.5 5.5q7 0 12.5 -5.5t5.5 -13.5zM188 671q0 -8 -5.5 -13.5t-12.5 -5.5q-8 0 -13.5 5.5t-5.5 13.5t5.5 13.5t13.5 5.5q7 0 12.5 -5.5t5.5 -13.5zM123 16q0 -8 -5.5 -13t-13.5 -5t-13.5 5.5t-5.5 12.5q0 8 5.5 13.5t13.5 5.5q19 0 19 -19zM129 135 q0 -7 -5.5 -13t-13.5 -6t-13.5 6t-5.5 13t5.5 13t13.5 6t13.5 -6t5.5 -13zM123 671q0 -8 -5.5 -13.5t-13.5 -5.5t-13.5 6t-5.5 13t5.5 13t13.5 6t13.5 -5.5t5.5 -13.5zM57 16q0 -8 -5.5 -13t-12.5 -5q-8 0 -13.5 5t-5.5 13q0 19 19 19q8 0 13 -5.5t5 -13.5zM94 77 q0 -8 -5.5 -13t-13.5 -5q-7 0 -12.5 5.5t-5.5 12.5q0 8 5 13.5t13 5.5q19 0 19 -19zM57 671q0 -8 -5.5 -13.5t-12.5 -5.5q-8 0 -13.5 5.5t-5.5 13.5t5.5 13.5t13.5 5.5q7 0 12.5 -5.5t5.5 -13.5z" />
<glyph unicode="[" horiz-adv-x="289" d="M250 -133q8 0 13.5 5.5t5.5 13.5q0 7 -5.5 12.5t-13.5 5.5t-13.5 -5.5t-5.5 -12.5q0 -8 5.5 -13.5t13.5 -5.5zM269 671q0 -7 -5.5 -13t-13.5 -6t-13.5 6t-5.5 13t5.5 13t13.5 6t13.5 -6t5.5 -13zM203 -114q0 -19 -19 -19q-8 0 -13 5.5t-5 13.5t5 13t13 5t13.5 -5t5.5 -13 zM203 671q0 -8 -5.5 -13.5t-13.5 -5.5q-7 0 -12.5 5.5t-5.5 13.5t5.5 13.5t12.5 5.5q8 0 13.5 -5.5t5.5 -13.5zM138 -114q0 -8 -5.5 -13.5t-13.5 -5.5t-13.5 5.5t-5.5 13.5q0 7 5.5 12.5t13.5 5.5t13.5 -5.5t5.5 -12.5zM138 -49q0 -7 -6 -13t-13 -6t-13 6t-6 13t6 13t13 6 t13 -6t6 -13zM138 16q0 -7 -5.5 -12.5t-13.5 -5.5t-13.5 5.5t-5.5 12.5q0 8 5.5 13.5t13.5 5.5t13.5 -5.5t5.5 -13.5zM138 82q0 -8 -6 -13.5t-13 -5.5t-13 5.5t-6 13.5t6 13.5t13 5.5t13 -5.5t6 -13.5zM138 147q0 -7 -5.5 -12.5t-13.5 -5.5t-13.5 5.5t-5.5 12.5 q0 8 5.5 13.5t13.5 5.5t13.5 -5.5t5.5 -13.5zM138 213q0 -8 -5.5 -13.5t-13.5 -5.5t-13.5 5.5t-5.5 13.5q0 7 5.5 12.5t13.5 5.5t13.5 -5.5t5.5 -12.5zM138 278q0 -7 -5.5 -12.5t-13.5 -5.5t-13.5 5.5t-5.5 12.5q0 8 5.5 13.5t13.5 5.5t13.5 -5.5t5.5 -13.5zM138 344 q0 -8 -5.5 -13.5t-13.5 -5.5t-13.5 5.5t-5.5 13.5q0 7 5.5 12.5t13.5 5.5t13.5 -5.5t5.5 -12.5zM138 409q0 -7 -6 -13t-13 -6t-13 6t-6 13t6 13t13 6t13 -6t6 -13zM138 475q0 -8 -5.5 -13.5t-13.5 -5.5t-13.5 5.5t-5.5 13.5q0 7 5.5 12.5t13.5 5.5t13.5 -5.5t5.5 -12.5z M138 540q0 -8 -6 -13.5t-13 -5.5t-13 5.5t-6 13.5t6 13.5t13 5.5t13 -5.5t6 -13.5zM138 606q0 -8 -5.5 -13.5t-13.5 -5.5t-13.5 5.5t-5.5 13.5q0 7 5.5 12.5t13.5 5.5t13.5 -5.5t5.5 -12.5zM138 671q0 -7 -6 -13t-13 -6t-13 6t-6 13t6 13t13 6t13 -6t6 -13z" />
<glyph unicode="\" horiz-adv-x="246" d="M219 39q0 -8 -5.5 -13.5t-13.5 -5.5q-7 0 -12.5 5.5t-5.5 13.5t5 13.5t13 5.5q19 0 19 -19zM236 -24q0 -8 -5.5 -13.5t-12.5 -5.5q-8 0 -13.5 5.5t-5.5 13.5t5.5 13.5t13.5 5.5q7 0 12.5 -5.5t5.5 -13.5zM202 102q0 -7 -5.5 -12.5t-13.5 -5.5t-13.5 5.5t-5.5 12.5 q0 8 5.5 13.5t13.5 5.5t13.5 -5.5t5.5 -13.5zM185 165q0 -7 -5.5 -12.5t-13.5 -5.5t-13.5 5.5t-5.5 12.5q0 8 5.5 13.5t13.5 5.5t13.5 -5.5t5.5 -13.5zM168 229q0 -8 -5.5 -13.5t-13.5 -5.5t-13.5 5.5t-5.5 13.5q0 7 5.5 12.5t13.5 5.5t13.5 -5.5t5.5 -12.5zM150 292 q0 -8 -5.5 -13.5t-12.5 -5.5q-8 0 -13.5 5.5t-5.5 13.5t5.5 13.5t13.5 5.5q7 0 12.5 -5.5t5.5 -13.5zM133 355q0 -8 -5.5 -13.5t-12.5 -5.5q-8 0 -13.5 5.5t-5.5 13.5t5.5 13.5t13.5 5.5q7 0 12.5 -5.5t5.5 -13.5zM116 418q0 -8 -5.5 -13.5t-13.5 -5.5q-7 0 -12.5 5.5 t-5.5 13.5t5.5 13.5t12.5 5.5q8 0 13.5 -5.5t5.5 -13.5zM99 481q0 -8 -5.5 -13t-13.5 -5t-13 5.5t-5 12.5q0 8 5 13.5t13 5.5q19 0 19 -19zM82 545q0 -8 -5.5 -13.5t-13.5 -5.5t-13.5 5.5t-5.5 13.5q0 7 5.5 12.5t13.5 5.5t13.5 -5.5t5.5 -12.5zM65 608q0 -8 -5.5 -13.5 t-13.5 -5.5t-13.5 5.5t-5.5 13.5q0 7 5.5 12.5t13.5 5.5t13.5 -5.5t5.5 -12.5zM48 671q0 -7 -6 -13t-13 -6t-13 6t-6 13t6 13t13 6t13 -6t6 -13z" />
<glyph unicode="]" horiz-adv-x="289" d="M20 -114q0 -8 5.5 -13.5t13.5 -5.5t13.5 5.5t5.5 13.5q0 7 -5.5 12.5t-13.5 5.5t-13.5 -5.5t-5.5 -12.5zM39 652q-7 0 -13 6t-6 13t6 13t13 6t13 -6t6 -13t-6 -13t-13 -6zM104 -133q-8 0 -13 5.5t-5 13.5t5 13t13 5t13.5 -5t5.5 -13q0 -19 -19 -19zM104 652 q-7 0 -12.5 5.5t-5.5 13.5t5.5 13.5t12.5 5.5q8 0 13.5 -5.5t5.5 -13.5t-5.5 -13.5t-13.5 -5.5zM170 -133q-8 0 -13.5 5.5t-5.5 13.5q0 7 5.5 12.5t13.5 5.5t13.5 -5.5t5.5 -12.5q0 -8 -5.5 -13.5t-13.5 -5.5zM170 -68q-8 0 -13.5 6t-5.5 13t5.5 13t13.5 6t13.5 -6t5.5 -13 t-5.5 -13t-13.5 -6zM170 -2q-8 0 -13.5 5.5t-5.5 12.5q0 8 5.5 13.5t13.5 5.5t13.5 -5.5t5.5 -13.5q0 -7 -5.5 -12.5t-13.5 -5.5zM170 63q-8 0 -13.5 5.5t-5.5 13.5t5.5 13.5t13.5 5.5t13.5 -5.5t5.5 -13.5t-5.5 -13.5t-13.5 -5.5zM170 129q-8 0 -13.5 5.5t-5.5 12.5 q0 8 5.5 13.5t13.5 5.5t13.5 -5.5t5.5 -13.5q0 -7 -5.5 -12.5t-13.5 -5.5zM170 194q-8 0 -13.5 5.5t-5.5 13.5q0 7 5.5 12.5t13.5 5.5t13.5 -5.5t5.5 -12.5q0 -8 -5.5 -13.5t-13.5 -5.5zM170 260q-8 0 -13.5 5.5t-5.5 12.5q0 8 5.5 13.5t13.5 5.5t13.5 -5.5t5.5 -13.5 q0 -7 -5.5 -12.5t-13.5 -5.5zM170 325q-8 0 -13.5 5.5t-5.5 13.5q0 7 5.5 12.5t13.5 5.5t13.5 -5.5t5.5 -12.5q0 -8 -5.5 -13.5t-13.5 -5.5zM170 390q-8 0 -13.5 6t-5.5 13t5.5 13t13.5 6t13.5 -6t5.5 -13t-5.5 -13t-13.5 -6zM170 456q-8 0 -13.5 5.5t-5.5 13.5 q0 7 5.5 12.5t13.5 5.5t13.5 -5.5t5.5 -12.5q0 -8 -5.5 -13.5t-13.5 -5.5zM170 521q-8 0 -13.5 5.5t-5.5 13.5t5.5 13.5t13.5 5.5t13.5 -5.5t5.5 -13.5t-5.5 -13.5t-13.5 -5.5zM170 587q-8 0 -13.5 5.5t-5.5 13.5q0 7 5.5 12.5t13.5 5.5t13.5 -5.5t5.5 -12.5 q0 -8 -5.5 -13.5t-13.5 -5.5zM170 652q-8 0 -13.5 6t-5.5 13t5.5 13t13.5 6t13.5 -6t5.5 -13t-5.5 -13t-13.5 -6z" />
<glyph unicode="^" horiz-adv-x="470" d="M254 671q0 -8 -5.5 -13.5t-13.5 -5.5q-7 0 -12.5 5.5t-5.5 13.5t5.5 13.5t12.5 5.5q8 0 13.5 -5.5t5.5 -13.5zM270 597q-8 0 -13 5.5t-5 13.5t5 13t13 5t13.5 -5t5.5 -13q0 -19 -19 -19zM341 487q-8 0 -13.5 5.5t-5.5 12.5q0 8 5.5 13.5t13.5 5.5t13.5 -5.5t5.5 -13.5 q0 -7 -5.5 -12.5t-13.5 -5.5zM306 542q-8 0 -13.5 6t-5.5 13t5.5 13t13.5 6t13.5 -6t5.5 -13t-5.5 -13t-13.5 -6zM376 431q-8 0 -13.5 5.5t-5.5 13.5t5.5 13.5t13.5 5.5t13.5 -5.5t5.5 -13.5t-5.5 -13.5t-13.5 -5.5zM411 376q-8 0 -13 5.5t-5 13.5q0 7 5.5 12.5t12.5 5.5 q8 0 13.5 -5t5.5 -13q0 -19 -19 -19zM219 616q0 -8 -5.5 -13.5t-13.5 -5.5t-13.5 5.5t-5.5 13.5q0 7 5.5 12.5t13.5 5.5t13.5 -5.5t5.5 -12.5zM148 505q0 -7 -5.5 -12.5t-13.5 -5.5t-13.5 5.5t-5.5 12.5q0 8 5.5 13.5t13.5 5.5t13.5 -5.5t5.5 -13.5zM183 561 q0 -8 -5.5 -13.5t-13.5 -5.5q-7 0 -12.5 5.5t-5.5 13.5t5.5 13.5t12.5 5.5q8 0 13.5 -5.5t5.5 -13.5zM113 450q0 -8 -5.5 -13.5t-13.5 -5.5t-13.5 5.5t-5.5 13.5t5.5 13.5t13.5 5.5t13.5 -5.5t5.5 -13.5zM77 395q0 -8 -5 -13.5t-13 -5.5q-19 0 -19 19q0 8 5.5 13t13.5 5 q7 0 12.5 -5.5t5.5 -12.5z" />
<glyph unicode="_" horiz-adv-x="525" d="M492 -133q-19 0 -19 19q0 8 5.5 13t13.5 5t13 -5t5 -13t-5 -13.5t-13 -5.5zM445 -114q0 -8 -5.5 -13.5t-13.5 -5.5t-13.5 5.5t-5.5 13.5q0 7 5.5 12.5t13.5 5.5t13.5 -5.5t5.5 -12.5zM379 -114q0 -8 -5 -13.5t-13 -5.5q-19 0 -19 19q0 8 5.5 13t13.5 5q7 0 12.5 -5 t5.5 -13zM314 -114q0 -8 -5.5 -13.5t-13.5 -5.5t-13.5 5.5t-5.5 13.5q0 7 5.5 12.5t13.5 5.5t13.5 -5.5t5.5 -12.5zM248 -114q0 -8 -5 -13.5t-13 -5.5q-19 0 -19 19q0 8 5.5 13t13.5 5t13 -5t5 -13zM183 -114q0 -19 -19 -19q-8 0 -13.5 5.5t-5.5 13.5q0 7 5.5 12.5t13.5 5.5 t13.5 -5t5.5 -13zM117 -114q0 -8 -5 -13.5t-13 -5.5q-19 0 -19 19q0 8 5.5 13t13.5 5q7 0 12.5 -5t5.5 -13zM52 -114q0 -19 -19 -19q-8 0 -13 5.5t-5 13.5t5.5 13t12.5 5q8 0 13.5 -5t5.5 -13z" />
<glyph unicode="`" horiz-adv-x="200" d="M20 671q0 8 5.5 13t13.5 5q7 0 12.5 -5.5t5.5 -12.5q0 -8 -5 -13.5t-13 -5.5q-19 0 -19 19zM161 586q-7 0 -12.5 5.5t-5.5 13.5t5.5 13.5t12.5 5.5q8 0 13.5 -5.5t5.5 -13.5t-5.5 -13.5t-13.5 -5.5zM100 619q-8 0 -13.5 5.5t-5.5 13.5t5.5 13.5t13.5 5.5t13.5 -5.5 t5.5 -13.5t-5.5 -13.5t-13.5 -5.5z" />
<glyph unicode="a" horiz-adv-x="466" d="M207 455q-7 0 -13 5.5t-6 13.5t6 13.5t13 5.5t13 -5.5t6 -13.5t-6 -13.5t-13 -5.5zM163 448q0 -8 -5.5 -13.5t-13.5 -5.5t-13.5 5.5t-5.5 13.5t5.5 13.5t13.5 5.5t13.5 -5.5t5.5 -13.5zM117 400q0 -8 -5.5 -13.5t-12.5 -5.5q-8 0 -13.5 5.5t-5.5 13.5t5.5 13.5t13.5 5.5 q7 0 12.5 -5.5t5.5 -13.5zM78 277q0 -7 -6 -13t-13 -6t-13 6t-6 13t6 13t13 6t13 -6t6 -13zM89 340q0 -8 -5.5 -13.5t-12.5 -5.5q-8 0 -13.5 5.5t-5.5 13.5t5.5 13.5t13.5 5.5q7 0 12.5 -5.5t5.5 -13.5zM275 455q-8 0 -13.5 5.5t-5.5 13.5t5.5 13.5t13.5 5.5q7 0 12.5 -5.5 t5.5 -13.5t-5.5 -13.5t-12.5 -5.5zM336 424q-8 0 -13.5 6t-5.5 13t5.5 13t13.5 6t13.5 -6t5.5 -13t-5.5 -13t-13.5 -6zM394 258q-8 0 -13.5 5.5t-5.5 13.5t5.5 13.5t13.5 5.5q7 0 12.5 -5.5t5.5 -13.5t-5.5 -13.5t-12.5 -5.5zM207 34q8 0 13.5 -5.5t5.5 -13.5 q0 -7 -5.5 -12.5t-13.5 -5.5t-13.5 5.5t-5.5 12.5q0 8 5.5 13.5t13.5 5.5zM144 60q8 0 13.5 -5.5t5.5 -13.5q0 -7 -5.5 -12.5t-13.5 -5.5t-13.5 5.5t-5.5 12.5q0 8 5.5 13.5t13.5 5.5zM99 108q8 0 13 -5.5t5 -13.5q0 -7 -5.5 -12.5t-12.5 -5.5q-8 0 -13.5 5t-5.5 13 q0 19 19 19zM59 231q8 0 13.5 -5.5t5.5 -13.5q0 -7 -5.5 -12.5t-13.5 -5.5t-13.5 5.5t-5.5 12.5q0 8 5.5 13.5t13.5 5.5zM71 168q8 0 13 -5.5t5 -13.5q0 -7 -5.5 -12.5t-12.5 -5.5q-8 0 -13.5 5t-5.5 13q0 19 19 19zM256 15q0 19 19 19q8 0 13 -5.5t5 -13.5q0 -7 -5.5 -12.5 t-12.5 -5.5q-8 0 -13.5 5t-5.5 13zM318 46q0 8 5.5 13.5t13.5 5.5t13.5 -5.5t5.5 -13.5q0 -7 -5.5 -12.5t-13.5 -5.5t-13.5 5.5t-5.5 12.5zM375 212q0 19 19 19q8 0 13 -5.5t5 -13.5t-5 -13t-13 -5t-13.5 5t-5.5 13zM436 15q0 -8 -5.5 -13t-13.5 -5q-7 0 -12.5 5.5 t-5.5 12.5q0 8 5 13.5t13 5.5q19 0 19 -19zM412 81q0 -8 -5 -13.5t-13 -5.5q-19 0 -19 19q0 8 5.5 13t13.5 5t13 -5.5t5 -12.5zM412 146q0 -8 -5 -13t-13 -5t-13.5 5t-5.5 13q0 19 19 19q8 0 13 -5.5t5 -13.5zM412 343q0 -8 -5 -13.5t-13 -5.5q-19 0 -19 19q0 8 5.5 13 t13.5 5t13 -5.5t5 -12.5zM412 408q0 -8 -5.5 -13.5t-12.5 -5.5q-8 0 -13.5 5.5t-5.5 13.5t5.5 13.5t13.5 5.5q7 0 12.5 -5.5t5.5 -13.5zM412 474q0 -8 -5 -13.5t-13 -5.5q-19 0 -19 19q0 8 5.5 13t13.5 5t13 -5t5 -13z" />
<glyph unicode="b" horiz-adv-x="472" d="M79 -3q8 0 13.5 5.5t5.5 12.5q0 8 -5.5 13.5t-13.5 5.5t-13.5 -5.5t-5.5 -13.5q0 -7 5.5 -12.5t13.5 -5.5zM98 81q0 -8 -5.5 -13.5t-13.5 -5.5t-13.5 5.5t-5.5 13.5q0 7 6 13t13 6t13 -6t6 -13zM98 146q0 -7 -5.5 -12.5t-13.5 -5.5t-13.5 5.5t-5.5 12.5q0 8 5.5 13.5 t13.5 5.5t13.5 -5.5t5.5 -13.5zM98 212q0 -8 -5.5 -13.5t-13.5 -5.5t-13.5 5.5t-5.5 13.5q0 7 5.5 12.5t13.5 5.5t13.5 -5.5t5.5 -12.5zM98 277q0 -7 -6 -13t-13 -6t-13 6t-6 13q0 8 5.5 13.5t13.5 5.5t13.5 -5.5t5.5 -13.5zM98 343q0 -8 -5.5 -13.5t-13.5 -5.5t-13.5 5.5 t-5.5 13.5q0 7 5.5 12.5t13.5 5.5t13.5 -5.5t5.5 -12.5zM98 408q0 -8 -6 -13.5t-13 -5.5t-13 5.5t-6 13.5t6 13.5t13 5.5t13 -5.5t6 -13.5zM98 474q0 -8 -5.5 -13.5t-13.5 -5.5t-13.5 5.5t-5.5 13.5q0 7 5.5 12.5t13.5 5.5t13.5 -5.5t5.5 -12.5zM98 539q0 -7 -6 -13t-13 -6 t-13 6t-6 13t6 13t13 6t13 -6t6 -13zM98 604q0 -7 -5.5 -12.5t-13.5 -5.5t-13.5 5.5t-5.5 12.5q0 8 5.5 13.5t13.5 5.5t13.5 -5.5t5.5 -13.5zM98 670q0 -8 -6 -13.5t-13 -5.5t-13 5.5t-6 13.5t6 13.5t13 5.5t13 -5.5t6 -13.5zM265 455q-7 0 -12.5 5.5t-5.5 13.5t5.5 13.5 t12.5 5.5q8 0 13.5 -5.5t5.5 -13.5t-5.5 -13.5t-13.5 -5.5zM310 448q0 -8 5.5 -13.5t12.5 -5.5q8 0 13.5 5.5t5.5 13.5t-5.5 13.5t-13.5 5.5q-7 0 -12.5 -5.5t-5.5 -13.5zM355 400q0 -8 5.5 -13.5t13.5 -5.5q7 0 12.5 5.5t5.5 13.5t-5.5 13.5t-12.5 5.5q-8 0 -13.5 -5.5 t-5.5 -13.5zM395 277q0 -8 5.5 -13.5t12.5 -5.5q8 0 13.5 5.5t5.5 13.5q0 19 -19 19q-8 0 -13 -5.5t-5 -13.5zM383 340q0 -8 5.5 -13.5t13.5 -5.5q7 0 12.5 5.5t5.5 13.5t-5.5 13.5t-12.5 5.5q-8 0 -13.5 -5.5t-5.5 -13.5zM198 455q7 0 12.5 5.5t5.5 13.5t-5.5 13.5 t-12.5 5.5q-8 0 -13.5 -5.5t-5.5 -13.5t5.5 -13.5t13.5 -5.5zM136 424q8 0 13.5 5.5t5.5 13.5t-5.5 13.5t-13.5 5.5q-7 0 -12.5 -5.5t-5.5 -13.5t5.5 -13.5t12.5 -5.5zM265 34q-8 0 -13 -5.5t-5 -13.5q0 -7 5.5 -12.5t12.5 -5.5q8 0 13.5 5t5.5 13q0 19 -19 19zM328 60 q-8 0 -13 -5.5t-5 -13.5q0 -7 5 -12.5t13 -5.5t13.5 5t5.5 13q0 19 -19 19zM374 108q-19 0 -19 -19q0 -8 5.5 -13t13.5 -5t13 5.5t5 12.5q0 8 -5 13.5t-13 5.5zM413 231q-8 0 -13 -5.5t-5 -13.5t5.5 -13t12.5 -5q8 0 13.5 5t5.5 13q0 19 -19 19zM402 168q-8 0 -13.5 -5 t-5.5 -13q0 -19 19 -19q8 0 13 5.5t5 13.5t-5 13t-13 5zM216 15q0 8 -5 13.5t-13 5.5q-19 0 -19 -19q0 -8 5.5 -13t13.5 -5t13 5.5t5 12.5zM154 47q0 8 -5.5 13t-13.5 5q-7 0 -12.5 -5.5t-5.5 -12.5q0 -8 5 -13.5t13 -5.5q19 0 19 19z" />
<glyph unicode="c" horiz-adv-x="382" d="M206 455q-7 0 -12.5 5.5t-5.5 13.5t5.5 13.5t12.5 5.5q8 0 13.5 -5.5t5.5 -13.5t-5.5 -13.5t-13.5 -5.5zM162 448q0 -8 -5.5 -13.5t-13.5 -5.5q-7 0 -12.5 5.5t-5.5 13.5t5.5 13.5t12.5 5.5q8 0 13.5 -5.5t5.5 -13.5zM117 400q0 -8 -5.5 -13.5t-13.5 -5.5t-13.5 5.5 t-5.5 13.5t5.5 13.5t13.5 5.5t13.5 -5.5t5.5 -13.5zM77 277q0 -8 -5.5 -13.5t-13.5 -5.5q-7 0 -12.5 5.5t-5.5 13.5t5.5 13.5t12.5 5.5q8 0 13.5 -5.5t5.5 -13.5zM89 340q0 -8 -5.5 -13.5t-13.5 -5.5t-13.5 5.5t-5.5 13.5t5.5 13.5t13.5 5.5t13.5 -5.5t5.5 -13.5zM274 455 q-8 0 -13.5 5.5t-5.5 13.5t5.5 13.5t13.5 5.5t13.5 -5.5t5.5 -13.5t-5.5 -13.5t-13.5 -5.5zM339 440q-8 0 -13.5 5.5t-5.5 12.5q0 8 5.5 13.5t13.5 5.5t13.5 -5.5t5.5 -13.5q0 -7 -5.5 -12.5t-13.5 -5.5zM206 34q19 0 19 -19q0 -8 -5.5 -13t-13.5 -5t-13 5.5t-5 12.5 q0 8 5 13.5t13 5.5zM143 60q19 0 19 -19q0 -8 -5.5 -13t-13.5 -5q-7 0 -12.5 5.5t-5.5 12.5q0 8 5 13.5t13 5.5zM98 108q8 0 13.5 -5.5t5.5 -13.5q0 -7 -5.5 -12.5t-13.5 -5.5t-13.5 5.5t-5.5 12.5q0 8 5.5 13.5t13.5 5.5zM58 231q19 0 19 -19q0 -8 -5.5 -13t-13.5 -5t-13 5 t-5 13t5 13.5t13 5.5zM70 168q8 0 13.5 -5.5t5.5 -13.5q0 -7 -5.5 -12.5t-13.5 -5.5t-13.5 5.5t-5.5 12.5q0 8 5.5 13.5t13.5 5.5zM255 15q0 8 5.5 13.5t13.5 5.5t13.5 -5.5t5.5 -13.5q0 -7 -5.5 -12.5t-13.5 -5.5t-13.5 5.5t-5.5 12.5zM325 30q0 19 19 19q8 0 13 -5.5 t5 -13.5t-5 -13t-13 -5t-13.5 5t-5.5 13z" />
<glyph unicode="d" horiz-adv-x="472" d="M375 15q0 -8 5.5 -13t13.5 -5t13 5.5t5 12.5q0 8 -5 13.5t-13 5.5q-19 0 -19 -19zM394 62q-19 0 -19 19q0 8 5.5 13t13.5 5t13 -5.5t5 -12.5q0 -8 -5 -13.5t-13 -5.5zM394 128q-8 0 -13.5 5t-5.5 13q0 19 19 19q8 0 13 -5.5t5 -13.5t-5 -13t-13 -5zM394 193q-19 0 -19 19 q0 8 5.5 13t13.5 5t13 -5t5 -13t-5 -13.5t-13 -5.5zM394 258q-8 0 -13.5 5.5t-5.5 13.5t5.5 13.5t13.5 5.5q7 0 12.5 -5.5t5.5 -13.5t-5.5 -13.5t-12.5 -5.5zM394 324q-19 0 -19 19q0 8 5.5 13t13.5 5t13 -5.5t5 -12.5q0 -8 -5 -13.5t-13 -5.5zM394 389q-8 0 -13.5 5.5 t-5.5 13.5t5.5 13.5t13.5 5.5q7 0 12.5 -5.5t5.5 -13.5t-5.5 -13.5t-12.5 -5.5zM394 455q-19 0 -19 19q0 8 5.5 13t13.5 5t13 -5t5 -13t-5 -13.5t-13 -5.5zM394 520q-8 0 -13.5 5.5t-5.5 13.5t5.5 13.5t13.5 5.5q7 0 12.5 -5.5t5.5 -13.5t-5.5 -13.5t-12.5 -5.5zM394 586 q-8 0 -13.5 5t-5.5 13q0 19 19 19q8 0 13 -5.5t5 -13.5t-5 -13t-13 -5zM394 651q-8 0 -13.5 5.5t-5.5 13.5t5.5 13.5t13.5 5.5q7 0 12.5 -5.5t5.5 -13.5t-5.5 -13.5t-12.5 -5.5zM226 474q0 -8 -5.5 -13.5t-13.5 -5.5q-7 0 -12.5 5.5t-5.5 13.5t5.5 13.5t12.5 5.5 q8 0 13.5 -5.5t5.5 -13.5zM144 429q8 0 13.5 5.5t5.5 13.5t-5.5 13.5t-13.5 5.5t-13.5 -5.5t-5.5 -13.5t5.5 -13.5t13.5 -5.5zM99 381q7 0 12.5 5.5t5.5 13.5t-5.5 13.5t-12.5 5.5q-8 0 -13.5 -5.5t-5.5 -13.5t5.5 -13.5t13.5 -5.5zM59 258q7 0 13 6t6 13t-6 13t-13 6 t-13 -6t-6 -13t6 -13t13 -6zM71 321q7 0 13 5.5t6 13.5t-6 13.5t-13 5.5t-13 -5.5t-6 -13.5t6 -13.5t13 -5.5zM256 474q0 -8 5.5 -13.5t13.5 -5.5q7 0 12.5 5.5t5.5 13.5t-5.5 13.5t-12.5 5.5q-8 0 -13.5 -5.5t-5.5 -13.5zM318 443q0 -8 5.5 -13.5t12.5 -5.5q8 0 13.5 5.5 t5.5 13.5t-5.5 13.5t-13.5 5.5q-7 0 -12.5 -5.5t-5.5 -13.5zM226 15q0 19 -19 19q-8 0 -13 -5.5t-5 -13.5q0 -7 5.5 -12.5t12.5 -5.5q8 0 13.5 5t5.5 13zM163 41q0 8 -5.5 13.5t-13.5 5.5t-13.5 -5.5t-5.5 -13.5q0 -7 5.5 -12.5t13.5 -5.5t13.5 5.5t5.5 12.5zM117 89 q0 8 -5 13.5t-13 5.5q-19 0 -19 -19q0 -8 5.5 -13t13.5 -5q7 0 12.5 5.5t5.5 12.5zM78 212q0 8 -5.5 13.5t-13.5 5.5t-13.5 -5.5t-5.5 -13.5q0 -7 5.5 -12.5t13.5 -5.5t13.5 5.5t5.5 12.5zM90 149q0 8 -5.5 13.5t-13.5 5.5t-13.5 -5.5t-5.5 -13.5q0 -7 5.5 -12.5t13.5 -5.5 t13.5 5.5t5.5 12.5zM275 34q-19 0 -19 -19q0 -8 5.5 -13t13.5 -5q7 0 12.5 5.5t5.5 12.5q0 8 -5 13.5t-13 5.5zM337 65q-8 0 -13.5 -5.5t-5.5 -13.5q0 -7 5.5 -12.5t13.5 -5.5t13.5 5.5t5.5 12.5q0 8 -5.5 13.5t-13.5 5.5z" />
<glyph unicode="e" horiz-adv-x="435" d="M190 455q-8 0 -13.5 5.5t-5.5 13.5t5.5 13.5t13.5 5.5t13.5 -5.5t5.5 -13.5t-5.5 -13.5t-13.5 -5.5zM150 449q0 -8 -5 -13.5t-13 -5.5q-19 0 -19 19q0 8 5.5 13t13.5 5t13 -5.5t5 -12.5zM106 402q0 -7 -5.5 -12.5t-13.5 -5.5t-13.5 5.5t-5.5 12.5q0 8 5.5 13.5t13.5 5.5 t13.5 -5.5t5.5 -13.5zM77 278q0 -8 -5 -13.5t-13 -5.5q-19 0 -19 19q0 8 5.5 13t13.5 5q7 0 12.5 -5t5.5 -13zM85 342q0 -8 -5.5 -13.5t-13.5 -5.5q-19 0 -19 19q0 8 5.5 13t13.5 5t13.5 -5.5t5.5 -12.5zM386 259q-8 0 -13.5 5.5t-5.5 13.5q0 7 5.5 12.5t13.5 5.5t13.5 -5.5 t5.5 -12.5q0 -8 -5.5 -13.5t-13.5 -5.5zM241 16q0 8 5.5 13.5t13.5 5.5t13.5 -5.5t5.5 -13.5t-5.5 -13.5t-13.5 -5.5t-13.5 5.5t-5.5 13.5zM305 23q0 7 5.5 12.5t13.5 5.5t13.5 -5.5t5.5 -12.5q0 -8 -5.5 -13.5t-13.5 -5.5t-13.5 5.5t-5.5 13.5zM365 46q0 8 5.5 13.5 t13.5 5.5q7 0 12.5 -5.5t5.5 -13.5t-5.5 -13.5t-12.5 -5.5q-8 0 -13.5 5.5t-5.5 13.5zM339 278q0 -19 -19 -19q-8 0 -13 5.5t-5 13.5t5 13t13 5t13.5 -5t5.5 -13zM274 278q0 -8 -5.5 -13.5t-13.5 -5.5t-13.5 5.5t-5.5 13.5q0 7 5.5 12.5t13.5 5.5t13.5 -5.5t5.5 -12.5z M208 278q0 -8 -5 -13.5t-13 -5.5q-19 0 -19 19q0 8 5.5 13t13.5 5t13 -5t5 -13zM143 278q0 -19 -19 -19q-8 0 -13.5 5.5t-5.5 13.5q0 7 5.5 12.5t13.5 5.5t13.5 -5t5.5 -13zM195 35q8 0 13.5 -5t5.5 -13q0 -19 -19 -19q-8 0 -13 5.5t-5 13.5q0 7 5.5 12.5t12.5 5.5zM137 61 q7 0 13 -5.5t6 -13.5t-6 -13.5t-13 -5.5t-13 5.5t-6 13.5t6 13.5t13 5.5zM92 107q8 0 13.5 -5t5.5 -13q0 -19 -19 -19q-8 0 -13 5.5t-5 13.5q0 7 5 12.5t13 5.5zM61 232q8 0 13.5 -5.5t5.5 -13.5t-5.5 -13.5t-13.5 -5.5q-7 0 -12.5 5.5t-5.5 13.5t5.5 13.5t12.5 5.5zM71 168 q8 0 13.5 -5.5t5.5 -13.5q0 -7 -5.5 -12.5t-13.5 -5.5t-13.5 5.5t-5.5 12.5q0 8 5.5 13.5t13.5 5.5zM255 455q-7 0 -12.5 5.5t-5.5 13.5t5.5 13.5t12.5 5.5q8 0 13.5 -5.5t5.5 -13.5t-5.5 -13.5t-13.5 -5.5zM314 430q-8 0 -13.5 5.5t-5.5 13.5q0 7 5.5 12.5t13.5 5.5 t13.5 -5.5t5.5 -12.5q0 -8 -5.5 -13.5t-13.5 -5.5zM359 384q-8 0 -13.5 5t-5.5 13q0 19 19 19q8 0 13 -5.5t5 -13.5t-5.5 -13t-12.5 -5zM380 323q-19 0 -19 19q0 8 5.5 13t13.5 5t13 -5t5 -13t-5 -13.5t-13 -5.5z" />
<glyph unicode="f" horiz-adv-x="241" d="M253 669q7 0 12.5 5.5t5.5 13.5t-5.5 13.5t-12.5 5.5q-8 0 -13.5 -5.5t-5.5 -13.5t5.5 -13.5t13.5 -5.5zM233 474q0 -8 -5 -13.5t-13 -5.5q-19 0 -19 19q0 8 5.5 13t13.5 5q7 0 12.5 -5t5.5 -13zM201 694q0 -8 -5.5 -13.5t-12.5 -5.5q-8 0 -13.5 5.5t-5.5 13.5t5.5 13.5 t13.5 5.5q7 0 12.5 -5.5t5.5 -13.5zM168 474q0 -19 -19 -19q-8 0 -13 5.5t-5 13.5t5.5 13t12.5 5q8 0 13.5 -5t5.5 -13zM137 665q0 -8 -5.5 -13.5t-12.5 -5.5q-8 0 -13.5 5.5t-5.5 13.5t5.5 13.5t13.5 5.5q7 0 12.5 -5.5t5.5 -13.5zM103 15q0 -7 -5.5 -12.5t-13.5 -5.5 t-13.5 5t-5.5 13q0 19 19 19q8 0 13.5 -5.5t5.5 -13.5zM103 81q0 -8 -5.5 -13.5t-13.5 -5.5q-19 0 -19 19q0 8 5.5 13.5t13.5 5.5t13.5 -6t5.5 -13zM103 146q0 -7 -5.5 -12.5t-13.5 -5.5t-13.5 5t-5.5 13q0 19 19 19q8 0 13.5 -5.5t5.5 -13.5zM103 212q0 -8 -5.5 -13.5 t-13.5 -5.5q-19 0 -19 19q0 8 5.5 13t13.5 5t13.5 -5.5t5.5 -12.5zM103 277q0 -7 -5.5 -13t-13.5 -6t-13.5 5.5t-5.5 13.5q0 19 19 19q8 0 13.5 -5.5t5.5 -13.5zM103 343q0 -8 -5.5 -13.5t-13.5 -5.5q-19 0 -19 19q0 8 5.5 13t13.5 5t13.5 -5.5t5.5 -12.5zM103 408 q0 -8 -5.5 -13.5t-13.5 -5.5t-13.5 5.5t-5.5 13.5t5.5 13.5t13.5 5.5t13.5 -5.5t5.5 -13.5zM103 474q0 -8 -5.5 -13.5t-13.5 -5.5q-19 0 -19 19q0 8 5.5 13t13.5 5t13.5 -5.5t5.5 -12.5zM103 539q0 -7 -5.5 -13t-13.5 -6t-13.5 5.5t-5.5 13.5t5.5 13.5t13.5 5.5t13.5 -6 t5.5 -13zM109 604q0 -7 -5.5 -12.5t-13.5 -5.5t-13.5 5.5t-5.5 12.5q0 8 5.5 13.5t13.5 5.5t13.5 -5.5t5.5 -13.5zM37 474q0 -19 -19 -19q-8 0 -13 5.5t-5 13.5t5 13t13 5t13.5 -5t5.5 -13z" />
<glyph unicode="g" horiz-adv-x="472" d="M393 493q7 0 13 -5.5t6 -13.5t-6 -13.5t-13 -5.5t-13 5.5t-6 13.5t6 13.5t13 5.5zM374 409q0 7 5.5 12.5t13.5 5.5t13.5 -5.5t5.5 -12.5q0 -8 -5.5 -13.5t-13.5 -5.5t-13.5 5.5t-5.5 13.5zM374 343q0 7 6 13t13 6t13 -6t6 -13t-6 -13t-13 -6t-13 6t-6 13zM374 278 q0 7 5.5 12.5t13.5 5.5t13.5 -5.5t5.5 -12.5q0 -8 -5.5 -13.5t-13.5 -5.5t-13.5 5.5t-5.5 13.5zM374 212q0 8 5.5 13.5t13.5 5.5t13.5 -5.5t5.5 -13.5q0 -7 -5.5 -12.5t-13.5 -5.5t-13.5 5.5t-5.5 12.5zM374 147q0 7 6 13t13 6t13 -6t6 -13q0 -8 -5.5 -13.5t-13.5 -5.5 t-13.5 5.5t-5.5 13.5zM374 81q0 8 5.5 13.5t13.5 5.5t13.5 -5.5t5.5 -13.5q0 -7 -5.5 -12.5t-13.5 -5.5t-13.5 5.5t-5.5 12.5zM374 16q0 8 6 13.5t13 5.5t13 -5.5t6 -13.5t-6 -13.5t-13 -5.5t-13 5.5t-6 13.5zM374 -50q0 8 5.5 13.5t13.5 5.5t13.5 -5.5t5.5 -13.5 q0 -7 -5.5 -12.5t-13.5 -5.5t-13.5 5.5t-5.5 12.5zM356 -113q0 7 6 13t13 6t13 -6t6 -13t-6 -13t-13 -6t-13 6t-6 13zM206 34q19 0 19 -19q0 -8 -5.5 -13t-13.5 -5t-13 5.5t-5 12.5q0 8 5 13.5t13 5.5zM162 41q0 -8 -5.5 -13t-13.5 -5q-7 0 -12.5 5.5t-5.5 12.5q0 8 5 13.5 t13 5.5q19 0 19 -19zM117 89q0 -7 -5.5 -12.5t-13.5 -5.5t-13.5 5.5t-5.5 12.5q0 8 5.5 13.5t13.5 5.5t13.5 -5.5t5.5 -13.5zM77 212q0 -8 -5.5 -13t-13.5 -5t-13 5t-5 13t5 13.5t13 5.5q19 0 19 -19zM89 149q0 -7 -5.5 -12.5t-13.5 -5.5t-13.5 5.5t-5.5 12.5q0 8 5.5 13.5 t13.5 5.5t13.5 -5.5t5.5 -13.5zM274 34q8 0 13.5 -5.5t5.5 -13.5q0 -7 -5.5 -12.5t-13.5 -5.5t-13.5 5.5t-5.5 12.5q0 8 5.5 13.5t13.5 5.5zM335 65q19 0 19 -19q0 -8 -5.5 -13t-13.5 -5q-7 0 -12.5 5t-5.5 13t5 13.5t13 5.5zM206 455q-7 0 -12.5 5.5t-5.5 13.5t5.5 13.5 t12.5 5.5q8 0 13.5 -5.5t5.5 -13.5t-5.5 -13.5t-13.5 -5.5zM143 429q-7 0 -12.5 5.5t-5.5 13.5t5.5 13.5t12.5 5.5q8 0 13.5 -5.5t5.5 -13.5t-5.5 -13.5t-13.5 -5.5zM98 381q-8 0 -13.5 5.5t-5.5 13.5t5.5 13.5t13.5 5.5t13.5 -5.5t5.5 -13.5t-5.5 -13.5t-13.5 -5.5zM58 258 q-7 0 -12.5 5.5t-5.5 13.5t5.5 13.5t12.5 5.5q8 0 13.5 -5.5t5.5 -13.5t-5.5 -13.5t-13.5 -5.5zM70 321q-8 0 -13.5 5.5t-5.5 13.5t5.5 13.5t13.5 5.5t13.5 -5.5t5.5 -13.5t-5.5 -13.5t-13.5 -5.5zM255 474q0 8 5.5 13.5t13.5 5.5t13.5 -5.5t5.5 -13.5t-5.5 -13.5 t-13.5 -5.5t-13.5 5.5t-5.5 13.5zM318 443q0 8 5.5 13.5t12.5 5.5q8 0 13.5 -5.5t5.5 -13.5t-5.5 -13.5t-13.5 -5.5q-7 0 -12.5 5.5t-5.5 13.5zM349 -163q0 -8 -5 -13.5t-13 -5.5q-19 0 -19 19q0 8 5.5 13t13.5 5q7 0 12.5 -5.5t5.5 -12.5zM282 -180q0 -8 -5.5 -13.5 t-12.5 -5.5q-8 0 -13.5 5.5t-5.5 13.5t5.5 13.5t13.5 5.5q7 0 12.5 -5.5t5.5 -13.5zM215 -180q0 -19 -19 -19q-8 0 -13 5.5t-5 13.5t5 13t13 5t13.5 -5t5.5 -13zM150 -166q0 -8 -5.5 -13.5t-13.5 -5.5t-13.5 5.5t-5.5 13.5q0 7 5.5 12.5t13.5 5.5t13.5 -5.5t5.5 -12.5z" />
<glyph unicode="h" d="M406 -3q8 0 13.5 5t5.5 13q0 19 -19 19q-8 0 -13 -5.5t-5 -13.5q0 -7 5 -12.5t13 -5.5zM425 81q0 -19 -19 -19q-8 0 -13 5.5t-5 13.5t5.5 13.5t12.5 5.5q8 0 13.5 -5.5t5.5 -13.5zM425 146q0 -8 -5.5 -13t-13.5 -5t-13 5t-5 13t5 13.5t13 5.5q19 0 19 -19zM425 212 q0 -19 -19 -19q-8 0 -13 5.5t-5 13.5t5 13t13 5t13.5 -5t5.5 -13zM425 277q0 -8 -5.5 -13.5t-13.5 -5.5q-7 0 -12.5 5.5t-5.5 13.5t5 13.5t13 5.5q19 0 19 -19zM420 343q0 -8 -5.5 -13t-13.5 -5t-13.5 5.5t-5.5 12.5q0 8 5.5 13.5t13.5 5.5q19 0 19 -19zM403 405 q0 -8 -5.5 -13.5t-12.5 -5.5q-8 0 -13.5 5.5t-5.5 13.5t5.5 13.5t13.5 5.5q7 0 12.5 -5.5t5.5 -13.5zM362 454q0 -8 -6 -13.5t-13 -5.5q-8 0 -13.5 5.5t-5.5 13.5t5.5 13.5t13.5 5.5q7 0 13 -5.5t6 -13.5zM296 473q0 -8 -5.5 -13.5t-13.5 -5.5t-13.5 5.5t-5.5 13.5 q0 7 5.5 12.5t13.5 5.5t13.5 -5.5t5.5 -12.5zM229 464q0 -7 -5.5 -12.5t-13.5 -5.5t-13.5 5.5t-5.5 12.5q0 8 5.5 13.5t13.5 5.5t13.5 -5.5t5.5 -13.5zM163 436q0 -8 -5.5 -13.5t-13.5 -5.5t-13.5 5.5t-5.5 13.5t5.5 13.5t13.5 5.5t13.5 -5.5t5.5 -13.5zM98 15 q0 -7 -5.5 -12.5t-13.5 -5.5t-13.5 5.5t-5.5 12.5q0 8 5.5 13.5t13.5 5.5t13.5 -5.5t5.5 -13.5zM98 81q0 -8 -5.5 -13.5t-13.5 -5.5t-13.5 5.5t-5.5 13.5q0 7 6 13t13 6t13 -6t6 -13zM98 146q0 -7 -5.5 -12.5t-13.5 -5.5t-13.5 5.5t-5.5 12.5q0 8 5.5 13.5t13.5 5.5 t13.5 -5.5t5.5 -13.5zM98 212q0 -8 -5.5 -13.5t-13.5 -5.5t-13.5 5.5t-5.5 13.5q0 7 5.5 12.5t13.5 5.5t13.5 -5.5t5.5 -12.5zM98 277q0 -7 -6 -13t-13 -6t-13 6t-6 13q0 8 5.5 13.5t13.5 5.5t13.5 -5.5t5.5 -13.5zM98 343q0 -8 -5.5 -13.5t-13.5 -5.5t-13.5 5.5t-5.5 13.5 q0 7 5.5 12.5t13.5 5.5t13.5 -5.5t5.5 -12.5zM98 408q0 -8 -6 -13.5t-13 -5.5t-13 5.5t-6 13.5t6 13.5t13 5.5t13 -5.5t6 -13.5zM98 474q0 -8 -5.5 -13.5t-13.5 -5.5t-13.5 5.5t-5.5 13.5q0 7 5.5 12.5t13.5 5.5t13.5 -5.5t5.5 -12.5zM98 539q0 -7 -6 -13t-13 -6t-13 6 t-6 13t6 13t13 6t13 -6t6 -13zM98 604q0 -7 -5.5 -12.5t-13.5 -5.5t-13.5 5.5t-5.5 12.5q0 8 5.5 13.5t13.5 5.5t13.5 -5.5t5.5 -13.5zM98 670q0 -8 -6 -13.5t-13 -5.5t-13 5.5t-6 13.5t6 13.5t13 5.5t13 -5.5t6 -13.5z" />
<glyph unicode="i" horiz-adv-x="158" d="M79 -3q8 0 13.5 5.5t5.5 12.5q0 8 -5.5 13.5t-13.5 5.5t-13.5 -5.5t-5.5 -13.5q0 -7 5.5 -12.5t13.5 -5.5zM98 81q0 -8 -5.5 -13.5t-13.5 -5.5t-13.5 5.5t-5.5 13.5q0 7 6 13t13 6t13 -6t6 -13zM98 146q0 -7 -5.5 -12.5t-13.5 -5.5t-13.5 5.5t-5.5 12.5q0 8 5.5 13.5 t13.5 5.5t13.5 -5.5t5.5 -13.5zM98 212q0 -8 -5.5 -13.5t-13.5 -5.5t-13.5 5.5t-5.5 13.5q0 7 5.5 12.5t13.5 5.5t13.5 -5.5t5.5 -12.5zM98 277q0 -7 -6 -13t-13 -6t-13 6t-6 13q0 8 5.5 13.5t13.5 5.5t13.5 -5.5t5.5 -13.5zM98 343q0 -8 -5.5 -13.5t-13.5 -5.5t-13.5 5.5 t-5.5 13.5q0 7 5.5 12.5t13.5 5.5t13.5 -5.5t5.5 -12.5zM98 408q0 -8 -6 -13.5t-13 -5.5t-13 5.5t-6 13.5t6 13.5t13 5.5t13 -5.5t6 -13.5zM98 474q0 -8 -5.5 -13.5t-13.5 -5.5t-13.5 5.5t-5.5 13.5q0 7 5.5 12.5t13.5 5.5t13.5 -5.5t5.5 -12.5zM98 604q0 -7 -5.5 -12.5 t-13.5 -5.5t-13.5 5.5t-5.5 12.5q0 8 5.5 13.5t13.5 5.5t13.5 -5.5t5.5 -13.5z" />
<glyph unicode="j" horiz-adv-x="156" d="M65 -137q8 0 13.5 5.5t5.5 13.5t-5.5 13.5t-13.5 5.5q-7 0 -12.5 -5.5t-5.5 -13.5t5.5 -13.5t12.5 -5.5zM96 -50q0 -8 -6 -13.5t-13 -5.5t-13 5.5t-6 13.5t6 13.5t13 5.5t13 -5.5t6 -13.5zM96 15q0 -7 -5.5 -12.5t-13.5 -5.5t-13.5 5.5t-5.5 12.5q0 8 5.5 13.5t13.5 5.5 t13.5 -5.5t5.5 -13.5zM96 81q0 -8 -5.5 -13.5t-13.5 -5.5t-13.5 5.5t-5.5 13.5q0 7 6 13t13 6t13 -6t6 -13zM96 146q0 -7 -5.5 -12.5t-13.5 -5.5t-13.5 5.5t-5.5 12.5q0 8 5.5 13.5t13.5 5.5t13.5 -5.5t5.5 -13.5zM96 212q0 -8 -5.5 -13.5t-13.5 -5.5t-13.5 5.5t-5.5 13.5 q0 7 5.5 12.5t13.5 5.5t13.5 -5.5t5.5 -12.5zM96 277q0 -7 -6 -13t-13 -6t-13 6t-6 13q0 8 5.5 13.5t13.5 5.5t13.5 -5.5t5.5 -13.5zM96 343q0 -8 -5.5 -13.5t-13.5 -5.5t-13.5 5.5t-5.5 13.5q0 7 5.5 12.5t13.5 5.5t13.5 -5.5t5.5 -12.5zM96 408q0 -8 -6 -13.5t-13 -5.5 t-13 5.5t-6 13.5t6 13.5t13 5.5t13 -5.5t6 -13.5zM96 474q0 -8 -5.5 -13.5t-13.5 -5.5t-13.5 5.5t-5.5 13.5q0 7 5.5 12.5t13.5 5.5t13.5 -5.5t5.5 -12.5zM96 604q0 -7 -5.5 -12.5t-13.5 -5.5t-13.5 5.5t-5.5 12.5q0 8 5.5 13.5t13.5 5.5t13.5 -5.5t5.5 -13.5zM44 -171 q0 -8 -5 -13.5t-13 -5.5q-19 0 -19 19q0 8 5.5 13t13.5 5t13 -5.5t5 -12.5zM-22 -181q0 -7 -6 -13t-13 -6t-13 6t-6 13t6 13t13 6t13 -6t6 -13z" />
<glyph unicode="k" horiz-adv-x="356" d="M337 -3q8 0 13.5 5t5.5 13q0 19 -19 19q-8 0 -13 -5.5t-5 -13.5q0 -7 5.5 -12.5t12.5 -5.5zM327 474q0 -8 -5.5 -13.5t-13.5 -5.5t-13.5 5.5t-5.5 13.5q0 7 5.5 12.5t13.5 5.5t13.5 -5.5t5.5 -12.5zM316 67q0 -19 -19 -19q-8 0 -13 5.5t-5 13.5t5.5 13.5t12.5 5.5 q8 0 13.5 -5.5t5.5 -13.5zM276 118q0 -7 -5.5 -12.5t-13.5 -5.5t-13.5 5.5t-5.5 12.5q0 8 5.5 13.5t13.5 5.5t13.5 -5.5t5.5 -13.5zM235 170q0 -8 -5.5 -13.5t-12.5 -5.5q-8 0 -13.5 5.5t-5.5 13.5t5.5 13.5t13.5 5.5q7 0 12.5 -5.5t5.5 -13.5zM284 424q0 -8 -5.5 -13.5 t-13.5 -5.5q-7 0 -12.5 5.5t-5.5 13.5t5.5 13.5t12.5 5.5q8 0 13.5 -5.5t5.5 -13.5zM195 222q0 -19 -19 -19q-8 0 -13 5.5t-5 13.5t5 13t13 5t13.5 -5t5.5 -13zM242 374q0 -8 -6 -13.5t-13 -5.5t-13 5.5t-6 13.5t6 13.5t13 5.5t13 -5.5t6 -13.5zM154 273q0 -8 -5.5 -13.5 t-12.5 -5.5q-8 0 -13.5 5.5t-5.5 13.5t5.5 13.5t13.5 5.5q7 0 12.5 -5.5t5.5 -13.5zM199 324q0 -8 -5.5 -13t-13.5 -5t-13 5t-5 13t5 13.5t13 5.5q19 0 19 -19zM97 15q0 -7 -5.5 -12.5t-12.5 -5.5q-8 0 -13.5 5t-5.5 13q0 19 19 19q8 0 13 -5.5t5 -13.5zM97 81 q0 -8 -5 -13.5t-13 -5.5q-19 0 -19 19q0 8 5.5 13.5t13.5 5.5q7 0 12.5 -5.5t5.5 -13.5zM97 146q0 -8 -5.5 -13t-12.5 -5q-8 0 -13.5 5t-5.5 13q0 19 19 19q8 0 13 -5.5t5 -13.5zM97 212q0 -8 -5 -13.5t-13 -5.5q-19 0 -19 19q0 8 5.5 13t13.5 5q7 0 12.5 -5t5.5 -13z M97 277q0 -8 -5.5 -13.5t-12.5 -5.5q-8 0 -13.5 5.5t-5.5 13.5q0 19 19 19q8 0 13 -5.5t5 -13.5zM97 343q0 -8 -5 -13.5t-13 -5.5q-19 0 -19 19q0 8 5.5 13t13.5 5q7 0 12.5 -5.5t5.5 -12.5zM97 408q0 -8 -5.5 -13.5t-12.5 -5.5q-8 0 -13.5 5.5t-5.5 13.5t5.5 13.5t13.5 5.5 q7 0 12.5 -5.5t5.5 -13.5zM97 474q0 -8 -5 -13.5t-13 -5.5q-19 0 -19 19q0 8 5.5 13t13.5 5q7 0 12.5 -5t5.5 -13zM97 539q0 -8 -5.5 -13.5t-12.5 -5.5q-8 0 -13.5 5.5t-5.5 13.5t5.5 13.5t13.5 5.5q7 0 12.5 -5.5t5.5 -13.5zM97 604q0 -8 -5.5 -13t-12.5 -5q-8 0 -13.5 5 t-5.5 13q0 19 19 19q8 0 13 -5.5t5 -13.5zM97 670q0 -8 -5.5 -13.5t-12.5 -5.5q-8 0 -13.5 5.5t-5.5 13.5t5.5 13.5t13.5 5.5q7 0 12.5 -5.5t5.5 -13.5z" />
<glyph unicode="l" horiz-adv-x="158" d="M98 15q0 -7 -5.5 -12.5t-13.5 -5.5t-13.5 5.5t-5.5 12.5q0 8 5.5 13.5t13.5 5.5t13.5 -5.5t5.5 -13.5zM98 81q0 -7 -6 -13t-13 -6t-13 6t-6 13t6 13t13 6t13 -6t6 -13zM98 146q0 -7 -5.5 -12.5t-13.5 -5.5t-13.5 5.5t-5.5 12.5q0 8 5.5 13.5t13.5 5.5t13.5 -5.5 t5.5 -13.5zM98 212q0 -8 -5.5 -13.5t-13.5 -5.5t-13.5 5.5t-5.5 13.5q0 7 5.5 12.5t13.5 5.5t13.5 -5.5t5.5 -12.5zM98 277q0 -7 -5.5 -12.5t-13.5 -5.5t-13.5 5.5t-5.5 12.5q0 8 5.5 13.5t13.5 5.5t13.5 -5.5t5.5 -13.5zM98 343q0 -8 -5.5 -13.5t-13.5 -5.5t-13.5 5.5 t-5.5 13.5q0 7 5.5 12.5t13.5 5.5t13.5 -5.5t5.5 -12.5zM98 408q0 -8 -6 -13.5t-13 -5.5t-13 5.5t-6 13.5t6 13.5t13 5.5t13 -5.5t6 -13.5zM98 474q0 -8 -5.5 -13.5t-13.5 -5.5t-13.5 5.5t-5.5 13.5q0 7 5.5 12.5t13.5 5.5t13.5 -5.5t5.5 -12.5zM98 539q0 -7 -6 -13t-13 -6 t-13 6t-6 13t6 13t13 6t13 -6t6 -13zM98 604q0 -7 -5.5 -12.5t-13.5 -5.5t-13.5 5.5t-5.5 12.5q0 8 5.5 13.5t13.5 5.5t13.5 -5.5t5.5 -13.5zM98 670q0 -8 -6 -13.5t-13 -5.5t-13 5.5t-6 13.5t6 13.5t13 5.5t13 -5.5t6 -13.5z" />
<glyph unicode="m" horiz-adv-x="769" d="M396 405q0 -7 -6 -13t-13 -6t-13 6t-6 13t6 13t13 6t13 -6t6 -13zM351 454q0 -8 -5.5 -13.5t-13.5 -5.5q-7 0 -12.5 5.5t-5.5 13.5t5.5 13.5t12.5 5.5q8 0 13.5 -5.5t5.5 -13.5zM288 473q0 -19 -19 -19q-8 0 -13 5.5t-5 13.5q0 7 5.5 12.5t12.5 5.5q8 0 13.5 -5t5.5 -13z M224 464q0 -7 -5.5 -12.5t-13.5 -5.5t-13.5 5.5t-5.5 12.5q0 8 5.5 13.5t13.5 5.5t13.5 -5.5t5.5 -13.5zM160 436q0 -8 -5 -13.5t-13 -5.5q-19 0 -19 19q0 8 5.5 13.5t13.5 5.5q7 0 12.5 -5.5t5.5 -13.5zM98 15q0 -7 -5.5 -12.5t-13.5 -5.5t-13.5 5.5t-5.5 12.5 q0 8 5.5 13.5t13.5 5.5t13.5 -5.5t5.5 -13.5zM98 81q0 -8 -5.5 -13.5t-13.5 -5.5t-13.5 5.5t-5.5 13.5q0 7 6 13t13 6t13 -6t6 -13zM98 146q0 -7 -5.5 -12.5t-13.5 -5.5t-13.5 5.5t-5.5 12.5q0 8 5.5 13.5t13.5 5.5t13.5 -5.5t5.5 -13.5zM98 212q0 -8 -5.5 -13.5t-13.5 -5.5 t-13.5 5.5t-5.5 13.5q0 7 5.5 12.5t13.5 5.5t13.5 -5.5t5.5 -12.5zM98 277q0 -7 -6 -13t-13 -6t-13 6t-6 13q0 8 5.5 13.5t13.5 5.5t13.5 -5.5t5.5 -13.5zM98 343q0 -8 -5.5 -13.5t-13.5 -5.5t-13.5 5.5t-5.5 13.5q0 7 5.5 12.5t13.5 5.5t13.5 -5.5t5.5 -12.5zM98 408 q0 -8 -6 -13.5t-13 -5.5t-13 5.5t-6 13.5t6 13.5t13 5.5t13 -5.5t6 -13.5zM98 474q0 -8 -5.5 -13.5t-13.5 -5.5t-13.5 5.5t-5.5 13.5q0 7 5.5 12.5t13.5 5.5t13.5 -5.5t5.5 -12.5zM701 -3q7 0 12.5 5.5t5.5 12.5q0 8 -5 13.5t-13 5.5q-19 0 -19 -19q0 -8 5.5 -13t13.5 -5z M719 81q0 -8 -5 -13.5t-13 -5.5q-19 0 -19 19q0 8 5.5 13.5t13.5 5.5q7 0 12.5 -5.5t5.5 -13.5zM719 146q0 -8 -5.5 -13t-12.5 -5q-8 0 -13.5 5t-5.5 13q0 19 19 19q8 0 13 -5.5t5 -13.5zM719 212q0 -8 -5 -13.5t-13 -5.5q-19 0 -19 19q0 8 5.5 13t13.5 5q7 0 12.5 -5 t5.5 -13zM719 277q0 -8 -5.5 -13.5t-12.5 -5.5q-8 0 -13.5 5.5t-5.5 13.5q0 19 19 19q8 0 13 -5.5t5 -13.5zM714 343q0 -8 -5.5 -13t-13.5 -5q-7 0 -12.5 5.5t-5.5 12.5q0 8 5 13.5t13 5.5q19 0 19 -19zM698 405q0 -7 -6 -13t-13 -6t-13 6t-6 13t6 13t13 6t13 -6t6 -13z M656 454q0 -8 -6 -13.5t-13 -5.5t-13 5.5t-6 13.5t6 13.5t13 5.5t13 -5.5t6 -13.5zM523 464q0 -8 -5.5 -13t-13.5 -5t-13 5t-5 13t5 13.5t13 5.5q19 0 19 -19zM590 473q0 -19 -19 -19q-8 0 -13 5.5t-5 13.5q0 7 5.5 12.5t12.5 5.5q8 0 13.5 -5t5.5 -13zM457 436 q0 -19 -19 -19q-8 0 -13 5.5t-5 13.5t5.5 13.5t12.5 5.5q8 0 13.5 -5.5t5.5 -13.5zM409 15q0 -7 -5.5 -12.5t-12.5 -5.5q-8 0 -13.5 5t-5.5 13q0 19 19 19q8 0 13 -5.5t5 -13.5zM409 81q0 -8 -5 -13.5t-13 -5.5q-19 0 -19 19q0 8 5.5 13.5t13.5 5.5q7 0 12.5 -5.5t5.5 -13.5 zM409 146q0 -8 -5.5 -13t-12.5 -5q-8 0 -13.5 5t-5.5 13q0 19 19 19q8 0 13 -5.5t5 -13.5zM409 212q0 -8 -5 -13.5t-13 -5.5q-19 0 -19 19q0 8 5.5 13t13.5 5q7 0 12.5 -5t5.5 -13zM409 277q0 -8 -5.5 -13.5t-12.5 -5.5q-8 0 -13.5 5.5t-5.5 13.5q0 19 19 19q8 0 13 -5.5 t5 -13.5zM409 343q0 -8 -5 -13.5t-13 -5.5q-19 0 -19 19q0 8 5.5 13t13.5 5q7 0 12.5 -5.5t5.5 -12.5z" />
<glyph unicode="n" d="M406 -3q8 0 13.5 5t5.5 13q0 19 -19 19q-8 0 -13 -5.5t-5 -13.5q0 -7 5 -12.5t13 -5.5zM425 81q0 -19 -19 -19q-8 0 -13 5.5t-5 13.5t5.5 13.5t12.5 5.5q8 0 13.5 -5.5t5.5 -13.5zM425 146q0 -8 -5.5 -13t-13.5 -5t-13 5t-5 13t5 13.5t13 5.5q19 0 19 -19zM425 212 q0 -19 -19 -19q-8 0 -13 5.5t-5 13.5t5 13t13 5t13.5 -5t5.5 -13zM425 277q0 -8 -5.5 -13.5t-13.5 -5.5q-7 0 -12.5 5.5t-5.5 13.5t5 13.5t13 5.5q19 0 19 -19zM420 343q0 -8 -5.5 -13t-13.5 -5t-13.5 5.5t-5.5 12.5q0 8 5.5 13.5t13.5 5.5q19 0 19 -19zM403 405 q0 -8 -5.5 -13.5t-12.5 -5.5q-8 0 -13.5 5.5t-5.5 13.5t5.5 13.5t13.5 5.5q7 0 12.5 -5.5t5.5 -13.5zM362 454q0 -8 -6 -13.5t-13 -5.5q-8 0 -13.5 5.5t-5.5 13.5t5.5 13.5t13.5 5.5q7 0 13 -5.5t6 -13.5zM296 473q0 -8 -5.5 -13.5t-13.5 -5.5t-13.5 5.5t-5.5 13.5 q0 7 5.5 12.5t13.5 5.5t13.5 -5.5t5.5 -12.5zM229 464q0 -7 -5.5 -12.5t-13.5 -5.5t-13.5 5.5t-5.5 12.5q0 8 5.5 13.5t13.5 5.5t13.5 -5.5t5.5 -13.5zM163 436q0 -8 -5.5 -13.5t-13.5 -5.5t-13.5 5.5t-5.5 13.5t5.5 13.5t13.5 5.5t13.5 -5.5t5.5 -13.5zM98 15 q0 -7 -5.5 -12.5t-13.5 -5.5t-13.5 5.5t-5.5 12.5q0 8 5.5 13.5t13.5 5.5t13.5 -5.5t5.5 -13.5zM98 81q0 -8 -5.5 -13.5t-13.5 -5.5t-13.5 5.5t-5.5 13.5q0 7 6 13t13 6t13 -6t6 -13zM98 146q0 -7 -5.5 -12.5t-13.5 -5.5t-13.5 5.5t-5.5 12.5q0 8 5.5 13.5t13.5 5.5 t13.5 -5.5t5.5 -13.5zM98 212q0 -8 -5.5 -13.5t-13.5 -5.5t-13.5 5.5t-5.5 13.5q0 7 5.5 12.5t13.5 5.5t13.5 -5.5t5.5 -12.5zM98 277q0 -7 -6 -13t-13 -6t-13 6t-6 13q0 8 5.5 13.5t13.5 5.5t13.5 -5.5t5.5 -13.5zM98 343q0 -8 -5.5 -13.5t-13.5 -5.5t-13.5 5.5t-5.5 13.5 q0 7 5.5 12.5t13.5 5.5t13.5 -5.5t5.5 -12.5zM98 408q0 -8 -6 -13.5t-13 -5.5t-13 5.5t-6 13.5t6 13.5t13 5.5t13 -5.5t6 -13.5zM98 474q0 -8 -5.5 -13.5t-13.5 -5.5t-13.5 5.5t-5.5 13.5q0 7 5.5 12.5t13.5 5.5t13.5 -5.5t5.5 -12.5z" />
<glyph unicode="o" horiz-adv-x="479" d="M273 456q-8 0 -13.5 5t-5.5 13q0 19 19 19q8 0 13 -5.5t5 -13.5t-5.5 -13t-12.5 -5zM333 430q-7 0 -13 6t-6 13t6 13t13 6t13 -6t6 -13t-6 -13t-13 -6zM379 383q-8 0 -13.5 5.5t-5.5 13.5q0 7 5.5 12.5t13.5 5.5t13.5 -5.5t5.5 -12.5q0 -8 -5.5 -13.5t-13.5 -5.5z M421 259q-19 0 -19 19q0 8 5.5 13t13.5 5q7 0 12.5 -5t5.5 -13t-5 -13.5t-13 -5.5zM408 324q-8 0 -13 5.5t-5 13.5q0 7 5 12.5t13 5.5t13.5 -5t5.5 -13q0 -19 -19 -19zM254 16q0 8 5.5 13.5t13.5 5.5q7 0 12.5 -5.5t5.5 -13.5t-5.5 -13.5t-12.5 -5.5q-8 0 -13.5 5.5 t-5.5 13.5zM314 41q0 8 5.5 13.5t13.5 5.5t13.5 -5.5t5.5 -13.5q0 -7 -5.5 -12.5t-13.5 -5.5t-13.5 5.5t-5.5 12.5zM360 88q0 8 5.5 13.5t13.5 5.5t13.5 -5.5t5.5 -13.5q0 -7 -5.5 -12.5t-13.5 -5.5t-13.5 5.5t-5.5 12.5zM402 212q0 19 19 19q8 0 13 -5.5t5 -13.5t-5.5 -13 t-12.5 -5q-8 0 -13.5 5t-5.5 13zM390 148q0 8 5 13t13 5t13.5 -5t5.5 -13q0 -19 -19 -19q-8 0 -13 5.5t-5 13.5zM226 474q0 -7 -5.5 -12.5t-13.5 -5.5t-13.5 5.5t-5.5 12.5q0 8 5.5 13.5t13.5 5.5t13.5 -5.5t5.5 -13.5zM165 449q0 -8 -5.5 -13.5t-12.5 -5.5q-8 0 -13.5 5.5 t-5.5 13.5t5.5 13.5t13.5 5.5q7 0 12.5 -5.5t5.5 -13.5zM119 402q0 -8 -5 -13.5t-13 -5.5q-19 0 -19 19q0 8 5.5 13t13.5 5q7 0 12.5 -5t5.5 -13zM78 278q0 -8 -5.5 -13.5t-13.5 -5.5t-13.5 5.5t-5.5 13.5q0 7 5.5 12.5t13.5 5.5t13.5 -5.5t5.5 -12.5zM90 343q0 -19 -19 -19 q-8 0 -13 5.5t-5 13.5q0 7 5.5 12.5t12.5 5.5q8 0 13.5 -5t5.5 -13zM207 35q7 0 13 -5.5t6 -13.5t-6 -13.5t-13 -5.5t-13 5.5t-6 13.5t6 13.5t13 5.5zM147 60q8 0 13 -5.5t5 -13.5q0 -7 -5.5 -12.5t-12.5 -5.5q-8 0 -13.5 5t-5.5 13q0 19 19 19zM101 107q8 0 13 -5.5 t5 -13.5t-5.5 -13t-12.5 -5q-8 0 -13.5 5t-5.5 13q0 19 19 19zM59 231q8 0 13.5 -5.5t5.5 -13.5q0 -7 -5.5 -12.5t-13.5 -5.5t-13.5 5.5t-5.5 12.5q0 8 5.5 13.5t13.5 5.5zM71 166q8 0 13.5 -5t5.5 -13q0 -19 -19 -19q-8 0 -13 5.5t-5 13.5t5.5 13t12.5 5z" />
<glyph unicode="p" horiz-adv-x="472" d="M98 474q0 -8 -6 -13.5t-13 -5.5t-13 5.5t-6 13.5t6 13.5t13 5.5t13 -5.5t6 -13.5zM79 427q8 0 13.5 -5.5t5.5 -12.5q0 -8 -5.5 -13.5t-13.5 -5.5t-13.5 5.5t-5.5 13.5q0 7 5.5 12.5t13.5 5.5zM79 362q7 0 13 -6t6 -13t-6 -13t-13 -6t-13 6t-6 13t6 13t13 6zM79 296 q8 0 13.5 -5.5t5.5 -12.5q0 -8 -5.5 -13.5t-13.5 -5.5t-13.5 5.5t-5.5 13.5q0 7 5.5 12.5t13.5 5.5zM79 231q8 0 13.5 -5.5t5.5 -13.5q0 -7 -5.5 -12.5t-13.5 -5.5t-13.5 5.5t-5.5 12.5q0 8 5.5 13.5t13.5 5.5zM79 165q8 0 13.5 -5.5t5.5 -12.5q0 -8 -5.5 -13.5t-13.5 -5.5 t-13.5 5.5t-5.5 13.5q0 7 5.5 12.5t13.5 5.5zM79 100q8 0 13.5 -5.5t5.5 -13.5q0 -7 -5.5 -12.5t-13.5 -5.5t-13.5 5.5t-5.5 12.5q0 8 5.5 13.5t13.5 5.5zM79 35q7 0 13 -5.5t6 -13.5t-6 -13.5t-13 -5.5t-13 5.5t-6 13.5t6 13.5t13 5.5zM79 -31q8 0 13.5 -5.5t5.5 -13.5 q0 -7 -5.5 -12.5t-13.5 -5.5t-13.5 5.5t-5.5 12.5q0 8 5.5 13.5t13.5 5.5zM79 -96q7 0 13 -6t6 -13t-6 -13t-13 -6t-13 6t-6 13t6 13t13 6zM79 -162q8 0 13.5 -5.5t5.5 -12.5q0 -8 -5.5 -13.5t-13.5 -5.5t-13.5 5.5t-5.5 13.5q0 7 5.5 12.5t13.5 5.5zM247 15q0 8 5 13.5 t13 5.5q19 0 19 -19q0 -8 -5.5 -13t-13.5 -5q-7 0 -12.5 5.5t-5.5 12.5zM328 60q19 0 19 -19q0 -8 -5.5 -13t-13.5 -5t-13 5.5t-5 12.5q0 8 5 13.5t13 5.5zM374 108q8 0 13 -5.5t5 -13.5q0 -7 -5 -12.5t-13 -5.5t-13.5 5t-5.5 13q0 19 19 19zM413 231q19 0 19 -19 q0 -8 -5.5 -13t-13.5 -5q-7 0 -12.5 5t-5.5 13t5 13.5t13 5.5zM402 168q8 0 13 -5.5t5 -13.5q0 -7 -5 -12.5t-13 -5.5t-13.5 5t-5.5 13q0 19 19 19zM216 15q0 -7 -5 -12.5t-13 -5.5t-13.5 5t-5.5 13q0 19 19 19q8 0 13 -5.5t5 -13.5zM155 46q0 -8 -5.5 -13t-13.5 -5t-13 5 t-5 13t5 13.5t13 5.5q19 0 19 -19zM247 474q0 8 5.5 13.5t12.5 5.5q8 0 13.5 -5.5t5.5 -13.5t-5.5 -13.5t-13.5 -5.5q-7 0 -12.5 5.5t-5.5 13.5zM310 448q0 8 5.5 13.5t12.5 5.5q8 0 13.5 -5.5t5.5 -13.5t-5.5 -13.5t-13.5 -5.5q-7 0 -12.5 5.5t-5.5 13.5zM355 400 q0 8 5.5 13.5t13.5 5.5q7 0 12.5 -5.5t5.5 -13.5t-5.5 -13.5t-12.5 -5.5q-8 0 -13.5 5.5t-5.5 13.5zM395 277q0 8 5.5 13.5t12.5 5.5q8 0 13.5 -5.5t5.5 -13.5t-5.5 -13.5t-13.5 -5.5q-7 0 -12.5 5.5t-5.5 13.5zM383 340q0 8 5.5 13.5t13.5 5.5q7 0 12.5 -5.5t5.5 -13.5 t-5.5 -13.5t-12.5 -5.5q-8 0 -13.5 5.5t-5.5 13.5zM198 455q-8 0 -13.5 5.5t-5.5 13.5t5.5 13.5t13.5 5.5q7 0 12.5 -5.5t5.5 -13.5t-5.5 -13.5t-12.5 -5.5zM135 424q-7 0 -12.5 5.5t-5.5 13.5t5.5 13.5t12.5 5.5q8 0 13.5 -5.5t5.5 -13.5t-5.5 -13.5t-13.5 -5.5z" />
<glyph unicode="q" horiz-adv-x="472" d="M393 493q7 0 13 -5.5t6 -13.5t-6 -13.5t-13 -5.5t-13 5.5t-6 13.5t6 13.5t13 5.5zM374 409q0 7 5.5 12.5t13.5 5.5t13.5 -5.5t5.5 -12.5q0 -8 -5.5 -13.5t-13.5 -5.5t-13.5 5.5t-5.5 13.5zM374 343q0 7 6 13t13 6t13 -6t6 -13t-6 -13t-13 -6t-13 6t-6 13zM374 278 q0 7 5.5 12.5t13.5 5.5t13.5 -5.5t5.5 -12.5q0 -8 -5.5 -13.5t-13.5 -5.5t-13.5 5.5t-5.5 13.5zM374 212q0 8 5.5 13.5t13.5 5.5t13.5 -5.5t5.5 -13.5q0 -7 -5.5 -12.5t-13.5 -5.5t-13.5 5.5t-5.5 12.5zM374 147q0 7 5.5 12.5t13.5 5.5t13.5 -5.5t5.5 -12.5q0 -8 -5.5 -13.5 t-13.5 -5.5t-13.5 5.5t-5.5 13.5zM374 81q0 8 5.5 13.5t13.5 5.5t13.5 -5.5t5.5 -13.5q0 -7 -5.5 -12.5t-13.5 -5.5t-13.5 5.5t-5.5 12.5zM374 16q0 8 6 13.5t13 5.5t13 -5.5t6 -13.5t-6 -13.5t-13 -5.5t-13 5.5t-6 13.5zM374 -50q0 8 5.5 13.5t13.5 5.5t13.5 -5.5 t5.5 -13.5q0 -7 -5.5 -12.5t-13.5 -5.5t-13.5 5.5t-5.5 12.5zM374 -115q0 7 6 13t13 6t13 -6t6 -13t-6 -13t-13 -6t-13 6t-6 13zM374 -180q0 7 5.5 12.5t13.5 5.5t13.5 -5.5t5.5 -12.5q0 -8 -5.5 -13.5t-13.5 -5.5t-13.5 5.5t-5.5 13.5zM207 34q8 0 13 -5.5t5 -13.5 q0 -7 -5.5 -12.5t-12.5 -5.5q-8 0 -13.5 5t-5.5 13q0 19 19 19zM162 41q0 -8 -5.5 -13t-13.5 -5q-7 0 -12.5 5.5t-5.5 12.5q0 8 5 13.5t13 5.5q19 0 19 -19zM117 89q0 -8 -5.5 -13t-13.5 -5t-13.5 5.5t-5.5 12.5q0 8 5.5 13.5t13.5 5.5q19 0 19 -19zM77 212q0 -8 -5.5 -13 t-13.5 -5t-13 5t-5 13t5 13.5t13 5.5q19 0 19 -19zM89 149q0 -8 -5.5 -13t-13.5 -5t-13 5.5t-5 12.5q0 8 5 13.5t13 5.5q19 0 19 -19zM274 34q8 0 13.5 -5.5t5.5 -13.5q0 -7 -5.5 -12.5t-13.5 -5.5t-13.5 5.5t-5.5 12.5q0 8 5.5 13.5t13.5 5.5zM336 65q8 0 13 -5.5t5 -13.5 t-5 -13t-13 -5t-13.5 5t-5.5 13q0 19 19 19zM207 455q-8 0 -13.5 5.5t-5.5 13.5t5.5 13.5t13.5 5.5q7 0 12.5 -5.5t5.5 -13.5t-5.5 -13.5t-12.5 -5.5zM143 429q-7 0 -12.5 5.5t-5.5 13.5t5.5 13.5t12.5 5.5q8 0 13.5 -5.5t5.5 -13.5t-5.5 -13.5t-13.5 -5.5zM98 381 q-8 0 -13.5 5.5t-5.5 13.5t5.5 13.5t13.5 5.5t13.5 -5.5t5.5 -13.5t-5.5 -13.5t-13.5 -5.5zM58 258q-7 0 -12.5 5.5t-5.5 13.5t5.5 13.5t12.5 5.5q8 0 13.5 -5.5t5.5 -13.5t-5.5 -13.5t-13.5 -5.5zM70 321q-7 0 -12.5 5.5t-5.5 13.5t5.5 13.5t12.5 5.5q8 0 13.5 -5.5 t5.5 -13.5t-5.5 -13.5t-13.5 -5.5zM255 474q0 8 5.5 13.5t13.5 5.5t13.5 -5.5t5.5 -13.5t-5.5 -13.5t-13.5 -5.5t-13.5 5.5t-5.5 13.5zM318 443q0 8 5.5 13.5t13.5 5.5q7 0 12.5 -5.5t5.5 -13.5t-5.5 -13.5t-12.5 -5.5q-8 0 -13.5 5.5t-5.5 13.5z" />
<glyph unicode="r" horiz-adv-x="294" d="M274 473q0 -19 -19 -19q-8 0 -13 5.5t-5 13.5q0 7 5.5 12.5t12.5 5.5q8 0 13.5 -5t5.5 -13zM210 438q0 -8 -6 -13.5t-13 -5.5t-13 5.5t-6 13.5t6 13.5t13 5.5t13 -5.5t6 -13.5zM158 388q0 -8 -5.5 -13.5t-13.5 -5.5t-13.5 5.5t-5.5 13.5q0 7 5.5 12.5t13.5 5.5t13.5 -5.5 t5.5 -12.5zM97 15q0 -7 -5.5 -12.5t-12.5 -5.5q-8 0 -13.5 5t-5.5 13q0 19 19 19q8 0 13 -5.5t5 -13.5zM97 81q0 -8 -5 -13.5t-13 -5.5q-19 0 -19 19q0 8 5.5 13.5t13.5 5.5q7 0 12.5 -5.5t5.5 -13.5zM97 146q0 -8 -5.5 -13t-12.5 -5q-8 0 -13.5 5t-5.5 13q0 19 19 19 q8 0 13 -5.5t5 -13.5zM97 212q0 -8 -5 -13.5t-13 -5.5q-19 0 -19 19q0 8 5.5 13t13.5 5q7 0 12.5 -5t5.5 -13zM97 277q0 -8 -5.5 -13.5t-12.5 -5.5q-8 0 -13.5 5.5t-5.5 13.5q0 19 19 19q8 0 13 -5.5t5 -13.5zM97 343q0 -8 -5 -13.5t-13 -5.5q-19 0 -19 19q0 8 5.5 13 t13.5 5q7 0 12.5 -5.5t5.5 -12.5zM97 408q0 -8 -5.5 -13.5t-12.5 -5.5q-8 0 -13.5 5.5t-5.5 13.5t5.5 13.5t13.5 5.5q7 0 12.5 -5.5t5.5 -13.5zM97 474q0 -8 -5 -13.5t-13 -5.5q-19 0 -19 19q0 8 5.5 13t13.5 5q7 0 12.5 -5t5.5 -13z" />
<glyph unicode="s" horiz-adv-x="353" d="M294 58q8 0 13.5 5t5.5 13q0 19 -19 19q-8 0 -13.5 -5.5t-5.5 -13.5q0 -7 5.5 -12.5t13.5 -5.5zM323 140q0 -19 -19 -19q-8 0 -13 5.5t-5 13.5t5 13t13 5t13.5 -5t5.5 -13zM295 197q0 -7 -5.5 -13t-13.5 -6t-13.5 6t-5.5 13t5.5 13t13.5 6t13.5 -6t5.5 -13zM312 448 q0 -8 -5.5 -13.5t-12.5 -5.5q-8 0 -13.5 5.5t-5.5 13.5t5.5 13.5t13.5 5.5q7 0 12.5 -5.5t5.5 -13.5zM266 31q0 -8 -5.5 -13t-13.5 -5q-7 0 -12.5 5.5t-5.5 12.5q0 8 5 13.5t13 5.5q19 0 19 -19zM237 234q0 -8 -5 -13.5t-13 -5.5q-19 0 -19 19q0 8 5.5 13t13.5 5 q7 0 12.5 -5t5.5 -13zM249 468q0 -19 -19 -19q-8 0 -13.5 5.5t-5.5 13.5q0 7 5.5 12.5t13.5 5.5t13.5 -5t5.5 -13zM199 15q0 -7 -5.5 -12.5t-12.5 -5.5q-8 0 -13.5 5t-5.5 13q0 19 19 19q8 0 13 -5.5t5 -13.5zM176 263q0 -19 -19 -19q-8 0 -13 5.5t-5 13.5q0 7 5.5 12.5 t12.5 5.5q8 0 13.5 -5t5.5 -13zM183 474q0 -8 -5 -13.5t-13 -5.5q-19 0 -19 19q0 8 5.5 13t13.5 5q7 0 12.5 -5t5.5 -13zM130 19q0 -7 -5 -12.5t-13 -5.5t-13.5 5t-5.5 13q0 19 19 19q8 0 13 -5.5t5 -13.5zM117 293q0 -19 -19 -19q-8 0 -13 5.5t-5 13.5q0 7 5 12.5t13 5.5 t13.5 -5t5.5 -13zM118 459q0 -7 -6 -13t-13 -6t-13 6t-6 13t6 13t13 6t13 -6t6 -13zM67 40q0 -19 -19 -19q-8 0 -13 5.5t-5 13.5t5 13t13 5t13.5 -5t5.5 -13zM76 344q0 -19 -19 -19q-8 0 -13.5 5.5t-5.5 13.5q0 7 5.5 12.5t13.5 5.5t13.5 -5t5.5 -13zM75 409 q0 -8 -5.5 -13.5t-12.5 -5.5q-8 0 -13.5 5.5t-5.5 13.5t5.5 13.5t13.5 5.5q7 0 12.5 -5.5t5.5 -13.5z" />
<glyph unicode="t" horiz-adv-x="234" d="M215 -3q8 0 13.5 5.5t5.5 12.5q0 8 -5.5 13.5t-13.5 5.5t-13.5 -5.5t-5.5 -13.5q0 -7 5.5 -12.5t13.5 -5.5zM234 474q0 -8 -5.5 -13.5t-13.5 -5.5t-13.5 5.5t-5.5 13.5q0 7 5.5 12.5t13.5 5.5t13.5 -5.5t5.5 -12.5zM165 20q0 -8 -5.5 -13.5t-13.5 -5.5q-7 0 -12.5 5.5 t-5.5 13.5t5.5 13.5t12.5 5.5q8 0 13.5 -5.5t5.5 -13.5zM168 474q0 -8 -5 -13.5t-13 -5.5q-19 0 -19 19q0 8 5.5 13t13.5 5t13 -5t5 -13zM114 71q0 -8 -5.5 -13.5t-13.5 -5.5q-19 0 -19 19q0 8 5.5 13t13.5 5t13.5 -5.5t5.5 -12.5zM103 141q0 -19 -19 -19q-8 0 -13.5 5.5 t-5.5 13.5q0 7 5.5 12.5t13.5 5.5t13.5 -5t5.5 -13zM103 212q0 -19 -19 -19q-8 0 -13.5 5.5t-5.5 13.5q0 7 5.5 12.5t13.5 5.5t13.5 -5t5.5 -13zM103 277q0 -8 -5.5 -13.5t-13.5 -5.5t-13.5 6t-5.5 13q0 8 5.5 13.5t13.5 5.5q19 0 19 -19zM103 343q0 -19 -19 -19 q-8 0 -13.5 5.5t-5.5 13.5q0 7 5.5 12.5t13.5 5.5t13.5 -5t5.5 -13zM103 408q0 -8 -5.5 -13.5t-13.5 -5.5t-13.5 5.5t-5.5 13.5t5.5 13.5t13.5 5.5t13.5 -5.5t5.5 -13.5zM103 474q0 -19 -19 -19q-8 0 -13.5 5.5t-5.5 13.5q0 7 5.5 12.5t13.5 5.5t13.5 -5t5.5 -13zM103 539 q0 -8 -5.5 -13.5t-13.5 -5.5t-13.5 6t-5.5 13t5.5 13t13.5 6t13.5 -5.5t5.5 -13.5zM103 604q0 -8 -5.5 -13t-13.5 -5t-13.5 5.5t-5.5 12.5q0 8 5.5 13.5t13.5 5.5q19 0 19 -19zM37 474q0 -8 -5 -13.5t-13 -5.5q-19 0 -19 19q0 8 5.5 13t13.5 5q7 0 12.5 -5t5.5 -13z" />
<glyph unicode="u" d="M69 492q7 0 12.5 -5t5.5 -13t-5 -13.5t-13 -5.5q-19 0 -19 19q0 8 5.5 13t13.5 5zM50 408q0 8 5.5 13.5t13.5 5.5q7 0 12.5 -5.5t5.5 -13.5t-5.5 -13.5t-12.5 -5.5q-8 0 -13.5 5.5t-5.5 13.5zM50 343q0 8 5.5 13t13.5 5q7 0 12.5 -5.5t5.5 -12.5q0 -8 -5 -13.5t-13 -5.5 q-19 0 -19 19zM50 277q0 19 19 19q8 0 13 -5.5t5 -13.5t-5.5 -13.5t-12.5 -5.5q-8 0 -13.5 5.5t-5.5 13.5zM50 212q0 8 5.5 13t13.5 5q7 0 12.5 -5t5.5 -13t-5 -13.5t-13 -5.5q-19 0 -19 19zM55 146q0 7 5.5 12.5t13.5 5.5t13.5 -5.5t5.5 -12.5q0 -8 -5.5 -13.5t-13.5 -5.5 t-13.5 5.5t-5.5 13.5zM72 84q0 8 5.5 13.5t12.5 5.5q8 0 13.5 -5.5t5.5 -13.5t-5.5 -13.5t-13.5 -5.5q-7 0 -12.5 5.5t-5.5 13.5zM114 35q0 8 5.5 13.5t12.5 5.5q8 0 13.5 -5.5t5.5 -13.5t-5.5 -13.5t-13.5 -5.5q-7 0 -12.5 5.5t-5.5 13.5zM179 15q0 8 5.5 13.5t13.5 5.5 q19 0 19 -19q0 -8 -5.5 -13t-13.5 -5t-13.5 5.5t-5.5 12.5zM246 24q0 8 5.5 13.5t13.5 5.5t13.5 -5.5t5.5 -13.5q0 -7 -5.5 -12.5t-13.5 -5.5t-13.5 5.5t-5.5 12.5zM312 53q0 7 6 13t13 6t13 -6t6 -13t-6 -13t-13 -6t-13 6t-6 13zM377 474q0 7 5.5 12.5t13.5 5.5t13.5 -5.5 t5.5 -12.5q0 -8 -5.5 -13.5t-13.5 -5.5t-13.5 5.5t-5.5 13.5zM377 408q0 8 5.5 13.5t13.5 5.5t13.5 -5.5t5.5 -13.5t-5.5 -13.5t-13.5 -5.5t-13.5 5.5t-5.5 13.5zM377 343q0 7 5.5 12.5t13.5 5.5t13.5 -5.5t5.5 -12.5q0 -8 -5.5 -13.5t-13.5 -5.5t-13.5 5.5t-5.5 13.5z M377 277q0 8 5.5 13.5t13.5 5.5t13.5 -5.5t5.5 -13.5q0 -7 -5.5 -13t-13.5 -6t-13.5 6t-5.5 13zM377 212q0 7 5.5 12.5t13.5 5.5t13.5 -5.5t5.5 -12.5q0 -8 -5.5 -13.5t-13.5 -5.5t-13.5 5.5t-5.5 13.5zM377 146q0 8 5.5 13.5t13.5 5.5t13.5 -5.5t5.5 -13.5q0 -7 -5.5 -12.5 t-13.5 -5.5t-13.5 5.5t-5.5 12.5zM377 81q0 7 5.5 13t13.5 6t13.5 -6t5.5 -13q0 -8 -5.5 -13.5t-13.5 -5.5t-13.5 5.5t-5.5 13.5zM377 15q0 8 5.5 13.5t13.5 5.5t13.5 -5.5t5.5 -13.5q0 -7 -5.5 -12.5t-13.5 -5.5t-13.5 5.5t-5.5 12.5z" />
<glyph unicode="v" horiz-adv-x="367" d="M183 -3q8 0 13.5 5t5.5 13q0 19 -19 19q-8 0 -13 -5.5t-5 -13.5q0 -7 5.5 -12.5t12.5 -5.5zM175 81q0 -8 -5.5 -13.5t-13.5 -5.5t-13.5 5.5t-5.5 13.5q0 7 5.5 13t13.5 6t13.5 -6t5.5 -13zM153 146q0 -8 -5.5 -13t-12.5 -5q-8 0 -13.5 5t-5.5 13q0 19 19 19q8 0 13 -5.5 t5 -13.5zM132 212q0 -19 -19 -19q-8 0 -13 5.5t-5 13.5t5.5 13t12.5 5q8 0 13.5 -5t5.5 -13zM111 277q0 -7 -5.5 -13t-13.5 -6t-13.5 6t-5.5 13t5.5 13t13.5 6t13.5 -6t5.5 -13zM89 343q0 -8 -5 -13.5t-13 -5.5q-19 0 -19 19q0 8 5.5 13t13.5 5q7 0 12.5 -5.5t5.5 -12.5z M68 408q0 -8 -5.5 -13.5t-13.5 -5.5q-7 0 -12.5 5.5t-5.5 13.5t5.5 13.5t12.5 5.5q8 0 13.5 -5.5t5.5 -13.5zM47 474q0 -19 -19 -19q-8 0 -13 5.5t-5 13.5t5 13t13 5t13.5 -5t5.5 -13zM210 62q-8 0 -13 5.5t-5 13.5t5.5 13.5t12.5 5.5q8 0 13.5 -5.5t5.5 -13.5 q0 -19 -19 -19zM232 128q-8 0 -13.5 5t-5.5 13q0 19 19 19q8 0 13.5 -5.5t5.5 -13.5q0 -7 -5.5 -12.5t-13.5 -5.5zM253 193q-8 0 -13.5 5.5t-5.5 13.5q0 7 5.5 12.5t13.5 5.5t13.5 -5.5t5.5 -12.5q0 -8 -5.5 -13.5t-13.5 -5.5zM274 258q-7 0 -12.5 5.5t-5.5 13.5t5.5 13.5 t12.5 5.5q8 0 13.5 -5.5t5.5 -13.5t-5.5 -13.5t-13.5 -5.5zM296 324q-19 0 -19 19q0 8 5.5 13t13.5 5t13 -5.5t5 -12.5q0 -8 -5 -13.5t-13 -5.5zM317 389q-7 0 -13 5.5t-6 13.5t6 13.5t13 5.5t13 -5.5t6 -13.5t-6 -13.5t-13 -5.5zM338 455q-8 0 -13.5 5.5t-5.5 13.5 q0 7 5.5 12.5t13.5 5.5t13.5 -5t5.5 -13q0 -19 -19 -19z" />
<glyph unicode="w" horiz-adv-x="621" d="M170 -3q8 0 13 5.5t5 12.5q0 8 -5 13.5t-13 5.5q-19 0 -19 -19q0 -8 5.5 -13t13.5 -5zM161 81q0 -19 -19 -19q-8 0 -13 5.5t-5 13.5t5.5 13.5t12.5 5.5q8 0 13.5 -5.5t5.5 -13.5zM142 146q0 -8 -5 -13t-13 -5t-13.5 5t-5.5 13q0 19 19 19q8 0 13 -5.5t5 -13.5zM123 212 q0 -8 -5 -13.5t-13 -5.5q-19 0 -19 19q0 8 5.5 13t13.5 5q7 0 12.5 -5t5.5 -13zM105 277q0 -7 -5.5 -13t-13.5 -6t-13.5 6t-5.5 13q0 8 5.5 13.5t13.5 5.5t13.5 -5.5t5.5 -13.5zM86 343q0 -8 -5.5 -13.5t-13.5 -5.5q-19 0 -19 19q0 8 5.5 13t13.5 5t13.5 -5.5t5.5 -12.5z M67 408q0 -8 -5.5 -13.5t-13.5 -5.5t-13.5 5.5t-5.5 13.5t5.5 13.5t13.5 5.5t13.5 -5.5t5.5 -13.5zM48 474q0 -8 -5.5 -13.5t-13.5 -5.5t-13.5 5.5t-5.5 13.5q0 7 5.5 12.5t13.5 5.5t13.5 -5.5t5.5 -12.5zM197 62q-8 0 -13.5 5.5t-5.5 13.5q0 7 6 13t13 6t13 -6t6 -13 q0 -8 -5.5 -13.5t-13.5 -5.5zM214 128q-8 0 -13 5t-5 13t5 13.5t13 5.5q19 0 19 -19q0 -8 -5.5 -13t-13.5 -5zM231 193q-8 0 -13 5.5t-5 13.5t5.5 13t12.5 5q8 0 13.5 -5t5.5 -13q0 -19 -19 -19zM249 258q-7 0 -13 6t-6 13q0 8 5.5 13.5t13.5 5.5t13.5 -5.5t5.5 -13.5 q0 -7 -6 -13t-13 -6zM266 324q-8 0 -13 5.5t-5 13.5q0 7 5 12.5t13 5.5t13.5 -5t5.5 -13q0 -19 -19 -19zM283 389q-7 0 -12.5 5.5t-5.5 13.5t5.5 13.5t12.5 5.5q8 0 13.5 -5.5t5.5 -13.5t-5.5 -13.5t-13.5 -5.5zM311 455q-19 0 -19 19q0 8 5.5 13t13.5 5q7 0 12.5 -5 t5.5 -13t-5 -13.5t-13 -5.5zM433 15q0 -7 5.5 -12.5t12.5 -5.5q8 0 13.5 5t5.5 13q0 19 -19 19q-8 0 -13 -5.5t-5 -13.5zM479 62q-19 0 -19 19q0 8 5.5 13.5t13.5 5.5q7 0 12.5 -5.5t5.5 -13.5t-5 -13.5t-13 -5.5zM498 128q-8 0 -13.5 5t-5.5 13q0 19 19 19q8 0 13 -5.5 t5 -13.5t-5 -13t-13 -5zM517 193q-19 0 -19 19q0 8 5.5 13t13.5 5q7 0 12.5 -5t5.5 -13t-5 -13.5t-13 -5.5zM535 258q-7 0 -12.5 5.5t-5.5 13.5t5 13.5t13 5.5q19 0 19 -19q0 -8 -5.5 -13.5t-13.5 -5.5zM554 324q-8 0 -13 5.5t-5 13.5q0 7 5 12.5t13 5.5t13.5 -5t5.5 -13 q0 -19 -19 -19zM573 389q-7 0 -12.5 5.5t-5.5 13.5t5.5 13.5t12.5 5.5q8 0 13.5 -5.5t5.5 -13.5t-5.5 -13.5t-13.5 -5.5zM592 455q-8 0 -13.5 5.5t-5.5 13.5q0 7 5.5 12.5t13.5 5.5t13.5 -5.5t5.5 -12.5q0 -8 -5.5 -13.5t-13.5 -5.5zM443 81q0 -8 -5.5 -13.5t-13.5 -5.5 t-13.5 5.5t-5.5 13.5q0 7 5.5 13t13.5 6t13.5 -6t5.5 -13zM425 146q0 -8 -5.5 -13t-12.5 -5q-8 0 -13.5 5t-5.5 13q0 19 19 19q8 0 13 -5.5t5 -13.5zM408 212q0 -19 -19 -19q-8 0 -13 5.5t-5 13.5t5.5 13t12.5 5q8 0 13.5 -5t5.5 -13zM391 277q0 -7 -5.5 -13t-13.5 -6 t-13.5 6t-5.5 13q0 8 5.5 13.5t13.5 5.5t13.5 -5.5t5.5 -13.5zM374 343q0 -8 -5.5 -13.5t-13.5 -5.5q-19 0 -19 19q0 8 5.5 13t13.5 5t13.5 -5.5t5.5 -12.5zM356 408q0 -8 -5.5 -13.5t-12.5 -5.5q-8 0 -13.5 5.5t-5.5 13.5t5.5 13.5t13.5 5.5q7 0 12.5 -5.5t5.5 -13.5z" />
<glyph unicode="x" horiz-adv-x="339" d="M310 -3q8 0 13.5 5.5t5.5 12.5q0 8 -5.5 13.5t-13.5 5.5t-13.5 -5.5t-5.5 -13.5q0 -7 5.5 -12.5t13.5 -5.5zM293 73q0 -8 -5.5 -13.5t-13.5 -5.5t-13.5 5.5t-5.5 13.5q0 7 5.5 12.5t13.5 5.5t13.5 -5.5t5.5 -12.5zM258 132q0 -8 -6 -13.5t-13 -5.5t-13 5.5t-6 13.5 t6 13.5t13 5.5t13 -5.5t6 -13.5zM223 190q0 -8 -5.5 -13.5t-13.5 -5.5q-7 0 -12.5 5.5t-5.5 13.5t5.5 13.5t12.5 5.5q8 0 13.5 -5.5t5.5 -13.5zM153 306q0 -8 -5.5 -13.5t-13.5 -5.5t-13.5 5.5t-5.5 13.5t5.5 13.5t13.5 5.5t13.5 -5.5t5.5 -13.5zM188 247q0 -7 -5.5 -12.5 t-13.5 -5.5t-13.5 5.5t-5.5 12.5q0 8 5.5 13.5t13.5 5.5t13.5 -5.5t5.5 -13.5zM119 361q0 -8 -5.5 -13t-13.5 -5t-13 5.5t-5 12.5q0 8 5 13.5t13 5.5q19 0 19 -19zM85 419q0 -8 -5.5 -13.5t-13.5 -5.5t-13.5 5.5t-5.5 13.5q0 7 5.5 12.5t13.5 5.5t13.5 -5.5t5.5 -12.5z M51 474q0 -8 -5.5 -13.5t-13.5 -5.5t-13.5 5.5t-5.5 13.5q0 7 5.5 12.5t13.5 5.5t13.5 -5.5t5.5 -12.5zM10 15q0 -7 5 -12.5t13 -5.5t13.5 5t5.5 13q0 19 -19 19q-8 0 -13 -5.5t-5 -13.5zM64 54q-8 0 -13 5.5t-5 13.5q0 7 5 12.5t13 5.5t13.5 -5t5.5 -13q0 -19 -19 -19z M99 113q-7 0 -12.5 5.5t-5.5 13.5t5.5 13.5t12.5 5.5q8 0 13.5 -5.5t5.5 -13.5t-5.5 -13.5t-13.5 -5.5zM134 171q-8 0 -13.5 5.5t-5.5 13.5t5.5 13.5t13.5 5.5t13.5 -5.5t5.5 -13.5t-5.5 -13.5t-13.5 -5.5zM204 287q-7 0 -12.5 5.5t-5.5 13.5t5.5 13.5t12.5 5.5 q8 0 13.5 -5.5t5.5 -13.5t-5.5 -13.5t-13.5 -5.5zM238 343q-8 0 -13.5 5.5t-5.5 12.5q0 8 5.5 13.5t13.5 5.5t13.5 -5.5t5.5 -13.5q0 -7 -5.5 -12.5t-13.5 -5.5zM272 400q-8 0 -13 5.5t-5 13.5q0 7 5 12.5t13 5.5t13.5 -5t5.5 -13q0 -19 -19 -19zM306 455q-8 0 -13 5.5 t-5 13.5t5 13t13 5t13.5 -5t5.5 -13q0 -19 -19 -19z" />
<glyph unicode="y" horiz-adv-x="372" d="M203 20q8 0 13.5 5.5t5.5 13.5q0 7 -5.5 12.5t-13.5 5.5t-13.5 -5.5t-5.5 -12.5q0 -8 5.5 -13.5t13.5 -5.5zM188 103q0 -7 -5 -12.5t-13 -5.5t-13.5 5t-5.5 13q0 19 19 19q8 0 13 -5.5t5 -13.5zM165 166q0 -8 -5.5 -13.5t-13.5 -5.5q-7 0 -12.5 5.5t-5.5 13.5t5.5 13.5 t12.5 5.5q8 0 13.5 -5.5t5.5 -13.5zM141 228q0 -8 -5.5 -13t-13.5 -5t-13 5t-5 13t5 13.5t13 5.5q19 0 19 -19zM117 291q0 -8 -5.5 -13.5t-12.5 -5.5q-8 0 -13.5 5.5t-5.5 13.5t5.5 13.5t13.5 5.5q7 0 12.5 -5.5t5.5 -13.5zM94 352q0 -8 -5.5 -13.5t-13.5 -5.5 q-7 0 -12.5 5.5t-5.5 13.5t5.5 13.5t12.5 5.5q8 0 13.5 -5.5t5.5 -13.5zM70 413q0 -7 -5 -12.5t-13 -5.5t-13.5 5t-5.5 13q0 19 19 19q8 0 13 -5.5t5 -13.5zM47 475q0 -19 -19 -19q-8 0 -13 5.5t-5 13.5q0 7 5 12.5t13 5.5t13.5 -5t5.5 -13zM223 82q-8 0 -13.5 5.5 t-5.5 13.5q0 7 6 13t13 6t13 -6t6 -13q0 -8 -5.5 -13.5t-13.5 -5.5zM243 144q-7 0 -13 6t-6 13q0 8 5.5 13.5t13.5 5.5t13.5 -5.5t5.5 -13.5q0 -7 -6 -13t-13 -6zM263 207q-8 0 -13.5 5.5t-5.5 12.5q0 8 5.5 13.5t13.5 5.5t13.5 -5.5t5.5 -13.5q0 -7 -5.5 -12.5t-13.5 -5.5z M283 269q-8 0 -13 5.5t-5 13.5t5.5 13.5t12.5 5.5q8 0 13.5 -5.5t5.5 -13.5q0 -19 -19 -19zM303 331q-7 0 -12.5 5.5t-5.5 13.5t5.5 13.5t12.5 5.5q8 0 13.5 -5.5t5.5 -13.5t-5.5 -13.5t-13.5 -5.5zM323 394q-7 0 -12.5 5t-5.5 13t5 13.5t13 5.5q19 0 19 -19q0 -8 -5.5 -13 t-13.5 -5zM344 456q-19 0 -19 19q0 8 5.5 13t13.5 5t13 -5.5t5 -12.5q0 -8 -5 -13.5t-13 -5.5zM182 -86q0 -8 -6 -13.5t-13 -5.5t-13 5.5t-6 13.5t6 13.5t13 5.5t13 -5.5t6 -13.5zM202 -24q0 -7 -5.5 -12.5t-13.5 -5.5t-13.5 5.5t-5.5 12.5q0 8 5.5 13.5t13.5 5.5t13.5 -5.5 t5.5 -13.5zM146 -142q0 -8 -5.5 -13.5t-13.5 -5.5q-19 0 -19 19q0 8 5.5 13t13.5 5t13.5 -5.5t5.5 -12.5zM88 -170q0 -8 -5.5 -13.5t-13.5 -5.5q-7 0 -12.5 5.5t-5.5 13.5t5.5 13.5t12.5 5.5q8 0 13.5 -5.5t5.5 -13.5z" />
<glyph unicode="z" horiz-adv-x="319" d="M290 -3q8 0 13.5 5t5.5 13q0 19 -19 19q-8 0 -13 -5.5t-5 -13.5q0 -7 5 -12.5t13 -5.5zM276 415q0 -7 -6 -13t-13 -6t-13 6t-6 13q0 8 5.5 13.5t13.5 5.5t13.5 -5.5t5.5 -13.5zM309 474q0 -19 -19 -19q-8 0 -13 5.5t-5 13.5t5 13t13 5t13.5 -5t5.5 -13zM244 15 q0 -7 -5.5 -12.5t-13.5 -5.5t-13.5 5.5t-5.5 12.5q0 8 5.5 13.5t13.5 5.5t13.5 -5.5t5.5 -13.5zM243 358q0 -8 -5.5 -13t-13.5 -5t-13 5t-5 13t5 13.5t13 5.5q19 0 19 -19zM244 474q0 -8 -5.5 -13.5t-13.5 -5.5t-13.5 5.5t-5.5 13.5q0 7 5.5 12.5t13.5 5.5t13.5 -5.5 t5.5 -12.5zM178 15q0 -8 -5.5 -13t-13.5 -5q-7 0 -12.5 5.5t-5.5 12.5q0 8 5 13.5t13 5.5q19 0 19 -19zM178 245q0 -8 -5.5 -13.5t-13.5 -5.5q-7 0 -12.5 5.5t-5.5 13.5t5.5 13.5t12.5 5.5q8 0 13.5 -5.5t5.5 -13.5zM210 302q0 -8 -5 -13.5t-13 -5.5q-19 0 -19 19 q0 8 5.5 13t13.5 5t13 -5t5 -13zM178 474q0 -19 -19 -19q-8 0 -13 5.5t-5 13.5t5.5 13t12.5 5q8 0 13.5 -5t5.5 -13zM113 15q0 -7 -5.5 -12.5t-13.5 -5.5t-13.5 5.5t-5.5 12.5q0 8 5.5 13.5t13.5 5.5t13.5 -5.5t5.5 -13.5zM146 188q0 -8 -6 -13.5t-13 -5.5t-13 5.5t-6 13.5 t6 13.5t13 5.5t13 -5.5t6 -13.5zM113 474q0 -8 -5.5 -13.5t-13.5 -5.5t-13.5 5.5t-5.5 13.5q0 7 5.5 12.5t13.5 5.5t13.5 -5.5t5.5 -12.5zM47 15q0 -8 -5.5 -13t-13.5 -5t-13 5.5t-5 12.5q0 8 5 13.5t13 5.5q19 0 19 -19zM81 74q0 -7 -5.5 -12.5t-13.5 -5.5t-13.5 5.5 t-5.5 12.5q0 8 5.5 13.5t13.5 5.5t13.5 -5.5t5.5 -13.5zM113 131q0 -8 -5.5 -13.5t-13.5 -5.5q-7 0 -12.5 5.5t-5.5 13.5t5 13.5t13 5.5q19 0 19 -19zM47 474q0 -19 -19 -19q-8 0 -13 5.5t-5 13.5t5 13t13 5t13.5 -5t5.5 -13z" />
<glyph unicode="{" horiz-adv-x="305" d="M276 652q-8 0 -13.5 6t-5.5 13t5.5 13t13.5 6t13.5 -6t5.5 -13t-5.5 -13t-13.5 -6zM231 671q0 -19 -19 -19q-8 0 -13 5.5t-5 13.5q0 7 5 12.5t13 5.5t13.5 -5t5.5 -13zM132 321q0 -8 -5 -13.5t-13 -5.5q-19 0 -19 19q0 8 5.5 13t13.5 5t13 -5.5t5 -12.5zM149 382 q0 -8 -5.5 -13.5t-13.5 -5.5t-13.5 5.5t-5.5 13.5q0 7 5.5 12.5t13.5 5.5t13.5 -5.5t5.5 -12.5zM151 448q0 -8 -5.5 -13.5t-13.5 -5.5t-13.5 5.5t-5.5 13.5t5.5 13.5t13.5 5.5t13.5 -5.5t5.5 -13.5zM151 513q0 -7 -5.5 -13t-13.5 -6t-13.5 6t-5.5 13t5.5 13t13.5 6t13.5 -6 t5.5 -13zM153 578q0 -8 -5.5 -13.5t-13.5 -5.5t-13.5 5.5t-5.5 13.5t5.5 13.5t13.5 5.5t13.5 -5.5t5.5 -13.5zM171 641q0 -8 -5.5 -13.5t-13.5 -5.5t-13.5 5.5t-5.5 13.5q0 7 5.5 12.5t13.5 5.5t13.5 -5.5t5.5 -12.5zM295 -115q0 -7 -5.5 -12.5t-13.5 -5.5t-13.5 5.5 t-5.5 12.5q0 8 5.5 13.5t13.5 5.5t13.5 -5.5t5.5 -13.5zM212 -95q8 0 13.5 -5.5t5.5 -13.5t-5.5 -13.5t-13.5 -5.5q-7 0 -12.5 5.5t-5.5 13.5t5.5 13.5t12.5 5.5zM114 255q7 0 12.5 -5.5t5.5 -13.5t-5.5 -13.5t-12.5 -5.5q-8 0 -13.5 5.5t-5.5 13.5t5.5 13.5t13.5 5.5z M130 194q8 0 13.5 -6t5.5 -13t-5.5 -13t-13.5 -6t-13.5 6t-5.5 13t5.5 13t13.5 6zM132 127q8 0 13.5 -5.5t5.5 -13.5q0 -7 -5.5 -12.5t-13.5 -5.5t-13.5 5.5t-5.5 12.5q0 8 5.5 13.5t13.5 5.5zM132 62q8 0 13.5 -5.5t5.5 -12.5q0 -8 -5.5 -13.5t-13.5 -5.5t-13.5 5.5 t-5.5 13.5q0 7 5.5 12.5t13.5 5.5zM134 -3q8 0 13.5 -5.5t5.5 -12.5q0 -8 -5.5 -13.5t-13.5 -5.5t-13.5 5.5t-5.5 13.5q0 7 5.5 12.5t13.5 5.5zM152 -66q8 0 13.5 -5.5t5.5 -12.5q0 -8 -5.5 -13.5t-13.5 -5.5t-13.5 5.5t-5.5 13.5q0 7 5.5 12.5t13.5 5.5zM78 278 q0 -7 -5.5 -12.5t-13.5 -5.5t-13.5 5.5t-5.5 12.5q0 8 5.5 13.5t13.5 5.5t13.5 -5.5t5.5 -13.5z" />
<glyph unicode="|" horiz-adv-x="198" d="M118 -49q0 -7 -6 -13t-13 -6t-13 6t-6 13t6 13t13 6t13 -6t6 -13zM118 16q0 -7 -5.5 -12.5t-13.5 -5.5t-13.5 5.5t-5.5 12.5q0 8 5.5 13.5t13.5 5.5t13.5 -5.5t5.5 -13.5zM118 82q0 -8 -6 -13.5t-13 -5.5t-13 5.5t-6 13.5t6 13.5t13 5.5t13 -5.5t6 -13.5zM118 147 q0 -7 -5.5 -12.5t-13.5 -5.5t-13.5 5.5t-5.5 12.5q0 8 5.5 13.5t13.5 5.5t13.5 -5.5t5.5 -13.5zM118 213q0 -8 -5.5 -13.5t-13.5 -5.5t-13.5 5.5t-5.5 13.5q0 7 5.5 12.5t13.5 5.5t13.5 -5.5t5.5 -12.5zM118 278q0 -7 -5.5 -12.5t-13.5 -5.5t-13.5 5.5t-5.5 12.5 q0 8 5.5 13.5t13.5 5.5t13.5 -5.5t5.5 -13.5zM118 344q0 -8 -5.5 -13.5t-13.5 -5.5t-13.5 5.5t-5.5 13.5q0 7 5.5 12.5t13.5 5.5t13.5 -5.5t5.5 -12.5zM118 409q0 -7 -6 -13t-13 -6t-13 6t-6 13t6 13t13 6t13 -6t6 -13zM118 475q0 -8 -5.5 -13.5t-13.5 -5.5t-13.5 5.5 t-5.5 13.5q0 7 5.5 12.5t13.5 5.5t13.5 -5.5t5.5 -12.5zM118 540q0 -8 -6 -13.5t-13 -5.5t-13 5.5t-6 13.5t6 13.5t13 5.5t13 -5.5t6 -13.5zM118 606q0 -8 -5.5 -13.5t-13.5 -5.5t-13.5 5.5t-5.5 13.5q0 7 5.5 12.5t13.5 5.5t13.5 -5.5t5.5 -12.5zM118 671q0 -7 -6 -13 t-13 -6t-13 6t-6 13t6 13t13 6t13 -6t6 -13z" />
<glyph unicode="}" horiz-adv-x="305" d="M10 671q0 7 6 13t13 6t13 -6t6 -13t-6 -13t-13 -6t-13 6t-6 13zM93 652q-19 0 -19 19q0 8 5.5 13t13.5 5q7 0 12.5 -5.5t5.5 -12.5q0 -8 -5 -13.5t-13 -5.5zM191 302q-8 0 -13 5.5t-5 13.5q0 7 5.5 12.5t12.5 5.5q8 0 13.5 -5t5.5 -13q0 -19 -19 -19zM175 363 q-8 0 -13.5 5.5t-5.5 13.5q0 7 5.5 12.5t13.5 5.5t13.5 -5.5t5.5 -12.5q0 -8 -5.5 -13.5t-13.5 -5.5zM173 429q-7 0 -13 5.5t-6 13.5t6 13.5t13 5.5t13 -5.5t6 -13.5t-6 -13.5t-13 -5.5zM173 494q-7 0 -13 6t-6 13t6 13t13 6t13 -6t6 -13t-6 -13t-13 -6zM171 559 q-7 0 -13 5.5t-6 13.5t6 13.5t13 5.5t13 -5.5t6 -13.5t-6 -13.5t-13 -5.5zM153 622q-8 0 -13.5 5.5t-5.5 13.5q0 7 5.5 12.5t13.5 5.5t13.5 -5.5t5.5 -12.5q0 -8 -5.5 -13.5t-13.5 -5.5zM29 -96q8 0 13.5 -5.5t5.5 -13.5q0 -7 -5.5 -12.5t-13.5 -5.5t-13.5 5.5t-5.5 12.5 q0 8 5.5 13.5t13.5 5.5zM74 -114q0 8 5.5 13.5t13.5 5.5q7 0 12.5 -5.5t5.5 -13.5t-5.5 -13.5t-12.5 -5.5q-8 0 -13.5 5.5t-5.5 13.5zM173 236q0 8 5.5 13.5t12.5 5.5q8 0 13.5 -5.5t5.5 -13.5t-5.5 -13.5t-13.5 -5.5q-7 0 -12.5 5.5t-5.5 13.5zM156 175q0 7 6 13t13 6 t13 -6t6 -13t-6 -13t-13 -6t-13 6t-6 13zM154 108q0 8 5.5 13.5t13.5 5.5t13.5 -5.5t5.5 -13.5q0 -7 -5.5 -12.5t-13.5 -5.5t-13.5 5.5t-5.5 12.5zM154 44q0 7 5.5 12.5t13.5 5.5t13.5 -5.5t5.5 -12.5q0 -8 -5.5 -13.5t-13.5 -5.5t-13.5 5.5t-5.5 13.5zM152 -21 q0 7 5.5 12.5t13.5 5.5t13.5 -5.5t5.5 -12.5q0 -8 -5.5 -13.5t-13.5 -5.5t-13.5 5.5t-5.5 13.5zM134 -84q0 7 5.5 12.5t13.5 5.5t13.5 -5.5t5.5 -12.5q0 -8 -5.5 -13.5t-13.5 -5.5t-13.5 5.5t-5.5 13.5zM246 260q-8 0 -13.5 5t-5.5 13q0 19 19 19q8 0 13.5 -5.5t5.5 -13.5 q0 -7 -5.5 -12.5t-13.5 -5.5z" />
<glyph unicode="~" horiz-adv-x="421" d="M383 292q7 0 12.5 5.5t5.5 13.5t-5.5 13.5t-12.5 5.5q-8 0 -13.5 -5.5t-5.5 -13.5t5.5 -13.5t13.5 -5.5zM352 273q0 -8 -5.5 -13.5t-13.5 -5.5q-7 0 -12.5 5.5t-5.5 13.5t5.5 13.5t12.5 5.5q8 0 13.5 -5.5t5.5 -13.5zM287 262q0 -8 -5.5 -13.5t-13.5 -5.5t-13.5 5.5 t-5.5 13.5t5.5 13.5t13.5 5.5t13.5 -5.5t5.5 -13.5zM229 292q0 -19 -19 -19q-8 0 -13 5.5t-5 13.5t5 13t13 5t13.5 -5t5.5 -13zM171 317q0 -8 -5 -13.5t-13 -5.5q-19 0 -19 19q0 8 5.5 13t13.5 5q7 0 12.5 -5.5t5.5 -12.5zM109 301q0 -7 -5.5 -12.5t-13.5 -5.5t-13.5 5.5 t-5.5 12.5q0 8 5.5 13.5t13.5 5.5t13.5 -5.5t5.5 -13.5zM57 267q0 -19 -19 -19q-8 0 -13 5.5t-5 13.5q0 7 5 12.5t13 5.5t13.5 -5t5.5 -13z" />
<glyph unicode="&#xa1;" horiz-adv-x="158" d="M79 493q8 0 13.5 -5.5t5.5 -12.5q0 -8 -5.5 -13.5t-13.5 -5.5t-13.5 5.5t-5.5 13.5q0 7 5.5 12.5t13.5 5.5zM60 278q0 8 5.5 13.5t13.5 5.5t13.5 -5.5t5.5 -13.5q0 -7 -5.5 -12.5t-13.5 -5.5t-13.5 5.5t-5.5 12.5zM60 213q0 7 6 13t13 6t13 -6t6 -13t-6 -13t-13 -6t-13 6 t-6 13zM60 147q0 8 5.5 13.5t13.5 5.5t13.5 -5.5t5.5 -13.5q0 -7 -5.5 -12.5t-13.5 -5.5t-13.5 5.5t-5.5 12.5zM60 82q0 8 6 13.5t13 5.5t13 -5.5t6 -13.5t-6 -13.5t-13 -5.5t-13 5.5t-6 13.5zM60 16q0 8 5.5 13.5t13.5 5.5t13.5 -5.5t5.5 -13.5q0 -7 -5.5 -12.5t-13.5 -5.5 t-13.5 5.5t-5.5 12.5zM60 -49q0 7 6 13t13 6t13 -6t6 -13t-6 -13t-13 -6t-13 6t-6 13zM60 -114q0 7 5.5 12.5t13.5 5.5t13.5 -5.5t5.5 -12.5q0 -8 -5.5 -13.5t-13.5 -5.5t-13.5 5.5t-5.5 13.5zM60 -180q0 8 6 13.5t13 5.5t13 -5.5t6 -13.5t-6 -13.5t-13 -5.5t-13 5.5 t-6 13.5z" />
<glyph unicode="&#xa2;" horiz-adv-x="403" d="M207 455q7 0 13 5.5t6 13.5t-6 13.5t-13 5.5t-13 -5.5t-6 -13.5t6 -13.5t13 -5.5zM163 448q0 -8 -5.5 -13.5t-13.5 -5.5t-13.5 5.5t-5.5 13.5t5.5 13.5t13.5 5.5t13.5 -5.5t5.5 -13.5zM117 400q0 -8 -5.5 -13.5t-12.5 -5.5q-8 0 -13.5 5.5t-5.5 13.5t5.5 13.5t13.5 5.5 q7 0 12.5 -5.5t5.5 -13.5zM78 277q0 -7 -6 -13t-13 -6t-13 6t-6 13t6 13t13 6t13 -6t6 -13zM89 340q0 -8 -5.5 -13.5t-12.5 -5.5q-8 0 -13.5 5.5t-5.5 13.5t5.5 13.5t13.5 5.5q7 0 12.5 -5.5t5.5 -13.5zM275 455q-8 0 -13.5 5.5t-5.5 13.5t5.5 13.5t13.5 5.5q7 0 12.5 -5.5 t5.5 -13.5t-5.5 -13.5t-12.5 -5.5zM340 439q-8 0 -13.5 5.5t-5.5 13.5q0 19 19 19q8 0 13 -5.5t5 -13.5t-5.5 -13.5t-12.5 -5.5zM207 34q8 0 13.5 -5.5t5.5 -13.5q0 -7 -5.5 -12.5t-13.5 -5.5t-13.5 5.5t-5.5 12.5q0 8 5.5 13.5t13.5 5.5zM144 60q8 0 13.5 -5.5t5.5 -13.5 q0 -7 -5.5 -12.5t-13.5 -5.5t-13.5 5.5t-5.5 12.5q0 8 5.5 13.5t13.5 5.5zM99 108q8 0 13 -5.5t5 -13.5q0 -7 -5.5 -12.5t-12.5 -5.5q-8 0 -13.5 5t-5.5 13q0 19 19 19zM59 231q8 0 13.5 -5.5t5.5 -13.5q0 -7 -5.5 -12.5t-13.5 -5.5t-13.5 5.5t-5.5 12.5q0 8 5.5 13.5 t13.5 5.5zM71 168q8 0 13 -5.5t5 -13.5q0 -7 -5.5 -12.5t-12.5 -5.5q-8 0 -13.5 5t-5.5 13q0 19 19 19zM256 15q0 19 19 19q8 0 13 -5.5t5 -13.5q0 -7 -5.5 -12.5t-12.5 -5.5q-8 0 -13.5 5t-5.5 13zM326 30q0 8 5 13.5t13 5.5q19 0 19 -19q0 -8 -5.5 -13t-13.5 -5t-13 5 t-5 13zM293 -116q0 -8 -5.5 -13t-12.5 -5q-8 0 -13.5 5t-5.5 13q0 19 19 19q8 0 13 -5.5t5 -13.5zM293 -50q0 -8 -5.5 -13.5t-12.5 -5.5q-8 0 -13.5 5.5t-5.5 13.5t5.5 13.5t13.5 5.5q7 0 12.5 -5.5t5.5 -13.5zM293 539q0 -8 -5.5 -13.5t-12.5 -5.5q-8 0 -13.5 5.5 t-5.5 13.5t5.5 13.5t13.5 5.5q7 0 12.5 -5.5t5.5 -13.5zM293 604q0 -8 -5.5 -13t-12.5 -5q-8 0 -13.5 5t-5.5 13q0 19 19 19q8 0 13 -5.5t5 -13.5zM293 -116q0 -8 -5.5 -13t-12.5 -5q-8 0 -13.5 5t-5.5 13q0 19 19 19q8 0 13 -5.5t5 -13.5z" />
<glyph unicode="&#xa3;" horiz-adv-x="405" d="M124 -3q8 0 13.5 5.5t5.5 12.5q0 8 -5.5 13.5t-13.5 5.5t-13.5 -5.5t-5.5 -13.5q0 -7 5.5 -12.5t13.5 -5.5zM111 77q0 -8 -5.5 -13.5t-13.5 -5.5t-13.5 5.5t-5.5 13.5q0 7 5.5 12.5t13.5 5.5t13.5 -5.5t5.5 -12.5zM134 140q0 -8 -5.5 -13t-13.5 -5q-7 0 -12.5 5t-5.5 13 t5 13.5t13 5.5q19 0 19 -19zM143 212q0 -8 -5.5 -13.5t-13.5 -5.5t-13.5 5.5t-5.5 13.5q0 7 5.5 12.5t13.5 5.5t13.5 -5.5t5.5 -12.5zM143 277q0 -7 -5.5 -13t-13.5 -6t-13.5 6t-5.5 13t5.5 13t13.5 6t13.5 -6t5.5 -13zM143 343q0 -8 -5.5 -13.5t-13.5 -5.5t-13.5 5.5 t-5.5 13.5q0 7 5.5 12.5t13.5 5.5t13.5 -5.5t5.5 -12.5zM143 408q0 -8 -5.5 -13.5t-13.5 -5.5t-13.5 5.5t-5.5 13.5t5.5 13.5t13.5 5.5t13.5 -5.5t5.5 -13.5zM143 474q0 -8 -5.5 -13.5t-13.5 -5.5t-13.5 5.5t-5.5 13.5q0 7 5.5 12.5t13.5 5.5t13.5 -5.5t5.5 -12.5zM145 537 q0 -7 -5.5 -13t-13.5 -6t-13.5 5.5t-5.5 13.5t5.5 13.5t13.5 5.5t13.5 -6t5.5 -13zM163 599q0 -8 -5 -13.5t-13 -5.5q-19 0 -19 19q0 8 5.5 13t13.5 5q7 0 12.5 -5.5t5.5 -12.5zM206 650q0 -7 -5.5 -12.5t-13.5 -5.5t-13.5 5.5t-5.5 12.5q0 8 5.5 13.5t13.5 5.5t13.5 -5.5 t5.5 -13.5zM270 671q0 -8 -5.5 -13.5t-13.5 -5.5q-7 0 -12.5 5.5t-5.5 13.5t5.5 13.5t12.5 5.5q8 0 13.5 -5.5t5.5 -13.5zM339 670q0 -8 -5.5 -13.5t-13.5 -5.5t-13.5 5.5t-5.5 13.5t5.5 13.5t13.5 5.5t13.5 -5.5t5.5 -13.5zM405 15q0 -7 -5.5 -12.5t-13.5 -5.5t-13.5 5.5 t-5.5 12.5q0 8 5.5 13.5t13.5 5.5t13.5 -5.5t5.5 -13.5zM339 15q0 -7 -5.5 -12.5t-12.5 -5.5q-8 0 -13.5 5t-5.5 13q0 19 19 19q8 0 13 -5.5t5 -13.5zM274 15q0 -7 -5.5 -12.5t-13.5 -5.5t-13.5 5.5t-5.5 12.5q0 8 5.5 13.5t13.5 5.5t13.5 -5.5t5.5 -13.5zM208 15 q0 -7 -5 -12.5t-13 -5.5t-13.5 5t-5.5 13q0 19 19 19q8 0 13 -5.5t5 -13.5zM77 15q0 -7 -5.5 -12.5t-12.5 -5.5q-8 0 -13.5 5t-5.5 13q0 19 19 19q8 0 13 -5.5t5 -13.5zM339 408q0 -8 -5 -13.5t-13 -5.5q-19 0 -19 19q0 8 5.5 13t13.5 5q7 0 12.5 -5t5.5 -13zM274 408 q0 -8 -5.5 -13.5t-13.5 -5.5t-13.5 5.5t-5.5 13.5q0 7 5.5 12.5t13.5 5.5t13.5 -5.5t5.5 -12.5zM208 408q0 -8 -5 -13.5t-13 -5.5q-19 0 -19 19q0 8 5.5 13t13.5 5t13 -5t5 -13zM77 408q0 -8 -5 -13.5t-13 -5.5q-19 0 -19 19q0 8 5.5 13t13.5 5q7 0 12.5 -5t5.5 -13z M339 277q0 -8 -5.5 -13.5t-12.5 -5.5q-8 0 -13.5 5.5t-5.5 13.5t5.5 13.5t13.5 5.5q7 0 12.5 -5.5t5.5 -13.5zM274 277q0 -7 -6 -13t-13 -6t-13 6t-6 13t6 13t13 6t13 -6t6 -13zM208 277q0 -8 -5.5 -13.5t-12.5 -5.5q-8 0 -13.5 5.5t-5.5 13.5t5.5 13.5t13.5 5.5 q7 0 12.5 -5.5t5.5 -13.5zM77 277q0 -8 -5.5 -13.5t-12.5 -5.5q-8 0 -13.5 5.5t-5.5 13.5t5.5 13.5t13.5 5.5q7 0 12.5 -5.5t5.5 -13.5z" />
<glyph unicode="&#xa4;" horiz-adv-x="450" d="M352 260q8 0 13 5t5 13t-5 13.5t-13 5.5q-19 0 -19 -19q0 -8 5.5 -13t13.5 -5zM309 388q0 -8 -5.5 -13.5t-12.5 -5.5q-8 0 -13.5 5.5t-5.5 13.5t5.5 13.5t13.5 5.5q7 0 12.5 -5.5t5.5 -13.5zM353 342q0 -8 -5 -13.5t-13 -5.5q-19 0 -19 19q0 8 5.5 13t13.5 5q7 0 12.5 -5 t5.5 -13zM410 374q0 -7 -5.5 -12.5t-13.5 -5.5t-13.5 5.5t-5.5 12.5q0 8 5.5 13.5t13.5 5.5t13.5 -5.5t5.5 -13.5zM98 260q-8 0 -13.5 5t-5.5 13q0 19 19 19q8 0 13 -5.5t5 -13.5t-5 -13t-13 -5zM161 370q-8 0 -13.5 5.5t-5.5 12.5q0 8 5.5 13.5t13.5 5.5q19 0 19 -19 q0 -8 -5.5 -13t-13.5 -5zM115 323q-19 0 -19 19q0 8 5.5 13t13.5 5t13.5 -5.5t5.5 -12.5q0 -8 -5.5 -13.5t-13.5 -5.5zM58 356q-8 0 -13 5.5t-5 13.5q0 7 5 12.5t13 5.5t13.5 -5t5.5 -13q0 -19 -19 -19zM243 405q0 -7 -5.5 -12.5t-12.5 -5.5q-8 0 -13.5 5t-5.5 13 q0 19 19 19q8 0 13 -5.5t5 -13.5zM288 187q8 0 13 -5.5t5 -13.5t-5 -13t-13 -5t-13.5 5t-5.5 13q0 19 19 19zM335 233q7 0 12.5 -5.5t5.5 -12.5q0 -8 -5 -13.5t-13 -5.5q-19 0 -19 19q0 8 5.5 13t13.5 5zM391 201q7 0 13 -5.5t6 -13.5t-6 -13.5t-13 -5.5t-13 5.5t-6 13.5 t6 13.5t13 5.5zM143 169q0 7 5.5 12.5t12.5 5.5q8 0 13.5 -5t5.5 -13q0 -19 -19 -19q-8 0 -13 5.5t-5 13.5zM96 215q0 8 5.5 13.5t13.5 5.5q7 0 13 -6t6 -13t-6 -13t-13 -6q-8 0 -13.5 5.5t-5.5 13.5zM40 182q0 8 5 13.5t13 5.5q19 0 19 -19q0 -8 -5.5 -13t-13.5 -5t-13 5 t-5 13zM225 170q7 0 12.5 -5t5.5 -13t-5 -13.5t-13 -5.5q-19 0 -19 19q0 8 5.5 13t13.5 5z" />
<glyph unicode="&#xa5;" horiz-adv-x="508" d="M403 147q0 -7 -5.5 -12.5t-12.5 -5.5q-8 0 -13.5 5t-5.5 13q0 19 19 19q8 0 13 -5.5t5 -13.5zM403 278q0 -8 -5.5 -13t-12.5 -5q-8 0 -13.5 5t-5.5 13q0 19 19 19q8 0 13 -5.5t5 -13.5zM338 147q0 -8 -5.5 -13t-13.5 -5q-7 0 -12.5 5.5t-5.5 12.5q0 8 5 13.5t13 5.5 q19 0 19 -19zM338 278q0 -8 -5.5 -13t-13.5 -5q-7 0 -12.5 5t-5.5 13t5 13.5t13 5.5q19 0 19 -19zM19 652q-7 0 -13 6t-6 13t6 13t13 6t13 -6t6 -13t-6 -13t-13 -6zM86 540q-8 0 -13.5 5.5t-5.5 13.5q0 7 5.5 13t13.5 6t13.5 -5.5t5.5 -13.5q0 -19 -19 -19zM53 596 q-8 0 -13.5 5.5t-5.5 13.5t5.5 13.5t13.5 5.5q7 0 12.5 -5.5t5.5 -13.5t-5.5 -13.5t-12.5 -5.5zM221 315q-8 0 -13.5 5.5t-5.5 13.5t5.5 13.5t13.5 5.5q7 0 12.5 -5.5t5.5 -13.5t-5.5 -13.5t-12.5 -5.5zM187 372q-8 0 -13.5 5.5t-5.5 12.5q0 8 5.5 13.5t13.5 5.5t13.5 -5.5 t5.5 -13.5q0 -7 -5.5 -12.5t-13.5 -5.5zM153 428q-7 0 -12.5 5t-5.5 13t5 13.5t13 5.5q19 0 19 -19q0 -8 -5.5 -13t-13.5 -5zM120 484q-19 0 -19 19q0 8 5.5 13t13.5 5t13 -5.5t5 -12.5q0 -8 -5 -13.5t-13 -5.5zM508 671q0 -8 -5.5 -13.5t-12.5 -5.5q-8 0 -13.5 5.5 t-5.5 13.5t5.5 13.5t13.5 5.5q7 0 12.5 -5.5t5.5 -13.5zM441 559q0 -19 -19 -19q-8 0 -13 5.5t-5 13.5t5.5 13.5t12.5 5.5q8 0 13.5 -5.5t5.5 -13.5zM475 615q0 -7 -5.5 -13t-13.5 -6t-13.5 6t-5.5 13t5.5 13t13.5 6t13.5 -6t5.5 -13zM307 334q0 -8 -5.5 -13.5t-13.5 -5.5 t-13.5 5.5t-5.5 13.5t5.5 13.5t13.5 5.5t13.5 -5.5t5.5 -13.5zM340 390q0 -8 -5.5 -13t-13.5 -5q-7 0 -12.5 5t-5.5 13t5 13.5t13 5.5q19 0 19 -19zM374 446q0 -7 -5.5 -12.5t-13.5 -5.5t-13.5 5.5t-5.5 12.5q0 8 5.5 13.5t13.5 5.5t13.5 -5.5t5.5 -13.5zM407 503 q0 -8 -5 -13.5t-13 -5.5q-19 0 -19 19q0 8 5.5 13t13.5 5q7 0 12.5 -5.5t5.5 -12.5zM272 16q0 -8 -5 -13t-13 -5t-13.5 5t-5.5 13q0 19 19 19q8 0 13 -5.5t5 -13.5zM272 82q0 -8 -5.5 -13.5t-12.5 -5.5q-8 0 -13.5 5.5t-5.5 13.5t5.5 13.5t13.5 5.5q7 0 12.5 -5.5t5.5 -13.5 zM272 147q0 -7 -5 -12.5t-13 -5.5t-13.5 5t-5.5 13q0 19 19 19q8 0 13 -5.5t5 -13.5zM272 213q0 -8 -5 -13.5t-13 -5.5q-19 0 -19 19q0 8 5.5 13t13.5 5t13 -5.5t5 -12.5zM273 278q0 -8 -5.5 -13t-13.5 -5t-13 5t-5 13t5 13.5t13 5.5q19 0 19 -19zM207 147q0 -8 -5.5 -13 t-13.5 -5t-13 5.5t-5 12.5q0 8 5 13.5t13 5.5q19 0 19 -19zM207 278q0 -8 -5.5 -13t-13.5 -5t-13 5t-5 13t5 13.5t13 5.5q19 0 19 -19zM142 147q0 -7 -5.5 -12.5t-13.5 -5.5t-13.5 5.5t-5.5 12.5q0 8 5.5 13.5t13.5 5.5t13.5 -5.5t5.5 -13.5zM142 278q0 -7 -5.5 -12.5 t-13.5 -5.5t-13.5 5.5t-5.5 12.5q0 8 5.5 13.5t13.5 5.5t13.5 -5.5t5.5 -13.5z" />
<glyph unicode="&#xa6;" horiz-adv-x="198" d="M99 -3q8 0 13.5 5.5t5.5 12.5q0 8 -5.5 13.5t-13.5 5.5t-13.5 -5.5t-5.5 -13.5q0 -7 5.5 -12.5t13.5 -5.5zM118 81q0 -7 -6 -13t-13 -6t-13 6t-6 13t6 13t13 6t13 -6t6 -13zM118 146q0 -7 -5.5 -12.5t-13.5 -5.5t-13.5 5.5t-5.5 12.5q0 8 5.5 13.5t13.5 5.5t13.5 -5.5 t5.5 -13.5zM118 212q0 -8 -5.5 -13.5t-13.5 -5.5t-13.5 5.5t-5.5 13.5t6 13.5t13 5.5t13 -5.5t6 -13.5zM118 474q0 -8 -5.5 -13.5t-13.5 -5.5t-13.5 5.5t-5.5 13.5q0 7 5.5 12.5t13.5 5.5t13.5 -5.5t5.5 -12.5zM118 539q0 -7 -6 -13t-13 -6t-13 6t-6 13t6 13t13 6t13 -6 t6 -13zM118 605q0 -8 -5.5 -13.5t-13.5 -5.5t-13.5 5.5t-5.5 13.5q0 7 5.5 12.5t13.5 5.5t13.5 -5.5t5.5 -12.5zM118 670q0 -8 -6 -13.5t-13 -5.5t-13 5.5t-6 13.5t6 13.5t13 5.5t13 -5.5t6 -13.5z" />
<glyph unicode="&#xa7;" horiz-adv-x="369" d="M311 298q8 0 13 5.5t5 13.5q0 7 -5.5 12.5t-12.5 5.5q-8 0 -13.5 -5t-5.5 -13q0 -19 19 -19zM293 235q8 0 13.5 5t5.5 13q0 19 -19 19q-8 0 -13.5 -5.5t-5.5 -13.5q0 -7 5.5 -12.5t13.5 -5.5zM309 383q0 -8 -5.5 -13.5t-12.5 -5.5q-8 0 -13.5 5.5t-5.5 13.5t5.5 13.5 t13.5 5.5q7 0 12.5 -5.5t5.5 -13.5zM329 644q0 -8 -5.5 -13.5t-12.5 -5.5q-8 0 -13.5 5.5t-5.5 13.5t5.5 13.5t13.5 5.5q7 0 12.5 -5.5t5.5 -13.5zM261 427q0 -8 -5.5 -13t-13.5 -5t-13 5.5t-5 12.5q0 8 5 13.5t13 5.5q19 0 19 -19zM266 664q0 -8 -5.5 -13.5t-13.5 -5.5 t-13.5 5.5t-5.5 13.5t6 13.5t13 5.5t13 -5.5t6 -13.5zM197 457q0 -19 -19 -19q-8 0 -13 5.5t-5 13.5t5.5 13.5t12.5 5.5q8 0 13.5 -5.5t5.5 -13.5zM200 670q0 -8 -5.5 -13.5t-12.5 -5.5q-8 0 -13.5 5.5t-5.5 13.5t5.5 13.5t13.5 5.5q7 0 12.5 -5.5t5.5 -13.5zM134 489 q0 -8 -5.5 -13.5t-13.5 -5.5q-7 0 -12.5 5.5t-5.5 13.5t5.5 13.5t12.5 5.5q8 0 13.5 -5.5t5.5 -13.5zM135 655q0 -7 -5.5 -12.5t-13.5 -5.5t-13.5 5.5t-5.5 12.5q0 8 5.5 13.5t13.5 5.5t13.5 -5.5t5.5 -13.5zM93 540q0 -8 -5.5 -13.5t-13.5 -5.5t-13.5 5.5t-5.5 13.5 q0 7 5.5 12.5t13.5 5.5t13.5 -5.5t5.5 -12.5zM92 605q0 -8 -5.5 -13.5t-12.5 -5.5q-8 0 -13.5 5.5t-5.5 13.5t5.5 13.5t13.5 5.5q7 0 12.5 -5.5t5.5 -13.5zM59 387q-8 0 -13.5 -5.5t-5.5 -12.5q0 -8 5.5 -13.5t13.5 -5.5t13.5 5.5t5.5 13.5q0 7 -5.5 12.5t-13.5 5.5zM77 451 q-8 0 -13.5 -5.5t-5.5 -13.5t5.5 -13.5t13.5 -5.5q7 0 12.5 5.5t5.5 13.5t-5.5 13.5t-12.5 5.5zM61 302q0 8 5 13.5t13 5.5q19 0 19 -19q0 -8 -5.5 -13t-13.5 -5q-7 0 -12.5 5t-5.5 13zM40 41q0 8 5.5 13.5t13.5 5.5t13.5 -5.5t5.5 -13.5q0 -7 -5.5 -12.5t-13.5 -5.5 t-13.5 5.5t-5.5 12.5zM109 258q0 8 5.5 13.5t12.5 5.5q8 0 13.5 -5.5t5.5 -13.5t-5.5 -13.5t-13.5 -5.5q-7 0 -12.5 5.5t-5.5 13.5zM104 21q0 19 19 19q8 0 13 -5.5t5 -13.5q0 -7 -5.5 -12.5t-12.5 -5.5q-8 0 -13.5 5t-5.5 13zM173 228q0 8 5 13.5t13 5.5q19 0 19 -19 q0 -8 -5.5 -13t-13.5 -5q-7 0 -12.5 5t-5.5 13zM169 15q0 8 5.5 13.5t13.5 5.5t13.5 -5.5t5.5 -13.5q0 -7 -5.5 -12.5t-13.5 -5.5t-13.5 5.5t-5.5 12.5zM236 196q0 8 5 13.5t13 5.5q19 0 19 -19q0 -8 -5.5 -13t-13.5 -5t-13 5t-5 13zM235 30q0 8 5.5 13.5t13.5 5.5 t13.5 -5.5t5.5 -13.5t-5.5 -13.5t-13.5 -5.5t-13.5 5.5t-5.5 13.5zM277 145q0 19 19 19q8 0 13 -5.5t5 -13.5q0 -7 -5 -12.5t-13 -5.5t-13.5 5t-5.5 13zM277 80q0 8 5.5 13.5t13.5 5.5t13.5 -5.5t5.5 -13.5t-5.5 -13.5t-13.5 -5.5t-13.5 5.5t-5.5 13.5z" />
<glyph unicode="&#xa8;" horiz-adv-x="190" d="M151 586q-7 0 -13 6t-6 13t6 13t13 6t13 -6t6 -13t-6 -13t-13 -6zM57 605q0 -8 -5.5 -13.5t-13.5 -5.5q-7 0 -12.5 5.5t-5.5 13.5t5.5 13.5t12.5 5.5q8 0 13.5 -5.5t5.5 -13.5z" />
<glyph unicode="&#xa9;" horiz-adv-x="798" d="M713 389q7 0 13 5.5t6 13.5t-6 13.5t-13 5.5t-13 -5.5t-6 -13.5t6 -13.5t13 -5.5zM714 468q0 -8 -5 -13t-13 -5t-13.5 5t-5.5 13q0 19 19 19q8 0 13 -5.5t5 -13.5zM685 524q0 -8 -5.5 -13t-12.5 -5q-8 0 -13.5 5t-5.5 13q0 19 19 19q8 0 13 -5.5t5 -13.5zM599 613 q0 -7 -5.5 -13t-13.5 -6t-13.5 6t-5.5 13t5.5 13t13.5 6t13.5 -6t5.5 -13zM646 573q0 -8 -5.5 -13t-13.5 -5q-7 0 -12.5 5.5t-5.5 12.5q0 8 5 13.5t13 5.5q19 0 19 -19zM546 643q0 -8 -5.5 -13.5t-13.5 -5.5q-7 0 -12.5 5.5t-5.5 13.5t5 13.5t13 5.5q19 0 19 -19zM483 663 q0 -8 -5.5 -13.5t-13.5 -5.5q-7 0 -12.5 5.5t-5.5 13.5t5.5 13.5t12.5 5.5q8 0 13.5 -5.5t5.5 -13.5zM417 670q0 -8 -5.5 -13.5t-13.5 -5.5t-13.5 5.5t-5.5 13.5t5.5 13.5t13.5 5.5t13.5 -5.5t5.5 -13.5zM84 389q-8 0 -13.5 5.5t-5.5 13.5t5.5 13.5t13.5 5.5q7 0 12.5 -5.5 t5.5 -13.5t-5.5 -13.5t-12.5 -5.5zM101 450q-8 0 -13.5 5t-5.5 13q0 19 19 19q8 0 13 -5.5t5 -13.5t-5.5 -13t-12.5 -5zM130 506q-8 0 -13.5 5t-5.5 13q0 19 19 19q8 0 13 -5.5t5 -13.5t-5 -13t-13 -5zM216 594q-7 0 -12.5 5.5t-5.5 13.5t5.5 13.5t12.5 5.5q8 0 13.5 -5.5 t5.5 -13.5t-5.5 -13.5t-13.5 -5.5zM169 555q-8 0 -13.5 5.5t-5.5 12.5q0 8 5.5 13.5t13.5 5.5t13.5 -5.5t5.5 -13.5q0 -7 -5.5 -12.5t-13.5 -5.5zM269 624q-7 0 -13 6t-6 13q0 8 5.5 13.5t13.5 5.5t13.5 -5.5t5.5 -13.5q0 -7 -6 -13t-13 -6zM332 644q-8 0 -13.5 6t-5.5 13 t5.5 13t13.5 6t13.5 -6t5.5 -13t-5.5 -13t-13.5 -6zM713 296q8 0 13.5 -5.5t5.5 -13.5q0 -7 -6 -13t-13 -6t-13 6t-6 13q0 8 5.5 13.5t13.5 5.5zM696 236q7 0 12.5 -5.5t5.5 -13.5t-5.5 -13.5t-12.5 -5.5q-8 0 -13.5 5.5t-5.5 13.5t5.5 13.5t13.5 5.5zM667 180 q7 0 12.5 -5.5t5.5 -13.5t-5.5 -13.5t-12.5 -5.5q-8 0 -13.5 5.5t-5.5 13.5t5.5 13.5t13.5 5.5zM580 91q8 0 13.5 -5.5t5.5 -13.5q0 -7 -5.5 -12.5t-13.5 -5.5t-13.5 5.5t-5.5 12.5q0 8 5.5 13.5t13.5 5.5zM627 131q8 0 13.5 -5.5t5.5 -13.5t-5.5 -13.5t-13.5 -5.5 q-7 0 -12.5 5.5t-5.5 13.5t5.5 13.5t12.5 5.5zM527 61q8 0 13.5 -5.5t5.5 -13.5t-5.5 -13.5t-13.5 -5.5q-7 0 -12.5 5.5t-5.5 13.5t5.5 13.5t12.5 5.5zM464 41q19 0 19 -19q0 -8 -5.5 -13t-13.5 -5t-13 5t-5 13t5 13.5t13 5.5zM398 34q19 0 19 -19q0 -8 -5.5 -13t-13.5 -5 t-13.5 5.5t-5.5 12.5q0 8 5.5 13.5t13.5 5.5zM65 277q0 19 19 19q8 0 13 -5.5t5 -13.5t-5.5 -13.5t-12.5 -5.5q-8 0 -13.5 5.5t-5.5 13.5zM60 343q0 7 5 12.5t13 5.5t13.5 -5t5.5 -13q0 -19 -19 -19q-8 0 -13 5.5t-5 13.5zM700 343q0 7 5.5 12.5t13.5 5.5t13.5 -5.5 t5.5 -12.5q0 -8 -5.5 -13.5t-13.5 -5.5t-13.5 5.5t-5.5 13.5zM82 217q0 8 5.5 13.5t13.5 5.5q7 0 12.5 -5.5t5.5 -13.5t-5.5 -13.5t-12.5 -5.5q-8 0 -13.5 5.5t-5.5 13.5zM111 161q0 8 5.5 13.5t13.5 5.5q7 0 12.5 -5.5t5.5 -13.5t-5.5 -13.5t-12.5 -5.5q-8 0 -13.5 5.5 t-5.5 13.5zM198 72q0 8 5 13.5t13 5.5q19 0 19 -19q0 -8 -5.5 -13t-13.5 -5t-13 5t-5 13zM150 112q0 8 6 13.5t13 5.5t13 -5.5t6 -13.5t-6 -13.5t-13 -5.5t-13 5.5t-6 13.5zM250 42q0 8 6 13.5t13 5.5t13 -5.5t6 -13.5t-6 -13.5t-13 -5.5t-13 5.5t-6 13.5zM313 22 q0 8 5.5 13.5t13.5 5.5t13.5 -5.5t5.5 -13.5q0 -7 -5.5 -12.5t-13.5 -5.5t-13.5 5.5t-5.5 12.5zM536 167q0 -7 -6 -13t-13 -6t-13 6t-6 13t6 13t13 6t13 -6t6 -13zM515 499q8 0 13.5 5.5t5.5 13.5q0 7 -5.5 12.5t-13.5 5.5t-13.5 -5.5t-5.5 -12.5q0 -8 5.5 -13.5t13.5 -5.5z M454 128q8 0 13 5t5 13t-5 13.5t-13 5.5q-19 0 -19 -19q0 -8 5.5 -13t13.5 -5zM454 520q7 0 12.5 5.5t5.5 13.5t-5.5 13.5t-12.5 5.5q-8 0 -13.5 -5.5t-5.5 -13.5t5.5 -13.5t13.5 -5.5zM388 128q8 0 13.5 5.5t5.5 12.5q0 8 -5.5 13.5t-13.5 5.5t-13.5 -5.5t-5.5 -13.5 q0 -7 5.5 -12.5t13.5 -5.5zM388 520q8 0 13.5 6t5.5 13t-5.5 13t-13.5 6t-13.5 -6t-5.5 -13t5.5 -13t13.5 -6zM327 150q7 0 13 6t6 13t-6 13t-13 6t-13 -6t-6 -13t6 -13t13 -6zM328 495q7 0 12.5 5.5t5.5 13.5t-5 13.5t-13 5.5q-19 0 -19 -19q0 -8 5.5 -13.5t13.5 -5.5z M284 200q19 0 19 19q0 8 -5.5 13t-13.5 5t-13 -5.5t-5 -12.5q0 -8 5 -13.5t13 -5.5zM263 261q8 0 13.5 5.5t5.5 12.5q0 8 -5.5 13.5t-13.5 5.5t-13.5 -5.5t-5.5 -13.5q0 -7 5.5 -12.5t13.5 -5.5zM257 324q19 0 19 19q0 8 -5.5 13t-13.5 5t-13.5 -5.5t-5.5 -12.5 q0 -8 5.5 -13.5t13.5 -5.5zM261 389q8 0 13.5 5.5t5.5 13.5q0 19 -19 19q-8 0 -13 -5.5t-5 -13.5t5.5 -13.5t12.5 -5.5zM283 447q8 0 13.5 5.5t5.5 13.5t-6 13.5t-13 5.5q-8 0 -13.5 -5.5t-5.5 -13.5q0 -19 19 -19z" />
<glyph unicode="&#xaa;" horiz-adv-x="283" d="M225 389q7 0 12.5 5.5t5.5 12.5q0 8 -5 13.5t-13 5.5q-19 0 -19 -19q0 -8 5.5 -13t13.5 -5zM243 473q0 -8 -5 -13.5t-13 -5.5q-19 0 -19 19q0 8 5.5 13t13.5 5q7 0 12.5 -5.5t5.5 -12.5zM243 538q0 -8 -5.5 -13t-12.5 -5q-8 0 -13.5 5t-5.5 13q0 19 19 19q8 0 13 -5.5 t5 -13.5zM243 603q0 -8 -5.5 -13.5t-12.5 -5.5q-8 0 -13.5 5.5t-5.5 13.5t5.5 13.5t13.5 5.5q7 0 12.5 -5.5t5.5 -13.5zM214 659q0 -7 -5.5 -12.5t-13.5 -5.5t-13.5 5.5t-5.5 12.5q0 8 5.5 13.5t13.5 5.5t13.5 -5.5t5.5 -13.5zM178 407q0 -7 -5.5 -12.5t-13.5 -5.5 t-13.5 5.5t-5.5 12.5q0 8 5.5 13.5t13.5 5.5t13.5 -5.5t5.5 -13.5zM178 538q0 -7 -5.5 -12.5t-13.5 -5.5t-13.5 5.5t-5.5 12.5q0 8 5.5 13.5t13.5 5.5t13.5 -5.5t5.5 -13.5zM150 671q0 -8 -5.5 -13.5t-12.5 -5.5q-8 0 -13.5 5.5t-5.5 13.5t5.5 13.5t13.5 5.5q7 0 12.5 -5.5 t5.5 -13.5zM112 415q0 -8 -5.5 -13.5t-13.5 -5.5q-7 0 -12.5 5.5t-5.5 13.5t5.5 13.5t12.5 5.5q8 0 13.5 -5.5t5.5 -13.5zM109 529q0 -7 -5.5 -12.5t-13.5 -5.5t-13.5 5.5t-5.5 12.5q0 8 5.5 13.5t13.5 5.5t13.5 -5.5t5.5 -13.5zM88 657q0 -19 -19 -19q-8 0 -13 5.5t-5 13.5 q0 7 5.5 12.5t12.5 5.5q8 0 13.5 -5t5.5 -13zM77 473q0 -19 -19 -19q-8 0 -13 5.5t-5 13.5q0 7 5 12.5t13 5.5t13.5 -5t5.5 -13z" />
<glyph unicode="&#xab;" horiz-adv-x="340" d="M139 381q0 -7 -5.5 -13t-13.5 -6t-13.5 6t-5.5 13t5.5 13t13.5 6t13.5 -6t5.5 -13zM105 325q0 -19 -19 -19q-8 0 -13.5 5.5t-5.5 13.5q0 7 5.5 12.5t13.5 5.5t13.5 -5t5.5 -13zM72 269q0 -8 -5.5 -13.5t-13.5 -5.5t-13.5 5.5t-5.5 13.5q0 7 5.5 12.5t13.5 5.5t13.5 -5.5 t5.5 -12.5zM120 64q8 0 13.5 -6t5.5 -13t-5.5 -13t-13.5 -6t-13.5 6t-5.5 13t5.5 13t13.5 6zM86 120q8 0 13.5 -5.5t5.5 -13.5t-5.5 -13.5t-13.5 -5.5t-13.5 6t-5.5 13t5.5 13t13.5 6zM53 176q7 0 13 -6t6 -13t-6 -13t-13 -6t-13 6t-6 13t6 13t13 6zM0 213q0 7 5.5 12.5 t13.5 5.5t13.5 -5.5t5.5 -12.5q0 -8 -5.5 -13.5t-13.5 -5.5t-13.5 5.5t-5.5 13.5zM300 381q0 -7 -6 -13t-13 -6t-13 6t-6 13t6 13t13 6t13 -6t6 -13zM266 325q0 -19 -19 -19q-8 0 -13.5 5.5t-5.5 13.5q0 7 5.5 12.5t13.5 5.5t13.5 -5t5.5 -13zM233 269q0 -8 -5.5 -13.5 t-13.5 -5.5q-19 0 -19 19q0 8 5.5 13t13.5 5t13.5 -5.5t5.5 -12.5zM281 64q7 0 13 -6t6 -13t-6 -13t-13 -6t-13 6t-6 13t6 13t13 6zM247 120q8 0 13.5 -5.5t5.5 -13.5t-5.5 -13.5t-13.5 -5.5q-7 0 -13 6t-6 13t6 13t13 6zM214 176q8 0 13.5 -6t5.5 -13t-5.5 -13t-13.5 -6 t-13.5 5.5t-5.5 13.5t5.5 13.5t13.5 5.5zM199 213q0 -8 -5.5 -13.5t-13.5 -5.5t-13.5 5.5t-5.5 13.5q0 7 5.5 12.5t13.5 5.5t13.5 -5.5t5.5 -12.5z" />
<glyph unicode="&#xac;" horiz-adv-x="444" d="M386 194q8 0 13 5.5t5 13.5q0 7 -5 12.5t-13 5.5t-13.5 -5t-5.5 -13q0 -19 19 -19zM404 278q0 -8 -5 -13t-13 -5t-13.5 5t-5.5 13q0 19 19 19q8 0 13 -5.5t5 -13.5zM404 344q0 -8 -5 -13.5t-13 -5.5q-19 0 -19 19q0 8 5.5 13t13.5 5t13 -5t5 -13zM339 344q0 -19 -19 -19 q-8 0 -13 5.5t-5 13.5t5 13t13 5t13.5 -5t5.5 -13zM274 344q0 -8 -5.5 -13.5t-13.5 -5.5t-13.5 5.5t-5.5 13.5q0 7 5.5 12.5t13.5 5.5t13.5 -5.5t5.5 -12.5zM208 344q0 -19 -19 -19q-8 0 -13 5.5t-5 13.5t5.5 13t12.5 5q8 0 13.5 -5t5.5 -13zM143 344q0 -8 -5.5 -13.5 t-13.5 -5.5t-13.5 5.5t-5.5 13.5q0 7 5.5 12.5t13.5 5.5t13.5 -5.5t5.5 -12.5zM77 344q0 -19 -19 -19q-8 0 -13 5.5t-5 13.5t5 13t13 5t13.5 -5t5.5 -13z" />
<glyph unicode="&#xad;" horiz-adv-x="380" d="M340 275q0 -7 -6 -13t-13 -6t-13 6t-6 13t6 13t13 6t13 -6t6 -13zM274 275q0 -8 -5.5 -13.5t-13.5 -5.5q-7 0 -12.5 5.5t-5.5 13.5t5.5 13.5t12.5 5.5q8 0 13.5 -5.5t5.5 -13.5zM209 275q0 -7 -5.5 -13t-13.5 -6t-13.5 6t-5.5 13t5.5 13t13.5 6t13.5 -6t5.5 -13zM143 275 q0 -8 -5.5 -13.5t-12.5 -5.5q-8 0 -13.5 5.5t-5.5 13.5t5.5 13.5t13.5 5.5q7 0 12.5 -5.5t5.5 -13.5zM78 275q0 -7 -6 -13t-13 -6t-13 6t-6 13t6 13t13 6t13 -6t6 -13z" />
<glyph unicode="&#xae;" horiz-adv-x="798" d="M713 389q7 0 13 5.5t6 13.5t-6 13.5t-13 5.5t-13 -5.5t-6 -13.5t6 -13.5t13 -5.5zM715 468q0 -7 -5.5 -12.5t-13.5 -5.5t-13.5 5.5t-5.5 12.5q0 8 5.5 13.5t13.5 5.5t13.5 -5.5t5.5 -13.5zM686 524q0 -7 -5.5 -12.5t-13.5 -5.5t-13.5 5.5t-5.5 12.5q0 8 5.5 13.5 t13.5 5.5t13.5 -5.5t5.5 -13.5zM599 613q0 -8 -5.5 -13.5t-13.5 -5.5q-7 0 -12.5 5.5t-5.5 13.5t5.5 13.5t12.5 5.5q8 0 13.5 -5.5t5.5 -13.5zM646 573q0 -7 -5 -12.5t-13 -5.5t-13.5 5t-5.5 13q0 19 19 19q8 0 13 -5.5t5 -13.5zM546 643q0 -7 -5 -12.5t-13 -5.5t-13.5 5 t-5.5 13q0 19 19 19q8 0 13 -5.5t5 -13.5zM483 663q0 -8 -5.5 -13.5t-12.5 -5.5q-8 0 -13.5 5.5t-5.5 13.5t5.5 13.5t13.5 5.5q7 0 12.5 -5.5t5.5 -13.5zM417 670q0 -8 -5.5 -13.5t-13.5 -5.5q-7 0 -12.5 5.5t-5.5 13.5t5.5 13.5t12.5 5.5q8 0 13.5 -5.5t5.5 -13.5zM84 389 q-8 0 -13.5 5.5t-5.5 13.5t5.5 13.5t13.5 5.5t13.5 -5.5t5.5 -13.5t-5.5 -13.5t-13.5 -5.5zM101 450q-8 0 -13.5 5.5t-5.5 12.5q0 8 5.5 13.5t13.5 5.5t13.5 -5.5t5.5 -13.5q0 -7 -5.5 -12.5t-13.5 -5.5zM130 506q-8 0 -13.5 5.5t-5.5 12.5q0 8 5.5 13.5t13.5 5.5t13.5 -5.5 t5.5 -13.5q0 -7 -5.5 -12.5t-13.5 -5.5zM217 594q-8 0 -13.5 5.5t-5.5 13.5t5.5 13.5t13.5 5.5q7 0 12.5 -5.5t5.5 -13.5t-5.5 -13.5t-12.5 -5.5zM169 555q-7 0 -12.5 5.5t-5.5 12.5q0 8 5 13.5t13 5.5q19 0 19 -19q0 -8 -5.5 -13t-13.5 -5zM269 625q-7 0 -12.5 5.5 t-5.5 12.5q0 8 5 13.5t13 5.5q19 0 19 -19q0 -8 -5.5 -13t-13.5 -5zM332 644q-7 0 -12.5 5.5t-5.5 13.5t5.5 13.5t12.5 5.5q8 0 13.5 -5.5t5.5 -13.5t-5.5 -13.5t-13.5 -5.5zM713 296q8 0 13.5 -5.5t5.5 -13.5q0 -7 -6 -13t-13 -6t-13 6t-6 13q0 8 5.5 13.5t13.5 5.5z M696 236q8 0 13.5 -6t5.5 -13t-5.5 -13t-13.5 -6t-13.5 6t-5.5 13t5.5 13t13.5 6zM667 180q7 0 13 -6t6 -13t-6 -13t-13 -6t-13 6t-6 13t6 13t13 6zM580 91q19 0 19 -19q0 -8 -5.5 -13t-13.5 -5t-13 5t-5 13t5 13.5t13 5.5zM628 131q7 0 12.5 -5.5t5.5 -13.5t-5.5 -13.5 t-12.5 -5.5q-8 0 -13.5 5.5t-5.5 13.5t5.5 13.5t13.5 5.5zM528 61q7 0 12.5 -5.5t5.5 -13.5t-5.5 -13.5t-12.5 -5.5q-8 0 -13.5 5.5t-5.5 13.5t5.5 13.5t13.5 5.5zM465 41q8 0 13 -5.5t5 -13.5t-5.5 -13t-12.5 -5q-8 0 -13.5 5t-5.5 13q0 19 19 19zM398 34q19 0 19 -19 q0 -8 -5.5 -13t-13.5 -5t-13 5.5t-5 12.5q0 8 5 13.5t13 5.5zM65 277q0 19 19 19q8 0 13.5 -5.5t5.5 -13.5q0 -7 -5.5 -13t-13.5 -6t-13.5 5.5t-5.5 13.5zM60 343q0 8 5.5 13t13.5 5q7 0 12.5 -5.5t5.5 -12.5q0 -8 -5 -13.5t-13 -5.5q-19 0 -19 19zM701 343q0 7 5.5 12.5 t12.5 5.5q8 0 13.5 -5t5.5 -13q0 -19 -19 -19q-8 0 -13 5.5t-5 13.5zM82 217q0 7 6 13t13 6t13 -6t6 -13t-6 -13t-13 -6t-13 6t-6 13zM111 161q0 7 5.5 13t13.5 6t13.5 -6t5.5 -13t-5.5 -13t-13.5 -6t-13.5 6t-5.5 13zM198 72q0 19 19 19q8 0 13 -5.5t5 -13.5t-5.5 -13 t-12.5 -5q-8 0 -13.5 5t-5.5 13zM151 112q0 8 5.5 13.5t12.5 5.5q8 0 13.5 -5.5t5.5 -13.5t-5.5 -13.5t-13.5 -5.5q-7 0 -12.5 5.5t-5.5 13.5zM251 42q0 8 5.5 13.5t12.5 5.5q8 0 13.5 -5.5t5.5 -13.5t-5.5 -13.5t-13.5 -5.5q-7 0 -12.5 5.5t-5.5 13.5zM314 22q0 8 5 13.5 t13 5.5q19 0 19 -19q0 -8 -5.5 -13t-13.5 -5t-13 5t-5 13zM547 146q0 -7 -5.5 -12.5t-13.5 -5.5t-13.5 5.5t-5.5 12.5q0 8 5.5 13.5t13.5 5.5t13.5 -5.5t5.5 -13.5zM492 176q8 0 13.5 5.5t5.5 12.5q0 8 -5.5 13.5t-13.5 5.5t-13.5 -5.5t-5.5 -13.5q0 -7 5.5 -12.5t13.5 -5.5 zM457 224q7 0 12.5 5.5t5.5 13.5t-5.5 13.5t-12.5 5.5q-8 0 -13.5 -5.5t-5.5 -13.5t5.5 -13.5t13.5 -5.5zM502 362q8 0 13.5 5t5.5 13q0 19 -19 19q-8 0 -13 -5.5t-5 -13.5t5 -13t13 -5zM521 419q8 0 13 5.5t5 13.5t-5.5 13t-12.5 5q-8 0 -13.5 -5t-5.5 -13q0 -19 19 -19z M503 479q8 0 13.5 5.5t5.5 12.5q0 8 -5.5 13.5t-13.5 5.5t-13.5 -5.5t-5.5 -13.5q0 -7 5.5 -12.5t13.5 -5.5zM420 274q8 0 13.5 5t5.5 13q0 19 -19 19q-8 0 -13 -5.5t-5 -13.5t5 -13t13 -5zM447 330q8 0 13.5 5.5t5.5 13.5q0 7 -5.5 12.5t-13.5 5.5t-13.5 -5.5t-5.5 -12.5 q0 -8 5.5 -13.5t13.5 -5.5zM449 512q7 0 13 6t6 13t-6 13t-13 6t-13 -6t-6 -13t6 -13t13 -6zM384 324q8 0 13 5.5t5 13.5q0 7 -5 12.5t-13 5.5t-13.5 -5t-5.5 -13q0 -19 19 -19zM384 520q7 0 12.5 5.5t5.5 13.5t-5.5 13.5t-12.5 5.5q-8 0 -13.5 -5.5t-5.5 -13.5t5.5 -13.5 t13.5 -5.5zM318 128q8 0 13.5 5.5t5.5 12.5q0 8 -5.5 13.5t-13.5 5.5t-13.5 -5.5t-5.5 -13.5q0 -7 5.5 -12.5t13.5 -5.5zM318 193q8 0 13.5 5.5t5.5 13.5q0 7 -5.5 12.5t-13.5 5.5t-13.5 -5.5t-5.5 -12.5q0 -8 5.5 -13.5t13.5 -5.5zM318 259q8 0 13.5 5.5t5.5 12.5 q0 8 -5.5 13.5t-13.5 5.5t-13.5 -5.5t-5.5 -13.5q0 -7 5.5 -12.5t13.5 -5.5zM318 324q8 0 13.5 5.5t5.5 13.5q0 7 -5.5 12.5t-13.5 5.5t-13.5 -5.5t-5.5 -12.5q0 -8 5.5 -13.5t13.5 -5.5zM318 389q8 0 13.5 5.5t5.5 13.5t-5.5 13.5t-13.5 5.5t-13.5 -5.5t-5.5 -13.5 t5.5 -13.5t13.5 -5.5zM318 455q8 0 13.5 5.5t5.5 13.5q0 7 -5.5 12.5t-13.5 5.5t-13.5 -5.5t-5.5 -12.5q0 -8 5.5 -13.5t13.5 -5.5zM318 520q8 0 13.5 6t5.5 13t-5.5 13t-13.5 6t-13.5 -6t-5.5 -13t5.5 -13t13.5 -6z" />
<glyph unicode="&#xaf;" horiz-adv-x="209" d="M170 586q-8 0 -13.5 5.5t-5.5 13.5q0 7 5.5 12.5t13.5 5.5t13.5 -5.5t5.5 -12.5q0 -8 -5.5 -13.5t-13.5 -5.5zM123 605q0 -19 -19 -19q-8 0 -13 5.5t-5 13.5q0 7 5 12.5t13 5.5t13.5 -5t5.5 -13zM58 605q0 -8 -5.5 -13.5t-13.5 -5.5t-13.5 5.5t-5.5 13.5q0 7 5.5 12.5 t13.5 5.5t13.5 -5.5t5.5 -12.5z" />
<glyph unicode="&#xb0;" horiz-adv-x="227" d="M198 583q8 0 13.5 5.5t5.5 13.5t-5.5 13.5t-13.5 5.5q-7 0 -12.5 -5.5t-5.5 -13.5t5.5 -13.5t12.5 -5.5zM192 662q0 -8 -5.5 -13.5t-12.5 -5.5q-8 0 -13.5 5.5t-5.5 13.5t5.5 13.5t13.5 5.5q7 0 12.5 -5.5t5.5 -13.5zM10 602q0 -8 5.5 -13.5t13.5 -5.5q7 0 12.5 5.5 t5.5 13.5t-5.5 13.5t-12.5 5.5q-8 0 -13.5 -5.5t-5.5 -13.5zM54 643q-8 0 -13.5 5.5t-5.5 13.5q0 19 19 19q8 0 13 -5.5t5 -13.5t-5.5 -13.5t-12.5 -5.5zM132 687q0 -8 -5 -13.5t-13 -5.5q-19 0 -19 19q0 8 5.5 13t13.5 5t13 -5.5t5 -12.5zM174 561q8 0 13 -5.5t5 -13.5 t-5 -13t-13 -5t-13.5 5t-5.5 13q0 19 19 19zM35 542q0 8 5.5 13.5t13.5 5.5q7 0 12.5 -5.5t5.5 -13.5t-5.5 -13.5t-12.5 -5.5q-8 0 -13.5 5.5t-5.5 13.5zM114 536q8 0 13 -5.5t5 -13.5q0 -7 -5 -12.5t-13 -5.5t-13.5 5t-5.5 13q0 19 19 19z" />
<glyph unicode="&#xb1;" horiz-adv-x="510" d="M451 -2q8 0 13.5 5t5.5 13q0 19 -19 19q-8 0 -13 -5.5t-5 -13.5t5.5 -13t12.5 -5zM470 344q0 -19 -19 -19q-8 0 -13 5.5t-5 13.5t5.5 13t12.5 5q8 0 13.5 -5t5.5 -13zM405 16q0 -7 -5.5 -12.5t-13.5 -5.5t-13.5 5.5t-5.5 12.5q0 8 5.5 13.5t13.5 5.5t13.5 -5.5t5.5 -13.5 zM405 344q0 -8 -5.5 -13.5t-13.5 -5.5t-13.5 5.5t-5.5 13.5q0 7 5.5 12.5t13.5 5.5t13.5 -5.5t5.5 -12.5zM339 16q0 -8 -5.5 -13t-12.5 -5q-8 0 -13.5 5t-5.5 13q0 19 19 19q8 0 13 -5.5t5 -13.5zM339 344q0 -8 -5 -13.5t-13 -5.5q-19 0 -19 19q0 8 5.5 13t13.5 5 q7 0 12.5 -5t5.5 -13zM274 16q0 -7 -5.5 -12.5t-13.5 -5.5t-13.5 5.5t-5.5 12.5q0 8 5.5 13.5t13.5 5.5t13.5 -5.5t5.5 -13.5zM274 147q0 -7 -5.5 -12.5t-13.5 -5.5t-13.5 5.5t-5.5 12.5q0 8 5.5 13.5t13.5 5.5t13.5 -5.5t5.5 -13.5zM274 213q0 -8 -5.5 -13.5t-13.5 -5.5 t-13.5 5.5t-5.5 13.5q0 7 5.5 12.5t13.5 5.5t13.5 -5.5t5.5 -12.5zM274 278q0 -7 -5.5 -12.5t-13.5 -5.5t-13.5 5.5t-5.5 12.5q0 8 5.5 13.5t13.5 5.5t13.5 -5.5t5.5 -13.5zM274 344q0 -8 -5.5 -13.5t-13.5 -5.5t-13.5 5.5t-5.5 13.5q0 7 5.5 12.5t13.5 5.5t13.5 -5.5 t5.5 -12.5zM274 409q0 -7 -6 -13t-13 -6t-13 6t-6 13t6 13t13 6t13 -6t6 -13zM274 475q0 -8 -5.5 -13.5t-13.5 -5.5t-13.5 5.5t-5.5 13.5q0 7 5.5 12.5t13.5 5.5t13.5 -5.5t5.5 -12.5zM274 540q0 -8 -6 -13.5t-13 -5.5t-13 5.5t-6 13.5t6 13.5t13 5.5t13 -5.5t6 -13.5z M208 16q0 -8 -5 -13t-13 -5t-13.5 5t-5.5 13q0 19 19 19q8 0 13 -5.5t5 -13.5zM208 344q0 -8 -5 -13.5t-13 -5.5q-19 0 -19 19q0 8 5.5 13t13.5 5t13 -5t5 -13zM143 16q0 -7 -5.5 -12.5t-13.5 -5.5t-13.5 5.5t-5.5 12.5q0 8 5.5 13.5t13.5 5.5t13.5 -5.5t5.5 -13.5zM143 344 q0 -8 -5.5 -13.5t-13.5 -5.5t-13.5 5.5t-5.5 13.5q0 7 5.5 12.5t13.5 5.5t13.5 -5.5t5.5 -12.5zM77 16q0 -8 -5.5 -13t-12.5 -5q-8 0 -13.5 5t-5.5 13q0 19 19 19q8 0 13 -5.5t5 -13.5zM77 344q0 -8 -5 -13.5t-13 -5.5q-19 0 -19 19q0 8 5.5 13t13.5 5q7 0 12.5 -5t5.5 -13z " />
<glyph unicode="&#xb2;" horiz-adv-x="314" d="M255 324q8 0 13.5 5.5t5.5 13.5t-5.5 13.5t-13.5 5.5q-7 0 -12.5 -5.5t-5.5 -13.5t5.5 -13.5t12.5 -5.5zM209 343q0 -7 -5.5 -13t-13.5 -6t-13.5 6t-5.5 13t5.5 13t13.5 6t13.5 -6t5.5 -13zM172 448q0 -8 -5.5 -13.5t-13.5 -5.5t-13.5 5.5t-5.5 13.5q0 7 5.5 12.5 t13.5 5.5t13.5 -5.5t5.5 -12.5zM264 544q0 -19 -19 -19q-8 0 -13 5.5t-5 13.5t5.5 13t12.5 5q8 0 13.5 -5t5.5 -13zM221 492q0 -8 -5.5 -13.5t-12.5 -5.5q-8 0 -13.5 5.5t-5.5 13.5t5.5 13.5t13.5 5.5q7 0 12.5 -5.5t5.5 -13.5zM274 609q0 -8 -5.5 -13.5t-12.5 -5.5 q-8 0 -13.5 5.5t-5.5 13.5t5.5 13.5t13.5 5.5q7 0 12.5 -5.5t5.5 -13.5zM143 343q0 -8 -5.5 -13.5t-13.5 -5.5q-7 0 -12.5 5.5t-5.5 13.5t5.5 13.5t12.5 5.5q8 0 13.5 -5.5t5.5 -13.5zM124 400q0 -8 -5.5 -13.5t-13.5 -5.5t-13.5 5.5t-5.5 13.5t6 13.5t13 5.5t13 -5.5 t6 -13.5zM170 676q0 -19 -19 -19q-8 0 -13 5.5t-5 13.5t5.5 13t12.5 5q8 0 13.5 -5t5.5 -13zM236 663q0 -7 -6 -13t-13 -6t-13 6t-6 13t6 13t13 6t13 -6t6 -13zM78 343q0 -7 -6 -13t-13 -6t-13 6t-6 13t6 13t13 6t13 -6t6 -13zM104 656q0 -8 -5.5 -13.5t-13.5 -5.5 t-13.5 5.5t-5.5 13.5q0 7 5.5 12.5t13.5 5.5t13.5 -5.5t5.5 -12.5z" />
<glyph unicode="&#xb3;" horiz-adv-x="255" d="M179 360q8 0 13.5 5.5t5.5 13.5q0 7 -5.5 12.5t-13.5 5.5t-13.5 -5.5t-5.5 -12.5q0 -8 5.5 -13.5t13.5 -5.5zM215 438q0 -8 -5.5 -13.5t-12.5 -5.5q-8 0 -13.5 5.5t-5.5 13.5t5.5 13.5t13.5 5.5q7 0 12.5 -5.5t5.5 -13.5zM197 500q0 -8 -5.5 -13.5t-13.5 -5.5 q-7 0 -12.5 5.5t-5.5 13.5t5.5 13.5t12.5 5.5q8 0 13.5 -5.5t5.5 -13.5zM198 579q0 -19 -19 -19q-8 0 -13 5.5t-5 13.5q0 7 5.5 12.5t12.5 5.5q8 0 13.5 -5t5.5 -13zM203 640q0 -8 -5.5 -13.5t-13.5 -5.5t-13.5 5.5t-5.5 13.5q0 7 5.5 12.5t13.5 5.5t13.5 -5.5t5.5 -12.5z M144 343q0 -19 -19 -19q-8 0 -13.5 5.5t-5.5 13.5q0 7 5.5 12.5t13.5 5.5t13.5 -5t5.5 -13zM144 539q0 -8 -5.5 -13.5t-13.5 -5.5q-7 0 -13 6t-6 13t6 13t13 6q8 0 13.5 -5.5t5.5 -13.5zM144 670q0 -8 -5.5 -13.5t-13.5 -5.5q-7 0 -13 5.5t-6 13.5t6 13.5t13 5.5 q8 0 13.5 -5.5t5.5 -13.5zM77 351q0 -8 -5 -13.5t-13 -5.5q-19 0 -19 19q0 8 5.5 13t13.5 5q7 0 12.5 -5.5t5.5 -12.5zM78 539q0 -8 -5.5 -13.5t-12.5 -5.5q-8 0 -13.5 5.5t-5.5 13.5t5.5 13.5t13.5 5.5q7 0 12.5 -5.5t5.5 -13.5zM78 661q0 -8 -5 -13.5t-13 -5.5 q-19 0 -19 19q0 8 5.5 13t13.5 5t13 -5.5t5 -12.5z" />
<glyph unicode="&#xb4;" horiz-adv-x="200" d="M162 651q-8 0 -13.5 5.5t-5.5 13.5t5.5 13.5t13.5 5.5q7 0 12.5 -5.5t5.5 -13.5t-5.5 -13.5t-12.5 -5.5zM58 605q0 -8 -5.5 -13.5t-13.5 -5.5q-19 0 -19 19q0 8 5.5 13t13.5 5t13.5 -5.5t5.5 -12.5zM119 637q0 -8 -5.5 -13t-13.5 -5t-13 5.5t-5 12.5q0 8 5 13.5t13 5.5 q19 0 19 -19z" />
<glyph unicode="&#xb6;" horiz-adv-x="456" d="M356 -116q0 -7 -5.5 -12.5t-13.5 -5.5t-13.5 5.5t-5.5 12.5q0 8 5.5 13.5t13.5 5.5t13.5 -5.5t5.5 -13.5zM337 -69q-7 0 -13 5.5t-6 13.5t6 13.5t13 5.5t13 -5.5t6 -13.5t-6 -13.5t-13 -5.5zM337 -3q-8 0 -13.5 5.5t-5.5 12.5q0 8 5.5 13.5t13.5 5.5t13.5 -5.5t5.5 -13.5 q0 -7 -5.5 -12.5t-13.5 -5.5zM337 62q-8 0 -13.5 5.5t-5.5 13.5q0 7 6 13t13 6t13 -6t6 -13q0 -8 -5.5 -13.5t-13.5 -5.5zM337 128q-8 0 -13.5 5.5t-5.5 12.5q0 8 5.5 13.5t13.5 5.5t13.5 -5.5t5.5 -13.5q0 -7 -5.5 -12.5t-13.5 -5.5zM337 193q-8 0 -13.5 5.5t-5.5 13.5 q0 7 5.5 12.5t13.5 5.5t13.5 -5.5t5.5 -12.5q0 -8 -5.5 -13.5t-13.5 -5.5zM337 258q-7 0 -13 6t-6 13q0 8 5.5 13.5t13.5 5.5t13.5 -5.5t5.5 -13.5q0 -7 -6 -13t-13 -6zM337 324q-8 0 -13.5 5.5t-5.5 13.5q0 7 5.5 12.5t13.5 5.5t13.5 -5.5t5.5 -12.5q0 -8 -5.5 -13.5 t-13.5 -5.5zM337 389q-7 0 -13 5.5t-6 13.5t6 13.5t13 5.5t13 -5.5t6 -13.5t-6 -13.5t-13 -5.5zM337 455q-8 0 -13.5 5.5t-5.5 13.5q0 7 5.5 12.5t13.5 5.5t13.5 -5.5t5.5 -12.5q0 -8 -5.5 -13.5t-13.5 -5.5zM337 520q-7 0 -13 6t-6 13t6 13t13 6t13 -6t6 -13t-6 -13t-13 -6 zM337 586q-8 0 -13.5 5.5t-5.5 12.5q0 8 5.5 13.5t13.5 5.5t13.5 -5.5t5.5 -13.5q0 -7 -5.5 -12.5t-13.5 -5.5zM337 651q-7 0 -13 5.5t-6 13.5t6 13.5t13 5.5t13 -5.5t6 -13.5t-6 -13.5t-13 -5.5zM271 651q-7 0 -12.5 5.5t-5.5 13.5t5.5 13.5t12.5 5.5q8 0 13.5 -5.5 t5.5 -13.5t-5.5 -13.5t-13.5 -5.5zM206 -134q-8 0 -13.5 5.5t-5.5 12.5q0 8 5.5 13.5t13.5 5.5t13.5 -5.5t5.5 -13.5q0 -7 -5.5 -12.5t-13.5 -5.5zM206 -69q-8 0 -13.5 5.5t-5.5 13.5t5.5 13.5t13.5 5.5t13.5 -5.5t5.5 -13.5t-5.5 -13.5t-13.5 -5.5zM206 -3q-8 0 -13.5 5.5 t-5.5 12.5q0 8 5.5 13.5t13.5 5.5t13.5 -5.5t5.5 -13.5q0 -7 -5.5 -12.5t-13.5 -5.5zM206 62q-8 0 -13.5 5.5t-5.5 13.5q0 7 5.5 13t13.5 6t13.5 -6t5.5 -13q0 -8 -5.5 -13.5t-13.5 -5.5zM206 128q-8 0 -13.5 5.5t-5.5 12.5q0 8 5.5 13.5t13.5 5.5t13.5 -5.5t5.5 -13.5 q0 -7 -5.5 -12.5t-13.5 -5.5zM206 193q-8 0 -13.5 5.5t-5.5 13.5q0 7 5.5 12.5t13.5 5.5t13.5 -5.5t5.5 -12.5q0 -8 -5.5 -13.5t-13.5 -5.5zM206 258q-8 0 -13.5 6t-5.5 13q0 8 5.5 13.5t13.5 5.5t13.5 -5.5t5.5 -13.5q0 -7 -5.5 -13t-13.5 -6zM206 324q-8 0 -13.5 5.5 t-5.5 13.5q0 7 5.5 12.5t13.5 5.5t13.5 -5.5t5.5 -12.5q0 -8 -5.5 -13.5t-13.5 -5.5zM206 389q-8 0 -13.5 5.5t-5.5 13.5t5.5 13.5t13.5 5.5t13.5 -5.5t5.5 -13.5t-5.5 -13.5t-13.5 -5.5zM206 455q-8 0 -13.5 5.5t-5.5 13.5q0 7 5.5 12.5t13.5 5.5t13.5 -5.5t5.5 -12.5 q0 -8 -5.5 -13.5t-13.5 -5.5zM206 520q-8 0 -13.5 6t-5.5 13t5.5 13t13.5 6t13.5 -6t5.5 -13t-5.5 -13t-13.5 -6zM206 586q-8 0 -13.5 5.5t-5.5 12.5q0 8 5.5 13.5t13.5 5.5t13.5 -5.5t5.5 -13.5q0 -7 -5.5 -12.5t-13.5 -5.5zM206 651q-8 0 -13.5 5.5t-5.5 13.5t5.5 13.5 t13.5 5.5t13.5 -5.5t5.5 -13.5t-5.5 -13.5t-13.5 -5.5zM141 389q-8 0 -13.5 5.5t-5.5 13.5t5.5 13.5t13.5 5.5q7 0 12.5 -5.5t5.5 -13.5t-5.5 -13.5t-12.5 -5.5zM81 410q-8 0 -13.5 5.5t-5.5 13.5t5.5 13.5t13.5 5.5q7 0 12.5 -5.5t5.5 -13.5t-5.5 -13.5t-12.5 -5.5z M141 651q-8 0 -13.5 5.5t-5.5 13.5t5.5 13.5t13.5 5.5q7 0 12.5 -5.5t5.5 -13.5t-5.5 -13.5t-12.5 -5.5zM34 455q-19 0 -19 19q0 8 5.5 13t13.5 5t13 -5t5 -13t-5 -13.5t-13 -5.5zM19 520q-7 0 -13 6t-6 13t6 13t13 6t13 -6t6 -13t-6 -13t-13 -6zM35 586q-8 0 -13.5 5.5 t-5.5 12.5q0 8 5.5 13.5t13.5 5.5t13.5 -5.5t5.5 -13.5q0 -7 -5.5 -12.5t-13.5 -5.5zM78 635q-19 0 -19 19q0 8 5.5 13t13.5 5t13 -5t5 -13t-5 -13.5t-13 -5.5z" />
<glyph unicode="&#xb7;" horiz-adv-x="117" d="M77 278q0 -8 -5.5 -13t-13.5 -5t-13 5t-5 13t5 13.5t13 5.5q19 0 19 -19z" />
<glyph unicode="&#xb8;" horiz-adv-x="210" d="M136 -177q0 -8 -5.5 -13.5t-13.5 -5.5t-13.5 5.5t-5.5 13.5q0 7 5.5 12.5t13.5 5.5t13.5 -5.5t5.5 -12.5zM190 -128q0 -8 -5.5 -13.5t-13.5 -5.5t-13.5 5.5t-5.5 13.5q0 7 5.5 12.5t13.5 5.5t13.5 -5.5t5.5 -12.5zM166 -62q0 -8 -5.5 -13.5t-13.5 -5.5q-7 0 -12.5 5.5 t-5.5 13.5t5.5 13.5t12.5 5.5q8 0 13.5 -5.5t5.5 -13.5zM58 -180q0 -8 -6 -13.5t-13 -5.5t-13 5.5t-6 13.5t6 13.5t13 5.5t13 -5.5t6 -13.5zM95 -54q0 -8 -5.5 -13.5t-13.5 -5.5t-13.5 5.5t-5.5 13.5t5.5 13.5t13.5 5.5t13.5 -5.5t5.5 -13.5zM78 16q0 8 5 13.5t13 5.5 q19 0 19 -19q0 -8 -5.5 -13t-13.5 -5t-13 5t-5 13z" />
<glyph unicode="&#xb9;" horiz-adv-x="248" d="M190 324q8 0 13 5.5t5 13.5q0 7 -5 12.5t-13 5.5t-13.5 -5t-5.5 -13q0 -19 19 -19zM143 343q0 -19 -19 -19q-8 0 -13.5 5.5t-5.5 13.5q0 7 5.5 12.5t13.5 5.5t13.5 -5t5.5 -13zM143 408q0 -8 -5.5 -13.5t-13.5 -5.5t-13.5 5.5t-5.5 13.5t5.5 13.5t13.5 5.5q19 0 19 -19z M143 474q0 -19 -19 -19q-8 0 -13.5 5.5t-5.5 13.5q0 7 5.5 12.5t13.5 5.5t13.5 -5t5.5 -13zM143 539q0 -8 -5.5 -13.5t-13.5 -5.5t-13.5 6t-5.5 13t5.5 13t13.5 6t13.5 -5.5t5.5 -13.5zM143 605q0 -19 -19 -19q-8 0 -13.5 5.5t-5.5 13.5q0 7 5.5 12.5t13.5 5.5t13.5 -5 t5.5 -13zM143 670q0 -8 -5.5 -13.5t-13.5 -5.5t-13.5 5.5t-5.5 13.5t5.5 13.5t13.5 5.5t13.5 -5.5t5.5 -13.5zM77 343q0 -8 -5 -13.5t-13 -5.5q-19 0 -19 19q0 8 5.5 13t13.5 5q7 0 12.5 -5.5t5.5 -12.5zM77 605q0 -8 -5 -13.5t-13 -5.5q-19 0 -19 19q0 8 5.5 13t13.5 5 q7 0 12.5 -5.5t5.5 -12.5z" />
<glyph unicode="&#xba;" horiz-adv-x="335" d="M59 521q-8 0 -13.5 5.5t-5.5 13.5t5.5 13.5t13.5 5.5q7 0 12.5 -5.5t5.5 -13.5t-5.5 -13.5t-12.5 -5.5zM67 586q-8 0 -13 5.5t-5 13.5q0 7 5.5 12.5t12.5 5.5q8 0 13.5 -5t5.5 -13q0 -19 -19 -19zM103 640q-8 0 -13.5 5.5t-5.5 12.5q0 8 5.5 13.5t13.5 5.5t13.5 -5.5 t5.5 -13.5q0 -7 -5.5 -12.5t-13.5 -5.5zM295 540q0 -8 -5.5 -13.5t-13.5 -5.5t-13.5 5.5t-5.5 13.5t5.5 13.5t13.5 5.5t13.5 -5.5t5.5 -13.5zM286 605q0 -19 -19 -19q-8 0 -13.5 5.5t-5.5 13.5q0 7 5.5 12.5t13.5 5.5t13.5 -5t5.5 -13zM250 658q0 -8 -5 -13t-13 -5t-13.5 5 t-5.5 13q0 19 19 19q8 0 13 -5.5t5 -13.5zM186 671q0 -7 -6 -13t-13 -6t-13 6t-6 13t6 13t13 6t13 -6t6 -13zM49 477q0 8 5 13.5t13 5.5q19 0 19 -19q0 -8 -5.5 -13t-13.5 -5q-7 0 -12.5 5.5t-5.5 12.5zM84 424q0 7 5.5 12.5t13.5 5.5t13.5 -5.5t5.5 -12.5q0 -8 -5.5 -13.5 t-13.5 -5.5t-13.5 5.5t-5.5 13.5zM267 496q19 0 19 -19q0 -8 -5.5 -13t-13.5 -5t-13.5 5.5t-5.5 12.5q0 8 5.5 13.5t13.5 5.5zM232 442q8 0 13 -5t5 -13t-5 -13.5t-13 -5.5q-19 0 -19 19q0 8 5.5 13t13.5 5zM167 430q7 0 13 -6t6 -13t-6 -13t-13 -6t-13 6t-6 13t6 13t13 6z " />
</font>
</defs>
</svg>
